  0
SECTION
  2
HEADER
  0
ENDSEC
  0
SECTION
  2
TABLES
  0
TABLE
  2
LAYER
  70
    153
  0
LAYER
  2
NURBS
 70
0
 62
15
  6
CONTINUOUS
  0
ENDTAB
  0
ENDSEC
  0
SECTION
  2
ENTITIES
  0
3DFACE
  8
NURBS
 10
1.077134
 20
1.636716
 30
0.048909
 11
1.198159
 21
1.669774
 31
0.048933
 12
1.323074
 22
1.681250
 32
0.048953
 13
1.323074
 23
1.681250
 33
0.048953
 62
0
  0
3DFACE
  8
NURBS
 10
1.448083
 20
1.670799
 30
0.048966
 11
1.077134
 21
1.636716
 31
0.048909
 12
1.323074
 22
1.681250
 32
0.048953
 13
1.323074
 23
1.681250
 33
0.048953
 62
0
  0
3DFACE
  8
NURBS
 10
0.963676
 20
1.583080
 30
0.048880
 11
1.077134
 21
1.636716
 31
0.048909
 12
1.448083
 22
1.670799
 32
0.048966
 13
1.448083
 23
1.670799
 33
0.048966
 62
0
  0
3DFACE
  8
NURBS
 10
1.569387
 20
1.638733
 30
0.048974
 11
0.963676
 21
1.583080
 31
0.048880
 12
1.448083
 22
1.670799
 32
0.048966
 13
1.448083
 23
1.670799
 33
0.048966
 62
0
  0
3DFACE
  8
NURBS
 10
0.861232
 20
1.510499
 30
0.048847
 11
0.963676
 21
1.583080
 31
0.048880
 12
1.569387
 22
1.638733
 32
0.048974
 13
1.569387
 23
1.638733
 33
0.048974
 62
0
  0
3DFACE
  8
NURBS
 10
1.683301
 20
1.586030
 30
0.048975
 11
0.861232
 21
1.510499
 31
0.048847
 12
1.569387
 22
1.638733
 32
0.048974
 13
1.569387
 23
1.638733
 33
0.048974
 62
0
  0
3DFACE
  8
NURBS
 10
0.772914
 20
1.421174
 30
0.048812
 11
0.861232
 21
1.510499
 31
0.048847
 12
1.683301
 22
1.586030
 32
0.048975
 13
1.683301
 23
1.586030
 33
0.048975
 62
0
  0
3DFACE
  8
NURBS
 10
1.786363
 20
1.514290
 30
0.048969
 11
0.772914
 21
1.421174
 31
0.048812
 12
1.683301
 22
1.586030
 32
0.048975
 13
1.683301
 23
1.586030
 33
0.048975
 62
0
  0
3DFACE
  8
NURBS
 10
0.701406
 20
1.317821
 30
0.048776
 11
0.772914
 21
1.421174
 31
0.048812
 12
1.786363
 22
1.514290
 32
0.048969
 13
1.786363
 23
1.514290
 33
0.048969
 62
0
  0
3DFACE
  8
NURBS
 10
1.875443
 20
1.425691
 30
0.048957
 11
0.701406
 21
1.317821
 31
0.048776
 12
1.786363
 22
1.514290
 32
0.048969
 13
1.786363
 23
1.514290
 33
0.048969
 62
0
  0
3DFACE
  8
NURBS
 10
0.648882
 20
1.203582
 30
0.048739
 11
0.701406
 21
1.317821
 31
0.048776
 12
1.875443
 22
1.425691
 32
0.048957
 13
1.875443
 23
1.425691
 33
0.048957
 62
0
  0
3DFACE
  8
NURBS
 10
1.947835
 20
1.322929
 30
0.048940
 11
0.648882
 21
1.203582
 31
0.048739
 12
1.875443
 22
1.425691
 32
0.048957
 13
1.875443
 23
1.425691
 33
0.048957
 62
0
  0
3DFACE
  8
NURBS
 10
0.616936
 20
1.081928
 30
0.048703
 11
0.648882
 21
1.203582
 31
0.048739
 12
1.947835
 22
1.322929
 32
0.048940
 13
1.947835
 23
1.322929
 33
0.048940
 62
0
  0
3DFACE
  8
NURBS
 10
2.001336
 20
1.209126
 30
0.048917
 11
0.616936
 21
1.081928
 31
0.048703
 12
1.947835
 22
1.322929
 32
0.048940
 13
1.947835
 23
1.322929
 33
0.048940
 62
0
  0
3DFACE
  8
NURBS
 10
0.606541
 20
0.956554
 30
0.048668
 11
0.616936
 21
1.081928
 31
0.048703
 12
2.001336
 22
1.209126
 32
0.048917
 13
2.001336
 23
1.209126
 33
0.048917
 62
0
  0
3DFACE
  8
NURBS
 10
2.034323
 20
1.087738
 30
0.048889
 11
0.606541
 21
0.956554
 31
0.048668
 12
2.001336
 22
1.209126
 32
0.048917
 13
2.001336
 23
1.209126
 33
0.048917
 62
0
  0
3DFACE
  8
NURBS
 10
0.618011
 20
0.831268
 30
0.048637
 11
0.606541
 21
0.956554
 31
0.048668
 12
2.034323
 22
1.087738
 32
0.048889
 13
2.034323
 23
1.087738
 33
0.048889
 62
0
  0
3DFACE
  8
NURBS
 10
2.045793
 20
0.962453
 30
0.048857
 11
0.618011
 21
0.831268
 31
0.048637
 12
2.034323
 22
1.087738
 32
0.048889
 13
2.034323
 23
1.087738
 33
0.048889
 62
0
  0
3DFACE
  8
NURBS
 10
0.650998
 20
0.709880
 30
0.048609
 11
0.618011
 21
0.831268
 31
0.048637
 12
2.045793
 22
0.962453
 32
0.048857
 13
2.045793
 23
0.962453
 33
0.048857
 62
0
  0
3DFACE
  8
NURBS
 10
2.035398
 20
0.837078
 30
0.048823
 11
0.650998
 21
0.709880
 31
0.048609
 12
2.045793
 22
0.962453
 32
0.048857
 13
2.045793
 23
0.962453
 33
0.048857
 62
0
  0
3DFACE
  8
NURBS
 10
0.704499
 20
0.596075
 30
0.048586
 11
0.650998
 21
0.709880
 31
0.048609
 12
2.035398
 22
0.837078
 32
0.048823
 13
2.035398
 23
0.837078
 33
0.048823
 62
0
  0
3DFACE
  8
NURBS
 10
2.003453
 20
0.715423
 30
0.048787
 11
0.704499
 21
0.596075
 31
0.048586
 12
2.035398
 22
0.837078
 32
0.048823
 13
2.035398
 23
0.837078
 33
0.048823
 62
0
  0
3DFACE
  8
NURBS
 10
0.776891
 20
0.493315
 30
0.048568
 11
0.704499
 21
0.596075
 31
0.048586
 12
2.003453
 22
0.715423
 32
0.048787
 13
2.003453
 23
0.715423
 33
0.048787
 62
0
  0
3DFACE
  8
NURBS
 10
1.950928
 20
0.601184
 30
0.048750
 11
0.776891
 21
0.493315
 31
0.048568
 12
2.003453
 22
0.715423
 32
0.048787
 13
2.003453
 23
0.715423
 33
0.048787
 62
0
  0
3DFACE
  8
NURBS
 10
0.865970
 20
0.404721
 30
0.048556
 11
0.776891
 21
0.493315
 31
0.048568
 12
1.950928
 22
0.601184
 32
0.048750
 13
1.950928
 23
0.601184
 33
0.048750
 62
0
  0
3DFACE
  8
NURBS
 10
1.879421
 20
0.497836
 30
0.048713
 11
0.865970
 21
0.404721
 31
0.048556
 12
1.950928
 22
0.601184
 32
0.048750
 13
1.950928
 23
0.601184
 33
0.048750
 62
0
  0
3DFACE
  8
NURBS
 10
0.969034
 20
0.332982
 30
0.048551
 11
0.865970
 21
0.404721
 31
0.048556
 12
1.879421
 22
0.497836
 32
0.048713
 13
1.879421
 23
0.497836
 33
0.048713
 62
0
  0
3DFACE
  8
NURBS
 10
1.791105
 20
0.408513
 30
0.048678
 11
0.969034
 21
0.332982
 31
0.048551
 12
1.879421
 22
0.497836
 32
0.048713
 13
1.879421
 23
0.497836
 33
0.048713
 62
0
  0
3DFACE
  8
NURBS
 10
1.082949
 20
0.280278
 30
0.048552
 11
0.969034
 21
0.332982
 31
0.048551
 12
1.791105
 22
0.408513
 32
0.048678
 13
1.791105
 23
0.408513
 33
0.048678
 62
0
  0
3DFACE
  8
NURBS
 10
1.688660
 20
0.335931
 30
0.048646
 11
1.082949
 21
0.280278
 31
0.048552
 12
1.791105
 22
0.408513
 32
0.048678
 13
1.791105
 23
0.408513
 33
0.048678
 62
0
  0
3DFACE
  8
NURBS
 10
1.204253
 20
0.248214
 30
0.048559
 11
1.082949
 21
0.280278
 31
0.048552
 12
1.688660
 22
0.335931
 32
0.048646
 13
1.688660
 23
0.335931
 33
0.048646
 62
0
  0
3DFACE
  8
NURBS
 10
1.575202
 20
0.282297
 30
0.048617
 11
1.204253
 21
0.248214
 31
0.048559
 12
1.688660
 22
0.335931
 32
0.048646
 13
1.688660
 23
0.335931
 33
0.048646
 62
0
  0
3DFACE
  8
NURBS
 10
1.329262
 20
0.237761
 30
0.048573
 11
1.204253
 21
0.248214
 31
0.048559
 12
1.575202
 22
0.282297
 32
0.048617
 13
1.575202
 23
0.282297
 33
0.048617
 62
0
  0
3DFACE
  8
NURBS
 10
1.454177
 20
0.249238
 30
0.048592
 11
1.329262
 21
0.237761
 31
0.048573
 12
1.575202
 22
0.282297
 32
0.048617
 13
1.575202
 23
0.282297
 33
0.048617
 62
0
  0
3DFACE
  8
NURBS
 10
1.875443
 20
1.425691
 30
0.048957
 11
1.786363
 21
1.514290
 31
0.048969
 12
1.816958
 22
1.551179
 32
0.056742
 13
1.911959
 23
1.456691
 33
0.056729
 62
0
  0
3DFACE
  8
NURBS
 10
1.786363
 20
1.514290
 30
0.048969
 11
1.683301
 21
1.586030
 31
0.048975
 12
1.707046
 22
1.627689
 32
0.056747
 13
1.816958
 23
1.551179
 33
0.056742
 62
0
  0
3DFACE
  8
NURBS
 10
1.683301
 20
1.586030
 30
0.048975
 11
1.569387
 21
1.638733
 31
0.048974
 12
1.585560
 22
1.683894
 32
0.056746
 13
1.707046
 23
1.627689
 33
0.056747
 62
0
  0
3DFACE
  8
NURBS
 10
1.569387
 20
1.638733
 30
0.048974
 11
1.448083
 21
1.670799
 31
0.048966
 12
1.456192
 22
1.718092
 32
0.056739
 13
1.585560
 23
1.683894
 33
0.056746
 62
0
  0
3DFACE
  8
NURBS
 10
1.448083
 20
1.670799
 30
0.048966
 11
1.323074
 21
1.681250
 31
0.048953
 12
1.322875
 22
1.729238
 32
0.056724
 13
1.456192
 23
1.718092
 33
0.056739
 62
0
  0
3DFACE
  8
NURBS
 10
1.323074
 20
1.681250
 30
0.048953
 11
1.198159
 21
1.669774
 31
0.048933
 12
1.189657
 22
1.716999
 32
0.056704
 13
1.322875
 23
1.729238
 33
0.056724
 62
0
  0
3DFACE
  8
NURBS
 10
1.198159
 20
1.669774
 30
0.048933
 11
1.077134
 21
1.636716
 31
0.048909
 12
1.060587
 22
1.681744
 32
0.056677
 13
1.189657
 23
1.716999
 33
0.056704
 62
0
  0
3DFACE
  8
NURBS
 10
1.077134
 20
1.636716
 30
0.048909
 11
0.963676
 21
1.583080
 31
0.048880
 12
0.939588
 22
1.624543
 32
0.056647
 13
1.060587
 23
1.681744
 33
0.056677
 62
0
  0
3DFACE
  8
NURBS
 10
0.963676
 20
1.583080
 30
0.048880
 11
0.861232
 21
1.510499
 31
0.048847
 12
0.830334
 22
1.547137
 32
0.056612
 13
0.939588
 23
1.624543
 33
0.056647
 62
0
  0
3DFACE
  8
NURBS
 10
0.861232
 20
1.510499
 30
0.048847
 11
0.772914
 21
1.421174
 31
0.048812
 12
0.736146
 22
1.451875
 32
0.056574
 13
0.830334
 23
1.547137
 33
0.056612
 62
0
  0
3DFACE
  8
NURBS
 10
0.772914
 20
1.421174
 30
0.048812
 11
0.701406
 21
1.317821
 31
0.048776
 12
0.659885
 22
1.341651
 32
0.056535
 13
0.736146
 23
1.451875
 33
0.056574
 62
0
  0
3DFACE
  8
NURBS
 10
0.701406
 20
1.317821
 30
0.048776
 11
0.648882
 21
1.203582
 31
0.048739
 12
0.603870
 22
1.219818
 32
0.056496
 13
0.659885
 23
1.341651
 33
0.056535
 62
0
  0
3DFACE
  8
NURBS
 10
0.648882
 20
1.203582
 30
0.048739
 11
0.616936
 21
1.081928
 31
0.048703
 12
0.569801
 22
1.090078
 32
0.056457
 13
0.603870
 23
1.219818
 33
0.056496
 62
0
  0
3DFACE
  8
NURBS
 10
0.616936
 20
1.081928
 30
0.048703
 11
0.606541
 21
0.956554
 31
0.048668
 12
0.558715
 22
0.956369
 32
0.056421
 13
0.569801
 23
1.090078
 33
0.056457
 62
0
  0
3DFACE
  8
NURBS
 10
0.606541
 20
0.956554
 30
0.048668
 11
0.618011
 21
0.831268
 31
0.048637
 12
0.570947
 22
0.822756
 32
0.056387
 13
0.558715
 23
0.956369
 33
0.056421
 62
0
  0
3DFACE
  8
NURBS
 10
0.618011
 20
0.831268
 30
0.048637
 11
0.650998
 21
0.709880
 31
0.048609
 12
0.606127
 22
0.693299
 32
0.056358
 13
0.570947
 23
0.822756
 33
0.056387
 62
0
  0
3DFACE
  8
NURBS
 10
0.650998
 20
0.709880
 30
0.048609
 11
0.704499
 21
0.596075
 31
0.048586
 12
0.663184
 22
0.571929
 32
0.056333
 13
0.606127
 23
0.693299
 33
0.056358
 62
0
  0
3DFACE
  8
NURBS
 10
0.704499
 20
0.596075
 30
0.048586
 11
0.776891
 21
0.493315
 31
0.048568
 12
0.740388
 22
0.462338
 32
0.056314
 13
0.663184
 23
0.571929
 33
0.056333
 62
0
  0
3DFACE
  8
NURBS
 10
0.776891
 20
0.493315
 30
0.048568
 11
0.865970
 21
0.404721
 31
0.048556
 12
0.835387
 22
0.367855
 32
0.056302
 13
0.740388
 23
0.462338
 33
0.056314
 62
0
  0
3DFACE
  8
NURBS
 10
0.865970
 20
0.404721
 30
0.048556
 11
0.969034
 21
0.332982
 31
0.048551
 12
0.945303
 22
0.291347
 32
0.056296
 13
0.835387
 23
0.367855
 33
0.056302
 62
0
  0
3DFACE
  8
NURBS
 10
0.969034
 20
0.332982
 30
0.048551
 11
1.082949
 21
0.280278
 31
0.048552
 12
1.066789
 22
0.235140
 32
0.056297
 13
0.945303
 23
0.291347
 33
0.056296
 62
0
  0
3DFACE
  8
NURBS
 10
1.082949
 20
0.280278
 30
0.048552
 11
1.204253
 21
0.248214
 31
0.048559
 12
1.196157
 22
0.200944
 32
0.056305
 13
1.066789
 23
0.235140
 33
0.056297
 62
0
  0
3DFACE
  8
NURBS
 10
1.204253
 20
0.248214
 30
0.048559
 11
1.329262
 21
0.237761
 31
0.048573
 12
1.329474
 22
0.189796
 32
0.056319
 13
1.196157
 23
0.200944
 33
0.056305
 62
0
  0
3DFACE
  8
NURBS
 10
1.329262
 20
0.237761
 30
0.048573
 11
1.454177
 21
0.249238
 31
0.048592
 12
1.462692
 22
0.202036
 32
0.056340
 13
1.329474
 23
0.189796
 33
0.056319
 62
0
  0
3DFACE
  8
NURBS
 10
1.454177
 20
0.249238
 30
0.048592
 11
1.575202
 21
0.282297
 31
0.048617
 12
1.591762
 22
0.237292
 32
0.056366
 13
1.462692
 23
0.202036
 33
0.056340
 62
0
  0
3DFACE
  8
NURBS
 10
1.575202
 20
0.282297
 30
0.048617
 11
1.688660
 21
0.335931
 31
0.048646
 12
1.712761
 22
0.294492
 32
0.056397
 13
1.591762
 23
0.237292
 33
0.056366
 62
0
  0
3DFACE
  8
NURBS
 10
1.688660
 20
0.335931
 30
0.048646
 11
1.791105
 21
0.408513
 31
0.048678
 12
1.822015
 22
0.371899
 32
0.056431
 13
1.712761
 23
0.294492
 33
0.056397
 62
0
  0
3DFACE
  8
NURBS
 10
1.791105
 20
0.408513
 30
0.048678
 11
1.879421
 21
0.497836
 31
0.048713
 12
1.916201
 22
0.467159
 32
0.056469
 13
1.822015
 23
0.371899
 33
0.056431
 62
0
  0
3DFACE
  8
NURBS
 10
1.879421
 20
0.497836
 30
0.048713
 11
1.950928
 21
0.601184
 31
0.048750
 12
1.992462
 22
0.577377
 32
0.056508
 13
1.916201
 23
0.467159
 33
0.056469
 62
0
  0
3DFACE
  8
NURBS
 10
1.950928
 20
0.601184
 30
0.048750
 11
2.003453
 21
0.715423
 31
0.048787
 12
2.048477
 22
0.699210
 32
0.056547
 13
1.992462
 23
0.577377
 33
0.056508
 62
0
  0
3DFACE
  8
NURBS
 10
2.003453
 20
0.715423
 30
0.048787
 11
2.035398
 21
0.837078
 31
0.048823
 12
2.082546
 22
0.828951
 32
0.056586
 13
2.048477
 23
0.699210
 33
0.056547
 62
0
  0
3DFACE
  8
NURBS
 10
2.035398
 20
0.837078
 30
0.048823
 11
2.045793
 21
0.962453
 31
0.048857
 12
2.093632
 22
0.962660
 32
0.056622
 13
2.082546
 23
0.828951
 33
0.056586
 62
0
  0
3DFACE
  8
NURBS
 10
2.045793
 20
0.962453
 30
0.048857
 11
2.034323
 21
1.087738
 31
0.048889
 12
2.081400
 22
1.096273
 32
0.056656
 13
2.093632
 23
0.962660
 33
0.056622
 62
0
  0
3DFACE
  8
NURBS
 10
2.034323
 20
1.087738
 30
0.048889
 11
2.001336
 21
1.209126
 31
0.048917
 12
2.046220
 22
1.225731
 32
0.056686
 13
2.081400
 23
1.096273
 33
0.056656
 62
0
  0
3DFACE
  8
NURBS
 10
2.001336
 20
1.209126
 30
0.048917
 11
1.947835
 21
1.322929
 31
0.048940
 12
1.989163
 22
1.347098
 32
0.056710
 13
2.046220
 23
1.225731
 33
0.056686
 62
0
  0
3DFACE
  8
NURBS
 10
1.947835
 20
1.322929
 30
0.048940
 11
1.875443
 21
1.425691
 31
0.048957
 12
1.911959
 22
1.456691
 32
0.056729
 13
1.989163
 23
1.347098
 33
0.056710
 62
0
  0
3DFACE
  8
NURBS
 10
1.071295
 20
1.658681
 30
0.005049
 11
1.324150
 21
1.704293
 31
0.005053
 12
1.195710
 22
1.692614
 32
0.005051
 13
1.195710
 23
1.692614
 33
0.005051
 62
0
  0
3DFACE
  8
NURBS
 10
1.452715
 20
1.693366
 30
0.005054
 11
1.324150
 21
1.704293
 31
0.005053
 12
1.071295
 22
1.658681
 32
0.005049
 13
1.071295
 23
1.658681
 33
0.005049
 62
0
  0
3DFACE
  8
NURBS
 10
0.954687
 20
1.603526
 30
0.005046
 11
1.452715
 21
1.693366
 31
0.005054
 12
1.071295
 22
1.658681
 32
0.005049
 13
1.071295
 23
1.658681
 33
0.005049
 62
0
  0
3DFACE
  8
NURBS
 10
1.577496
 20
1.660162
 30
0.005055
 11
1.452715
 21
1.693366
 31
0.005054
 12
0.954687
 22
1.603526
 32
0.005046
 13
0.954687
 23
1.603526
 33
0.005046
 62
0
  0
3DFACE
  8
NURBS
 10
0.849429
 20
1.528826
 30
0.005043
 11
1.577496
 21
1.660162
 31
0.005055
 12
0.954687
 22
1.603526
 32
0.005046
 13
0.954687
 23
1.603526
 33
0.005046
 62
0
  0
3DFACE
  8
NURBS
 10
1.694703
 20
1.605692
 30
0.005055
 11
1.577496
 21
1.660162
 31
0.005055
 12
0.849429
 22
1.528826
 32
0.005043
 13
0.849429
 23
1.528826
 33
0.005043
 62
0
  0
3DFACE
  8
NURBS
 10
0.758718
 20
1.436849
 30
0.005040
 11
1.694703
 21
1.605692
 31
0.005055
 12
0.849429
 22
1.528826
 32
0.005043
 13
0.849429
 23
1.528826
 33
0.005043
 62
0
  0
3DFACE
  8
NURBS
 10
1.800774
 20
1.531610
 30
0.005055
 11
1.694703
 21
1.605692
 31
0.005055
 12
0.758718
 22
1.436849
 32
0.005040
 13
0.758718
 23
1.436849
 33
0.005040
 62
0
  0
3DFACE
  8
NURBS
 10
0.685311
 20
1.330391
 30
0.005037
 11
1.800774
 21
1.531610
 31
0.005055
 12
0.758718
 22
1.436849
 32
0.005040
 13
0.758718
 23
1.436849
 33
0.005040
 62
0
  0
3DFACE
  8
NURBS
 10
1.892488
 20
1.440167
 30
0.005054
 11
1.800774
 21
1.531610
 31
0.005055
 12
0.685311
 22
1.330391
 32
0.005037
 13
0.685311
 23
1.330391
 33
0.005037
 62
0
  0
3DFACE
  8
NURBS
 10
0.631438
 20
1.212685
 30
0.005034
 11
1.892488
 21
1.440167
 31
0.005054
 12
0.685311
 22
1.330391
 32
0.005037
 13
0.685311
 23
1.330391
 33
0.005037
 62
0
  0
3DFACE
  8
NURBS
 10
1.967055
 20
1.334142
 30
0.005052
 11
1.892488
 21
1.440167
 31
0.005054
 12
0.631438
 22
1.212685
 32
0.005034
 13
0.631438
 23
1.212685
 33
0.005034
 62
0
  0
3DFACE
  8
NURBS
 10
0.598737
 20
1.087310
 30
0.005031
 11
1.967055
 21
1.334142
 31
0.005052
 12
0.631438
 22
1.212685
 32
0.005034
 13
0.631438
 23
1.212685
 33
0.005034
 62
0
  0
3DFACE
  8
NURBS
 10
2.022212
 20
1.216756
 30
0.005050
 11
1.967055
 21
1.334142
 31
0.005052
 12
0.598737
 22
1.087310
 32
0.005031
 13
0.598737
 23
1.087310
 33
0.005031
 62
0
  0
3DFACE
  8
NURBS
 10
0.588200
 20
0.958073
 30
0.005028
 11
2.022212
 21
1.216756
 31
0.005050
 12
0.598737
 22
1.087310
 32
0.005031
 13
0.598737
 23
1.087310
 33
0.005031
 62
0
  0
3DFACE
  8
NURBS
 10
2.056283
 20
1.091575
 30
0.005048
 11
2.022212
 21
1.216756
 31
0.005050
 12
0.588200
 22
0.958073
 32
0.005028
 13
0.588200
 23
0.958073
 33
0.005028
 62
0
  0
3DFACE
  8
NURBS
 10
0.600149
 20
0.828902
 30
0.005025
 11
2.056283
 21
1.091575
 31
0.005048
 12
0.588200
 22
0.958073
 32
0.005028
 13
0.588200
 23
0.958073
 33
0.005028
 62
0
  0
3DFACE
  8
NURBS
 10
2.068232
 20
0.962404
 30
0.005045
 11
2.056283
 21
1.091575
 31
0.005048
 12
0.600149
 22
0.828902
 32
0.005025
 13
0.600149
 23
0.828902
 33
0.005025
 62
0
  0
3DFACE
  8
NURBS
 10
0.634219
 20
0.703722
 30
0.005022
 11
2.068232
 21
0.962404
 31
0.005045
 12
0.600149
 22
0.828902
 32
0.005025
 13
0.600149
 23
0.828902
 33
0.005025
 62
0
  0
3DFACE
  8
NURBS
 10
2.057695
 20
0.833167
 30
0.005042
 11
2.068232
 21
0.962404
 31
0.005045
 12
0.634219
 22
0.703722
 32
0.005022
 13
0.634219
 23
0.703722
 33
0.005022
 62
0
  0
3DFACE
  8
NURBS
 10
0.689376
 20
0.586335
 30
0.005020
 11
2.057695
 21
0.833167
 31
0.005042
 12
0.634219
 22
0.703722
 32
0.005022
 13
0.634219
 23
0.703722
 33
0.005022
 62
0
  0
3DFACE
  8
NURBS
 10
2.024994
 20
0.707792
 30
0.005039
 11
2.057695
 21
0.833167
 31
0.005042
 12
0.689376
 22
0.586335
 32
0.005020
 13
0.689376
 23
0.586335
 33
0.005020
 62
0
  0
3DFACE
  8
NURBS
 10
0.763944
 20
0.480310
 30
0.005019
 11
2.024994
 21
0.707792
 31
0.005039
 12
0.689376
 22
0.586335
 32
0.005020
 13
0.689376
 23
0.586335
 33
0.005020
 62
0
  0
3DFACE
  8
NURBS
 10
1.971121
 20
0.590086
 30
0.005035
 11
2.024994
 21
0.707792
 31
0.005039
 12
0.763944
 22
0.480310
 32
0.005019
 13
0.763944
 23
0.480310
 33
0.005019
 62
0
  0
3DFACE
  8
NURBS
 10
0.855657
 20
0.388867
 30
0.005018
 11
1.971121
 21
0.590086
 31
0.005035
 12
0.763944
 22
0.480310
 32
0.005019
 13
0.763944
 23
0.480310
 33
0.005019
 62
0
  0
3DFACE
  8
NURBS
 10
1.897714
 20
0.483628
 30
0.005032
 11
1.971121
 21
0.590086
 31
0.005035
 12
0.855657
 22
0.388867
 32
0.005018
 13
0.855657
 23
0.388867
 33
0.005018
 62
0
  0
3DFACE
  8
NURBS
 10
0.961728
 20
0.314785
 30
0.005018
 11
1.897714
 21
0.483628
 31
0.005032
 12
0.855657
 22
0.388867
 32
0.005018
 13
0.855657
 23
0.388867
 33
0.005018
 62
0
  0
3DFACE
  8
NURBS
 10
1.807003
 20
0.391651
 30
0.005029
 11
1.897714
 21
0.483628
 31
0.005032
 12
0.961728
 22
0.314785
 32
0.005018
 13
0.961728
 23
0.314785
 33
0.005018
 62
0
  0
3DFACE
  8
NURBS
 10
1.078936
 20
0.260314
 30
0.005018
 11
1.807003
 21
0.391651
 31
0.005029
 12
0.961728
 22
0.314785
 32
0.005018
 13
0.961728
 23
0.314785
 33
0.005018
 62
0
  0
3DFACE
  8
NURBS
 10
1.701744
 20
0.316950
 30
0.005026
 11
1.807003
 21
0.391651
 31
0.005029
 12
1.078936
 22
0.260314
 32
0.005018
 13
1.078936
 23
0.260314
 33
0.005018
 62
0
  0
3DFACE
  8
NURBS
 10
1.203717
 20
0.227111
 30
0.005018
 11
1.701744
 21
0.316950
 31
0.005026
 12
1.078936
 22
0.260314
 32
0.005018
 13
1.078936
 23
0.260314
 33
0.005018
 62
0
  0
3DFACE
  8
NURBS
 10
1.585136
 20
0.261795
 30
0.005024
 11
1.701744
 21
0.316950
 31
0.005026
 12
1.203717
 22
0.227111
 32
0.005018
 13
1.203717
 23
0.227111
 33
0.005018
 62
0
  0
3DFACE
  8
NURBS
 10
1.332281
 20
0.216183
 30
0.005020
 11
1.585136
 21
0.261795
 31
0.005024
 12
1.203717
 22
0.227111
 32
0.005018
 13
1.203717
 23
0.227111
 33
0.005018
 62
0
  0
3DFACE
  8
NURBS
 10
1.460722
 20
0.227863
 30
0.005021
 11
1.585136
 21
0.261795
 31
0.005024
 12
1.332281
 22
0.216183
 32
0.005020
 13
1.332281
 23
0.216183
 33
0.005020
 62
0
  0
3DFACE
  8
NURBS
 10
1.828504
 20
1.564526
 30
0.010379
 11
1.800774
 21
1.531610
 31
0.005055
 12
1.892488
 22
1.440167
 32
0.005054
 13
1.925532
 23
1.467785
 33
0.010378
 62
0
  0
3DFACE
  8
NURBS
 10
1.716285
 20
1.642901
 30
0.010379
 11
1.694703
 21
1.605692
 31
0.005055
 12
1.800774
 22
1.531610
 32
0.005055
 13
1.828504
 23
1.564526
 33
0.010379
 62
0
  0
3DFACE
  8
NURBS
 10
1.592286
 20
1.700529
 30
0.010379
 11
1.577496
 21
1.660162
 31
0.005055
 12
1.694703
 22
1.605692
 32
0.005055
 13
1.716285
 23
1.642901
 33
0.010379
 62
0
  0
3DFACE
  8
NURBS
 10
1.460273
 20
1.735656
 30
0.010378
 11
1.452715
 21
1.693366
 31
0.005054
 12
1.577496
 22
1.660162
 32
0.005055
 13
1.592286
 23
1.700529
 33
0.010379
 62
0
  0
3DFACE
  8
NURBS
 10
1.324259
 20
1.747217
 30
0.010377
 11
1.324150
 21
1.704293
 31
0.005053
 12
1.452715
 22
1.693366
 32
0.005054
 13
1.460273
 23
1.735656
 33
0.010378
 62
0
  0
3DFACE
  8
NURBS
 10
1.188375
 20
1.734861
 30
0.010375
 11
1.195710
 21
1.692614
 31
0.005051
 12
1.324150
 22
1.704293
 32
0.005053
 13
1.324259
 23
1.747217
 33
0.010377
 62
0
  0
3DFACE
  8
NURBS
 10
1.056751
 20
1.698961
 30
0.010373
 11
1.071295
 21
1.658681
 31
0.005049
 12
1.195710
 22
1.692614
 32
0.005051
 13
1.188375
 23
1.734861
 33
0.010375
 62
0
  0
3DFACE
  8
NURBS
 10
0.933385
 20
1.640610
 30
0.010370
 11
0.954687
 21
1.603526
 31
0.005046
 12
1.071295
 22
1.658681
 32
0.005049
 13
1.056751
 23
1.698961
 33
0.010373
 62
0
  0
3DFACE
  8
NURBS
 10
0.822027
 20
1.561581
 30
0.010367
 11
0.849429
 21
1.528826
 31
0.005043
 12
0.954687
 22
1.603526
 32
0.005046
 13
0.933385
 23
1.640610
 33
0.010370
 62
0
  0
3DFACE
  8
NURBS
 10
0.726058
 20
1.464274
 30
0.010364
 11
0.758718
 21
1.436849
 31
0.005040
 12
0.849429
 22
1.528826
 32
0.005043
 13
0.822027
 23
1.561581
 33
0.010367
 62
0
  0
3DFACE
  8
NURBS
 10
0.648398
 20
1.351646
 30
0.010360
 11
0.685311
 21
1.330391
 31
0.005037
 12
0.758718
 22
1.436849
 32
0.005040
 13
0.726058
 23
1.464274
 33
0.010364
 62
0
  0
3DFACE
  8
NURBS
 10
0.591403
 20
1.227120
 30
0.010357
 11
0.631438
 21
1.212685
 31
0.005034
 12
0.685311
 22
1.330391
 32
0.005037
 13
0.648398
 23
1.351646
 33
0.010360
 62
0
  0
3DFACE
  8
NURBS
 10
0.556807
 20
1.094478
 30
0.010353
 11
0.598737
 21
1.087310
 31
0.005031
 12
0.631438
 22
1.212685
 32
0.005034
 13
0.591403
 23
1.227120
 33
0.010357
 62
0
  0
3DFACE
  8
NURBS
 10
0.545659
 20
0.957752
 30
0.010350
 11
0.588200
 21
0.958073
 31
0.005028
 12
0.598737
 22
1.087310
 32
0.005031
 13
0.556807
 23
1.094478
 33
0.010353
 62
0
  0
3DFACE
  8
NURBS
 10
0.558300
 20
0.821095
 30
0.010347
 11
0.600149
 21
0.828902
 31
0.005025
 12
0.588200
 22
0.958073
 32
0.005028
 13
0.545659
 23
0.957752
 33
0.010350
 62
0
  0
3DFACE
  8
NURBS
 10
0.594345
 20
0.688661
 30
0.010345
 11
0.634219
 21
0.703722
 31
0.005022
 12
0.600149
 22
0.828902
 32
0.005025
 13
0.558300
 23
0.821095
 33
0.010347
 62
0
  0
3DFACE
  8
NURBS
 10
0.652699
 20
0.564472
 30
0.010343
 11
0.689376
 21
0.586335
 31
0.005020
 12
0.634219
 22
0.703722
 32
0.005022
 13
0.594345
 23
0.688661
 33
0.010345
 62
0
  0
3DFACE
  8
NURBS
 10
0.731587
 20
0.452302
 30
0.010341
 11
0.763944
 21
0.480310
 31
0.005019
 12
0.689376
 22
0.586335
 32
0.005020
 13
0.652699
 23
0.564472
 33
0.010343
 62
0
  0
3DFACE
  8
NURBS
 10
0.828615
 20
0.355560
 30
0.010340
 11
0.855657
 21
0.388867
 31
0.005018
 12
0.763944
 22
0.480310
 32
0.005019
 13
0.731587
 23
0.452302
 33
0.010341
 62
0
  0
3DFACE
  8
NURBS
 10
0.940834
 20
0.277184
 30
0.010340
 11
0.961728
 21
0.314785
 31
0.005018
 12
0.855657
 22
0.388867
 32
0.005018
 13
0.828615
 23
0.355560
 33
0.010340
 62
0
  0
3DFACE
  8
NURBS
 10
1.064834
 20
0.219557
 30
0.010340
 11
1.078936
 21
0.260314
 31
0.005018
 12
0.961728
 22
0.314785
 32
0.005018
 13
0.940834
 23
0.277184
 33
0.010340
 62
0
  0
3DFACE
  8
NURBS
 10
1.196846
 20
0.184430
 30
0.010340
 11
1.203717
 21
0.227111
 31
0.005018
 12
1.078936
 22
0.260314
 32
0.005018
 13
1.064834
 23
0.219557
 33
0.010340
 62
0
  0
3DFACE
  8
NURBS
 10
1.332861
 20
0.172869
 30
0.010342
 11
1.332281
 21
0.216183
 31
0.005020
 12
1.203717
 22
0.227111
 32
0.005018
 13
1.196846
 23
0.184430
 33
0.010340
 62
0
  0
3DFACE
  8
NURBS
 10
1.468745
 20
0.185225
 30
0.010344
 11
1.460722
 21
0.227863
 31
0.005021
 12
1.332281
 22
0.216183
 32
0.005020
 13
1.332861
 23
0.172869
 33
0.010342
 62
0
  0
3DFACE
  8
NURBS
 10
1.600369
 20
0.221124
 30
0.010346
 11
1.585136
 21
0.261795
 31
0.005024
 12
1.460722
 22
0.227863
 32
0.005021
 13
1.468745
 23
0.185225
 33
0.010344
 62
0
  0
3DFACE
  8
NURBS
 10
1.723735
 20
0.279476
 30
0.010349
 11
1.701744
 21
0.316950
 31
0.005026
 12
1.585136
 22
0.261795
 32
0.005024
 13
1.600369
 23
0.221124
 33
0.010346
 62
0
  0
3DFACE
  8
NURBS
 10
1.835093
 20
0.358505
 30
0.010352
 11
1.807003
 21
0.391651
 31
0.005029
 12
1.701744
 22
0.316950
 32
0.005026
 13
1.723735
 23
0.279476
 33
0.010349
 62
0
  0
3DFACE
  8
NURBS
 10
1.931061
 20
0.455812
 30
0.010355
 11
1.897714
 21
0.483628
 31
0.005032
 12
1.807003
 22
0.391651
 32
0.005029
 13
1.835093
 23
0.358505
 33
0.010352
 62
0
  0
3DFACE
  8
NURBS
 10
2.008722
 20
0.568440
 30
0.010358
 11
1.971121
 21
0.590086
 31
0.005035
 12
1.897714
 22
0.483628
 32
0.005032
 13
1.931061
 23
0.455812
 33
0.010355
 62
0
  0
3DFACE
  8
NURBS
 10
2.065717
 20
0.692967
 30
0.010362
 11
2.024994
 21
0.707792
 31
0.005039
 12
1.971121
 22
0.590086
 32
0.005035
 13
2.008722
 23
0.568440
 33
0.010358
 62
0
  0
3DFACE
  8
NURBS
 10
2.100313
 20
0.825608
 30
0.010365
 11
2.057695
 21
0.833167
 31
0.005042
 12
2.024994
 22
0.707792
 32
0.005039
 13
2.065717
 23
0.692967
 33
0.010362
 62
0
  0
3DFACE
  8
NURBS
 10
2.111461
 20
0.962335
 30
0.010368
 11
2.068232
 21
0.962404
 31
0.005045
 12
2.057695
 22
0.833167
 32
0.005042
 13
2.100313
 23
0.825608
 33
0.010365
 62
0
  0
3DFACE
  8
NURBS
 10
2.098819
 20
1.098991
 30
0.010371
 11
2.056283
 21
1.091575
 31
0.005048
 12
2.068232
 22
0.962404
 32
0.005045
 13
2.111461
 23
0.962335
 33
0.010368
 62
0
  0
3DFACE
  8
NURBS
 10
2.062774
 20
1.231426
 30
0.010374
 11
2.022212
 21
1.216756
 31
0.005050
 12
2.056283
 22
1.091575
 32
0.005048
 13
2.098819
 23
1.098991
 33
0.010371
 62
0
  0
3DFACE
  8
NURBS
 10
2.004421
 20
1.355615
 30
0.010376
 11
1.967055
 21
1.334142
 31
0.005052
 12
2.022212
 22
1.216756
 32
0.005050
 13
2.062774
 23
1.231426
 33
0.010374
 62
0
  0
3DFACE
  8
NURBS
 10
1.925532
 20
1.467785
 30
0.010378
 11
1.892488
 21
1.440167
 31
0.005054
 12
1.967055
 22
1.334142
 32
0.005052
 13
2.004421
 23
1.355615
 33
0.010376
 62
0
  0
3DFACE
  8
NURBS
 10
2.017110
 20
1.545997
 30
0.165890
 11
1.905190
 21
1.657741
 31
0.165890
 12
1.895046
 22
1.644935
 32
0.085467
 13
2.004973
 23
1.535259
 33
0.085467
 62
0
  0
3DFACE
  8
NURBS
 10
1.905190
 20
1.657741
 30
0.165890
 11
1.775758
 21
1.748281
 31
0.165890
 12
1.767917
 22
1.733796
 32
0.085467
 13
1.895046
 23
1.644935
 33
0.085467
 62
0
  0
3DFACE
  8
NURBS
 10
1.775758
 20
1.748281
 30
0.165890
 11
1.632748
 21
1.814864
 31
0.165890
 12
1.627447
 22
1.799141
 32
0.085467
 13
1.767917
 23
1.733796
 33
0.085467
 62
0
  0
3DFACE
  8
NURBS
 10
1.632748
 20
1.814864
 30
0.165890
 11
1.480504
 21
1.855469
 31
0.165890
 12
1.477905
 22
1.838984
 32
0.085467
 13
1.627447
 23
1.799141
 33
0.085467
 62
0
  0
3DFACE
  8
NURBS
 10
1.480504
 20
1.855469
 30
0.165890
 11
1.323653
 21
1.868862
 31
0.165890
 12
1.323835
 22
1.852117
 32
0.085467
 13
1.477905
 23
1.838984
 33
0.085467
 62
0
  0
3DFACE
  8
NURBS
 10
1.323653
 20
1.868862
 30
0.165890
 11
1.166959
 21
1.854634
 31
0.165890
 12
1.169917
 22
1.838138
 32
0.085467
 13
1.323835
 23
1.852117
 33
0.085467
 62
0
  0
3DFACE
  8
NURBS
 10
1.166959
 20
1.854634
 30
0.165890
 11
1.015185
 21
1.813219
 31
0.165890
 12
1.020829
 22
1.797473
 32
0.085467
 13
1.169917
 23
1.838138
 33
0.085467
 62
0
  0
3DFACE
  8
NURBS
 10
1.015185
 20
1.813219
 30
0.165890
 11
0.872941
 21
1.745875
 31
0.165889
 12
0.881101
 22
1.731358
 32
0.085466
 13
1.020829
 23
1.797473
 33
0.085467
 62
0
  0
3DFACE
  8
NURBS
 10
0.872941
 20
1.745875
 30
0.165889
 11
0.744550
 21
1.654649
 31
0.165889
 12
0.754978
 22
1.641801
 32
0.085466
 13
0.881101
 23
1.731358
 33
0.085466
 62
0
  0
3DFACE
  8
NURBS
 10
0.744550
 20
1.654649
 30
0.165889
 11
0.633913
 21
1.542311
 31
0.165889
 12
0.646292
 22
1.531523
 32
0.085466
 13
0.754978
 23
1.641801
 33
0.085466
 62
0
  0
3DFACE
  8
NURBS
 10
0.633913
 20
1.542311
 30
0.165889
 11
0.544392
 21
1.412276
 31
0.165889
 12
0.558346
 22
1.403876
 32
0.085466
 13
0.646292
 23
1.531523
 33
0.085466
 62
0
  0
3DFACE
  8
NURBS
 10
0.544392
 20
1.412276
 30
0.165889
 11
0.478705
 21
1.268495
 31
0.165889
 12
0.493812
 22
1.262738
 32
0.085466
 13
0.558346
 23
1.403876
 33
0.085466
 62
0
  0
3DFACE
  8
NURBS
 10
0.478705
 20
1.268495
 30
0.165889
 11
0.438851
 21
1.115335
 31
0.165888
 12
0.454650
 22
1.112396
 32
0.085465
 13
0.493812
 23
1.262738
 33
0.085466
 62
0
  0
3DFACE
  8
NURBS
 10
0.438851
 20
1.115335
 30
0.165888
 11
0.426039
 21
0.957452
 31
0.165888
 12
0.442051
 22
0.957420
 32
0.085465
 13
0.454650
 23
1.112396
 33
0.085465
 62
0
  0
3DFACE
  8
NURBS
 10
0.426039
 20
0.957452
 30
0.165888
 11
0.440658
 21
0.799642
 31
0.165888
 12
0.456398
 22
0.802518
 32
0.085465
 13
0.442051
 23
0.957420
 33
0.085465
 62
0
  0
3DFACE
  8
NURBS
 10
0.440658
 20
0.799642
 30
0.165888
 11
0.482265
 21
0.646699
 31
0.165888
 12
0.497254
 22
0.652397
 32
0.085465
 13
0.456398
 23
0.802518
 33
0.085465
 62
0
  0
3DFACE
  8
NURBS
 10
0.482265
 20
0.646699
 30
0.165888
 11
0.549595
 21
0.503272
 31
0.165888
 12
0.563378
 22
0.511618
 32
0.085465
 13
0.497254
 23
0.652397
 33
0.085465
 62
0
  0
3DFACE
  8
NURBS
 10
0.549595
 20
0.503272
 30
0.165888
 11
0.640603
 21
0.373718
 31
0.165888
 12
0.652762
 22
0.384459
 32
0.085465
 13
0.563378
 23
0.511618
 33
0.085465
 62
0
  0
3DFACE
  8
NURBS
 10
0.640603
 20
0.373718
 30
0.165888
 11
0.752522
 21
0.261974
 31
0.165887
 12
0.762688
 22
0.274782
 32
0.085464
 13
0.652762
 23
0.384459
 33
0.085465
 62
0
  0
3DFACE
  8
NURBS
 10
0.752522
 20
0.261974
 30
0.165887
 11
0.881954
 21
0.171434
 31
0.165887
 12
0.889818
 22
0.185921
 32
0.085464
 13
0.762688
 23
0.274782
 33
0.085464
 62
0
  0
3DFACE
  8
NURBS
 10
0.881954
 20
0.171434
 30
0.165887
 11
1.024964
 21
0.104850
 31
0.165887
 12
1.030287
 22
0.120576
 32
0.085464
 13
0.889818
 23
0.185921
 33
0.085464
 62
0
  0
3DFACE
  8
NURBS
 10
1.024964
 20
0.104850
 30
0.165887
 11
1.177208
 21
0.064245
 31
0.165887
 12
1.179829
 22
0.080733
 32
0.085464
 13
1.030287
 23
0.120576
 33
0.085464
 62
0
  0
3DFACE
  8
NURBS
 10
1.177208
 20
0.064245
 30
0.165887
 11
1.334060
 21
0.050853
 31
0.165887
 12
1.333900
 22
0.067601
 32
0.085464
 13
1.179829
 23
0.080733
 33
0.085464
 62
0
  0
3DFACE
  8
NURBS
 10
1.334060
 20
0.050853
 30
0.165887
 11
1.490753
 21
0.065080
 31
0.165887
 12
1.487818
 22
0.081579
 32
0.085465
 13
1.333900
 23
0.067601
 33
0.085464
 62
0
  0
3DFACE
  8
NURBS
 10
1.490753
 20
0.065080
 30
0.165887
 11
1.642528
 21
0.106495
 31
0.165888
 12
1.636906
 22
0.122244
 32
0.085465
 13
1.487818
 23
0.081579
 33
0.085465
 62
0
  0
3DFACE
  8
NURBS
 10
1.642528
 20
0.106495
 30
0.165888
 11
1.784771
 21
0.173839
 31
0.165888
 12
1.776634
 22
0.188359
 32
0.085465
 13
1.636906
 23
0.122244
 33
0.085465
 62
0
  0
3DFACE
  8
NURBS
 10
1.784771
 20
0.173839
 30
0.165888
 11
1.913162
 21
0.265066
 31
0.165888
 12
1.902757
 22
0.277917
 32
0.085465
 13
1.776634
 23
0.188359
 33
0.085465
 62
0
  0
3DFACE
  8
NURBS
 10
1.913162
 20
0.265066
 30
0.165888
 11
2.023799
 21
0.377403
 31
0.165888
 12
2.011443
 22
0.388194
 32
0.085465
 13
1.902757
 23
0.277917
 33
0.085465
 62
0
  0
3DFACE
  8
NURBS
 10
2.023799
 20
0.377403
 30
0.165888
 11
2.113321
 21
0.507438
 31
0.165888
 12
2.099389
 22
0.515841
 32
0.085465
 13
2.011443
 23
0.388194
 33
0.085465
 62
0
  0
3DFACE
  8
NURBS
 10
2.113321
 20
0.507438
 30
0.165888
 11
2.179007
 21
0.651220
 31
0.165889
 12
2.163923
 22
0.656980
 32
0.085466
 13
2.099389
 23
0.515841
 33
0.085465
 62
0
  0
3DFACE
  8
NURBS
 10
2.179007
 20
0.651220
 30
0.165889
 11
2.218861
 21
0.804379
 31
0.165889
 12
2.203085
 22
0.807321
 32
0.085466
 13
2.163923
 23
0.656980
 33
0.085466
 62
0
  0
3DFACE
  8
NURBS
 10
2.218861
 20
0.804379
 30
0.165889
 11
2.231674
 21
0.962263
 31
0.165889
 12
2.215684
 22
0.962297
 32
0.085466
 13
2.203085
 23
0.807321
 33
0.085466
 62
0
  0
3DFACE
  8
NURBS
 10
2.231674
 20
0.962263
 30
0.165889
 11
2.217054
 21
1.120073
 31
0.165889
 12
2.201337
 22
1.117199
 32
0.085466
 13
2.215684
 23
0.962297
 33
0.085466
 62
0
  0
3DFACE
  8
NURBS
 10
2.217054
 20
1.120073
 30
0.165889
 11
2.175447
 21
1.273016
 31
0.165889
 12
2.160481
 22
1.267321
 32
0.085466
 13
2.201337
 23
1.117199
 33
0.085466
 62
0
  0
3DFACE
  8
NURBS
 10
2.175447
 20
1.273016
 30
0.165889
 11
2.108117
 21
1.416443
 31
0.165889
 12
2.094357
 22
1.408100
 32
0.085466
 13
2.160481
 23
1.267321
 33
0.085466
 62
0
  0
3DFACE
  8
NURBS
 10
2.108117
 20
1.416443
 30
0.165889
 11
2.017110
 21
1.545997
 31
0.165890
 12
2.004973
 22
1.535259
 32
0.085467
 13
2.094357
 23
1.408100
 33
0.085466
 62
0
  0
3DFACE
  8
NURBS
 10
1.743389
 20
1.313152
 30
1.457898
 11
1.675964
 21
1.380519
 31
1.457898
 12
1.905190
 22
1.657741
 32
0.165890
 13
2.017110
 23
1.545997
 33
0.165890
 62
0
  0
3DFACE
  8
NURBS
 10
1.675964
 20
1.380519
 30
1.457898
 11
1.597991
 21
1.435104
 31
1.457898
 12
1.775758
 22
1.748281
 32
0.165890
 13
1.905190
 23
1.657741
 33
0.165890
 62
0
  0
3DFACE
  8
NURBS
 10
1.597991
 20
1.435104
 30
1.457898
 11
1.511840
 21
1.475250
 31
1.457898
 12
1.632748
 22
1.814864
 32
0.165890
 13
1.775758
 23
1.748281
 33
0.165890
 62
0
  0
3DFACE
  8
NURBS
 10
1.511840
 20
1.475250
 30
1.457898
 11
1.420128
 21
1.499735
 31
1.457898
 12
1.480504
 22
1.855469
 32
0.165890
 13
1.632748
 23
1.814864
 33
0.165890
 62
0
  0
3DFACE
  8
NURBS
 10
1.420128
 20
1.499735
 30
1.457898
 11
1.325642
 21
1.507816
 31
1.457898
 12
1.323653
 22
1.868862
 32
0.165890
 13
1.480504
 23
1.855469
 33
0.165890
 62
0
  0
3DFACE
  8
NURBS
 10
1.325642
 20
1.507816
 30
1.457898
 11
1.231253
 21
1.499248
 31
1.457898
 12
1.166959
 22
1.854634
 32
0.165890
 13
1.323653
 23
1.868862
 33
0.165890
 62
0
  0
3DFACE
  8
NURBS
 10
1.231253
 20
1.499248
 30
1.457898
 11
1.139828
 21
1.474290
 31
1.457898
 12
1.015185
 22
1.813219
 32
0.165890
 13
1.166959
 23
1.854634
 33
0.165890
 62
0
  0
3DFACE
  8
NURBS
 10
1.139828
 20
1.474290
 30
1.457898
 11
1.054146
 21
1.433702
 31
1.457897
 12
0.872941
 22
1.745875
 32
0.165889
 13
1.015185
 23
1.813219
 33
0.165890
 62
0
  0
3DFACE
  8
NURBS
 10
1.054146
 20
1.433702
 30
1.457897
 11
0.976810
 21
1.378716
 31
1.457897
 12
0.744550
 22
1.654649
 32
0.165889
 13
0.872941
 23
1.745875
 33
0.165889
 62
0
  0
3DFACE
  8
NURBS
 10
0.976810
 20
1.378716
 30
1.457897
 11
0.910170
 21
1.311003
 31
1.457897
 12
0.633913
 22
1.542311
 32
0.165889
 13
0.744550
 23
1.654649
 33
0.165889
 62
0
  0
3DFACE
  8
NURBS
 10
0.910170
 20
1.311003
 30
1.457897
 11
0.856250
 21
1.232620
 31
1.457897
 12
0.544392
 22
1.412276
 32
0.165889
 13
0.633913
 23
1.542311
 33
0.165889
 62
0
  0
3DFACE
  8
NURBS
 10
0.856250
 20
1.232620
 30
1.457897
 11
0.816689
 21
1.145950
 31
1.457897
 12
0.478705
 22
1.268495
 32
0.165889
 13
0.544392
 23
1.412276
 33
0.165889
 62
0
  0
3DFACE
  8
NURBS
 10
0.816689
 20
1.145950
 30
1.457897
 11
0.792690
 21
1.053625
 31
1.457897
 12
0.438851
 22
1.115335
 32
0.165888
 13
0.478705
 23
1.268495
 33
0.165889
 62
0
  0
3DFACE
  8
NURBS
 10
0.792690
 20
1.053625
 30
1.457897
 11
0.784980
 21
0.958452
 31
1.457897
 12
0.426039
 22
0.957452
 32
0.165888
 13
0.438851
 23
1.115335
 33
0.165888
 62
0
  0
3DFACE
  8
NURBS
 10
0.784980
 20
0.958452
 30
1.457897
 11
0.793795
 21
0.863320
 31
1.457897
 12
0.440658
 22
0.799642
 32
0.165888
 13
0.426039
 23
0.957452
 33
0.165888
 62
0
  0
3DFACE
  8
NURBS
 10
0.793795
 20
0.863320
 30
1.457897
 11
0.818867
 21
0.771122
 31
1.457896
 12
0.482265
 22
0.646699
 32
0.165888
 13
0.440658
 23
0.799642
 33
0.165888
 62
0
  0
3DFACE
  8
NURBS
 10
0.818867
 20
0.771122
 30
1.457896
 11
0.859433
 21
0.684659
 31
1.457896
 12
0.549595
 22
0.503272
 32
0.165888
 13
0.482265
 23
0.646699
 33
0.165888
 62
0
  0
3DFACE
  8
NURBS
 10
0.859433
 20
0.684659
 30
1.457896
 11
0.914262
 21
0.606557
 31
1.457896
 12
0.640603
 22
0.373718
 32
0.165888
 13
0.549595
 23
0.503272
 33
0.165888
 62
0
  0
3DFACE
  8
NURBS
 10
0.914262
 20
0.606557
 30
1.457896
 11
0.981687
 21
0.539189
 31
1.457896
 12
0.752522
 22
0.261974
 32
0.165887
 13
0.640603
 23
0.373718
 33
0.165888
 62
0
  0
3DFACE
  8
NURBS
 10
0.981687
 20
0.539189
 30
1.457896
 11
1.059659
 21
0.484604
 31
1.457896
 12
0.881954
 22
0.171434
 32
0.165887
 13
0.752522
 23
0.261974
 33
0.165887
 62
0
  0
3DFACE
  8
NURBS
 10
1.059659
 20
0.484604
 30
1.457896
 11
1.145810
 21
0.444459
 31
1.457896
 12
1.024964
 22
0.104850
 32
0.165887
 13
0.881954
 23
0.171434
 33
0.165887
 62
0
  0
3DFACE
  8
NURBS
 10
1.145810
 20
0.444459
 30
1.457896
 11
1.237522
 21
0.419973
 31
1.457896
 12
1.177208
 22
0.064245
 32
0.165887
 13
1.024964
 23
0.104850
 33
0.165887
 62
0
  0
3DFACE
  8
NURBS
 10
1.237522
 20
0.419973
 30
1.457896
 11
1.332008
 21
0.411892
 31
1.457896
 12
1.334060
 22
0.050853
 32
0.165887
 13
1.177208
 23
0.064245
 33
0.165887
 62
0
  0
3DFACE
  8
NURBS
 10
1.332008
 20
0.411892
 30
1.457896
 11
1.426398
 21
0.420460
 31
1.457896
 12
1.490753
 22
0.065080
 32
0.165887
 13
1.334060
 23
0.050853
 33
0.165887
 62
0
  0
3DFACE
  8
NURBS
 10
1.426398
 20
0.420460
 30
1.457896
 11
1.517822
 21
0.445418
 31
1.457896
 12
1.642528
 22
0.106495
 32
0.165888
 13
1.490753
 23
0.065080
 33
0.165887
 62
0
  0
3DFACE
  8
NURBS
 10
1.517822
 20
0.445418
 30
1.457896
 11
1.603504
 21
0.486006
 31
1.457897
 12
1.784771
 22
0.173839
 32
0.165888
 13
1.642528
 23
0.106495
 33
0.165888
 62
0
  0
3DFACE
  8
NURBS
 10
1.603504
 20
0.486006
 30
1.457897
 11
1.680841
 21
0.540992
 31
1.457897
 12
1.913162
 22
0.265066
 32
0.165888
 13
1.784771
 23
0.173839
 33
0.165888
 62
0
  0
3DFACE
  8
NURBS
 10
1.680841
 20
0.540992
 30
1.457897
 11
1.747481
 21
0.608705
 31
1.457897
 12
2.023799
 22
0.377403
 32
0.165888
 13
1.913162
 23
0.265066
 33
0.165888
 62
0
  0
3DFACE
  8
NURBS
 10
1.747481
 20
0.608705
 30
1.457897
 11
1.801401
 21
0.687088
 31
1.457897
 12
2.113321
 22
0.507438
 32
0.165888
 13
2.023799
 23
0.377403
 33
0.165888
 62
0
  0
3DFACE
  8
NURBS
 10
1.801401
 20
0.687088
 30
1.457897
 11
1.840961
 21
0.773758
 31
1.457897
 12
2.179007
 22
0.651220
 32
0.165889
 13
2.113321
 23
0.507438
 33
0.165888
 62
0
  0
3DFACE
  8
NURBS
 10
1.840961
 20
0.773758
 30
1.457897
 11
1.864961
 21
0.866083
 31
1.457897
 12
2.218861
 22
0.804379
 32
0.165889
 13
2.179007
 23
0.651220
 33
0.165889
 62
0
  0
3DFACE
  8
NURBS
 10
1.864961
 20
0.866083
 30
1.457897
 11
1.872671
 21
0.961257
 31
1.457897
 12
2.231674
 22
0.962263
 32
0.165889
 13
2.218861
 23
0.804379
 33
0.165889
 62
0
  0
3DFACE
  8
NURBS
 10
1.872671
 20
0.961257
 30
1.457897
 11
1.863856
 21
1.056388
 31
1.457897
 12
2.217054
 22
1.120073
 32
0.165889
 13
2.231674
 23
0.962263
 33
0.165889
 62
0
  0
3DFACE
  8
NURBS
 10
1.863856
 20
1.056388
 30
1.457897
 11
1.838784
 21
1.148586
 31
1.457897
 12
2.175447
 22
1.273016
 32
0.165889
 13
2.217054
 23
1.120073
 33
0.165889
 62
0
  0
3DFACE
  8
NURBS
 10
1.838784
 20
1.148586
 30
1.457897
 11
1.798218
 21
1.235050
 31
1.457898
 12
2.108117
 22
1.416443
 32
0.165889
 13
2.175447
 23
1.273016
 33
0.165889
 62
0
  0
3DFACE
  8
NURBS
 10
1.798218
 20
1.235050
 30
1.457898
 11
1.743389
 21
1.313152
 31
1.457898
 12
2.017110
 22
1.545997
 32
0.165890
 13
2.108117
 23
1.416443
 33
0.165889
 62
0
  0
3DFACE
  8
NURBS
 10
1.627243
 20
1.214582
 30
2.246789
 11
1.578678
 21
1.263174
 31
2.246789
 12
1.675964
 22
1.380519
 32
1.457898
 13
1.743389
 23
1.313152
 33
1.457898
 62
0
  0
3DFACE
  8
NURBS
 10
1.578678
 20
1.263174
 30
2.246789
 11
1.522519
 21
1.302550
 31
2.246789
 12
1.597991
 22
1.435104
 32
1.457898
 13
1.675964
 23
1.380519
 33
1.457898
 62
0
  0
3DFACE
  8
NURBS
 10
1.522519
 20
1.302550
 30
2.246789
 11
1.460472
 21
1.331513
 31
2.246789
 12
1.511840
 22
1.475250
 32
1.457898
 13
1.597991
 23
1.435104
 33
1.457898
 62
0
  0
3DFACE
  8
NURBS
 10
1.460472
 20
1.331513
 30
2.246789
 11
1.394423
 21
1.349182
 31
2.246789
 12
1.420128
 22
1.499735
 32
1.457898
 13
1.511840
 23
1.475250
 33
1.457898
 62
0
  0
3DFACE
  8
NURBS
 10
1.394423
 20
1.349182
 30
2.246789
 11
1.326377
 21
1.355022
 31
2.246789
 12
1.325642
 22
1.507816
 32
1.457898
 13
1.420128
 23
1.499735
 33
1.457898
 62
0
  0
3DFACE
  8
NURBS
 10
1.326377
 20
1.355022
 30
2.246789
 11
1.258403
 21
1.348855
 31
2.246789
 12
1.231253
 22
1.499248
 32
1.457898
 13
1.325642
 23
1.507816
 33
1.457898
 62
0
  0
3DFACE
  8
NURBS
 10
1.258403
 20
1.348855
 30
2.246789
 11
1.192567
 21
1.330867
 31
2.246789
 12
1.139828
 22
1.474290
 32
1.457898
 13
1.231253
 23
1.499248
 33
1.457898
 62
0
  0
3DFACE
  8
NURBS
 10
1.192567
 20
1.330867
 30
2.246789
 11
1.130868
 21
1.301607
 31
2.246789
 12
1.054146
 22
1.433702
 32
1.457897
 13
1.139828
 23
1.474290
 33
1.457898
 62
0
  0
3DFACE
  8
NURBS
 10
1.130868
 20
1.301607
 30
2.246789
 11
1.075181
 21
1.261962
 31
2.246789
 12
0.976810
 22
1.378716
 32
1.457897
 13
1.054146
 23
1.433702
 33
1.457897
 62
0
  0
3DFACE
  8
NURBS
 10
1.075181
 20
1.261962
 30
2.246789
 11
1.027198
 21
1.213137
 31
2.246788
 12
0.910170
 22
1.311003
 32
1.457897
 13
0.976810
 23
1.378716
 33
1.457897
 62
0
  0
3DFACE
  8
NURBS
 10
1.027198
 20
1.213137
 30
2.246788
 11
0.988378
 21
1.156616
 31
2.246788
 12
0.856250
 22
1.232620
 32
1.457897
 13
0.910170
 23
1.311003
 33
1.457897
 62
0
  0
3DFACE
  8
NURBS
 10
0.988378
 20
1.156616
 30
2.246788
 11
0.959899
 21
1.094116
 31
2.246788
 12
0.816689
 22
1.145950
 32
1.457897
 13
0.856250
 23
1.232620
 33
1.457897
 62
0
  0
3DFACE
  8
NURBS
 10
0.959899
 20
1.094116
 30
2.246788
 11
0.942627
 21
1.027537
 31
2.246788
 12
0.792690
 22
1.053625
 32
1.457897
 13
0.816689
 23
1.145950
 33
1.457897
 62
0
  0
3DFACE
  8
NURBS
 10
0.942627
 20
1.027537
 30
2.246788
 11
0.937087
 21
0.958901
 31
2.246788
 12
0.784980
 22
0.958452
 32
1.457897
 13
0.792690
 23
1.053625
 33
1.457897
 62
0
  0
3DFACE
  8
NURBS
 10
0.937087
 20
0.958901
 30
2.246788
 11
0.943447
 21
0.890293
 31
2.246788
 12
0.793795
 22
0.863320
 32
1.457897
 13
0.784980
 23
0.958452
 33
1.457897
 62
0
  0
3DFACE
  8
NURBS
 10
0.943447
 20
0.890293
 30
2.246788
 11
0.961514
 21
0.823799
 31
2.246788
 12
0.818867
 22
0.771122
 32
1.457896
 13
0.793795
 23
0.863320
 33
1.457897
 62
0
  0
3DFACE
  8
NURBS
 10
0.961514
 20
0.823799
 30
2.246788
 11
0.990739
 21
0.761438
 31
2.246788
 12
0.859433
 22
0.684659
 32
1.457896
 13
0.818867
 23
0.771122
 33
1.457896
 62
0
  0
3DFACE
  8
NURBS
 10
0.990739
 20
0.761438
 30
2.246788
 11
1.030234
 21
0.705106
 31
2.246788
 12
0.914262
 22
0.606557
 32
1.457896
 13
0.859433
 23
0.684659
 33
1.457896
 62
0
  0
3DFACE
  8
NURBS
 10
1.030234
 20
0.705106
 30
2.246788
 11
1.078799
 21
0.656514
 31
2.246788
 12
0.981687
 22
0.539189
 32
1.457896
 13
0.914262
 23
0.606557
 33
1.457896
 62
0
  0
3DFACE
  8
NURBS
 10
1.078799
 20
0.656514
 30
2.246788
 11
1.134958
 21
0.617138
 31
2.246788
 12
1.059659
 22
0.484604
 32
1.457896
 13
0.981687
 23
0.539189
 33
1.457896
 62
0
  0
3DFACE
  8
NURBS
 10
1.134958
 20
0.617138
 30
2.246788
 11
1.197005
 21
0.588175
 31
2.246788
 12
1.145810
 22
0.444459
 32
1.457896
 13
1.059659
 23
0.484604
 33
1.457896
 62
0
  0
3DFACE
  8
NURBS
 10
1.197005
 20
0.588175
 30
2.246788
 11
1.263055
 21
0.570505
 31
2.246788
 12
1.237522
 22
0.419973
 32
1.457896
 13
1.145810
 23
0.444459
 33
1.457896
 62
0
  0
3DFACE
  8
NURBS
 10
1.263055
 20
0.570505
 30
2.246788
 11
1.331100
 21
0.564666
 31
2.246788
 12
1.332008
 22
0.411892
 32
1.457896
 13
1.237522
 23
0.419973
 33
1.457896
 62
0
  0
3DFACE
  8
NURBS
 10
1.331100
 20
0.564666
 30
2.246788
 11
1.399074
 21
0.570833
 31
2.246788
 12
1.426398
 22
0.420460
 32
1.457896
 13
1.332008
 23
0.411892
 33
1.457896
 62
0
  0
3DFACE
  8
NURBS
 10
1.399074
 20
0.570833
 30
2.246788
 11
1.464911
 21
0.588820
 31
2.246788
 12
1.517822
 22
0.445418
 32
1.457896
 13
1.426398
 23
0.420460
 33
1.457896
 62
0
  0
3DFACE
  8
NURBS
 10
1.464911
 20
0.588820
 30
2.246788
 11
1.526610
 21
0.618081
 31
2.246788
 12
1.603504
 22
0.486006
 32
1.457897
 13
1.517822
 23
0.445418
 33
1.457896
 62
0
  0
3DFACE
  8
NURBS
 10
1.526610
 20
0.618081
 30
2.246788
 11
1.582297
 21
0.657726
 31
2.246788
 12
1.680841
 22
0.540992
 32
1.457897
 13
1.603504
 23
0.486006
 33
1.457897
 62
0
  0
3DFACE
  8
NURBS
 10
1.582297
 20
0.657726
 30
2.246788
 11
1.630280
 21
0.706551
 31
2.246788
 12
1.747481
 22
0.608705
 32
1.457897
 13
1.680841
 23
0.540992
 33
1.457897
 62
0
  0
3DFACE
  8
NURBS
 10
1.630280
 20
0.706551
 30
2.246788
 11
1.669100
 21
0.763072
 31
2.246788
 12
1.801401
 22
0.687088
 32
1.457897
 13
1.747481
 23
0.608705
 33
1.457897
 62
0
  0
3DFACE
  8
NURBS
 10
1.669100
 20
0.763072
 30
2.246788
 11
1.697579
 21
0.825571
 31
2.246788
 12
1.840961
 22
0.773758
 32
1.457897
 13
1.801401
 23
0.687088
 33
1.457897
 62
0
  0
3DFACE
  8
NURBS
 10
1.697579
 20
0.825571
 30
2.246788
 11
1.714851
 21
0.892151
 31
2.246788
 12
1.864961
 22
0.866083
 32
1.457897
 13
1.840961
 23
0.773758
 33
1.457897
 62
0
  0
3DFACE
  8
NURBS
 10
1.714851
 20
0.892151
 30
2.246788
 11
1.720391
 21
0.960787
 31
2.246788
 12
1.872671
 22
0.961257
 32
1.457897
 13
1.864961
 23
0.866083
 33
1.457897
 62
0
  0
3DFACE
  8
NURBS
 10
1.720391
 20
0.960787
 30
2.246788
 11
1.714031
 21
1.029395
 31
2.246788
 12
1.863856
 22
1.056388
 32
1.457897
 13
1.872671
 23
0.961257
 33
1.457897
 62
0
  0
3DFACE
  8
NURBS
 10
1.714031
 20
1.029395
 30
2.246788
 11
1.695963
 21
1.095889
 31
2.246789
 12
1.838784
 22
1.148586
 32
1.457897
 13
1.863856
 23
1.056388
 33
1.457897
 62
0
  0
3DFACE
  8
NURBS
 10
1.695963
 20
1.095889
 30
2.246789
 11
1.666738
 21
1.158250
 31
2.246789
 12
1.798218
 22
1.235050
 32
1.457898
 13
1.838784
 23
1.148586
 33
1.457897
 62
0
  0
3DFACE
  8
NURBS
 10
1.666738
 20
1.158250
 30
2.246789
 11
1.627243
 21
1.214582
 31
2.246789
 12
1.743389
 22
1.313152
 32
1.457898
 13
1.798218
 23
1.235050
 33
1.457898
 62
0
  0
3DFACE
  8
NURBS
 10
1.624660
 20
1.213038
 30
2.809785
 11
1.576460
 21
1.261367
 31
2.809785
 12
1.578678
 22
1.263174
 32
2.246789
 13
1.627243
 23
1.214582
 33
2.246789
 62
0
  0
3DFACE
  8
NURBS
 10
1.576460
 20
1.261367
 30
2.809785
 11
1.520728
 21
1.300534
 31
2.809785
 12
1.522519
 22
1.302550
 32
2.246789
 13
1.578678
 23
1.263174
 33
2.246789
 62
0
  0
3DFACE
  8
NURBS
 10
1.520728
 20
1.300534
 30
2.809785
 11
1.459156
 21
1.329349
 31
2.809785
 12
1.460472
 22
1.331513
 32
2.246789
 13
1.522519
 23
1.302550
 33
2.246789
 62
0
  0
3DFACE
  8
NURBS
 10
1.459156
 20
1.329349
 30
2.809785
 11
1.393616
 21
1.346936
 31
2.809785
 12
1.394423
 22
1.349182
 32
2.246789
 13
1.460472
 23
1.331513
 33
2.246789
 62
0
  0
3DFACE
  8
NURBS
 10
1.393616
 20
1.346936
 30
2.809785
 11
1.326099
 21
1.352760
 31
2.809785
 12
1.326377
 22
1.355022
 32
2.246789
 13
1.394423
 23
1.349182
 33
2.246789
 62
0
  0
3DFACE
  8
NURBS
 10
1.326099
 20
1.352760
 30
2.809785
 11
1.258656
 21
1.346645
 31
2.809785
 12
1.258403
 22
1.348855
 32
2.246789
 13
1.326377
 23
1.355022
 33
2.246789
 62
0
  0
3DFACE
  8
NURBS
 10
1.258656
 20
1.346645
 30
2.809785
 11
1.193337
 21
1.328777
 31
2.809785
 12
1.192567
 22
1.330867
 32
2.246789
 13
1.258403
 23
1.348855
 33
2.246789
 62
0
  0
3DFACE
  8
NURBS
 10
1.193337
 20
1.328777
 30
2.809785
 11
1.132126
 21
1.299698
 31
2.809785
 12
1.130868
 22
1.301607
 32
2.246789
 13
1.192567
 23
1.330867
 33
2.246789
 62
0
  0
3DFACE
  8
NURBS
 10
1.132126
 20
1.299698
 30
2.809785
 11
1.076883
 21
1.260292
 31
2.809785
 12
1.075181
 22
1.261962
 32
2.246789
 13
1.130868
 23
1.301607
 33
2.246789
 62
0
  0
3DFACE
  8
NURBS
 10
1.076883
 20
1.260292
 30
2.809785
 11
1.029287
 21
1.211757
 31
2.809785
 12
1.027198
 22
1.213137
 32
2.246788
 13
1.075181
 23
1.261962
 33
2.246789
 62
0
  0
3DFACE
  8
NURBS
 10
1.029287
 20
1.211757
 30
2.809785
 11
0.990784
 21
1.155567
 31
2.809785
 12
0.988378
 22
1.156616
 32
2.246788
 13
1.027198
 23
1.213137
 33
2.246788
 62
0
  0
3DFACE
  8
NURBS
 10
0.990784
 20
1.155567
 30
2.809785
 11
0.962543
 21
1.093428
 31
2.809785
 12
0.959899
 22
1.094116
 32
2.246788
 13
0.988378
 23
1.156616
 33
2.246788
 62
0
  0
3DFACE
  8
NURBS
 10
0.962543
 20
1.093428
 30
2.809785
 11
0.945423
 21
1.027231
 31
2.809784
 12
0.942627
 22
1.027537
 32
2.246788
 13
0.959899
 23
1.094116
 33
2.246788
 62
0
  0
3DFACE
  8
NURBS
 10
0.945423
 20
1.027231
 30
2.809784
 11
0.939944
 21
0.958985
 31
2.809784
 12
0.937087
 22
0.958901
 32
2.246788
 13
0.942627
 23
1.027537
 33
2.246788
 62
0
  0
3DFACE
  8
NURBS
 10
0.939944
 20
0.958985
 30
2.809784
 11
0.946273
 21
0.890765
 31
2.809784
 12
0.943447
 22
0.890293
 32
2.246788
 13
0.937087
 23
0.958901
 33
2.246788
 62
0
  0
3DFACE
  8
NURBS
 10
0.946273
 20
0.890765
 30
2.809784
 11
0.964217
 21
0.824643
 31
2.809784
 12
0.961514
 22
0.823799
 32
2.246788
 13
0.943447
 23
0.890293
 33
2.246788
 62
0
  0
3DFACE
  8
NURBS
 10
0.964217
 20
0.824643
 30
2.809784
 11
0.993231
 21
0.762628
 31
2.809784
 12
0.990739
 22
0.761438
 32
2.246788
 13
0.961514
 23
0.823799
 33
2.246788
 62
0
  0
3DFACE
  8
NURBS
 10
0.993231
 20
0.762628
 30
2.809784
 11
1.032433
 21
0.706605
 31
2.809784
 12
1.030234
 22
0.705106
 32
2.246788
 13
0.990739
 23
0.761438
 33
2.246788
 62
0
  0
3DFACE
  8
NURBS
 10
1.032433
 20
0.706605
 30
2.809784
 11
1.080632
 21
0.658275
 31
2.809784
 12
1.078799
 22
0.656514
 32
2.246788
 13
1.030234
 23
0.705106
 33
2.246788
 62
0
  0
3DFACE
  8
NURBS
 10
1.080632
 20
0.658275
 30
2.809784
 11
1.136364
 21
0.619108
 31
2.809784
 12
1.134958
 22
0.617138
 32
2.246788
 13
1.078799
 23
0.656514
 33
2.246788
 62
0
  0
3DFACE
  8
NURBS
 10
1.136364
 20
0.619108
 30
2.809784
 11
1.197936
 21
0.590294
 31
2.809784
 12
1.197005
 22
0.588175
 32
2.246788
 13
1.134958
 23
0.617138
 33
2.246788
 62
0
  0
3DFACE
  8
NURBS
 10
1.197936
 20
0.590294
 30
2.809784
 11
1.263476
 21
0.572707
 31
2.809784
 12
1.263055
 22
0.570505
 32
2.246788
 13
1.197005
 23
0.588175
 33
2.246788
 62
0
  0
3DFACE
  8
NURBS
 10
1.263476
 20
0.572707
 30
2.809784
 11
1.330993
 21
0.566883
 31
2.809784
 12
1.331100
 22
0.564666
 32
2.246788
 13
1.263055
 23
0.570505
 33
2.246788
 62
0
  0
3DFACE
  8
NURBS
 10
1.330993
 20
0.566883
 30
2.809784
 11
1.398436
 21
0.572997
 31
2.809784
 12
1.399074
 22
0.570833
 32
2.246788
 13
1.331100
 23
0.564666
 33
2.246788
 62
0
  0
3DFACE
  8
NURBS
 10
1.398436
 20
0.572997
 30
2.809784
 11
1.463755
 21
0.590866
 31
2.809784
 12
1.464911
 22
0.588820
 32
2.246788
 13
1.399074
 23
0.570833
 33
2.246788
 62
0
  0
3DFACE
  8
NURBS
 10
1.463755
 20
0.590866
 30
2.809784
 11
1.524966
 21
0.619945
 31
2.809784
 12
1.526610
 22
0.618081
 32
2.246788
 13
1.464911
 23
0.588820
 33
2.246788
 62
0
  0
3DFACE
  8
NURBS
 10
1.524966
 20
0.619945
 30
2.809784
 11
1.580209
 21
0.659350
 31
2.809784
 12
1.582297
 22
0.657726
 32
2.246788
 13
1.526610
 23
0.618081
 33
2.246788
 62
0
  0
3DFACE
  8
NURBS
 10
1.580209
 20
0.659350
 30
2.809784
 11
1.627805
 21
0.707886
 31
2.809784
 12
1.630280
 22
0.706551
 32
2.246788
 13
1.582297
 23
0.657726
 33
2.246788
 62
0
  0
3DFACE
  8
NURBS
 10
1.627805
 20
0.707886
 30
2.809784
 11
1.666309
 21
0.764076
 31
2.809785
 12
1.669100
 22
0.763072
 32
2.246788
 13
1.630280
 23
0.706551
 33
2.246788
 62
0
  0
3DFACE
  8
NURBS
 10
1.666309
 20
0.764076
 30
2.809785
 11
1.694550
 21
0.826214
 31
2.809785
 12
1.697579
 22
0.825571
 32
2.246788
 13
1.669100
 23
0.763072
 33
2.246788
 62
0
  0
3DFACE
  8
NURBS
 10
1.694550
 20
0.826214
 30
2.809785
 11
1.711669
 21
0.892412
 31
2.809785
 12
1.714851
 22
0.892151
 32
2.246788
 13
1.697579
 23
0.825571
 33
2.246788
 62
0
  0
3DFACE
  8
NURBS
 10
1.711669
 20
0.892412
 30
2.809785
 11
1.717148
 21
0.960658
 31
2.809785
 12
1.720391
 22
0.960787
 32
2.246788
 13
1.714851
 23
0.892151
 33
2.246788
 62
0
  0
3DFACE
  8
NURBS
 10
1.717148
 20
0.960658
 30
2.809785
 11
1.710819
 21
1.028878
 31
2.809785
 12
1.714031
 22
1.029395
 32
2.246788
 13
1.720391
 23
0.960787
 33
2.246788
 62
0
  0
3DFACE
  8
NURBS
 10
1.710819
 20
1.028878
 30
2.809785
 11
1.692876
 21
1.095000
 31
2.809785
 12
1.695963
 22
1.095889
 32
2.246789
 13
1.714031
 23
1.029395
 33
2.246788
 62
0
  0
3DFACE
  8
NURBS
 10
1.692876
 20
1.095000
 30
2.809785
 11
1.663862
 21
1.157015
 31
2.809785
 12
1.666738
 22
1.158250
 32
2.246789
 13
1.695963
 23
1.095889
 33
2.246789
 62
0
  0
3DFACE
  8
NURBS
 10
1.663862
 20
1.157015
 30
2.809785
 11
1.624660
 21
1.213038
 31
2.809785
 12
1.627243
 22
1.214582
 32
2.246789
 13
1.666738
 23
1.158250
 33
2.246789
 62
0
  0
3DFACE
  8
NURBS
 10
1.634907
 20
1.222707
 30
2.832300
 11
1.584966
 21
1.272925
 31
2.832300
 12
1.576460
 22
1.261367
 32
2.809785
 13
1.624660
 23
1.213038
 33
2.809785
 62
0
  0
3DFACE
  8
NURBS
 10
1.584966
 20
1.272925
 30
2.832300
 11
1.527225
 21
1.313628
 31
2.832300
 12
1.520728
 22
1.300534
 32
2.809785
 13
1.576460
 23
1.261367
 33
2.809785
 62
0
  0
3DFACE
  8
NURBS
 10
1.527225
 20
1.313628
 30
2.832300
 11
1.463441
 21
1.343581
 31
2.832300
 12
1.459156
 22
1.329349
 32
2.809785
 13
1.520728
 23
1.300534
 33
2.809785
 62
0
  0
3DFACE
  8
NURBS
 10
1.463441
 20
1.343581
 30
2.832300
 11
1.395550
 21
1.361873
 31
2.832300
 12
1.393616
 22
1.346936
 32
2.809785
 13
1.459156
 23
1.329349
 33
2.809785
 62
0
  0
3DFACE
  8
NURBS
 10
1.395550
 20
1.361873
 30
2.832300
 11
1.325615
 21
1.367947
 31
2.832300
 12
1.326099
 22
1.352760
 32
2.809785
 13
1.393616
 23
1.346936
 33
2.809785
 62
0
  0
3DFACE
  8
NURBS
 10
1.325615
 20
1.367947
 30
2.832300
 11
1.255762
 21
1.361620
 31
2.832300
 12
1.258656
 22
1.346645
 32
2.809785
 13
1.326099
 23
1.352760
 33
2.809785
 62
0
  0
3DFACE
  8
NURBS
 10
1.255762
 20
1.361620
 30
2.832300
 11
1.188112
 21
1.343083
 31
2.832300
 12
1.193337
 22
1.328777
 32
2.809785
 13
1.258656
 23
1.346645
 33
2.809785
 62
0
  0
3DFACE
  8
NURBS
 10
1.188112
 20
1.343083
 30
2.832300
 11
1.124722
 21
1.312900
 31
2.832300
 12
1.132126
 22
1.299698
 32
2.809785
 13
1.193337
 23
1.328777
 33
2.809785
 62
0
  0
3DFACE
  8
NURBS
 10
1.124722
 20
1.312900
 30
2.832300
 11
1.067518
 21
1.271989
 31
2.832300
 12
1.076883
 22
1.260292
 32
2.809785
 13
1.132126
 23
1.299698
 33
2.809785
 62
0
  0
3DFACE
  8
NURBS
 10
1.067518
 20
1.271989
 30
2.832300
 11
1.018236
 21
1.221591
 31
2.832300
 12
1.029287
 22
1.211757
 32
2.809785
 13
1.076883
 23
1.260292
 33
2.809785
 62
0
  0
3DFACE
  8
NURBS
 10
1.018236
 20
1.221591
 30
2.832300
 11
0.978376
 21
1.163239
 31
2.832299
 12
0.990784
 22
1.155567
 32
2.809785
 13
1.029287
 23
1.211757
 33
2.809785
 62
0
  0
3DFACE
  8
NURBS
 10
0.978376
 20
1.163239
 30
2.832299
 11
0.949148
 21
1.098705
 31
2.832299
 12
0.962543
 22
1.093428
 32
2.809785
 13
0.990784
 23
1.155567
 33
2.809785
 62
0
  0
3DFACE
  8
NURBS
 10
0.949148
 20
1.098705
 30
2.832299
 11
0.931440
 21
1.029950
 31
2.832299
 12
0.945423
 22
1.027231
 32
2.809784
 13
0.962543
 23
1.093428
 33
2.809785
 62
0
  0
3DFACE
  8
NURBS
 10
0.931440
 20
1.029950
 30
2.832299
 11
0.925790
 21
0.959063
 31
2.832299
 12
0.939944
 22
0.958985
 32
2.809784
 13
0.945423
 23
1.027231
 33
2.809784
 62
0
  0
3DFACE
  8
NURBS
 10
0.925790
 20
0.959063
 30
2.832299
 11
0.932370
 21
0.888199
 31
2.832299
 12
0.946273
 22
0.890765
 32
2.809784
 13
0.939944
 23
0.958985
 33
2.809784
 62
0
  0
3DFACE
  8
NURBS
 10
0.932370
 20
0.888199
 30
2.832299
 11
0.950980
 21
0.819510
 31
2.832299
 12
0.964217
 22
0.824643
 32
2.809784
 13
0.946273
 23
0.890765
 33
2.809784
 62
0
  0
3DFACE
  8
NURBS
 10
0.950980
 20
0.819510
 30
2.832299
 11
0.981054
 21
0.755083
 31
2.832299
 12
0.993231
 22
0.762628
 32
2.809784
 13
0.964217
 23
0.824643
 33
2.809784
 62
0
  0
3DFACE
  8
NURBS
 10
0.981054
 20
0.755083
 30
2.832299
 11
1.021679
 21
0.696876
 31
2.832299
 12
1.032433
 22
0.706605
 32
2.809784
 13
0.993231
 23
0.762628
 33
2.809784
 62
0
  0
3DFACE
  8
NURBS
 10
1.021679
 20
0.696876
 30
2.832299
 11
1.071621
 21
0.646658
 31
2.832299
 12
1.080632
 22
0.658275
 32
2.809784
 13
1.032433
 23
0.706605
 33
2.809784
 62
0
  0
3DFACE
  8
NURBS
 10
1.071621
 20
0.646658
 30
2.832299
 11
1.129361
 21
0.605954
 31
2.832299
 12
1.136364
 22
0.619108
 32
2.809784
 13
1.080632
 23
0.658275
 33
2.809784
 62
0
  0
3DFACE
  8
NURBS
 10
1.129361
 20
0.605954
 30
2.832299
 11
1.193146
 21
0.576002
 31
2.832299
 12
1.197936
 22
0.590294
 32
2.809784
 13
1.136364
 23
0.619108
 33
2.809784
 62
0
  0
3DFACE
  8
NURBS
 10
1.193146
 20
0.576002
 30
2.832299
 11
1.261037
 21
0.557710
 31
2.832299
 12
1.263476
 22
0.572707
 32
2.809784
 13
1.197936
 23
0.590294
 33
2.809784
 62
0
  0
3DFACE
  8
NURBS
 10
1.261037
 20
0.557710
 30
2.832299
 11
1.330972
 21
0.551636
 31
2.832299
 12
1.330993
 22
0.566883
 32
2.809784
 13
1.263476
 23
0.572707
 33
2.809784
 62
0
  0
3DFACE
  8
NURBS
 10
1.330972
 20
0.551636
 30
2.832299
 11
1.400825
 21
0.557963
 31
2.832299
 12
1.398436
 22
0.572997
 32
2.809784
 13
1.330993
 23
0.566883
 33
2.809784
 62
0
  0
3DFACE
  8
NURBS
 10
1.400825
 20
0.557963
 30
2.832299
 11
1.468475
 21
0.576500
 31
2.832299
 12
1.463755
 22
0.590866
 32
2.809784
 13
1.398436
 23
0.572997
 33
2.809784
 62
0
  0
3DFACE
  8
NURBS
 10
1.468475
 20
0.576500
 30
2.832299
 11
1.531865
 21
0.606683
 31
2.832299
 12
1.524966
 22
0.619945
 32
2.809784
 13
1.463755
 23
0.590866
 33
2.809784
 62
0
  0
3DFACE
  8
NURBS
 10
1.531865
 20
0.606683
 30
2.832299
 11
1.589069
 21
0.647594
 31
2.832299
 12
1.580209
 22
0.659350
 32
2.809784
 13
1.524966
 23
0.619945
 33
2.809784
 62
0
  0
3DFACE
  8
NURBS
 10
1.589069
 20
0.647594
 30
2.832299
 11
1.638351
 21
0.697992
 31
2.832299
 12
1.627805
 22
0.707886
 32
2.809784
 13
1.580209
 23
0.659350
 33
2.809784
 62
0
  0
3DFACE
  8
NURBS
 10
1.638351
 20
0.697992
 30
2.832299
 11
1.678211
 21
0.756344
 31
2.832299
 12
1.666309
 22
0.764076
 32
2.809785
 13
1.627805
 23
0.707886
 33
2.809784
 62
0
  0
3DFACE
  8
NURBS
 10
1.678211
 20
0.756344
 30
2.832299
 11
1.707439
 21
0.820878
 31
2.832299
 12
1.694550
 22
0.826214
 32
2.809785
 13
1.666309
 23
0.764076
 33
2.809785
 62
0
  0
3DFACE
  8
NURBS
 10
1.707439
 20
0.820878
 30
2.832299
 11
1.725147
 21
0.889633
 31
2.832299
 12
1.711669
 22
0.892412
 32
2.809785
 13
1.694550
 23
0.826214
 33
2.809785
 62
0
  0
3DFACE
  8
NURBS
 10
1.725147
 20
0.889633
 30
2.832299
 11
1.730797
 21
0.960520
 31
2.832299
 12
1.717148
 22
0.960658
 32
2.809785
 13
1.711669
 23
0.892412
 33
2.809785
 62
0
  0
3DFACE
  8
NURBS
 10
1.730797
 20
0.960520
 30
2.832299
 11
1.724217
 21
1.031384
 31
2.832300
 12
1.710819
 22
1.028878
 32
2.809785
 13
1.717148
 23
0.960658
 33
2.809785
 62
0
  0
3DFACE
  8
NURBS
 10
1.724217
 20
1.031384
 30
2.832300
 11
1.705607
 21
1.100073
 31
2.832300
 12
1.692876
 22
1.095000
 32
2.809785
 13
1.710819
 23
1.028878
 33
2.809785
 62
0
  0
3DFACE
  8
NURBS
 10
1.705607
 20
1.100073
 30
2.832300
 11
1.675533
 21
1.164500
 31
2.832300
 12
1.663862
 22
1.157015
 32
2.809785
 13
1.692876
 23
1.095000
 33
2.809785
 62
0
  0
3DFACE
  8
NURBS
 10
1.675533
 20
1.164500
 30
2.832300
 11
1.634907
 21
1.222707
 31
2.832300
 12
1.624660
 22
1.213038
 32
2.809785
 13
1.663862
 23
1.157015
 33
2.809785
 62
0
  0
3DFACE
  8
NURBS
 10
1.648305
 20
1.235324
 30
2.854814
 11
1.596097
 21
1.288007
 31
2.854814
 12
1.584966
 22
1.272925
 32
2.832300
 13
1.634907
 23
1.222707
 33
2.832300
 62
0
  0
3DFACE
  8
NURBS
 10
1.596097
 20
1.288007
 30
2.854814
 11
1.535745
 21
1.330717
 31
2.854814
 12
1.527225
 22
1.313628
 32
2.832300
 13
1.584966
 23
1.272925
 33
2.832300
 62
0
  0
3DFACE
  8
NURBS
 10
1.535745
 20
1.330717
 30
2.854814
 11
1.469082
 21
1.362155
 31
2.854815
 12
1.463441
 22
1.343581
 32
2.832300
 13
1.527225
 23
1.313628
 33
2.832300
 62
0
  0
3DFACE
  8
NURBS
 10
1.469082
 20
1.362155
 30
2.854815
 11
1.398133
 21
1.381367
 31
2.854815
 12
1.395550
 22
1.361873
 32
2.832300
 13
1.463441
 23
1.343581
 33
2.832300
 62
0
  0
3DFACE
  8
NURBS
 10
1.398133
 20
1.381367
 30
2.854815
 11
1.325054
 21
1.387769
 31
2.854815
 12
1.325615
 22
1.367947
 32
2.832300
 13
1.395550
 23
1.361873
 33
2.832300
 62
0
  0
3DFACE
  8
NURBS
 10
1.325054
 20
1.387769
 30
2.854815
 11
1.252066
 21
1.381166
 31
2.854815
 12
1.255762
 22
1.361620
 32
2.832300
 13
1.325615
 23
1.367947
 33
2.832300
 62
0
  0
3DFACE
  8
NURBS
 10
1.252066
 20
1.381166
 30
2.854815
 11
1.181387
 21
1.361759
 31
2.854814
 12
1.188112
 22
1.343083
 32
2.832300
 13
1.255762
 23
1.361620
 33
2.832300
 62
0
  0
3DFACE
  8
NURBS
 10
1.181387
 20
1.361759
 30
2.854814
 11
1.115163
 21
1.330137
 31
2.854814
 12
1.124722
 22
1.312900
 32
2.832300
 13
1.188112
 23
1.343083
 33
2.832300
 62
0
  0
3DFACE
  8
NURBS
 10
1.115163
 20
1.330137
 30
2.854814
 11
1.055408
 21
1.287261
 31
2.854814
 12
1.067518
 22
1.271989
 32
2.832300
 13
1.124722
 23
1.312900
 33
2.832300
 62
0
  0
3DFACE
  8
NURBS
 10
1.055408
 20
1.287261
 30
2.854814
 11
1.003937
 21
1.234435
 31
2.854814
 12
1.018236
 22
1.221591
 32
2.832300
 13
1.067518
 23
1.271989
 33
2.832300
 62
0
  0
3DFACE
  8
NURBS
 10
1.003937
 20
1.234435
 30
2.854814
 11
0.962313
 21
1.173263
 31
2.854814
 12
0.978376
 22
1.163239
 32
2.832299
 13
1.018236
 23
1.221591
 33
2.832300
 62
0
  0
3DFACE
  8
NURBS
 10
0.962313
 20
1.173263
 30
2.854814
 11
0.931802
 21
1.105604
 31
2.854814
 12
0.949148
 22
1.098705
 32
2.832299
 13
0.978376
 23
1.163239
 33
2.832299
 62
0
  0
3DFACE
  8
NURBS
 10
0.931802
 20
1.105604
 30
2.854814
 11
0.913330
 21
1.033513
 31
2.854814
 12
0.931440
 22
1.029950
 32
2.832299
 13
0.949148
 23
1.098705
 33
2.832299
 62
0
  0
3DFACE
  8
NURBS
 10
0.913330
 20
1.033513
 30
2.854814
 11
0.907459
 21
0.959181
 31
2.854814
 12
0.925790
 22
0.959063
 32
2.832299
 13
0.931440
 23
1.029950
 33
2.832299
 62
0
  0
3DFACE
  8
NURBS
 10
0.907459
 20
0.959181
 30
2.854814
 11
0.914367
 21
0.884868
 31
2.854814
 12
0.932370
 22
0.888199
 32
2.832299
 13
0.925790
 23
0.959063
 33
2.832299
 62
0
  0
3DFACE
  8
NURBS
 10
0.914367
 20
0.884868
 30
2.854814
 11
0.933845
 21
0.812829
 31
2.854813
 12
0.950980
 22
0.819510
 32
2.832299
 13
0.932370
 23
0.888199
 33
2.832299
 62
0
  0
3DFACE
  8
NURBS
 10
0.933845
 20
0.812829
 30
2.854813
 11
0.965300
 21
0.745255
 31
2.854813
 12
0.981054
 22
0.755083
 32
2.832299
 13
0.950980
 23
0.819510
 33
2.832299
 62
0
  0
3DFACE
  8
NURBS
 10
0.965300
 20
0.745255
 30
2.854813
 11
1.007776
 21
0.684199
 31
2.854813
 12
1.021679
 22
0.696876
 32
2.832299
 13
0.981054
 23
0.755083
 33
2.832299
 62
0
  0
3DFACE
  8
NURBS
 10
1.007776
 20
0.684199
 30
2.854813
 11
1.059984
 21
0.631516
 31
2.854813
 12
1.071621
 22
0.646658
 32
2.832299
 13
1.021679
 23
0.696876
 33
2.832299
 62
0
  0
3DFACE
  8
NURBS
 10
1.059984
 20
0.631516
 30
2.854813
 11
1.120337
 21
0.588806
 31
2.854813
 12
1.129361
 22
0.605954
 32
2.832299
 13
1.071621
 23
0.646658
 33
2.832299
 62
0
  0
3DFACE
  8
NURBS
 10
1.120337
 20
0.588806
 30
2.854813
 11
1.187000
 21
0.557368
 31
2.854813
 12
1.193146
 22
0.576002
 32
2.832299
 13
1.129361
 23
0.605954
 33
2.832299
 62
0
  0
3DFACE
  8
NURBS
 10
1.187000
 20
0.557368
 30
2.854813
 11
1.257949
 21
0.538156
 31
2.854813
 12
1.261037
 22
0.557710
 32
2.832299
 13
1.193146
 23
0.576002
 33
2.832299
 62
0
  0
3DFACE
  8
NURBS
 10
1.257949
 20
0.538156
 30
2.854813
 11
1.331028
 21
0.531754
 31
2.854813
 12
1.330972
 22
0.551636
 32
2.832299
 13
1.261037
 23
0.557710
 33
2.832299
 62
0
  0
3DFACE
  8
NURBS
 10
1.331028
 20
0.531754
 30
2.854813
 11
1.404016
 21
0.538357
 31
2.854813
 12
1.400825
 22
0.557963
 32
2.832299
 13
1.330972
 23
0.551636
 33
2.832299
 62
0
  0
3DFACE
  8
NURBS
 10
1.404016
 20
0.538357
 30
2.854813
 11
1.474695
 21
0.557764
 31
2.854814
 12
1.468475
 22
0.576500
 32
2.832299
 13
1.400825
 23
0.557963
 33
2.832299
 62
0
  0
3DFACE
  8
NURBS
 10
1.474695
 20
0.557764
 30
2.854814
 11
1.540918
 21
0.589386
 31
2.854814
 12
1.531865
 22
0.606683
 32
2.832299
 13
1.468475
 23
0.576500
 33
2.832299
 62
0
  0
3DFACE
  8
NURBS
 10
1.540918
 20
0.589386
 30
2.854814
 11
1.600674
 21
0.632262
 31
2.854814
 12
1.589069
 22
0.647594
 32
2.832299
 13
1.531865
 23
0.606683
 33
2.832299
 62
0
  0
3DFACE
  8
NURBS
 10
1.600674
 20
0.632262
 30
2.854814
 11
1.652145
 21
0.685088
 31
2.854814
 12
1.638351
 22
0.697992
 32
2.832299
 13
1.589069
 23
0.647594
 33
2.832299
 62
0
  0
3DFACE
  8
NURBS
 10
1.652145
 20
0.685088
 30
2.854814
 11
1.693769
 21
0.746260
 31
2.854814
 12
1.678211
 22
0.756344
 32
2.832299
 13
1.638351
 23
0.697992
 33
2.832299
 62
0
  0
3DFACE
  8
NURBS
 10
1.693769
 20
0.746260
 30
2.854814
 11
1.724280
 21
0.813920
 31
2.854814
 12
1.707439
 22
0.820878
 32
2.832299
 13
1.678211
 23
0.756344
 33
2.832299
 62
0
  0
3DFACE
  8
NURBS
 10
1.724280
 20
0.813920
 30
2.854814
 11
1.742752
 21
0.886010
 31
2.854814
 12
1.725147
 22
0.889633
 32
2.832299
 13
1.707439
 23
0.820878
 33
2.832299
 62
0
  0
3DFACE
  8
NURBS
 10
1.742752
 20
0.886010
 30
2.854814
 11
1.748623
 21
0.960342
 31
2.854814
 12
1.730797
 22
0.960520
 32
2.832299
 13
1.725147
 23
0.889633
 33
2.832299
 62
0
  0
3DFACE
  8
NURBS
 10
1.748623
 20
0.960342
 30
2.854814
 11
1.741714
 21
1.034656
 31
2.854814
 12
1.724217
 22
1.031384
 32
2.832300
 13
1.730797
 23
0.960520
 33
2.832299
 62
0
  0
3DFACE
  8
NURBS
 10
1.741714
 20
1.034656
 30
2.854814
 11
1.722237
 21
1.106694
 31
2.854814
 12
1.705607
 22
1.100073
 32
2.832300
 13
1.724217
 23
1.031384
 33
2.832300
 62
0
  0
3DFACE
  8
NURBS
 10
1.722237
 20
1.106694
 30
2.854814
 11
1.690782
 21
1.174268
 31
2.854814
 12
1.675533
 22
1.164500
 32
2.832300
 13
1.705607
 23
1.100073
 33
2.832300
 62
0
  0
3DFACE
  8
NURBS
 10
1.690782
 20
1.174268
 30
2.854814
 11
1.648305
 21
1.235324
 31
2.854814
 12
1.634907
 22
1.222707
 32
2.832300
 13
1.675533
 23
1.164500
 33
2.832300
 62
0
  0
3DFACE
  8
NURBS
 10
1.649822
 20
1.237769
 30
2.877328
 11
1.597283
 21
1.290974
 31
2.877328
 12
1.596097
 22
1.288007
 32
2.854814
 13
1.648305
 23
1.235324
 33
2.854814
 62
0
  0
3DFACE
  8
NURBS
 10
1.597283
 20
1.290974
 30
2.877328
 11
1.536555
 21
1.334116
 31
2.877328
 12
1.535745
 22
1.330717
 32
2.854814
 13
1.596097
 23
1.288007
 33
2.854814
 62
0
  0
3DFACE
  8
NURBS
 10
1.536555
 20
1.334116
 30
2.877328
 11
1.469483
 21
1.365882
 31
2.877328
 12
1.469082
 22
1.362155
 32
2.854815
 13
1.535745
 23
1.330717
 33
2.854814
 62
0
  0
3DFACE
  8
NURBS
 10
1.469483
 20
1.365882
 30
2.877328
 11
1.398107
 21
1.385308
 31
2.877328
 12
1.398133
 22
1.381367
 32
2.854815
 13
1.469082
 23
1.362155
 33
2.854815
 62
0
  0
3DFACE
  8
NURBS
 10
1.398107
 20
1.385308
 30
2.877328
 11
1.324594
 21
1.391802
 31
2.877328
 12
1.325054
 22
1.387769
 32
2.854815
 13
1.398133
 23
1.381367
 33
2.854815
 62
0
  0
3DFACE
  8
NURBS
 10
1.324594
 20
1.391802
 30
2.877328
 11
1.251177
 21
1.385168
 31
2.877329
 12
1.252066
 22
1.381166
 32
2.854815
 13
1.325054
 23
1.387769
 33
2.854815
 62
0
  0
3DFACE
  8
NURBS
 10
1.251177
 20
1.385168
 30
2.877329
 11
1.180089
 21
1.365608
 31
2.877329
 12
1.181387
 22
1.361759
 32
2.854814
 13
1.252066
 23
1.381166
 33
2.854815
 62
0
  0
3DFACE
  8
NURBS
 10
1.180089
 20
1.365608
 30
2.877329
 11
1.113488
 21
1.333715
 31
2.877328
 12
1.115163
 22
1.330137
 32
2.854814
 13
1.181387
 23
1.361759
 33
2.854814
 62
0
  0
3DFACE
  8
NURBS
 10
1.113488
 20
1.333715
 30
2.877328
 11
1.053399
 21
1.290459
 31
2.877328
 12
1.055408
 22
1.287261
 32
2.854814
 13
1.115163
 23
1.330137
 33
2.854814
 62
0
  0
3DFACE
  8
NURBS
 10
1.053399
 20
1.290459
 30
2.877328
 11
1.001647
 21
1.237154
 31
2.877328
 12
1.003937
 22
1.234435
 32
2.854814
 13
1.055408
 23
1.287261
 33
2.854814
 62
0
  0
3DFACE
  8
NURBS
 10
1.001647
 20
1.237154
 30
2.877328
 11
0.959805
 21
1.175419
 31
2.877328
 12
0.962313
 22
1.173263
 32
2.854814
 13
1.003937
 23
1.234435
 33
2.854814
 62
0
  0
3DFACE
  8
NURBS
 10
0.959805
 20
1.175419
 30
2.877328
 11
0.929143
 21
1.107131
 31
2.877328
 12
0.931802
 22
1.105604
 32
2.854814
 13
0.962313
 23
1.173263
 33
2.854814
 62
0
  0
3DFACE
  8
NURBS
 10
0.929143
 20
1.107131
 30
2.877328
 11
0.910594
 21
1.034365
 31
2.877328
 12
0.913330
 22
1.033513
 32
2.854814
 13
0.931802
 23
1.105604
 33
2.854814
 62
0
  0
3DFACE
  8
NURBS
 10
0.910594
 20
1.034365
 30
2.877328
 11
0.904722
 21
0.959331
 31
2.877328
 12
0.907459
 22
0.959181
 32
2.854814
 13
0.913330
 23
1.033513
 33
2.854814
 62
0
  0
3DFACE
  8
NURBS
 10
0.904722
 20
0.959331
 30
2.877328
 11
0.911704
 21
0.884308
 31
2.877328
 12
0.914367
 22
0.884868
 32
2.854814
 13
0.907459
 23
0.959181
 33
2.854814
 62
0
  0
3DFACE
  8
NURBS
 10
0.911704
 20
0.884308
 30
2.877328
 11
0.931328
 21
0.811578
 31
2.877328
 12
0.933845
 22
0.812829
 32
2.854813
 13
0.914367
 23
0.884868
 33
2.854814
 62
0
  0
3DFACE
  8
NURBS
 10
0.931328
 20
0.811578
 30
2.877328
 11
0.962999
 21
0.743349
 31
2.877327
 12
0.965300
 22
0.745255
 32
2.854813
 13
0.933845
 23
0.812829
 33
2.854813
 62
0
  0
3DFACE
  8
NURBS
 10
0.962999
 20
0.743349
 30
2.877327
 11
1.005754
 21
0.681695
 31
2.877327
 12
1.007776
 22
0.684199
 32
2.854813
 13
0.965300
 23
0.745255
 33
2.854813
 62
0
  0
3DFACE
  8
NURBS
 10
1.005754
 20
0.681695
 30
2.877327
 11
1.058293
 21
0.628489
 31
2.877327
 12
1.059984
 22
0.631516
 32
2.854813
 13
1.007776
 23
0.684199
 33
2.854813
 62
0
  0
3DFACE
  8
NURBS
 10
1.058293
 20
0.628489
 30
2.877327
 11
1.119021
 21
0.585347
 31
2.877327
 12
1.120337
 22
0.588806
 32
2.854813
 13
1.059984
 23
0.631516
 33
2.854813
 62
0
  0
3DFACE
  8
NURBS
 10
1.119021
 20
0.585347
 30
2.877327
 11
1.186093
 21
0.553581
 31
2.877327
 12
1.187000
 22
0.557368
 32
2.854813
 13
1.120337
 23
0.588806
 33
2.854813
 62
0
  0
3DFACE
  8
NURBS
 10
1.186093
 20
0.553581
 30
2.877327
 11
1.257469
 21
0.534156
 31
2.877327
 12
1.257949
 22
0.538156
 32
2.854813
 13
1.187000
 23
0.557368
 33
2.854813
 62
0
  0
3DFACE
  8
NURBS
 10
1.257469
 20
0.534156
 30
2.877327
 11
1.330983
 21
0.527661
 31
2.877327
 12
1.331028
 22
0.531754
 32
2.854813
 13
1.257949
 23
0.538156
 33
2.854813
 62
0
  0
3DFACE
  8
NURBS
 10
1.330983
 20
0.527661
 30
2.877327
 11
1.404399
 21
0.534295
 31
2.877327
 12
1.404016
 22
0.538357
 32
2.854813
 13
1.331028
 23
0.531754
 33
2.854813
 62
0
  0
3DFACE
  8
NURBS
 10
1.404399
 20
0.534295
 30
2.877327
 11
1.475487
 21
0.553855
 31
2.877327
 12
1.474695
 22
0.557764
 32
2.854814
 13
1.404016
 23
0.538357
 33
2.854813
 62
0
  0
3DFACE
  8
NURBS
 10
1.475487
 20
0.553855
 30
2.877327
 11
1.542088
 21
0.585748
 31
2.877327
 12
1.540918
 22
0.589386
 32
2.854814
 13
1.474695
 23
0.557764
 33
2.854814
 62
0
  0
3DFACE
  8
NURBS
 10
1.542088
 20
0.585748
 30
2.877327
 11
1.602177
 21
0.629004
 31
2.877328
 12
1.600674
 22
0.632262
 32
2.854814
 13
1.540918
 23
0.589386
 33
2.854814
 62
0
  0
3DFACE
  8
NURBS
 10
1.602177
 20
0.629004
 30
2.877328
 11
1.653929
 21
0.682309
 31
2.877328
 12
1.652145
 22
0.685088
 32
2.854814
 13
1.600674
 23
0.632262
 33
2.854814
 62
0
  0
3DFACE
  8
NURBS
 10
1.653929
 20
0.682309
 30
2.877328
 11
1.695772
 21
0.744044
 31
2.877328
 12
1.693769
 22
0.746260
 32
2.854814
 13
1.652145
 23
0.685088
 33
2.854814
 62
0
  0
3DFACE
  8
NURBS
 10
1.695772
 20
0.744044
 30
2.877328
 11
1.726433
 21
0.812332
 31
2.877328
 12
1.724280
 22
0.813920
 32
2.854814
 13
1.693769
 23
0.746260
 33
2.854814
 62
0
  0
3DFACE
  8
NURBS
 10
1.726433
 20
0.812332
 30
2.877328
 11
1.744982
 21
0.885098
 31
2.877328
 12
1.742752
 22
0.886010
 32
2.854814
 13
1.724280
 23
0.813920
 33
2.854814
 62
0
  0
3DFACE
  8
NURBS
 10
1.744982
 20
0.885098
 30
2.877328
 11
1.750855
 21
0.960133
 31
2.877328
 12
1.748623
 22
0.960342
 32
2.854814
 13
1.742752
 23
0.886010
 33
2.854814
 62
0
  0
3DFACE
  8
NURBS
 10
1.750855
 20
0.960133
 30
2.877328
 11
1.743873
 21
1.035155
 31
2.877328
 12
1.741714
 22
1.034656
 32
2.854814
 13
1.748623
 23
0.960342
 33
2.854814
 62
0
  0
3DFACE
  8
NURBS
 10
1.743873
 20
1.035155
 30
2.877328
 11
1.724248
 21
1.107885
 31
2.877328
 12
1.722237
 22
1.106694
 32
2.854814
 13
1.741714
 23
1.034656
 33
2.854814
 62
0
  0
3DFACE
  8
NURBS
 10
1.724248
 20
1.107885
 30
2.877328
 11
1.692577
 21
1.176114
 31
2.877328
 12
1.690782
 22
1.174268
 32
2.854814
 13
1.722237
 23
1.106694
 33
2.854814
 62
0
  0
3DFACE
  8
NURBS
 10
1.692577
 20
1.176114
 30
2.877328
 11
1.649822
 21
1.237769
 31
2.877328
 12
1.648305
 22
1.235324
 32
2.854814
 13
1.690782
 23
1.174268
 33
2.854814
 62
0
  0
3DFACE
  8
NURBS
 10
1.646876
 20
1.236361
 30
2.899843
 11
1.594732
 21
1.289352
 31
2.899843
 12
1.597283
 22
1.290974
 32
2.877328
 13
1.649822
 23
1.237769
 33
2.877328
 62
0
  0
3DFACE
  8
NURBS
 10
1.594732
 20
1.289352
 30
2.899843
 11
1.534470
 21
1.332328
 31
2.899843
 12
1.536555
 22
1.334116
 32
2.877328
 13
1.597283
 23
1.290974
 33
2.877328
 62
0
  0
3DFACE
  8
NURBS
 10
1.534470
 20
1.332328
 30
2.899843
 11
1.467921
 21
1.363981
 31
2.899843
 12
1.469483
 22
1.365882
 32
2.877328
 13
1.536555
 23
1.334116
 33
2.877328
 62
0
  0
3DFACE
  8
NURBS
 10
1.467921
 20
1.363981
 30
2.899843
 11
1.397106
 21
1.383351
 31
2.899843
 12
1.398107
 22
1.385308
 32
2.877328
 13
1.469483
 23
1.365882
 33
2.877328
 62
0
  0
3DFACE
  8
NURBS
 10
1.397106
 20
1.383351
 30
2.899843
 11
1.324177
 21
1.389848
 31
2.899843
 12
1.324594
 22
1.391802
 32
2.877328
 13
1.398107
 23
1.385308
 33
2.877328
 62
0
  0
3DFACE
  8
NURBS
 10
1.324177
 20
1.389848
 30
2.899843
 11
1.251350
 21
1.383276
 31
2.899843
 12
1.251177
 22
1.385168
 32
2.877329
 13
1.324594
 23
1.391802
 33
2.877328
 62
0
  0
3DFACE
  8
NURBS
 10
1.251350
 20
1.383276
 30
2.899843
 11
1.180838
 21
1.363833
 31
2.899843
 12
1.180089
 22
1.365608
 32
2.877329
 13
1.251177
 23
1.385168
 33
2.877329
 62
0
  0
3DFACE
  8
NURBS
 10
1.180838
 20
1.363833
 30
2.899843
 11
1.114783
 21
1.332111
 31
2.899843
 12
1.113488
 22
1.333715
 32
2.877328
 13
1.180089
 23
1.365608
 33
2.877329
 62
0
  0
3DFACE
  8
NURBS
 10
1.114783
 20
1.332111
 30
2.899843
 11
1.055193
 21
1.289074
 31
2.899843
 12
1.053399
 22
1.290459
 32
2.877328
 13
1.113488
 23
1.333715
 33
2.877328
 62
0
  0
3DFACE
  8
NURBS
 10
1.055193
 20
1.289074
 30
2.899843
 11
1.003878
 21
1.236029
 31
2.899843
 12
1.001647
 22
1.237154
 32
2.877328
 13
1.053399
 23
1.290459
 33
2.877328
 62
0
  0
3DFACE
  8
NURBS
 10
1.003878
 20
1.236029
 30
2.899843
 11
0.962396
 21
1.174588
 31
2.899843
 12
0.959805
 22
1.175419
 32
2.877328
 13
1.001647
 23
1.237154
 33
2.877328
 62
0
  0
3DFACE
  8
NURBS
 10
0.962396
 20
1.174588
 30
2.899843
 11
0.932010
 21
1.106617
 31
2.899843
 12
0.929143
 22
1.107131
 32
2.877328
 13
0.959805
 23
1.175419
 33
2.877328
 62
0
  0
3DFACE
  8
NURBS
 10
0.932010
 20
1.106617
 30
2.899843
 11
0.913641
 21
1.034183
 31
2.899842
 12
0.910594
 22
1.034365
 32
2.877328
 13
0.929143
 23
1.107131
 33
2.877328
 62
0
  0
3DFACE
  8
NURBS
 10
0.913641
 20
1.034183
 30
2.899842
 11
0.907848
 21
0.959486
 31
2.899842
 12
0.904722
 22
0.959331
 32
2.877328
 13
0.910594
 23
1.034365
 33
2.877328
 62
0
  0
3DFACE
  8
NURBS
 10
0.907848
 20
0.959486
 30
2.899842
 11
0.914807
 21
0.884795
 31
2.899842
 12
0.911704
 22
0.884308
 32
2.877328
 13
0.904722
 23
0.959331
 33
2.877328
 62
0
  0
3DFACE
  8
NURBS
 10
0.914807
 20
0.884795
 30
2.899842
 11
0.934307
 21
0.812380
 31
2.899842
 12
0.931328
 22
0.811578
 32
2.877328
 13
0.911704
 23
0.884308
 33
2.877328
 62
0
  0
3DFACE
  8
NURBS
 10
0.934307
 20
0.812380
 30
2.899842
 11
0.965755
 21
0.744441
 31
2.899842
 12
0.962999
 22
0.743349
 32
2.877327
 13
0.931328
 23
0.811578
 33
2.877328
 62
0
  0
3DFACE
  8
NURBS
 10
0.965755
 20
0.744441
 30
2.899842
 11
1.008195
 21
0.683043
 31
2.899842
 12
1.005754
 22
0.681695
 32
2.877327
 13
0.962999
 23
0.743349
 33
2.877327
 62
0
  0
3DFACE
  8
NURBS
 10
1.008195
 20
0.683043
 30
2.899842
 11
1.060338
 21
0.630051
 31
2.899842
 12
1.058293
 22
0.628489
 32
2.877327
 13
1.005754
 23
0.681695
 33
2.877327
 62
0
  0
3DFACE
  8
NURBS
 10
1.060338
 20
0.630051
 30
2.899842
 11
1.120600
 21
0.587076
 31
2.899842
 12
1.119021
 22
0.585347
 32
2.877327
 13
1.058293
 23
0.628489
 33
2.877327
 62
0
  0
3DFACE
  8
NURBS
 10
1.120600
 20
0.587076
 30
2.899842
 11
1.187149
 21
0.555422
 31
2.899842
 12
1.186093
 22
0.553581
 32
2.877327
 13
1.119021
 23
0.585347
 33
2.877327
 62
0
  0
3DFACE
  8
NURBS
 10
1.187149
 20
0.555422
 30
2.899842
 11
1.257964
 21
0.536053
 31
2.899842
 12
1.257469
 22
0.534156
 32
2.877327
 13
1.186093
 23
0.553581
 33
2.877327
 62
0
  0
3DFACE
  8
NURBS
 10
1.257964
 20
0.536053
 30
2.899842
 11
1.330893
 21
0.529555
 31
2.899842
 12
1.330983
 22
0.527661
 32
2.877327
 13
1.257469
 23
0.534156
 33
2.877327
 62
0
  0
3DFACE
  8
NURBS
 10
1.330893
 20
0.529555
 30
2.899842
 11
1.403720
 21
0.536128
 31
2.899842
 12
1.404399
 22
0.534295
 32
2.877327
 13
1.330983
 23
0.527661
 33
2.877327
 62
0
  0
3DFACE
  8
NURBS
 10
1.403720
 20
0.536128
 30
2.899842
 11
1.474232
 21
0.555570
 31
2.899842
 12
1.475487
 22
0.553855
 32
2.877327
 13
1.404399
 23
0.534295
 33
2.877327
 62
0
  0
3DFACE
  8
NURBS
 10
1.474232
 20
0.555570
 30
2.899842
 11
1.540287
 21
0.587292
 31
2.899842
 12
1.542088
 22
0.585748
 32
2.877327
 13
1.475487
 23
0.553855
 33
2.877327
 62
0
  0
3DFACE
  8
NURBS
 10
1.540287
 20
0.587292
 30
2.899842
 11
1.599877
 21
0.630329
 31
2.899842
 12
1.602177
 22
0.629004
 32
2.877328
 13
1.542088
 23
0.585748
 33
2.877327
 62
0
  0
3DFACE
  8
NURBS
 10
1.599877
 20
0.630329
 30
2.899842
 11
1.651193
 21
0.683375
 31
2.899842
 12
1.653929
 22
0.682309
 32
2.877328
 13
1.602177
 23
0.629004
 33
2.877328
 62
0
  0
3DFACE
  8
NURBS
 10
1.651193
 20
0.683375
 30
2.899842
 11
1.692674
 21
0.744816
 31
2.899842
 12
1.695772
 22
0.744044
 32
2.877328
 13
1.653929
 23
0.682309
 33
2.877328
 62
0
  0
3DFACE
  8
NURBS
 10
1.692674
 20
0.744816
 30
2.899842
 11
1.723061
 21
0.812786
 31
2.899842
 12
1.726433
 22
0.812332
 32
2.877328
 13
1.695772
 23
0.744044
 33
2.877328
 62
0
  0
3DFACE
  8
NURBS
 10
1.723061
 20
0.812786
 30
2.899842
 11
1.741430
 21
0.885221
 31
2.899843
 12
1.744982
 22
0.885098
 32
2.877328
 13
1.726433
 23
0.812332
 33
2.877328
 62
0
  0
3DFACE
  8
NURBS
 10
1.741430
 20
0.885221
 30
2.899843
 11
1.747222
 21
0.959918
 31
2.899843
 12
1.750855
 22
0.960133
 32
2.877328
 13
1.744982
 23
0.885098
 33
2.877328
 62
0
  0
3DFACE
  8
NURBS
 10
1.747222
 20
0.959918
 30
2.899843
 11
1.740263
 21
1.034609
 31
2.899843
 12
1.743873
 22
1.035155
 32
2.877328
 13
1.750855
 23
0.960133
 33
2.877328
 62
0
  0
3DFACE
  8
NURBS
 10
1.740263
 20
1.034609
 30
2.899843
 11
1.720764
 21
1.107024
 31
2.899843
 12
1.724248
 22
1.107885
 32
2.877328
 13
1.743873
 23
1.035155
 33
2.877328
 62
0
  0
3DFACE
  8
NURBS
 10
1.720764
 20
1.107024
 30
2.899843
 11
1.689316
 21
1.174963
 31
2.899843
 12
1.692577
 22
1.176114
 32
2.877328
 13
1.724248
 23
1.107885
 33
2.877328
 62
0
  0
3DFACE
  8
NURBS
 10
1.689316
 20
1.174963
 30
2.899843
 11
1.646876
 21
1.236361
 31
2.899843
 12
1.649822
 22
1.237769
 32
2.877328
 13
1.692577
 23
1.176114
 33
2.877328
 62
0
  0
3DFACE
  8
NURBS
 10
1.625313
 20
1.218580
 30
2.922357
 11
1.576617
 21
1.268208
 31
2.922357
 12
1.594732
 22
1.289352
 32
2.899843
 13
1.646876
 23
1.236361
 33
2.899843
 62
0
  0
3DFACE
  8
NURBS
 10
1.576617
 20
1.268208
 30
2.922357
 11
1.520345
 21
1.308462
 31
2.922357
 12
1.534470
 22
1.332328
 32
2.899843
 13
1.594732
 23
1.289352
 33
2.899843
 62
0
  0
3DFACE
  8
NURBS
 10
1.520345
 20
1.308462
 30
2.922357
 11
1.458207
 21
1.338118
 31
2.922357
 12
1.467921
 22
1.363981
 32
2.899843
 13
1.534470
 23
1.332328
 33
2.899843
 62
0
  0
3DFACE
  8
NURBS
 10
1.458207
 20
1.338118
 30
2.922357
 11
1.392091
 21
1.356275
 31
2.922357
 12
1.397106
 22
1.383351
 32
2.899843
 13
1.467921
 23
1.363981
 33
2.899843
 62
0
  0
3DFACE
  8
NURBS
 10
1.392091
 20
1.356275
 30
2.922357
 11
1.324005
 21
1.362382
 31
2.922357
 12
1.324177
 22
1.389848
 32
2.899843
 13
1.397106
 23
1.383351
 33
2.899843
 62
0
  0
3DFACE
  8
NURBS
 10
1.324005
 20
1.362382
 30
2.922357
 11
1.256019
 21
1.356253
 31
2.922357
 12
1.251350
 22
1.383276
 32
2.899843
 13
1.324177
 23
1.389848
 33
2.899843
 62
0
  0
3DFACE
  8
NURBS
 10
1.256019
 20
1.356253
 30
2.922357
 11
1.190199
 21
1.338073
 31
2.922357
 12
1.180838
 22
1.363833
 32
2.899843
 13
1.251350
 23
1.383276
 33
2.899843
 62
0
  0
3DFACE
  8
NURBS
 10
1.190199
 20
1.338073
 30
2.922357
 11
1.128543
 21
1.308396
 31
2.922357
 12
1.114783
 22
1.332111
 32
2.899843
 13
1.180838
 23
1.363833
 33
2.899843
 62
0
  0
3DFACE
  8
NURBS
 10
1.128543
 20
1.308396
 30
2.922357
 11
1.072927
 21
1.268124
 31
2.922357
 12
1.055193
 22
1.289074
 32
2.899843
 13
1.114783
 23
1.332111
 33
2.899843
 62
0
  0
3DFACE
  8
NURBS
 10
1.072927
 20
1.268124
 30
2.922357
 11
1.025038
 21
1.218479
 31
2.922357
 12
1.003878
 22
1.236029
 32
2.899843
 13
1.055193
 23
1.289074
 33
2.899843
 62
0
  0
3DFACE
  8
NURBS
 10
1.025038
 20
1.218479
 30
2.922357
 11
0.986333
 21
1.160970
 31
2.922357
 12
0.962396
 22
1.174588
 32
2.899843
 13
1.003878
 23
1.236029
 33
2.899843
 62
0
  0
3DFACE
  8
NURBS
 10
0.986333
 20
1.160970
 30
2.922357
 11
0.957988
 21
1.097345
 31
2.922357
 12
0.932010
 22
1.106617
 32
2.899843
 13
0.962396
 23
1.174588
 33
2.899843
 62
0
  0
3DFACE
  8
NURBS
 10
0.957988
 20
1.097345
 30
2.922357
 11
0.940864
 21
1.029537
 31
2.922357
 12
0.913641
 22
1.034183
 32
2.899842
 13
0.932010
 23
1.106617
 33
2.899843
 62
0
  0
3DFACE
  8
NURBS
 10
0.940864
 20
1.029537
 30
2.922357
 11
0.935480
 21
0.959606
 31
2.922356
 12
0.907848
 22
0.959486
 32
2.899842
 13
0.913641
 23
1.034183
 33
2.899842
 62
0
  0
3DFACE
  8
NURBS
 10
0.935480
 20
0.959606
 30
2.922356
 11
0.942002
 21
0.889677
 31
2.922356
 12
0.914807
 22
0.884795
 32
2.899842
 13
0.907848
 23
0.959486
 33
2.899842
 62
0
  0
3DFACE
  8
NURBS
 10
0.942002
 20
0.889677
 30
2.922356
 11
0.960230
 21
0.821875
 31
2.922356
 12
0.934307
 22
0.812380
 32
2.899842
 13
0.914807
 23
0.884795
 33
2.899842
 62
0
  0
3DFACE
  8
NURBS
 10
0.960230
 20
0.821875
 30
2.922356
 11
0.989610
 21
0.758259
 31
2.922356
 12
0.965755
 22
0.744441
 32
2.899842
 13
0.934307
 23
0.812380
 33
2.899842
 62
0
  0
3DFACE
  8
NURBS
 10
0.989610
 20
0.758259
 30
2.922356
 11
1.029251
 21
0.700764
 31
2.922356
 12
1.008195
 22
0.683043
 32
2.899842
 13
0.965755
 23
0.744441
 33
2.899842
 62
0
  0
3DFACE
  8
NURBS
 10
1.029251
 20
0.700764
 30
2.922356
 11
1.077947
 21
0.651135
 31
2.922356
 12
1.060338
 22
0.630051
 32
2.899842
 13
1.008195
 23
0.683043
 33
2.899842
 62
0
  0
3DFACE
  8
NURBS
 10
1.077947
 20
0.651135
 30
2.922356
 11
1.134219
 21
0.610881
 31
2.922356
 12
1.120600
 22
0.587076
 32
2.899842
 13
1.060338
 23
0.630051
 33
2.899842
 62
0
  0
3DFACE
  8
NURBS
 10
1.134219
 20
0.610881
 30
2.922356
 11
1.196357
 21
0.581225
 31
2.922356
 12
1.187149
 22
0.555422
 32
2.899842
 13
1.120600
 23
0.587076
 33
2.899842
 62
0
  0
3DFACE
  8
NURBS
 10
1.196357
 20
0.581225
 30
2.922356
 11
1.262473
 21
0.563068
 31
2.922356
 12
1.257964
 22
0.536053
 32
2.899842
 13
1.187149
 23
0.555422
 33
2.899842
 62
0
  0
3DFACE
  8
NURBS
 10
1.262473
 20
0.563068
 30
2.922356
 11
1.330559
 21
0.556961
 31
2.922356
 12
1.330893
 22
0.529555
 32
2.899842
 13
1.257964
 23
0.536053
 33
2.899842
 62
0
  0
3DFACE
  8
NURBS
 10
1.330559
 20
0.556961
 30
2.922356
 11
1.398545
 21
0.563090
 31
2.922356
 12
1.403720
 22
0.536128
 32
2.899842
 13
1.330893
 23
0.529555
 33
2.899842
 62
0
  0
3DFACE
  8
NURBS
 10
1.398545
 20
0.563090
 30
2.922356
 11
1.464365
 21
0.581270
 31
2.922356
 12
1.474232
 22
0.555570
 32
2.899842
 13
1.403720
 23
0.536128
 33
2.899842
 62
0
  0
3DFACE
  8
NURBS
 10
1.464365
 20
0.581270
 30
2.922356
 11
1.526021
 21
0.610947
 31
2.922356
 12
1.540287
 22
0.587292
 32
2.899842
 13
1.474232
 23
0.555570
 33
2.899842
 62
0
  0
3DFACE
  8
NURBS
 10
1.526021
 20
0.610947
 30
2.922356
 11
1.581638
 21
0.651220
 31
2.922356
 12
1.599877
 22
0.630329
 32
2.899842
 13
1.540287
 23
0.587292
 33
2.899842
 62
0
  0
3DFACE
  8
NURBS
 10
1.581638
 20
0.651220
 30
2.922356
 11
1.629526
 21
0.700865
 31
2.922357
 12
1.651193
 22
0.683375
 32
2.899842
 13
1.599877
 23
0.630329
 33
2.899842
 62
0
  0
3DFACE
  8
NURBS
 10
1.629526
 20
0.700865
 30
2.922357
 11
1.668231
 21
0.758373
 31
2.922357
 12
1.692674
 22
0.744816
 32
2.899842
 13
1.651193
 23
0.683375
 33
2.899842
 62
0
  0
3DFACE
  8
NURBS
 10
1.668231
 20
0.758373
 30
2.922357
 11
1.696576
 21
0.821998
 31
2.922357
 12
1.723061
 22
0.812786
 32
2.899842
 13
1.692674
 23
0.744816
 33
2.899842
 62
0
  0
3DFACE
  8
NURBS
 10
1.696576
 20
0.821998
 30
2.922357
 11
1.713700
 21
0.889806
 31
2.922357
 12
1.741430
 22
0.885221
 32
2.899843
 13
1.723061
 23
0.812786
 33
2.899842
 62
0
  0
3DFACE
  8
NURBS
 10
1.713700
 20
0.889806
 30
2.922357
 11
1.719084
 21
0.959737
 31
2.922357
 12
1.747222
 22
0.959918
 32
2.899843
 13
1.741430
 23
0.885221
 33
2.899843
 62
0
  0
3DFACE
  8
NURBS
 10
1.719084
 20
0.959737
 30
2.922357
 11
1.712562
 21
1.029666
 31
2.922357
 12
1.740263
 22
1.034609
 32
2.899843
 13
1.747222
 23
0.959918
 33
2.899843
 62
0
  0
3DFACE
  8
NURBS
 10
1.712562
 20
1.029666
 30
2.922357
 11
1.694335
 21
1.097469
 31
2.922357
 12
1.720764
 22
1.107024
 32
2.899843
 13
1.740263
 23
1.034609
 33
2.899843
 62
0
  0
3DFACE
  8
NURBS
 10
1.694335
 20
1.097469
 30
2.922357
 11
1.664954
 21
1.161084
 31
2.922357
 12
1.689316
 22
1.174963
 32
2.899843
 13
1.720764
 23
1.107024
 33
2.899843
 62
0
  0
3DFACE
  8
NURBS
 10
1.664954
 20
1.161084
 30
2.922357
 11
1.625313
 21
1.218580
 31
2.922357
 12
1.646876
 22
1.236361
 32
2.899843
 13
1.689316
 23
1.174963
 33
2.899843
 62
0
  0
3DFACE
  8
NURBS
 10
1.664954
 20
1.161084
 30
2.922357
 11
1.635578
 21
1.144140
 31
2.933205
 12
1.599330
 22
1.196850
 32
2.933205
 13
1.625313
 23
1.218580
 33
2.922357
 62
0
  0
3DFACE
  8
NURBS
 10
1.625313
 20
1.218580
 30
2.922357
 11
1.599330
 21
1.196850
 31
2.933205
 12
1.554808
 22
1.242353
 32
2.933205
 13
1.576617
 23
1.268208
 33
2.922357
 62
0
  0
3DFACE
  8
NURBS
 10
1.576617
 20
1.268208
 30
2.922357
 11
1.554808
 21
1.242353
 31
2.933205
 12
1.503365
 22
1.279266
 32
2.933205
 13
1.520345
 23
1.308462
 33
2.922357
 62
0
  0
3DFACE
  8
NURBS
 10
1.520345
 20
1.308462
 30
2.922357
 11
1.503365
 21
1.279266
 31
2.933205
 12
1.446563
 22
1.306468
 32
2.933205
 13
1.458207
 23
1.338118
 33
2.922357
 62
0
  0
3DFACE
  8
NURBS
 10
1.458207
 20
1.338118
 30
2.922357
 11
1.446563
 21
1.306468
 31
2.933205
 12
1.386130
 22
1.323131
 32
2.933205
 13
1.392091
 23
1.356275
 33
2.922357
 62
0
  0
3DFACE
  8
NURBS
 10
1.392091
 20
1.356275
 30
2.922357
 11
1.386130
 21
1.323131
 31
2.933205
 12
1.323901
 22
1.328750
 32
2.933205
 13
1.324005
 23
1.362382
 33
2.922357
 62
0
  0
3DFACE
  8
NURBS
 10
1.324005
 20
1.362382
 30
2.922357
 11
1.323901
 21
1.328750
 31
2.933205
 12
1.261767
 22
1.323153
 32
2.933205
 13
1.256019
 23
1.356253
 33
2.922357
 62
0
  0
3DFACE
  8
NURBS
 10
1.256019
 20
1.356253
 30
2.922357
 11
1.261767
 21
1.323153
 31
2.933205
 12
1.201616
 22
1.306512
 32
2.933205
 13
1.190199
 23
1.338073
 33
2.922357
 62
0
  0
3DFACE
  8
NURBS
 10
1.190199
 20
1.338073
 30
2.922357
 11
1.201616
 21
1.306512
 31
2.933205
 12
1.145275
 22
1.279331
 32
2.933205
 13
1.128543
 23
1.308396
 33
2.922357
 62
0
  0
3DFACE
  8
NURBS
 10
1.128543
 20
1.308396
 30
2.922357
 11
1.145275
 21
1.279331
 31
2.933205
 12
1.094457
 22
1.242436
 32
2.933205
 13
1.072927
 23
1.268124
 33
2.922357
 62
0
  0
3DFACE
  8
NURBS
 10
1.072927
 20
1.268124
 30
2.922357
 11
1.094457
 21
1.242436
 31
2.933205
 12
1.050705
 22
1.196949
 32
2.933205
 13
1.025038
 23
1.218479
 33
2.922357
 62
0
  0
3DFACE
  8
NURBS
 10
1.025038
 20
1.218479
 30
2.922357
 11
1.050705
 21
1.196949
 31
2.933205
 12
1.015349
 22
1.144252
 32
2.933205
 13
0.986333
 23
1.160970
 33
2.922357
 62
0
  0
3DFACE
  8
NURBS
 10
0.986333
 20
1.160970
 30
2.922357
 11
1.015349
 21
1.144252
 31
2.933205
 12
0.989464
 22
1.085945
 32
2.933205
 13
0.957988
 23
1.097345
 33
2.922357
 62
0
  0
3DFACE
  8
NURBS
 10
0.957988
 20
1.097345
 30
2.922357
 11
0.989464
 21
1.085945
 31
2.933205
 12
0.973834
 22
1.023800
 32
2.933205
 13
0.940864
 23
1.029537
 33
2.922357
 62
0
  0
3DFACE
  8
NURBS
 10
0.940864
 20
1.029537
 30
2.922357
 11
0.973834
 21
1.023800
 31
2.933205
 12
0.968937
 22
0.959706
 32
2.933204
 13
0.935480
 23
0.959606
 33
2.922356
 62
0
  0
3DFACE
  8
NURBS
 10
0.935480
 20
0.959606
 30
2.922356
 11
0.968937
 21
0.959706
 31
2.933204
 12
0.974920
 22
0.895610
 32
2.933204
 13
0.942002
 23
0.889677
 33
2.922356
 62
0
  0
3DFACE
  8
NURBS
 10
0.942002
 20
0.889677
 30
2.922356
 11
0.974920
 21
0.895610
 31
2.933204
 12
0.991601
 22
0.833460
 32
2.933204
 13
0.960230
 23
0.821875
 33
2.922356
 62
0
  0
3DFACE
  8
NURBS
 10
0.960230
 20
0.821875
 30
2.922356
 11
0.991601
 21
0.833460
 31
2.933204
 12
1.018474
 22
0.775143
 32
2.933204
 13
0.989610
 23
0.758259
 33
2.922356
 62
0
  0
3DFACE
  8
NURBS
 10
0.989610
 20
0.758259
 30
2.922356
 11
1.018474
 21
0.775143
 31
2.933204
 12
1.054722
 22
0.722433
 32
2.933204
 13
1.029251
 23
0.700764
 33
2.922356
 62
0
  0
3DFACE
  8
NURBS
 10
1.029251
 20
0.700764
 30
2.922356
 11
1.054722
 21
0.722433
 31
2.933204
 12
1.099244
 22
0.676930
 32
2.933204
 13
1.077947
 23
0.651135
 33
2.922356
 62
0
  0
3DFACE
  8
NURBS
 10
1.077947
 20
0.651135
 30
2.922356
 11
1.099244
 21
0.676930
 31
2.933204
 12
1.150688
 22
0.640017
 32
2.933204
 13
1.134219
 23
0.610881
 33
2.922356
 62
0
  0
3DFACE
  8
NURBS
 10
1.134219
 20
0.610881
 30
2.922356
 11
1.150688
 21
0.640017
 31
2.933204
 12
1.207489
 22
0.612815
 32
2.933204
 13
1.196357
 23
0.581225
 33
2.922356
 62
0
  0
3DFACE
  8
NURBS
 10
1.196357
 20
0.581225
 30
2.922356
 11
1.207489
 21
0.612815
 31
2.933204
 12
1.267922
 22
0.596152
 32
2.933204
 13
1.262473
 23
0.563068
 33
2.922356
 62
0
  0
3DFACE
  8
NURBS
 10
1.262473
 20
0.563068
 30
2.922356
 11
1.267922
 21
0.596152
 31
2.933204
 12
1.330151
 22
0.590533
 32
2.933204
 13
1.330559
 23
0.556961
 33
2.922356
 62
0
  0
3DFACE
  8
NURBS
 10
1.330559
 20
0.556961
 30
2.922356
 11
1.330151
 21
0.590533
 31
2.933204
 12
1.392285
 22
0.596129
 32
2.933204
 13
1.398545
 23
0.563090
 33
2.922356
 62
0
  0
3DFACE
  8
NURBS
 10
1.398545
 20
0.563090
 30
2.922356
 11
1.392285
 21
0.596129
 31
2.933204
 12
1.452436
 22
0.612771
 32
2.933204
 13
1.464365
 23
0.581270
 33
2.922356
 62
0
  0
3DFACE
  8
NURBS
 10
1.464365
 20
0.581270
 30
2.922356
 11
1.452436
 21
0.612771
 31
2.933204
 12
1.508777
 22
0.639952
 32
2.933204
 13
1.526021
 23
0.610947
 33
2.922356
 62
0
  0
3DFACE
  8
NURBS
 10
1.526021
 20
0.610947
 30
2.922356
 11
1.508777
 21
0.639952
 31
2.933204
 12
1.559595
 22
0.676847
 32
2.933205
 13
1.581638
 23
0.651220
 33
2.922356
 62
0
  0
3DFACE
  8
NURBS
 10
1.581638
 20
0.651220
 30
2.922356
 11
1.559595
 21
0.676847
 31
2.933205
 12
1.603347
 22
0.722334
 32
2.933205
 13
1.629526
 23
0.700865
 33
2.922357
 62
0
  0
3DFACE
  8
NURBS
 10
1.629526
 20
0.700865
 30
2.922357
 11
1.603347
 21
0.722334
 31
2.933205
 12
1.638703
 22
0.775031
 32
2.933205
 13
1.668231
 23
0.758373
 33
2.922357
 62
0
  0
3DFACE
  8
NURBS
 10
1.668231
 20
0.758373
 30
2.922357
 11
1.638703
 21
0.775031
 31
2.933205
 12
1.664589
 22
0.833338
 32
2.933205
 13
1.696576
 23
0.821998
 33
2.922357
 62
0
  0
3DFACE
  8
NURBS
 10
1.696576
 20
0.821998
 30
2.922357
 11
1.664589
 21
0.833338
 31
2.933205
 12
1.680218
 22
0.895483
 32
2.933205
 13
1.713700
 23
0.889806
 33
2.922357
 62
0
  0
3DFACE
  8
NURBS
 10
1.713700
 20
0.889806
 30
2.922357
 11
1.680218
 21
0.895483
 31
2.933205
 12
1.685115
 22
0.959577
 32
2.933205
 13
1.719084
 23
0.959737
 33
2.922357
 62
0
  0
3DFACE
  8
NURBS
 10
1.719084
 20
0.959737
 30
2.922357
 11
1.685115
 21
0.959577
 31
2.933205
 12
1.679133
 22
1.023673
 32
2.933205
 13
1.712562
 23
1.029666
 33
2.922357
 62
0
  0
3DFACE
  8
NURBS
 10
1.712562
 20
1.029666
 30
2.922357
 11
1.679133
 21
1.023673
 31
2.933205
 12
1.662451
 22
1.085823
 32
2.933205
 13
1.694335
 23
1.097469
 33
2.922357
 62
0
  0
3DFACE
  8
NURBS
 10
1.694335
 20
1.097469
 30
2.922357
 11
1.662451
 21
1.085823
 31
2.933205
 12
1.635578
 22
1.144140
 32
2.933205
 13
1.664954
 23
1.161084
 33
2.922357
 62
0
  0
3DFACE
  8
NURBS
 10
1.635578
 20
1.144140
 30
2.933205
 11
1.635564
 21
1.144138
 31
2.933689
 12
1.599316
 22
1.196849
 32
2.933689
 13
1.599330
 23
1.196850
 33
2.933205
 62
0
  0
3DFACE
  8
NURBS
 10
1.599330
 20
1.196850
 30
2.933205
 11
1.599316
 21
1.196849
 31
2.933689
 12
1.554793
 22
1.242351
 32
2.933689
 13
1.554808
 23
1.242353
 33
2.933205
 62
0
  0
3DFACE
  8
NURBS
 10
1.554808
 20
1.242353
 30
2.933205
 11
1.554793
 21
1.242351
 31
2.933689
 12
1.503350
 22
1.279264
 32
2.933689
 13
1.503365
 23
1.279266
 33
2.933205
 62
0
  0
3DFACE
  8
NURBS
 10
1.503365
 20
1.279266
 30
2.933205
 11
1.503350
 21
1.279264
 31
2.933689
 12
1.446549
 22
1.306466
 32
2.933689
 13
1.446563
 23
1.306468
 33
2.933205
 62
0
  0
3DFACE
  8
NURBS
 10
1.446563
 20
1.306468
 30
2.933205
 11
1.446549
 21
1.306466
 31
2.933689
 12
1.386116
 22
1.323129
 32
2.933689
 13
1.386130
 23
1.323131
 33
2.933205
 62
0
  0
3DFACE
  8
NURBS
 10
1.386130
 20
1.323131
 30
2.933205
 11
1.386116
 21
1.323129
 31
2.933689
 12
1.323887
 22
1.328748
 32
2.933689
 13
1.323901
 23
1.328750
 33
2.933205
 62
0
  0
3DFACE
  8
NURBS
 10
1.323901
 20
1.328750
 30
2.933205
 11
1.323887
 21
1.328748
 31
2.933689
 12
1.261753
 22
1.323152
 32
2.933689
 13
1.261767
 23
1.323153
 33
2.933205
 62
0
  0
3DFACE
  8
NURBS
 10
1.261767
 20
1.323153
 30
2.933205
 11
1.261753
 21
1.323152
 31
2.933689
 12
1.201602
 22
1.306510
 32
2.933689
 13
1.201616
 23
1.306512
 33
2.933205
 62
0
  0
3DFACE
  8
NURBS
 10
1.201616
 20
1.306512
 30
2.933205
 11
1.201602
 21
1.306510
 31
2.933689
 12
1.145261
 22
1.279329
 32
2.933689
 13
1.145275
 23
1.279331
 33
2.933205
 62
0
  0
3DFACE
  8
NURBS
 10
1.145275
 20
1.279331
 30
2.933205
 11
1.145261
 21
1.279329
 31
2.933689
 12
1.094443
 22
1.242435
 32
2.933689
 13
1.094457
 23
1.242436
 33
2.933205
 62
0
  0
3DFACE
  8
NURBS
 10
1.094457
 20
1.242436
 30
2.933205
 11
1.094443
 21
1.242435
 31
2.933689
 12
1.050691
 22
1.196947
 32
2.933689
 13
1.050705
 23
1.196949
 33
2.933205
 62
0
  0
3DFACE
  8
NURBS
 10
1.050705
 20
1.196949
 30
2.933205
 11
1.050691
 21
1.196947
 31
2.933689
 12
1.015335
 22
1.144250
 32
2.933689
 13
1.015349
 23
1.144252
 33
2.933205
 62
0
  0
3DFACE
  8
NURBS
 10
1.015349
 20
1.144252
 30
2.933205
 11
1.015335
 21
1.144250
 31
2.933689
 12
0.989449
 22
1.085943
 32
2.933688
 13
0.989464
 23
1.085945
 33
2.933205
 62
0
  0
3DFACE
  8
NURBS
 10
0.989464
 20
1.085945
 30
2.933205
 11
0.989449
 21
1.085943
 31
2.933688
 12
0.973820
 22
1.023798
 32
2.933688
 13
0.973834
 23
1.023800
 33
2.933205
 62
0
  0
3DFACE
  8
NURBS
 10
0.973834
 20
1.023800
 30
2.933205
 11
0.973820
 21
1.023798
 31
2.933688
 12
0.968922
 22
0.959704
 32
2.933688
 13
0.968937
 23
0.959706
 33
2.933204
 62
0
  0
3DFACE
  8
NURBS
 10
0.968937
 20
0.959706
 30
2.933204
 11
0.968922
 21
0.959704
 31
2.933688
 12
0.974905
 22
0.895608
 32
2.933688
 13
0.974920
 23
0.895610
 33
2.933204
 62
0
  0
3DFACE
  8
NURBS
 10
0.974920
 20
0.895610
 30
2.933204
 11
0.974905
 21
0.895608
 31
2.933688
 12
0.991587
 22
0.833458
 32
2.933688
 13
0.991601
 23
0.833460
 33
2.933204
 62
0
  0
3DFACE
  8
NURBS
 10
0.991601
 20
0.833460
 30
2.933204
 11
0.991587
 21
0.833458
 31
2.933688
 12
1.018460
 22
0.775142
 32
2.933688
 13
1.018474
 23
0.775143
 33
2.933204
 62
0
  0
3DFACE
  8
NURBS
 10
1.018474
 20
0.775143
 30
2.933204
 11
1.018460
 21
0.775142
 31
2.933688
 12
1.054708
 22
0.722431
 32
2.933688
 13
1.054722
 23
0.722433
 33
2.933204
 62
0
  0
3DFACE
  8
NURBS
 10
1.054722
 20
0.722433
 30
2.933204
 11
1.054708
 21
0.722431
 31
2.933688
 12
1.099230
 22
0.676928
 32
2.933688
 13
1.099244
 23
0.676930
 33
2.933204
 62
0
  0
3DFACE
  8
NURBS
 10
1.099244
 20
0.676930
 30
2.933204
 11
1.099230
 21
0.676928
 31
2.933688
 12
1.150673
 22
0.640015
 32
2.933688
 13
1.150688
 23
0.640017
 33
2.933204
 62
0
  0
3DFACE
  8
NURBS
 10
1.150688
 20
0.640017
 30
2.933204
 11
1.150673
 21
0.640015
 31
2.933688
 12
1.207474
 22
0.612813
 32
2.933688
 13
1.207489
 23
0.612815
 33
2.933204
 62
0
  0
3DFACE
  8
NURBS
 10
1.207489
 20
0.612815
 30
2.933204
 11
1.207474
 21
0.612813
 31
2.933688
 12
1.267907
 22
0.596150
 32
2.933688
 13
1.267922
 23
0.596152
 33
2.933204
 62
0
  0
3DFACE
  8
NURBS
 10
1.267922
 20
0.596152
 30
2.933204
 11
1.267907
 21
0.596150
 31
2.933688
 12
1.330136
 22
0.590531
 32
2.933688
 13
1.330151
 23
0.590533
 33
2.933204
 62
0
  0
3DFACE
  8
NURBS
 10
1.330151
 20
0.590533
 30
2.933204
 11
1.330136
 21
0.590531
 31
2.933688
 12
1.392271
 22
0.596128
 32
2.933688
 13
1.392285
 23
0.596129
 33
2.933204
 62
0
  0
3DFACE
  8
NURBS
 10
1.392285
 20
0.596129
 30
2.933204
 11
1.392271
 21
0.596128
 31
2.933688
 12
1.452422
 22
0.612769
 32
2.933688
 13
1.452436
 23
0.612771
 33
2.933204
 62
0
  0
3DFACE
  8
NURBS
 10
1.452436
 20
0.612771
 30
2.933204
 11
1.452422
 21
0.612769
 31
2.933688
 12
1.508762
 22
0.639950
 32
2.933688
 13
1.508777
 23
0.639952
 33
2.933204
 62
0
  0
3DFACE
  8
NURBS
 10
1.508777
 20
0.639952
 30
2.933204
 11
1.508762
 21
0.639950
 31
2.933688
 12
1.559581
 22
0.676845
 32
2.933688
 13
1.559595
 23
0.676847
 33
2.933205
 62
0
  0
3DFACE
  8
NURBS
 10
1.559595
 20
0.676847
 30
2.933205
 11
1.559581
 21
0.676845
 31
2.933688
 12
1.603333
 22
0.722332
 32
2.933688
 13
1.603347
 23
0.722334
 33
2.933205
 62
0
  0
3DFACE
  8
NURBS
 10
1.603347
 20
0.722334
 30
2.933205
 11
1.603333
 21
0.722332
 31
2.933688
 12
1.638689
 22
0.775030
 32
2.933689
 13
1.638703
 23
0.775031
 33
2.933205
 62
0
  0
3DFACE
  8
NURBS
 10
1.638703
 20
0.775031
 30
2.933205
 11
1.638689
 21
0.775030
 31
2.933689
 12
1.664574
 22
0.833336
 32
2.933689
 13
1.664589
 23
0.833338
 33
2.933205
 62
0
  0
3DFACE
  8
NURBS
 10
1.664589
 20
0.833338
 30
2.933205
 11
1.664574
 21
0.833336
 31
2.933689
 12
1.680203
 22
0.895481
 32
2.933689
 13
1.680218
 23
0.895483
 33
2.933205
 62
0
  0
3DFACE
  8
NURBS
 10
1.680218
 20
0.895483
 30
2.933205
 11
1.680203
 21
0.895481
 31
2.933689
 12
1.685101
 22
0.959575
 32
2.933689
 13
1.685115
 23
0.959577
 33
2.933205
 62
0
  0
3DFACE
  8
NURBS
 10
1.685115
 20
0.959577
 30
2.933205
 11
1.685101
 21
0.959575
 31
2.933689
 12
1.679118
 22
1.023671
 32
2.933689
 13
1.679133
 23
1.023673
 33
2.933205
 62
0
  0
3DFACE
  8
NURBS
 10
1.679133
 20
1.023673
 30
2.933205
 11
1.679118
 21
1.023671
 31
2.933689
 12
1.662437
 22
1.085822
 32
2.933689
 13
1.662451
 23
1.085823
 33
2.933205
 62
0
  0
3DFACE
  8
NURBS
 10
1.662451
 20
1.085823
 30
2.933205
 11
1.662437
 21
1.085822
 31
2.933689
 12
1.635564
 22
1.144138
 32
2.933689
 13
1.635578
 23
1.144140
 33
2.933205
 62
0
  0
3DFACE
  8
NURBS
 10
1.635564
 20
1.144138
 30
2.933689
 11
1.624426
 21
1.138149
 31
2.928056
 12
1.589445
 22
1.189212
 32
2.928056
 13
1.599316
 23
1.196849
 33
2.933689
 62
0
  0
3DFACE
  8
NURBS
 10
1.599316
 20
1.196849
 30
2.933689
 11
1.589445
 21
1.189212
 31
2.928056
 12
1.546490
 22
1.233299
 32
2.928056
 13
1.554793
 23
1.242351
 33
2.933689
 62
0
  0
3DFACE
  8
NURBS
 10
1.554793
 20
1.242351
 30
2.933689
 11
1.546490
 21
1.233299
 31
2.928056
 12
1.496866
 22
1.269071
 32
2.928056
 13
1.503350
 23
1.279264
 33
2.933689
 62
0
  0
3DFACE
  8
NURBS
 10
1.503350
 20
1.279264
 30
2.933689
 11
1.496866
 21
1.269071
 31
2.928056
 12
1.442080
 22
1.295442
 32
2.928056
 13
1.446549
 23
1.306466
 33
2.933689
 62
0
  0
3DFACE
  8
NURBS
 10
1.446549
 20
1.306466
 30
2.933689
 11
1.442080
 21
1.295442
 31
2.928056
 12
1.383797
 22
1.311609
 32
2.928056
 13
1.386116
 23
1.323129
 33
2.933689
 62
0
  0
3DFACE
  8
NURBS
 10
1.386116
 20
1.323129
 30
2.933689
 11
1.383797
 21
1.311609
 31
2.928056
 12
1.323788
 22
1.317082
 32
2.928056
 13
1.323887
 23
1.328748
 33
2.933689
 62
0
  0
3DFACE
  8
NURBS
 10
1.323887
 20
1.328748
 30
2.933689
 11
1.323788
 21
1.317082
 31
2.928056
 12
1.263877
 22
1.311694
 32
2.928056
 13
1.261753
 23
1.323152
 33
2.933689
 62
0
  0
3DFACE
  8
NURBS
 10
1.261753
 20
1.323152
 30
2.933689
 11
1.263877
 21
1.311694
 31
2.928056
 12
1.205883
 22
1.295608
 32
2.928056
 13
1.201602
 23
1.306510
 33
2.933689
 62
0
  0
3DFACE
  8
NURBS
 10
1.201602
 20
1.306510
 30
2.933689
 11
1.205883
 21
1.295608
 31
2.928056
 12
1.151568
 22
1.269315
 32
2.928056
 13
1.145261
 23
1.279329
 33
2.933689
 62
0
  0
3DFACE
  8
NURBS
 10
1.145261
 20
1.279329
 30
2.933689
 11
1.151568
 21
1.269315
 31
2.928056
 12
1.102584
 22
1.233612
 32
2.928056
 13
1.094443
 23
1.242435
 33
2.933689
 62
0
  0
3DFACE
  8
NURBS
 10
1.094443
 20
1.242435
 30
2.933689
 11
1.102584
 21
1.233612
 31
2.928056
 12
1.060419
 22
1.189584
 32
2.928055
 13
1.050691
 23
1.196947
 33
2.933689
 62
0
  0
3DFACE
  8
NURBS
 10
1.050691
 20
1.196947
 30
2.933689
 11
1.060419
 21
1.189584
 31
2.928055
 12
1.026353
 22
1.138570
 32
2.928055
 13
1.015335
 23
1.144250
 33
2.933689
 62
0
  0
3DFACE
  8
NURBS
 10
1.015335
 20
1.144250
 30
2.933689
 11
1.026353
 21
1.138570
 31
2.928055
 12
1.001421
 22
1.082119
 32
2.928055
 13
0.989449
 23
1.085943
 33
2.933688
 62
0
  0
3DFACE
  8
NURBS
 10
0.989449
 20
1.085943
 30
2.933688
 11
1.001421
 21
1.082119
 31
2.928055
 12
0.986382
 22
1.021946
 32
2.928055
 13
0.973820
 23
1.023798
 33
2.933688
 62
0
  0
3DFACE
  8
NURBS
 10
0.973820
 20
1.023798
 30
2.933688
 11
0.986382
 21
1.021946
 31
2.928055
 12
0.981692
 22
0.959880
 32
2.928055
 13
0.968922
 23
0.959704
 33
2.933688
 62
0
  0
3DFACE
  8
NURBS
 10
0.968922
 20
0.959704
 30
2.933688
 11
0.981692
 21
0.959880
 31
2.928055
 12
0.987494
 22
0.897807
 32
2.928055
 13
0.974905
 23
0.895608
 33
2.933688
 62
0
  0
3DFACE
  8
NURBS
 10
0.974905
 20
0.895608
 30
2.933688
 11
0.987494
 21
0.897807
 31
2.928055
 12
1.003611
 22
0.837612
 32
2.928055
 13
0.991587
 23
0.833458
 33
2.933688
 62
0
  0
3DFACE
  8
NURBS
 10
0.991587
 20
0.833458
 30
2.933688
 11
1.003611
 21
0.837612
 31
2.928055
 12
1.029554
 22
0.781125
 32
2.928055
 13
1.018460
 23
0.775142
 33
2.933688
 62
0
  0
3DFACE
  8
NURBS
 10
1.018460
 20
0.775142
 30
2.933688
 11
1.029554
 21
0.781125
 31
2.928055
 12
1.064534
 22
0.730062
 32
2.928055
 13
1.054708
 23
0.722431
 33
2.933688
 62
0
  0
3DFACE
  8
NURBS
 10
1.054708
 20
0.722431
 30
2.933688
 11
1.064534
 21
0.730062
 31
2.928055
 12
1.107489
 22
0.685975
 32
2.928055
 13
1.099230
 23
0.676928
 33
2.933688
 62
0
  0
3DFACE
  8
NURBS
 10
1.099230
 20
0.676928
 30
2.933688
 11
1.107489
 21
0.685975
 31
2.928055
 12
1.157114
 22
0.650202
 32
2.928055
 13
1.150673
 23
0.640015
 33
2.933688
 62
0
  0
3DFACE
  8
NURBS
 10
1.150673
 20
0.640015
 30
2.933688
 11
1.157114
 21
0.650202
 31
2.928055
 12
1.211900
 22
0.623832
 32
2.928055
 13
1.207474
 23
0.612813
 33
2.933688
 62
0
  0
3DFACE
  8
NURBS
 10
1.207474
 20
0.612813
 30
2.933688
 11
1.211900
 21
0.623832
 31
2.928055
 12
1.270182
 22
0.607665
 32
2.928055
 13
1.267907
 23
0.596150
 33
2.933688
 62
0
  0
3DFACE
  8
NURBS
 10
1.267907
 20
0.596150
 30
2.933688
 11
1.270182
 21
0.607665
 31
2.928055
 12
1.330191
 22
0.602192
 32
2.928055
 13
1.330136
 23
0.590531
 33
2.933688
 62
0
  0
3DFACE
  8
NURBS
 10
1.330136
 20
0.590531
 30
2.933688
 11
1.330191
 21
0.602192
 31
2.928055
 12
1.390103
 22
0.607580
 32
2.928055
 13
1.392271
 23
0.596128
 33
2.933688
 62
0
  0
3DFACE
  8
NURBS
 10
1.392271
 20
0.596128
 30
2.933688
 11
1.390103
 21
0.607580
 31
2.928055
 12
1.448097
 22
0.623666
 32
2.928055
 13
1.452422
 23
0.612769
 33
2.933688
 62
0
  0
3DFACE
  8
NURBS
 10
1.452422
 20
0.612769
 30
2.933688
 11
1.448097
 21
0.623666
 31
2.928055
 12
1.502411
 22
0.649959
 32
2.928055
 13
1.508762
 23
0.639950
 33
2.933688
 62
0
  0
3DFACE
  8
NURBS
 10
1.508762
 20
0.639950
 30
2.933688
 11
1.502411
 21
0.649959
 31
2.928055
 12
1.551396
 22
0.685662
 32
2.928055
 13
1.559581
 23
0.676845
 33
2.933688
 62
0
  0
3DFACE
  8
NURBS
 10
1.559581
 20
0.676845
 30
2.933688
 11
1.551396
 21
0.685662
 31
2.928055
 12
1.593561
 22
0.729690
 32
2.928055
 13
1.603333
 23
0.722332
 33
2.933688
 62
0
  0
3DFACE
  8
NURBS
 10
1.603333
 20
0.722332
 30
2.933688
 11
1.593561
 21
0.729690
 31
2.928055
 12
1.627627
 22
0.780704
 32
2.928056
 13
1.638689
 23
0.775030
 33
2.933689
 62
0
  0
3DFACE
  8
NURBS
 10
1.638689
 20
0.775030
 30
2.933689
 11
1.627627
 21
0.780704
 31
2.928056
 12
1.652559
 22
0.837155
 32
2.928056
 13
1.664574
 23
0.833336
 33
2.933689
 62
0
  0
3DFACE
  8
NURBS
 10
1.664574
 20
0.833336
 30
2.933689
 11
1.652559
 21
0.837155
 31
2.928056
 12
1.667598
 22
0.897328
 32
2.928056
 13
1.680203
 23
0.895481
 33
2.933689
 62
0
  0
3DFACE
  8
NURBS
 10
1.680203
 20
0.895481
 30
2.933689
 11
1.667598
 21
0.897328
 31
2.928056
 12
1.672288
 22
0.959394
 32
2.928056
 13
1.685101
 23
0.959575
 33
2.933689
 62
0
  0
3DFACE
  8
NURBS
 10
1.685101
 20
0.959575
 30
2.933689
 11
1.672288
 21
0.959394
 31
2.928056
 12
1.666486
 22
1.021467
 32
2.928056
 13
1.679118
 23
1.023671
 33
2.933689
 62
0
  0
3DFACE
  8
NURBS
 10
1.679118
 20
1.023671
 30
2.933689
 11
1.666486
 21
1.021467
 31
2.928056
 12
1.650369
 22
1.081662
 32
2.928056
 13
1.662437
 23
1.085822
 33
2.933689
 62
0
  0
3DFACE
  8
NURBS
 10
1.662437
 20
1.085822
 30
2.933689
 11
1.650369
 21
1.081662
 31
2.928056
 12
1.624426
 22
1.138149
 32
2.928056
 13
1.635564
 23
1.144138
 33
2.933689
 62
0
  0
3DFACE
  8
NURBS
 10
1.624426
 20
1.138149
 30
2.928056
 11
1.617174
 21
1.133166
 31
2.912098
 12
1.583081
 22
1.182743
 32
2.912098
 13
1.589445
 23
1.189212
 33
2.928056
 62
0
  0
3DFACE
  8
NURBS
 10
1.589445
 20
1.189212
 30
2.928056
 11
1.583081
 21
1.182743
 31
2.912098
 12
1.541205
 22
1.225541
 32
2.912098
 13
1.546490
 23
1.233299
 33
2.928056
 62
0
  0
3DFACE
  8
NURBS
 10
1.546490
 20
1.233299
 30
2.928056
 11
1.541205
 21
1.225541
 31
2.912098
 12
1.492819
 22
1.260260
 32
2.912098
 13
1.496866
 23
1.269071
 33
2.928056
 62
0
  0
3DFACE
  8
NURBS
 10
1.496866
 20
1.269071
 30
2.928056
 11
1.492819
 21
1.260260
 31
2.912098
 12
1.439395
 22
1.285845
 32
2.912098
 13
1.442080
 23
1.295442
 33
2.928056
 62
0
  0
3DFACE
  8
NURBS
 10
1.442080
 20
1.295442
 30
2.928056
 11
1.439395
 21
1.285845
 31
2.912098
 12
1.382554
 22
1.301517
 32
2.912098
 13
1.383797
 23
1.311609
 33
2.928056
 62
0
  0
3DFACE
  8
NURBS
 10
1.383797
 20
1.311609
 30
2.928056
 11
1.382554
 21
1.301517
 31
2.912098
 12
1.324023
 22
1.306802
 32
2.912098
 13
1.323788
 23
1.317082
 33
2.928056
 62
0
  0
3DFACE
  8
NURBS
 10
1.323788
 20
1.317082
 30
2.928056
 11
1.324023
 21
1.306802
 31
2.912098
 12
1.265583
 22
1.301539
 32
2.912098
 13
1.263877
 23
1.311694
 33
2.928056
 62
0
  0
3DFACE
  8
NURBS
 10
1.263877
 20
1.311694
 30
2.928056
 11
1.265583
 21
1.301539
 31
2.912098
 12
1.209007
 22
1.285886
 32
2.912098
 13
1.205883
 23
1.295608
 33
2.928056
 62
0
  0
3DFACE
  8
NURBS
 10
1.205883
 20
1.295608
 30
2.928056
 11
1.209007
 21
1.285886
 31
2.912098
 12
1.156015
 22
1.260321
 32
2.912098
 13
1.151568
 23
1.269315
 33
2.928056
 62
0
  0
3DFACE
  8
NURBS
 10
1.151568
 20
1.269315
 30
2.928056
 11
1.156015
 21
1.260321
 31
2.912098
 12
1.108217
 22
1.225619
 32
2.912098
 13
1.102584
 23
1.233612
 33
2.928056
 62
0
  0
3DFACE
  8
NURBS
 10
1.102584
 20
1.233612
 30
2.928056
 11
1.108217
 21
1.225619
 31
2.912098
 12
1.067066
 22
1.182836
 32
2.912098
 13
1.060419
 23
1.189584
 33
2.928055
 62
0
  0
3DFACE
  8
NURBS
 10
1.060419
 20
1.189584
 30
2.928055
 11
1.067066
 21
1.182836
 31
2.912098
 12
1.033812
 22
1.133271
 32
2.912098
 13
1.026353
 23
1.138570
 33
2.928055
 62
0
  0
3DFACE
  8
NURBS
 10
1.026353
 20
1.138570
 30
2.928055
 11
1.033812
 21
1.133271
 31
2.912098
 12
1.009464
 22
1.078430
 32
2.912097
 13
1.001421
 23
1.082119
 33
2.928055
 62
0
  0
3DFACE
  8
NURBS
 10
1.001421
 20
1.082119
 30
2.928055
 11
1.009464
 21
1.078430
 31
2.912097
 12
0.994764
 22
1.019979
 32
2.912097
 13
0.986382
 23
1.021946
 33
2.928055
 62
0
  0
3DFACE
  8
NURBS
 10
0.986382
 20
1.021946
 30
2.928055
 11
0.994764
 21
1.019979
 31
2.912097
 12
0.990158
 22
0.959695
 32
2.912097
 13
0.981692
 23
0.959880
 33
2.928055
 62
0
  0
3DFACE
  8
NURBS
 10
0.981692
 20
0.959880
 30
2.928055
 11
0.990158
 21
0.959695
 31
2.912097
 12
0.995785
 22
0.899408
 32
2.912097
 13
0.987494
 23
0.897807
 33
2.928055
 62
0
  0
3DFACE
  8
NURBS
 10
0.987494
 20
0.897807
 30
2.928055
 11
0.995785
 21
0.899408
 31
2.912097
 12
1.011475
 22
0.840952
 32
2.912097
 13
1.003611
 23
0.837612
 33
2.928055
 62
0
  0
3DFACE
  8
NURBS
 10
1.003611
 20
0.837612
 30
2.928055
 11
1.011475
 21
0.840952
 31
2.912097
 12
1.036750
 22
0.786102
 32
2.912097
 13
1.029554
 23
0.781125
 33
2.928055
 62
0
  0
3DFACE
  8
NURBS
 10
1.029554
 20
0.781125
 30
2.928055
 11
1.036750
 21
0.786102
 31
2.912097
 12
1.070844
 22
0.736525
 32
2.912097
 13
1.064534
 23
0.730062
 33
2.928055
 62
0
  0
3DFACE
  8
NURBS
 10
1.064534
 20
0.730062
 30
2.928055
 11
1.070844
 21
0.736525
 31
2.912097
 12
1.112720
 22
0.693726
 32
2.912097
 13
1.107489
 23
0.685975
 33
2.928055
 62
0
  0
3DFACE
  8
NURBS
 10
1.107489
 20
0.685975
 30
2.928055
 11
1.112720
 21
0.693726
 31
2.912097
 12
1.161105
 22
0.659007
 32
2.912097
 13
1.157114
 23
0.650202
 33
2.928055
 62
0
  0
3DFACE
  8
NURBS
 10
1.157114
 20
0.650202
 30
2.928055
 11
1.161105
 21
0.659007
 31
2.912097
 12
1.214530
 22
0.633423
 32
2.912097
 13
1.211900
 23
0.623832
 33
2.928055
 62
0
  0
3DFACE
  8
NURBS
 10
1.211900
 20
0.623832
 30
2.928055
 11
1.214530
 21
0.633423
 31
2.912097
 12
1.271371
 22
0.617750
 32
2.912097
 13
1.270182
 23
0.607665
 33
2.928055
 62
0
  0
3DFACE
  8
NURBS
 10
1.270182
 20
0.607665
 30
2.928055
 11
1.271371
 21
0.617750
 31
2.912097
 12
1.329901
 22
0.612465
 32
2.912097
 13
1.330191
 23
0.602192
 33
2.928055
 62
0
  0
3DFACE
  8
NURBS
 10
1.330191
 20
0.602192
 30
2.928055
 11
1.329901
 21
0.612465
 31
2.912097
 12
1.388342
 22
0.617729
 32
2.912097
 13
1.390103
 23
0.607580
 33
2.928055
 62
0
  0
3DFACE
  8
NURBS
 10
1.390103
 20
0.607580
 30
2.928055
 11
1.388342
 21
0.617729
 31
2.912097
 12
1.444918
 22
0.633381
 32
2.912097
 13
1.448097
 23
0.623666
 33
2.928055
 62
0
  0
3DFACE
  8
NURBS
 10
1.448097
 20
0.623666
 30
2.928055
 11
1.444918
 21
0.633381
 31
2.912097
 12
1.497910
 22
0.658946
 32
2.912097
 13
1.502411
 23
0.649959
 33
2.928055
 62
0
  0
3DFACE
  8
NURBS
 10
1.502411
 20
0.649959
 30
2.928055
 11
1.497910
 21
0.658946
 31
2.912097
 12
1.545708
 22
0.693648
 32
2.912098
 13
1.551396
 23
0.685662
 33
2.928055
 62
0
  0
3DFACE
  8
NURBS
 10
1.551396
 20
0.685662
 30
2.928055
 11
1.545708
 21
0.693648
 31
2.912098
 12
1.586859
 22
0.736431
 32
2.912098
 13
1.593561
 23
0.729690
 33
2.928055
 62
0
  0
3DFACE
  8
NURBS
 10
1.593561
 20
0.729690
 30
2.928055
 11
1.586859
 21
0.736431
 31
2.912098
 12
1.620113
 22
0.785997
 32
2.912098
 13
1.627627
 23
0.780704
 33
2.928056
 62
0
  0
3DFACE
  8
NURBS
 10
1.627627
 20
0.780704
 30
2.928056
 11
1.620113
 21
0.785997
 31
2.912098
 12
1.644461
 22
0.840838
 32
2.912098
 13
1.652559
 23
0.837155
 33
2.928056
 62
0
  0
3DFACE
  8
NURBS
 10
1.652559
 20
0.837155
 30
2.928056
 11
1.644461
 21
0.840838
 31
2.912098
 12
1.659161
 22
0.899289
 32
2.912098
 13
1.667598
 23
0.897328
 33
2.928056
 62
0
  0
3DFACE
  8
NURBS
 10
1.667598
 20
0.897328
 30
2.928056
 11
1.659161
 21
0.899289
 31
2.912098
 12
1.663767
 22
0.959573
 32
2.912098
 13
1.672288
 23
0.959394
 33
2.928056
 62
0
  0
3DFACE
  8
NURBS
 10
1.672288
 20
0.959394
 30
2.928056
 11
1.663767
 21
0.959573
 31
2.912098
 12
1.658140
 22
1.019859
 32
2.912098
 13
1.666486
 23
1.021467
 33
2.928056
 62
0
  0
3DFACE
  8
NURBS
 10
1.666486
 20
1.021467
 30
2.928056
 11
1.658140
 21
1.019859
 31
2.912098
 12
1.642450
 22
1.078315
 32
2.912098
 13
1.650369
 23
1.081662
 33
2.928056
 62
0
  0
3DFACE
  8
NURBS
 10
1.650369
 20
1.081662
 30
2.928056
 11
1.642450
 21
1.078315
 31
2.912098
 12
1.617174
 22
1.133166
 32
2.912098
 13
1.624426
 23
1.138149
 33
2.928056
 62
0
  0
3DFACE
  8
NURBS
 10
1.617174
 20
1.133166
 30
2.912098
 11
1.608533
 21
1.130425
 31
2.896141
 12
1.575313
 22
1.179450
 32
2.896141
 13
1.583081
 23
1.182743
 33
2.912098
 62
0
  0
3DFACE
  8
NURBS
 10
1.583081
 20
1.182743
 30
2.912098
 11
1.575313
 21
1.179450
 31
2.896141
 12
1.534546
 22
1.221795
 32
2.896141
 13
1.541205
 23
1.225541
 33
2.912098
 62
0
  0
3DFACE
  8
NURBS
 10
1.541205
 20
1.225541
 30
2.912098
 11
1.534546
 21
1.221795
 31
2.896141
 12
1.487470
 22
1.256175
 32
2.896141
 13
1.492819
 23
1.260260
 33
2.912098
 62
0
  0
3DFACE
  8
NURBS
 10
1.492819
 20
1.260260
 30
2.912098
 11
1.487470
 21
1.256175
 31
2.896141
 12
1.435517
 22
1.281545
 32
2.896141
 13
1.439395
 23
1.285845
 33
2.912098
 62
0
  0
3DFACE
  8
NURBS
 10
1.439395
 20
1.285845
 30
2.912098
 11
1.435517
 21
1.281545
 31
2.896141
 12
1.380265
 22
1.297133
 32
2.896141
 13
1.382554
 23
1.301517
 33
2.912098
 62
0
  0
3DFACE
  8
NURBS
 10
1.382554
 20
1.301517
 30
2.912098
 11
1.380265
 21
1.297133
 31
2.896141
 12
1.323393
 22
1.302467
 32
2.896141
 13
1.324023
 23
1.306802
 33
2.912098
 62
0
  0
3DFACE
  8
NURBS
 10
1.324023
 20
1.306802
 30
2.912098
 11
1.323393
 21
1.302467
 31
2.896141
 12
1.266628
 22
1.297383
 32
2.896141
 13
1.265583
 23
1.301539
 33
2.912098
 62
0
  0
3DFACE
  8
NURBS
 10
1.265583
 20
1.301539
 30
2.912098
 11
1.266628
 21
1.297383
 31
2.896141
 12
1.211695
 22
1.282037
 32
2.896141
 13
1.209007
 23
1.285886
 33
2.912098
 62
0
  0
3DFACE
  8
NURBS
 10
1.209007
 20
1.285886
 30
2.912098
 11
1.211695
 21
1.282037
 31
2.896141
 12
1.160264
 22
1.256896
 32
2.896140
 13
1.156015
 23
1.260321
 33
2.912098
 62
0
  0
3DFACE
  8
NURBS
 10
1.156015
 20
1.260321
 30
2.912098
 11
1.160264
 21
1.256896
 31
2.896140
 12
1.113898
 22
1.222721
 32
2.896140
 13
1.108217
 23
1.225619
 33
2.912098
 62
0
  0
3DFACE
  8
NURBS
 10
1.108217
 20
1.225619
 30
2.912098
 11
1.113898
 21
1.222721
 31
2.896140
 12
1.074004
 22
1.180553
 32
2.896140
 13
1.067066
 23
1.182836
 33
2.912098
 62
0
  0
3DFACE
  8
NURBS
 10
1.067066
 20
1.182836
 30
2.912098
 11
1.074004
 21
1.180553
 31
2.896140
 12
1.041796
 22
1.131673
 32
2.896140
 13
1.033812
 23
1.133271
 33
2.912098
 62
0
  0
3DFACE
  8
NURBS
 10
1.033812
 20
1.133271
 30
2.912098
 11
1.041796
 21
1.131673
 31
2.896140
 12
1.018251
 22
1.077564
 32
2.896140
 13
1.009464
 23
1.078430
 33
2.912097
 62
0
  0
3DFACE
  8
NURBS
 10
1.009464
 20
1.078430
 30
2.912097
 11
1.018251
 21
1.077564
 31
2.896140
 12
1.004086
 22
1.019873
 32
2.896140
 13
0.994764
 23
1.019979
 33
2.912097
 62
0
  0
3DFACE
  8
NURBS
 10
0.994764
 20
1.019979
 30
2.912097
 11
1.004086
 21
1.019873
 31
2.896140
 12
0.999730
 22
0.960351
 32
2.896140
 13
0.990158
 23
0.959695
 33
2.912097
 62
0
  0
3DFACE
  8
NURBS
 10
0.990158
 20
0.959695
 30
2.912097
 11
0.999730
 21
0.960351
 31
2.896140
 12
1.005317
 22
0.900807
 32
2.896140
 13
0.995785
 23
0.899408
 33
2.912097
 62
0
  0
3DFACE
  8
NURBS
 10
0.995785
 20
0.899408
 30
2.912097
 11
1.005317
 21
0.900807
 31
2.896140
 12
1.020675
 22
0.843051
 32
2.896140
 13
1.011475
 23
0.840952
 33
2.912097
 62
0
  0
3DFACE
  8
NURBS
 10
1.011475
 20
0.840952
 30
2.912097
 11
1.020675
 21
0.843051
 31
2.896140
 12
1.045340
 22
0.788836
 32
2.896140
 13
1.036750
 23
0.786102
 33
2.912097
 62
0
  0
3DFACE
  8
NURBS
 10
1.036750
 20
0.786102
 30
2.912097
 11
1.045340
 21
0.788836
 31
2.896140
 12
1.078560
 22
0.739812
 32
2.896140
 13
1.070844
 23
0.736525
 33
2.912097
 62
0
  0
3DFACE
  8
NURBS
 10
1.070844
 20
0.736525
 30
2.912097
 11
1.078560
 21
0.739812
 31
2.896140
 12
1.119327
 22
0.697466
 32
2.896140
 13
1.112720
 23
0.693726
 33
2.912097
 62
0
  0
3DFACE
  8
NURBS
 10
1.112720
 20
0.693726
 30
2.912097
 11
1.119327
 21
0.697466
 31
2.896140
 12
1.166403
 22
0.663086
 32
2.896140
 13
1.161105
 23
0.659007
 33
2.912097
 62
0
  0
3DFACE
  8
NURBS
 10
1.161105
 20
0.659007
 30
2.912097
 11
1.166403
 21
0.663086
 31
2.896140
 12
1.218356
 22
0.637716
 32
2.896140
 13
1.214530
 23
0.633423
 33
2.912097
 62
0
  0
3DFACE
  8
NURBS
 10
1.214530
 20
0.633423
 30
2.912097
 11
1.218356
 21
0.637716
 31
2.896140
 12
1.273608
 22
0.622128
 32
2.896140
 13
1.271371
 23
0.617750
 33
2.912097
 62
0
  0
3DFACE
  8
NURBS
 10
1.271371
 20
0.617750
 30
2.912097
 11
1.273608
 21
0.622128
 31
2.896140
 12
1.330480
 22
0.616794
 32
2.896140
 13
1.329901
 23
0.612465
 33
2.912097
 62
0
  0
3DFACE
  8
NURBS
 10
1.329901
 20
0.612465
 30
2.912097
 11
1.330480
 21
0.616794
 31
2.896140
 12
1.387245
 22
0.621878
 32
2.896140
 13
1.388342
 23
0.617729
 33
2.912097
 62
0
  0
3DFACE
  8
NURBS
 10
1.388342
 20
0.617729
 30
2.912097
 11
1.387245
 21
0.621878
 31
2.896140
 12
1.442178
 22
0.637223
 32
2.896140
 13
1.444918
 23
0.633381
 33
2.912097
 62
0
  0
3DFACE
  8
NURBS
 10
1.444918
 20
0.633381
 30
2.912097
 11
1.442178
 21
0.637223
 31
2.896140
 12
1.493609
 22
0.662365
 32
2.896140
 13
1.497910
 23
0.658946
 33
2.912097
 62
0
  0
3DFACE
  8
NURBS
 10
1.497910
 20
0.658946
 30
2.912097
 11
1.493609
 21
0.662365
 31
2.896140
 12
1.539975
 22
0.696540
 32
2.896140
 13
1.545708
 23
0.693648
 33
2.912098
 62
0
  0
3DFACE
  8
NURBS
 10
1.545708
 20
0.693648
 30
2.912098
 11
1.539975
 21
0.696540
 31
2.896140
 12
1.579869
 22
0.738708
 32
2.896140
 13
1.586859
 23
0.736431
 33
2.912098
 62
0
  0
3DFACE
  8
NURBS
 10
1.586859
 20
0.736431
 30
2.912098
 11
1.579869
 21
0.738708
 31
2.896140
 12
1.612077
 22
0.787588
 32
2.896140
 13
1.620113
 23
0.785997
 33
2.912098
 62
0
  0
3DFACE
  8
NURBS
 10
1.620113
 20
0.785997
 30
2.912098
 11
1.612077
 21
0.787588
 31
2.896140
 12
1.635622
 22
0.841697
 32
2.896140
 13
1.644461
 23
0.840838
 33
2.912098
 62
0
  0
3DFACE
  8
NURBS
 10
1.644461
 20
0.840838
 30
2.912098
 11
1.635622
 21
0.841697
 31
2.896140
 12
1.649787
 22
0.899388
 32
2.896141
 13
1.659161
 23
0.899289
 33
2.912098
 62
0
  0
3DFACE
  8
NURBS
 10
1.659161
 20
0.899289
 30
2.912098
 11
1.649787
 21
0.899388
 31
2.896141
 12
1.654143
 22
0.958910
 32
2.896141
 13
1.663767
 23
0.959573
 33
2.912098
 62
0
  0
3DFACE
  8
NURBS
 10
1.663767
 20
0.959573
 30
2.912098
 11
1.654143
 21
0.958910
 31
2.896141
 12
1.648556
 22
1.018454
 32
2.896141
 13
1.658140
 23
1.019859
 33
2.912098
 62
0
  0
3DFACE
  8
NURBS
 10
1.658140
 20
1.019859
 30
2.912098
 11
1.648556
 21
1.018454
 31
2.896141
 12
1.633198
 22
1.076210
 32
2.896141
 13
1.642450
 23
1.078315
 33
2.912098
 62
0
  0
3DFACE
  8
NURBS
 10
1.642450
 20
1.078315
 30
2.912098
 11
1.633198
 21
1.076210
 31
2.896141
 12
1.608533
 22
1.130425
 32
2.896141
 13
1.617174
 23
1.133166
 33
2.912098
 62
0
  0
3DFACE
  8
NURBS
 10
1.608533
 20
1.130425
 30
2.896141
 11
1.601711
 21
1.128699
 31
2.880184
 12
1.569155
 22
1.177454
 32
2.880184
 13
1.575313
 23
1.179450
 33
2.896141
 62
0
  0
3DFACE
  8
NURBS
 10
1.575313
 20
1.179450
 30
2.896141
 11
1.569155
 21
1.177454
 31
2.880184
 12
1.529238
 22
1.219591
 32
2.880184
 13
1.534546
 23
1.221795
 33
2.896141
 62
0
  0
3DFACE
  8
NURBS
 10
1.534546
 20
1.221795
 30
2.896141
 11
1.529238
 21
1.219591
 31
2.880184
 12
1.483173
 22
1.253828
 32
2.880184
 13
1.487470
 23
1.256175
 33
2.896141
 62
0
  0
3DFACE
  8
NURBS
 10
1.487470
 20
1.256175
 30
2.896141
 11
1.483173
 21
1.253828
 31
2.880184
 12
1.432361
 22
1.279127
 32
2.880184
 13
1.435517
 23
1.281545
 33
2.896141
 62
0
  0
3DFACE
  8
NURBS
 10
1.435517
 20
1.281545
 30
2.896141
 11
1.432361
 21
1.279127
 31
2.880184
 12
1.378344
 22
1.294718
 32
2.880184
 13
1.380265
 23
1.297133
 33
2.896141
 62
0
  0
3DFACE
  8
NURBS
 10
1.380265
 20
1.297133
 30
2.896141
 11
1.378344
 21
1.294718
 31
2.880184
 12
1.322765
 22
1.300127
 32
2.880184
 13
1.323393
 23
1.302467
 33
2.896141
 62
0
  0
3DFACE
  8
NURBS
 10
1.323393
 20
1.302467
 30
2.896141
 11
1.322765
 21
1.300127
 31
2.880184
 12
1.267312
 22
1.295191
 32
2.880183
 13
1.266628
 23
1.297383
 33
2.896141
 62
0
  0
3DFACE
  8
NURBS
 10
1.266628
 20
1.297383
 30
2.896141
 11
1.267312
 21
1.295191
 31
2.880183
 12
1.213670
 22
1.280058
 32
2.880183
 13
1.211695
 23
1.282037
 33
2.896141
 62
0
  0
3DFACE
  8
NURBS
 10
1.211695
 20
1.282037
 30
2.896141
 11
1.213670
 21
1.280058
 31
2.880183
 12
1.163468
 22
1.255189
 32
2.880183
 13
1.160264
 23
1.256896
 33
2.896140
 62
0
  0
3DFACE
  8
NURBS
 10
1.160264
 20
1.256896
 30
2.896140
 11
1.163468
 21
1.255189
 31
2.880183
 12
1.118233
 22
1.221340
 32
2.880183
 13
1.113898
 23
1.222721
 33
2.896140
 62
0
  0
3DFACE
  8
NURBS
 10
1.113898
 20
1.222721
 30
2.896140
 11
1.118233
 21
1.221340
 31
2.880183
 12
1.079339
 22
1.179539
 32
2.880183
 13
1.074004
 23
1.180553
 33
2.896140
 62
0
  0
3DFACE
  8
NURBS
 10
1.074004
 20
1.180553
 30
2.896140
 11
1.079339
 21
1.179539
 31
2.880183
 12
1.047966
 22
1.131056
 32
2.880183
 13
1.041796
 23
1.131673
 33
2.896140
 62
0
  0
3DFACE
  8
NURBS
 10
1.041796
 20
1.131673
 30
2.896140
 11
1.047966
 21
1.131056
 31
2.880183
 12
1.025070
 22
1.077364
 32
2.880183
 13
1.018251
 23
1.077564
 33
2.896140
 62
0
  0
3DFACE
  8
NURBS
 10
1.018251
 20
1.077564
 30
2.896140
 11
1.025070
 21
1.077364
 31
2.880183
 12
1.011344
 22
1.020095
 32
2.880183
 13
1.004086
 23
1.019873
 33
2.896140
 62
0
  0
3DFACE
  8
NURBS
 10
1.004086
 20
1.019873
 30
2.896140
 11
1.011344
 21
1.020095
 31
2.880183
 12
1.007207
 22
0.960988
 32
2.880183
 13
0.999730
 23
0.960351
 33
2.896140
 62
0
  0
3DFACE
  8
NURBS
 10
0.999730
 20
0.960351
 30
2.896140
 11
1.007207
 21
0.960988
 31
2.880183
 12
1.012784
 22
0.901841
 32
2.880183
 13
1.005317
 23
0.900807
 33
2.896140
 62
0
  0
3DFACE
  8
NURBS
 10
1.005317
 20
0.900807
 30
2.896140
 11
1.012784
 21
0.901841
 31
2.880183
 12
1.027906
 22
0.844449
 32
2.880183
 13
1.020675
 23
0.843051
 33
2.896140
 62
0
  0
3DFACE
  8
NURBS
 10
1.020675
 20
0.843051
 30
2.896140
 11
1.027906
 21
0.844449
 31
2.880183
 12
1.052113
 22
0.790556
 32
2.880183
 13
1.045340
 23
0.788836
 33
2.896140
 62
0
  0
3DFACE
  8
NURBS
 10
1.045340
 20
0.788836
 30
2.896140
 11
1.052113
 21
0.790556
 31
2.880183
 12
1.084670
 22
0.741801
 32
2.880183
 13
1.078560
 23
0.739812
 33
2.896140
 62
0
  0
3DFACE
  8
NURBS
 10
1.078560
 20
0.739812
 30
2.896140
 11
1.084670
 21
0.741801
 31
2.880183
 12
1.124586
 22
0.699664
 32
2.880183
 13
1.119327
 23
0.697466
 33
2.896140
 62
0
  0
3DFACE
  8
NURBS
 10
1.119327
 20
0.697466
 30
2.896140
 11
1.124586
 21
0.699664
 31
2.880183
 12
1.170651
 22
0.665427
 32
2.880183
 13
1.166403
 23
0.663086
 33
2.896140
 62
0
  0
3DFACE
  8
NURBS
 10
1.166403
 20
0.663086
 30
2.896140
 11
1.170651
 21
0.665427
 31
2.880183
 12
1.221463
 22
0.640128
 32
2.880183
 13
1.218356
 23
0.637716
 33
2.896140
 62
0
  0
3DFACE
  8
NURBS
 10
1.218356
 20
0.637716
 30
2.896140
 11
1.221463
 21
0.640128
 31
2.880183
 12
1.275480
 22
0.624537
 32
2.880183
 13
1.273608
 23
0.622128
 33
2.896140
 62
0
  0
3DFACE
  8
NURBS
 10
1.273608
 20
0.622128
 30
2.896140
 11
1.275480
 21
0.624537
 31
2.880183
 12
1.331059
 22
0.619128
 32
2.880183
 13
1.330480
 23
0.616794
 33
2.896140
 62
0
  0
3DFACE
  8
NURBS
 10
1.330480
 20
0.616794
 30
2.896140
 11
1.331059
 21
0.619128
 31
2.880183
 12
1.386512
 22
0.624064
 32
2.880183
 13
1.387245
 23
0.621878
 33
2.896140
 62
0
  0
3DFACE
  8
NURBS
 10
1.387245
 20
0.621878
 30
2.896140
 11
1.386512
 21
0.624064
 31
2.880183
 12
1.440154
 22
0.639197
 32
2.880183
 13
1.442178
 23
0.637223
 33
2.896140
 62
0
  0
3DFACE
  8
NURBS
 10
1.442178
 20
0.637223
 30
2.896140
 11
1.440154
 21
0.639197
 31
2.880183
 12
1.490356
 22
0.664066
 32
2.880183
 13
1.493609
 23
0.662365
 33
2.896140
 62
0
  0
3DFACE
  8
NURBS
 10
1.493609
 20
0.662365
 30
2.896140
 11
1.490356
 21
0.664066
 31
2.880183
 12
1.535591
 22
0.697915
 32
2.880183
 13
1.539975
 23
0.696540
 33
2.896140
 62
0
  0
3DFACE
  8
NURBS
 10
1.539975
 20
0.696540
 30
2.896140
 11
1.535591
 21
0.697915
 31
2.880183
 12
1.574486
 22
0.739716
 32
2.880183
 13
1.579869
 23
0.738708
 33
2.896140
 62
0
  0
3DFACE
  8
NURBS
 10
1.579869
 20
0.738708
 30
2.896140
 11
1.574486
 21
0.739716
 31
2.880183
 12
1.605858
 22
0.788199
 32
2.880183
 13
1.612077
 23
0.787588
 33
2.896140
 62
0
  0
3DFACE
  8
NURBS
 10
1.612077
 20
0.787588
 30
2.896140
 11
1.605858
 21
0.788199
 31
2.880183
 12
1.628755
 22
0.841891
 32
2.880183
 13
1.635622
 23
0.841697
 33
2.896140
 62
0
  0
3DFACE
  8
NURBS
 10
1.635622
 20
0.841697
 30
2.896140
 11
1.628755
 21
0.841891
 31
2.880183
 12
1.642480
 22
0.899160
 32
2.880183
 13
1.649787
 23
0.899388
 33
2.896141
 62
0
  0
3DFACE
  8
NURBS
 10
1.649787
 20
0.899388
 30
2.896141
 11
1.642480
 21
0.899160
 31
2.880183
 12
1.646617
 22
0.958267
 32
2.880184
 13
1.654143
 23
0.958910
 33
2.896141
 62
0
  0
3DFACE
  8
NURBS
 10
1.654143
 20
0.958910
 30
2.896141
 11
1.646617
 21
0.958267
 31
2.880184
 12
1.641040
 22
1.017415
 32
2.880184
 13
1.648556
 23
1.018454
 33
2.896141
 62
0
  0
3DFACE
  8
NURBS
 10
1.648556
 20
1.018454
 30
2.896141
 11
1.641040
 21
1.017415
 31
2.880184
 12
1.625918
 22
1.074807
 32
2.880184
 13
1.633198
 23
1.076210
 33
2.896141
 62
0
  0
3DFACE
  8
NURBS
 10
1.633198
 20
1.076210
 30
2.896141
 11
1.625918
 21
1.074807
 31
2.880184
 12
1.601711
 22
1.128699
 32
2.880184
 13
1.608533
 23
1.130425
 33
2.896141
 62
0
  0
3DFACE
  8
NURBS
 10
1.601711
 20
1.128699
 30
2.880184
 11
1.601699
 21
1.128697
 31
2.245336
 12
1.569142
 22
1.177453
 32
2.245336
 13
1.569155
 23
1.177454
 33
2.880184
 62
0
  0
3DFACE
  8
NURBS
 10
1.569155
 20
1.177454
 30
2.880184
 11
1.569142
 21
1.177453
 31
2.245336
 12
1.529225
 22
1.219589
 32
2.245336
 13
1.529238
 23
1.219591
 33
2.880184
 62
0
  0
3DFACE
  8
NURBS
 10
1.529238
 20
1.219591
 30
2.880184
 11
1.529225
 21
1.219589
 31
2.245336
 12
1.483161
 22
1.253827
 32
2.245336
 13
1.483173
 23
1.253828
 33
2.880184
 62
0
  0
3DFACE
  8
NURBS
 10
1.483173
 20
1.253828
 30
2.880184
 11
1.483161
 21
1.253827
 31
2.245336
 12
1.432349
 22
1.279125
 32
2.245336
 13
1.432361
 23
1.279127
 33
2.880184
 62
0
  0
3DFACE
  8
NURBS
 10
1.432361
 20
1.279127
 30
2.880184
 11
1.432349
 21
1.279125
 31
2.245336
 12
1.378332
 22
1.294716
 32
2.245336
 13
1.378344
 23
1.294718
 33
2.880184
 62
0
  0
3DFACE
  8
NURBS
 10
1.378344
 20
1.294718
 30
2.880184
 11
1.378332
 21
1.294716
 31
2.245336
 12
1.322753
 22
1.300125
 32
2.245336
 13
1.322765
 23
1.300127
 33
2.880184
 62
0
  0
3DFACE
  8
NURBS
 10
1.322765
 20
1.300127
 30
2.880184
 11
1.322753
 21
1.300125
 31
2.245336
 12
1.267300
 22
1.295189
 32
2.245336
 13
1.267312
 23
1.295191
 33
2.880183
 62
0
  0
3DFACE
  8
NURBS
 10
1.267312
 20
1.295191
 30
2.880183
 11
1.267300
 21
1.295189
 31
2.245336
 12
1.213658
 22
1.280056
 32
2.245336
 13
1.213670
 23
1.280058
 33
2.880183
 62
0
  0
3DFACE
  8
NURBS
 10
1.213670
 20
1.280058
 30
2.880183
 11
1.213658
 21
1.280056
 31
2.245336
 12
1.163456
 22
1.255188
 32
2.245336
 13
1.163468
 23
1.255189
 33
2.880183
 62
0
  0
3DFACE
  8
NURBS
 10
1.163468
 20
1.255189
 30
2.880183
 11
1.163456
 21
1.255188
 31
2.245336
 12
1.118221
 22
1.221339
 32
2.245336
 13
1.118233
 23
1.221340
 33
2.880183
 62
0
  0
3DFACE
  8
NURBS
 10
1.118233
 20
1.221340
 30
2.880183
 11
1.118221
 21
1.221339
 31
2.245336
 12
1.079326
 22
1.179537
 32
2.245336
 13
1.079339
 23
1.179539
 33
2.880183
 62
0
  0
3DFACE
  8
NURBS
 10
1.079339
 20
1.179539
 30
2.880183
 11
1.079326
 21
1.179537
 31
2.245336
 12
1.047954
 22
1.131054
 32
2.245336
 13
1.047966
 23
1.131056
 33
2.880183
 62
0
  0
3DFACE
  8
NURBS
 10
1.047966
 20
1.131056
 30
2.880183
 11
1.047954
 21
1.131054
 31
2.245336
 12
1.025057
 22
1.077362
 32
2.245335
 13
1.025070
 23
1.077364
 33
2.880183
 62
0
  0
3DFACE
  8
NURBS
 10
1.025070
 20
1.077364
 30
2.880183
 11
1.025057
 21
1.077362
 31
2.245335
 12
1.011332
 22
1.020093
 32
2.245335
 13
1.011344
 23
1.020095
 33
2.880183
 62
0
  0
3DFACE
  8
NURBS
 10
1.011344
 20
1.020095
 30
2.880183
 11
1.011332
 21
1.020093
 31
2.245335
 12
1.007195
 22
0.960987
 32
2.245335
 13
1.007207
 23
0.960988
 33
2.880183
 62
0
  0
3DFACE
  8
NURBS
 10
1.007207
 20
0.960988
 30
2.880183
 11
1.007195
 21
0.960987
 31
2.245335
 12
1.012772
 22
0.901839
 32
2.245335
 13
1.012784
 23
0.901841
 33
2.880183
 62
0
  0
3DFACE
  8
NURBS
 10
1.012784
 20
0.901841
 30
2.880183
 11
1.012772
 21
0.901839
 31
2.245335
 12
1.027894
 22
0.844447
 32
2.245335
 13
1.027906
 23
0.844449
 33
2.880183
 62
0
  0
3DFACE
  8
NURBS
 10
1.027906
 20
0.844449
 30
2.880183
 11
1.027894
 21
0.844447
 31
2.245335
 12
1.052101
 22
0.790555
 32
2.245335
 13
1.052113
 23
0.790556
 33
2.880183
 62
0
  0
3DFACE
  8
NURBS
 10
1.052113
 20
0.790556
 30
2.880183
 11
1.052101
 21
0.790555
 31
2.245335
 12
1.084657
 22
0.741799
 32
2.245335
 13
1.084670
 23
0.741801
 33
2.880183
 62
0
  0
3DFACE
  8
NURBS
 10
1.084670
 20
0.741801
 30
2.880183
 11
1.084657
 21
0.741799
 31
2.245335
 12
1.124574
 22
0.699663
 32
2.245335
 13
1.124586
 23
0.699664
 33
2.880183
 62
0
  0
3DFACE
  8
NURBS
 10
1.124586
 20
0.699664
 30
2.880183
 11
1.124574
 21
0.699663
 31
2.245335
 12
1.170639
 22
0.665425
 32
2.245335
 13
1.170651
 23
0.665427
 33
2.880183
 62
0
  0
3DFACE
  8
NURBS
 10
1.170651
 20
0.665427
 30
2.880183
 11
1.170639
 21
0.665425
 31
2.245335
 12
1.221451
 22
0.640126
 32
2.245335
 13
1.221463
 23
0.640128
 33
2.880183
 62
0
  0
3DFACE
  8
NURBS
 10
1.221463
 20
0.640128
 30
2.880183
 11
1.221451
 21
0.640126
 31
2.245335
 12
1.275468
 22
0.624535
 32
2.245335
 13
1.275480
 23
0.624537
 33
2.880183
 62
0
  0
3DFACE
  8
NURBS
 10
1.275480
 20
0.624537
 30
2.880183
 11
1.275468
 21
0.624535
 31
2.245335
 12
1.331047
 22
0.619126
 32
2.245335
 13
1.331059
 23
0.619128
 33
2.880183
 62
0
  0
3DFACE
  8
NURBS
 10
1.331059
 20
0.619128
 30
2.880183
 11
1.331047
 21
0.619126
 31
2.245335
 12
1.386500
 22
0.624063
 32
2.245335
 13
1.386512
 23
0.624064
 33
2.880183
 62
0
  0
3DFACE
  8
NURBS
 10
1.386512
 20
0.624064
 30
2.880183
 11
1.386500
 21
0.624063
 31
2.245335
 12
1.440142
 22
0.639195
 32
2.245335
 13
1.440154
 23
0.639197
 33
2.880183
 62
0
  0
3DFACE
  8
NURBS
 10
1.440154
 20
0.639197
 30
2.880183
 11
1.440142
 21
0.639195
 31
2.245335
 12
1.490344
 22
0.664064
 32
2.245335
 13
1.490356
 23
0.664066
 33
2.880183
 62
0
  0
3DFACE
  8
NURBS
 10
1.490356
 20
0.664066
 30
2.880183
 11
1.490344
 21
0.664064
 31
2.245335
 12
1.535579
 22
0.697913
 32
2.245336
 13
1.535591
 23
0.697915
 33
2.880183
 62
0
  0
3DFACE
  8
NURBS
 10
1.535591
 20
0.697915
 30
2.880183
 11
1.535579
 21
0.697913
 31
2.245336
 12
1.574474
 22
0.739714
 32
2.245336
 13
1.574486
 23
0.739716
 33
2.880183
 62
0
  0
3DFACE
  8
NURBS
 10
1.574486
 20
0.739716
 30
2.880183
 11
1.574474
 21
0.739714
 31
2.245336
 12
1.605846
 22
0.788197
 32
2.245336
 13
1.605858
 23
0.788199
 33
2.880183
 62
0
  0
3DFACE
  8
NURBS
 10
1.605858
 20
0.788199
 30
2.880183
 11
1.605846
 21
0.788197
 31
2.245336
 12
1.628742
 22
0.841889
 32
2.245336
 13
1.628755
 23
0.841891
 33
2.880183
 62
0
  0
3DFACE
  8
NURBS
 10
1.628755
 20
0.841891
 30
2.880183
 11
1.628742
 21
0.841889
 31
2.245336
 12
1.642468
 22
0.899159
 32
2.245336
 13
1.642480
 23
0.899160
 33
2.880183
 62
0
  0
3DFACE
  8
NURBS
 10
1.642480
 20
0.899160
 30
2.880183
 11
1.642468
 21
0.899159
 31
2.245336
 12
1.646605
 22
0.958265
 32
2.245336
 13
1.646617
 23
0.958267
 33
2.880184
 62
0
  0
3DFACE
  8
NURBS
 10
1.646617
 20
0.958267
 30
2.880184
 11
1.646605
 21
0.958265
 31
2.245336
 12
1.641028
 22
1.017413
 32
2.245336
 13
1.641040
 23
1.017415
 33
2.880184
 62
0
  0
3DFACE
  8
NURBS
 10
1.641040
 20
1.017415
 30
2.880184
 11
1.641028
 21
1.017413
 31
2.245336
 12
1.625906
 22
1.074805
 32
2.245336
 13
1.625918
 23
1.074807
 33
2.880184
 62
0
  0
3DFACE
  8
NURBS
 10
1.625918
 20
1.074807
 30
2.880184
 11
1.625906
 21
1.074805
 31
2.245336
 12
1.601699
 22
1.128697
 32
2.245336
 13
1.601711
 23
1.128699
 33
2.880184
 62
0
  0
3DFACE
  8
NURBS
 10
1.601699
 20
1.128697
 30
2.245336
 11
1.710641
 21
1.195737
 31
1.455545
 12
1.665175
 22
1.263825
 32
1.455545
 13
1.569142
 23
1.177453
 33
2.245336
 62
0
  0
3DFACE
  8
NURBS
 10
1.569142
 20
1.177453
 30
2.245336
 11
1.665175
 21
1.263825
 31
1.455545
 12
1.609429
 22
1.322670
 32
1.455545
 13
1.529225
 23
1.219589
 33
2.245336
 62
0
  0
3DFACE
  8
NURBS
 10
1.529225
 20
1.219589
 30
2.245336
 11
1.609429
 21
1.322670
 31
1.455545
 12
1.545099
 22
1.370484
 32
1.455545
 13
1.483161
 23
1.253827
 33
2.245336
 62
0
  0
3DFACE
  8
NURBS
 10
1.483161
 20
1.253827
 30
2.245336
 11
1.545099
 21
1.370484
 31
1.455545
 12
1.474138
 22
1.405815
 32
1.455545
 13
1.432349
 23
1.279125
 33
2.245336
 62
0
  0
3DFACE
  8
NURBS
 10
1.432349
 20
1.279125
 30
2.245336
 11
1.474138
 21
1.405815
 31
1.455545
 12
1.398702
 22
1.427588
 32
1.455545
 13
1.378332
 23
1.294716
 33
2.245336
 62
0
  0
3DFACE
  8
NURBS
 10
1.378332
 20
1.294716
 30
2.245336
 11
1.398702
 21
1.427588
 31
1.455545
 12
1.321084
 22
1.435142
 32
1.455545
 13
1.322753
 23
1.300125
 33
2.245336
 62
0
  0
3DFACE
  8
NURBS
 10
1.322753
 20
1.300125
 30
2.245336
 11
1.321084
 21
1.435142
 31
1.455545
 12
1.243641
 22
1.428248
 32
1.455545
 13
1.267300
 23
1.295189
 33
2.245336
 62
0
  0
3DFACE
  8
NURBS
 10
1.267300
 20
1.295189
 30
2.245336
 11
1.243641
 21
1.428248
 31
1.455545
 12
1.168728
 22
1.407115
 32
1.455544
 13
1.213658
 23
1.280056
 33
2.245336
 62
0
  0
3DFACE
  8
NURBS
 10
1.213658
 20
1.280056
 30
2.245336
 11
1.168728
 21
1.407115
 31
1.455544
 12
1.098620
 22
1.372385
 32
1.455544
 13
1.163456
 23
1.255188
 33
2.245336
 62
0
  0
3DFACE
  8
NURBS
 10
1.163456
 20
1.255188
 30
2.245336
 11
1.098620
 21
1.372385
 31
1.455544
 12
1.035448
 22
1.325114
 32
1.455544
 13
1.118221
 23
1.221339
 33
2.245336
 62
0
  0
3DFACE
  8
NURBS
 10
1.118221
 20
1.221339
 30
2.245336
 11
1.035448
 21
1.325114
 31
1.455544
 12
0.981130
 22
1.266737
 32
1.455544
 13
1.079326
 23
1.179537
 33
2.245336
 62
0
  0
3DFACE
  8
NURBS
 10
1.079326
 20
1.179537
 30
2.245336
 11
0.981130
 21
1.266737
 31
1.455544
 12
0.937317
 22
1.199028
 32
1.455544
 13
1.047954
 23
1.131054
 33
2.245336
 62
0
  0
3DFACE
  8
NURBS
 10
1.047954
 20
1.131054
 30
2.245336
 11
0.937317
 21
1.199028
 31
1.455544
 12
0.905341
 22
1.124046
 32
1.455544
 13
1.025057
 23
1.077362
 33
2.245335
 62
0
  0
3DFACE
  8
NURBS
 10
1.025057
 20
1.077362
 30
2.245335
 11
0.905341
 21
1.124046
 31
1.455544
 12
0.886173
 22
1.044068
 32
1.455544
 13
1.011332
 23
1.020093
 33
2.245335
 62
0
  0
3DFACE
  8
NURBS
 10
1.011332
 20
1.020093
 30
2.245335
 11
0.886173
 21
1.044068
 31
1.455544
 12
0.880396
 22
0.961523
 32
1.455543
 13
1.007195
 23
0.960987
 33
2.245335
 62
0
  0
3DFACE
  8
NURBS
 10
1.007195
 20
0.960987
 30
2.245335
 11
0.880396
 21
0.961523
 31
1.455543
 12
0.888185
 22
0.878921
 32
1.455543
 13
1.012772
 23
0.901839
 33
2.245335
 62
0
  0
3DFACE
  8
NURBS
 10
1.012772
 20
0.901839
 30
2.245335
 11
0.888185
 21
0.878921
 31
1.455543
 12
0.909303
 22
0.798771
 32
1.455543
 13
1.027894
 23
0.844447
 33
2.245335
 62
0
  0
3DFACE
  8
NURBS
 10
1.027894
 20
0.844447
 30
2.245335
 11
0.909303
 21
0.798771
 31
1.455543
 12
0.943108
 22
0.723509
 32
1.455543
 13
1.052101
 23
0.790555
 33
2.245335
 62
0
  0
3DFACE
  8
NURBS
 10
1.052101
 20
0.790555
 30
2.245335
 11
0.943108
 21
0.723509
 31
1.455543
 12
0.988575
 22
0.655420
 32
1.455543
 13
1.084657
 23
0.741799
 33
2.245335
 62
0
  0
3DFACE
  8
NURBS
 10
1.084657
 20
0.741799
 30
2.245335
 11
0.988575
 21
0.655420
 31
1.455543
 12
1.044320
 22
0.596575
 32
1.455543
 13
1.124574
 23
0.699663
 33
2.245335
 62
0
  0
3DFACE
  8
NURBS
 10
1.124574
 20
0.699663
 30
2.245335
 11
1.044320
 21
0.596575
 31
1.455543
 12
1.108651
 22
0.548761
 32
1.455543
 13
1.170639
 23
0.665425
 33
2.245335
 62
0
  0
3DFACE
  8
NURBS
 10
1.170639
 20
0.665425
 30
2.245335
 11
1.108651
 21
0.548761
 31
1.455543
 12
1.179612
 22
0.513430
 32
1.455543
 13
1.221451
 23
0.640126
 33
2.245335
 62
0
  0
3DFACE
  8
NURBS
 10
1.221451
 20
0.640126
 30
2.245335
 11
1.179612
 21
0.513430
 31
1.455543
 12
1.255048
 22
0.491657
 32
1.455543
 13
1.275468
 23
0.624535
 33
2.245335
 62
0
  0
3DFACE
  8
NURBS
 10
1.275468
 20
0.624535
 30
2.245335
 11
1.255048
 21
0.491657
 31
1.455543
 12
1.332666
 22
0.484103
 32
1.455543
 13
1.331047
 23
0.619126
 33
2.245335
 62
0
  0
3DFACE
  8
NURBS
 10
1.331047
 20
0.619126
 30
2.245335
 11
1.332666
 21
0.484103
 31
1.455543
 12
1.410108
 22
0.490997
 32
1.455544
 13
1.386500
 23
0.624063
 33
2.245335
 62
0
  0
3DFACE
  8
NURBS
 10
1.386500
 20
0.624063
 30
2.245335
 11
1.410108
 21
0.490997
 31
1.455544
 12
1.485022
 22
0.512130
 32
1.455544
 13
1.440142
 23
0.639195
 33
2.245335
 62
0
  0
3DFACE
  8
NURBS
 10
1.440142
 20
0.639195
 30
2.245335
 11
1.485022
 21
0.512130
 31
1.455544
 12
1.555130
 22
0.546860
 32
1.455544
 13
1.490344
 23
0.664064
 33
2.245335
 62
0
  0
3DFACE
  8
NURBS
 10
1.490344
 20
0.664064
 30
2.245335
 11
1.555130
 21
0.546860
 31
1.455544
 12
1.618302
 22
0.594131
 32
1.455544
 13
1.535579
 23
0.697913
 33
2.245336
 62
0
  0
3DFACE
  8
NURBS
 10
1.535579
 20
0.697913
 30
2.245336
 11
1.618302
 21
0.594131
 31
1.455544
 12
1.672620
 22
0.652508
 32
1.455544
 13
1.574474
 23
0.739714
 33
2.245336
 62
0
  0
3DFACE
  8
NURBS
 10
1.574474
 20
0.739714
 30
2.245336
 11
1.672620
 21
0.652508
 31
1.455544
 12
1.716432
 22
0.720217
 32
1.455544
 13
1.605846
 23
0.788197
 33
2.245336
 62
0
  0
3DFACE
  8
NURBS
 10
1.605846
 20
0.788197
 30
2.245336
 11
1.716432
 21
0.720217
 31
1.455544
 12
1.748408
 22
0.795199
 32
1.455544
 13
1.628742
 23
0.841889
 33
2.245336
 62
0
  0
3DFACE
  8
NURBS
 10
1.628742
 20
0.841889
 30
2.245336
 11
1.748408
 21
0.795199
 31
1.455544
 12
1.767576
 22
0.875178
 32
1.455545
 13
1.642468
 23
0.899159
 33
2.245336
 62
0
  0
3DFACE
  8
NURBS
 10
1.642468
 20
0.899159
 30
2.245336
 11
1.767576
 21
0.875178
 31
1.455545
 12
1.773354
 22
0.957722
 32
1.455545
 13
1.646605
 23
0.958265
 33
2.245336
 62
0
  0
3DFACE
  8
NURBS
 10
1.646605
 20
0.958265
 30
2.245336
 11
1.773354
 21
0.957722
 31
1.455545
 12
1.765565
 22
1.040324
 32
1.455545
 13
1.641028
 23
1.017413
 33
2.245336
 62
0
  0
3DFACE
  8
NURBS
 10
1.641028
 20
1.017413
 30
2.245336
 11
1.765565
 21
1.040324
 31
1.455545
 12
1.744447
 22
1.120474
 32
1.455545
 13
1.625906
 23
1.074805
 33
2.245336
 62
0
  0
3DFACE
  8
NURBS
 10
1.625906
 20
1.074805
 30
2.245336
 11
1.744447
 21
1.120474
 31
1.455545
 12
1.710641
 22
1.195737
 32
1.455545
 13
1.601699
 23
1.128697
 33
2.245336
 62
0
  0
3DFACE
  8
NURBS
 10
1.710641
 20
1.195737
 30
1.455545
 11
2.037045
 21
1.379111
 31
0.165731
 12
1.953902
 22
1.498466
 32
0.165731
 13
1.665175
 23
1.263825
 33
1.455545
 62
0
  0
3DFACE
  8
NURBS
 10
1.665175
 20
1.263825
 30
1.455545
 11
1.953902
 21
1.498466
 31
0.165731
 12
1.851705
 22
1.601448
 32
0.165731
 13
1.609429
 23
1.322670
 33
1.455545
 62
0
  0
3DFACE
  8
NURBS
 10
1.609429
 20
1.322670
 30
1.455545
 11
1.851705
 21
1.601448
 31
0.165731
 12
1.733558
 22
1.684929
 32
0.165731
 13
1.545099
 23
1.370484
 33
1.455545
 62
0
  0
3DFACE
  8
NURBS
 10
1.545099
 20
1.370484
 30
1.455545
 11
1.733558
 21
1.684929
 31
0.165731
 12
1.603051
 22
1.746371
 32
0.165731
 13
1.474138
 23
1.405815
 33
1.455545
 62
0
  0
3DFACE
  8
NURBS
 10
1.474138
 20
1.405815
 30
1.455545
 11
1.603051
 21
1.746371
 31
0.165731
 12
1.464149
 22
1.783908
 32
0.165730
 13
1.398702
 23
1.427588
 33
1.455545
 62
0
  0
3DFACE
  8
NURBS
 10
1.398702
 20
1.427588
 30
1.455545
 11
1.464149
 21
1.783908
 31
0.165730
 12
1.321073
 22
1.796399
 32
0.165730
 13
1.321084
 23
1.435142
 33
1.455545
 62
0
  0
3DFACE
  8
NURBS
 10
1.321084
 20
1.435142
 30
1.455545
 11
1.321073
 21
1.796399
 31
0.165730
 12
1.178171
 22
1.783464
 32
0.165730
 13
1.243641
 23
1.428248
 33
1.455545
 62
0
  0
3DFACE
  8
NURBS
 10
1.243641
 20
1.428248
 30
1.455545
 11
1.178171
 21
1.783464
 31
0.165730
 12
1.039783
 22
1.745497
 32
0.165730
 13
1.168728
 23
1.407115
 33
1.455544
 62
0
  0
3DFACE
  8
NURBS
 10
1.168728
 20
1.407115
 30
1.455544
 11
1.039783
 21
1.745497
 31
0.165730
 12
0.910116
 22
1.683651
 32
0.165729
 13
1.098620
 23
1.372385
 33
1.455544
 62
0
  0
3DFACE
  8
NURBS
 10
1.098620
 20
1.372385
 30
1.455544
 11
0.910116
 21
1.683651
 31
0.165729
 12
0.793109
 22
1.599806
 32
0.165729
 13
1.035448
 23
1.325114
 33
1.455544
 62
0
  0
3DFACE
  8
NURBS
 10
1.035448
 20
1.325114
 30
1.455544
 11
0.793109
 21
1.599806
 31
0.165729
 12
0.692316
 22
1.496509
 32
0.165728
 13
0.981130
 23
1.266737
 33
1.455544
 62
0
  0
3DFACE
  8
NURBS
 10
0.981130
 20
1.266737
 30
1.455544
 11
0.692316
 21
1.496509
 31
0.165728
 12
0.610802
 22
1.376898
 32
0.165728
 13
0.937317
 23
1.199028
 33
1.455544
 62
0
  0
3DFACE
  8
NURBS
 10
0.937317
 20
1.199028
 30
1.455544
 11
0.610802
 21
1.376898
 31
0.165728
 12
0.551042
 22
1.244608
 32
0.165728
 13
0.905341
 23
1.124046
 33
1.455544
 62
0
  0
3DFACE
  8
NURBS
 10
0.905341
 20
1.124046
 30
1.455544
 11
0.551042
 21
1.244608
 31
0.165728
 12
0.514852
 22
1.103659
 32
0.165727
 13
0.886173
 23
1.044068
 33
1.455544
 62
0
  0
3DFACE
  8
NURBS
 10
0.886173
 20
1.044068
 30
1.455544
 11
0.514852
 21
1.103659
 31
0.165727
 12
0.503332
 22
0.958332
 32
0.165727
 13
0.880396
 23
0.961523
 33
1.455543
 62
0
  0
3DFACE
  8
NURBS
 10
0.880396
 20
0.961523
 30
1.455543
 11
0.503332
 21
0.958332
 31
0.165727
 12
0.516831
 22
0.813045
 32
0.165727
 13
0.888185
 23
0.878921
 33
1.455543
 62
0
  0
3DFACE
  8
NURBS
 10
0.888185
 20
0.878921
 30
1.455543
 11
0.516831
 21
0.813045
 31
0.165727
 12
0.554941
 22
0.672211
 32
0.165727
 13
0.909303
 23
0.798771
 33
1.455543
 62
0
  0
3DFACE
  8
NURBS
 10
0.909303
 20
0.798771
 30
1.455543
 11
0.554941
 21
0.672211
 31
0.165727
 12
0.616502
 22
0.540109
 32
0.165727
 13
0.943108
 23
0.723509
 33
1.455543
 62
0
  0
3DFACE
  8
NURBS
 10
0.943108
 20
0.723509
 30
1.455543
 11
0.616502
 21
0.540109
 31
0.165727
 12
0.699644
 22
0.420754
 32
0.165727
 13
0.988575
 23
0.655420
 33
1.455543
 62
0
  0
3DFACE
  8
NURBS
 10
0.988575
 20
0.655420
 30
1.455543
 11
0.699644
 21
0.420754
 31
0.165727
 12
0.801842
 22
0.317771
 32
0.165727
 13
1.044320
 23
0.596575
 33
1.455543
 62
0
  0
3DFACE
  8
NURBS
 10
1.044320
 20
0.596575
 30
1.455543
 11
0.801842
 21
0.317771
 31
0.165727
 12
0.919989
 22
0.234290
 32
0.165727
 13
1.108651
 23
0.548761
 33
1.455543
 62
0
  0
3DFACE
  8
NURBS
 10
1.108651
 20
0.548761
 30
1.455543
 11
0.919989
 21
0.234290
 31
0.165727
 12
1.050496
 22
0.172848
 32
0.165727
 13
1.179612
 23
0.513430
 33
1.455543
 62
0
  0
3DFACE
  8
NURBS
 10
1.179612
 20
0.513430
 30
1.455543
 11
1.050496
 21
0.172848
 31
0.165727
 12
1.189398
 22
0.135312
 32
0.165727
 13
1.255048
 23
0.491657
 33
1.455543
 62
0
  0
3DFACE
  8
NURBS
 10
1.255048
 20
0.491657
 30
1.455543
 11
1.189398
 21
0.135312
 31
0.165727
 12
1.332474
 22
0.122821
 32
0.165728
 13
1.332666
 23
0.484103
 33
1.455543
 62
0
  0
3DFACE
  8
NURBS
 10
1.332666
 20
0.484103
 30
1.455543
 11
1.332474
 21
0.122821
 31
0.165728
 12
1.475376
 22
0.135755
 32
0.165728
 13
1.410108
 23
0.490997
 33
1.455544
 62
0
  0
3DFACE
  8
NURBS
 10
1.410108
 20
0.490997
 30
1.455544
 11
1.475376
 21
0.135755
 31
0.165728
 12
1.613764
 22
0.173722
 32
0.165728
 13
1.485022
 23
0.512130
 33
1.455544
 62
0
  0
3DFACE
  8
NURBS
 10
1.485022
 20
0.512130
 30
1.455544
 11
1.613764
 21
0.173722
 31
0.165728
 12
1.743431
 22
0.235568
 32
0.165729
 13
1.555130
 23
0.546860
 33
1.455544
 62
0
  0
3DFACE
  8
NURBS
 10
1.555130
 20
0.546860
 30
1.455544
 11
1.743431
 21
0.235568
 31
0.165729
 12
1.860438
 22
0.319413
 32
0.165729
 13
1.618302
 23
0.594131
 33
1.455544
 62
0
  0
3DFACE
  8
NURBS
 10
1.618302
 20
0.594131
 30
1.455544
 11
1.860438
 21
0.319413
 31
0.165729
 12
1.961231
 22
0.422711
 32
0.165729
 13
1.672620
 23
0.652508
 33
1.455544
 62
0
  0
3DFACE
  8
NURBS
 10
1.672620
 20
0.652508
 30
1.455544
 11
1.961231
 21
0.422711
 31
0.165729
 12
2.042745
 22
0.542322
 32
0.165730
 13
1.716432
 23
0.720217
 33
1.455544
 62
0
  0
3DFACE
  8
NURBS
 10
1.716432
 20
0.720217
 30
1.455544
 11
2.042745
 21
0.542322
 31
0.165730
 12
2.102505
 22
0.674612
 32
0.165730
 13
1.748408
 23
0.795199
 33
1.455544
 62
0
  0
3DFACE
  8
NURBS
 10
1.748408
 20
0.795199
 30
1.455544
 11
2.102505
 21
0.674612
 31
0.165730
 12
2.138695
 22
0.815561
 32
0.165730
 13
1.767576
 23
0.875178
 33
1.455545
 62
0
  0
3DFACE
  8
NURBS
 10
1.767576
 20
0.875178
 30
1.455545
 11
2.138695
 21
0.815561
 31
0.165730
 12
2.150216
 22
0.960888
 32
0.165731
 13
1.773354
 23
0.957722
 33
1.455545
 62
0
  0
3DFACE
  8
NURBS
 10
1.773354
 20
0.957722
 30
1.455545
 11
2.150216
 21
0.960888
 31
0.165731
 12
2.136716
 22
1.106175
 32
0.165731
 13
1.765565
 23
1.040324
 33
1.455545
 62
0
  0
3DFACE
  8
NURBS
 10
1.765565
 20
1.040324
 30
1.455545
 11
2.136716
 21
1.106175
 31
0.165731
 12
2.098606
 22
1.247009
 32
0.165731
 13
1.744447
 23
1.120474
 33
1.455545
 62
0
  0
3DFACE
  8
NURBS
 10
1.744447
 20
1.120474
 30
1.455545
 11
2.098606
 21
1.247009
 31
0.165731
 12
2.037045
 22
1.379111
 32
0.165731
 13
1.710641
 23
1.195737
 33
1.455545
 62
0
  0
3DFACE
  8
NURBS
 10
2.037045
 20
1.379111
 30
0.165731
 11
2.024398
 21
1.369504
 31
0.085706
 12
1.942833
 22
1.485918
 32
0.085706
 13
1.953902
 23
1.498466
 33
0.165731
 62
0
  0
3DFACE
  8
NURBS
 10
1.953902
 20
1.498466
 30
0.165731
 11
1.942833
 21
1.485918
 31
0.085706
 12
1.842540
 22
1.586338
 32
0.085706
 13
1.851705
 23
1.601448
 33
0.165731
 62
0
  0
3DFACE
  8
NURBS
 10
1.851705
 20
1.601448
 30
0.165731
 11
1.842540
 21
1.586338
 31
0.085706
 12
1.726567
 22
1.667714
 32
0.085706
 13
1.733558
 23
1.684929
 33
0.165731
 62
0
  0
3DFACE
  8
NURBS
 10
1.733558
 20
1.684929
 30
0.165731
 11
1.726567
 21
1.667714
 31
0.085706
 12
1.598438
 22
1.727575
 32
0.085706
 13
1.603051
 23
1.746371
 33
0.165731
 62
0
  0
3DFACE
  8
NURBS
 10
1.603051
 20
1.746371
 30
0.165731
 11
1.598438
 21
1.727575
 31
0.085706
 12
1.462045
 22
1.764100
 32
0.085706
 13
1.464149
 23
1.783908
 33
0.165730
 62
0
  0
3DFACE
  8
NURBS
 10
1.464149
 20
1.783908
 30
0.165730
 11
1.462045
 21
1.764100
 31
0.085706
 12
1.321534
 22
1.776180
 32
0.085706
 13
1.321073
 23
1.796399
 33
0.165730
 62
0
  0
3DFACE
  8
NURBS
 10
1.321073
 20
1.796399
 30
0.165730
 11
1.321534
 21
1.776180
 31
0.085706
 12
1.181173
 22
1.763447
 32
0.085705
 13
1.178171
 23
1.783464
 33
0.165730
 62
0
  0
3DFACE
  8
NURBS
 10
1.178171
 20
1.783464
 30
0.165730
 11
1.181173
 21
1.763447
 31
0.085705
 12
1.045227
 22
1.726290
 32
0.085705
 13
1.039783
 23
1.745497
 33
0.165730
 62
0
  0
3DFACE
  8
NURBS
 10
1.039783
 20
1.745497
 30
0.165730
 11
1.045227
 21
1.726290
 31
0.085705
 12
0.917827
 22
1.665836
 32
0.085705
 13
0.910116
 23
1.683651
 33
0.165729
 62
0
  0
3DFACE
  8
NURBS
 10
0.910116
 20
1.683651
 30
0.165729
 11
0.917827
 21
1.665836
 31
0.085705
 12
0.802844
 22
1.583923
 32
0.085704
 13
0.793109
 23
1.599806
 33
0.165729
 62
0
  0
3DFACE
  8
NURBS
 10
0.793109
 20
1.599806
 30
0.165729
 11
0.802844
 21
1.583923
 31
0.085704
 12
0.703771
 22
1.483039
 32
0.085704
 13
0.692316
 23
1.496509
 33
0.165728
 62
0
  0
3DFACE
  8
NURBS
 10
0.692316
 20
1.496509
 30
0.165728
 11
0.703771
 21
1.483039
 31
0.085704
 12
0.623619
 22
1.366251
 32
0.085704
 13
0.610802
 23
1.376898
 33
0.165728
 62
0
  0
3DFACE
  8
NURBS
 10
0.610802
 20
1.376898
 30
0.165728
 11
0.623619
 21
1.366251
 31
0.085704
 12
0.564824
 22
1.237105
 32
0.085703
 13
0.551042
 23
1.244608
 33
0.165728
 62
0
  0
3DFACE
  8
NURBS
 10
0.551042
 20
1.244608
 30
0.165728
 11
0.564824
 21
1.237105
 31
0.085703
 12
0.529170
 22
1.099527
 32
0.085703
 13
0.514852
 23
1.103659
 33
0.165727
 62
0
  0
3DFACE
  8
NURBS
 10
0.514852
 20
1.103659
 30
0.165727
 11
0.529170
 21
1.099527
 31
0.085703
 12
0.517743
 22
0.957696
 32
0.085703
 13
0.503332
 23
0.958332
 33
0.165727
 62
0
  0
3DFACE
  8
NURBS
 10
0.503332
 20
0.958332
 30
0.165727
 11
0.517743
 21
0.957696
 31
0.085703
 12
0.530889
 22
0.815923
 32
0.085703
 13
0.516831
 23
0.813045
 33
0.165727
 62
0
  0
3DFACE
  8
NURBS
 10
0.516831
 20
0.813045
 30
0.165727
 11
0.530889
 21
0.815923
 31
0.085703
 12
0.568209
 22
0.678514
 32
0.085702
 13
0.554941
 23
0.672211
 33
0.165727
 62
0
  0
3DFACE
  8
NURBS
 10
0.554941
 20
0.672211
 30
0.165727
 11
0.568209
 21
0.678514
 31
0.085702
 12
0.628568
 22
0.549645
 32
0.085702
 13
0.616502
 23
0.540109
 33
0.165727
 62
0
  0
3DFACE
  8
NURBS
 10
0.616502
 20
0.540109
 30
0.165727
 11
0.628568
 21
0.549645
 31
0.085702
 12
0.710133
 22
0.433232
 32
0.085702
 13
0.699644
 23
0.420754
 33
0.165727
 62
0
  0
3DFACE
  8
NURBS
 10
0.699644
 20
0.420754
 30
0.165727
 11
0.710133
 21
0.433232
 31
0.085702
 12
0.810426
 22
0.332811
 32
0.085702
 13
0.801842
 23
0.317771
 33
0.165727
 62
0
  0
3DFACE
  8
NURBS
 10
0.801842
 20
0.317771
 30
0.165727
 11
0.810426
 21
0.332811
 31
0.085702
 12
0.926399
 22
0.251435
 32
0.085703
 13
0.919989
 23
0.234290
 33
0.165727
 62
0
  0
3DFACE
  8
NURBS
 10
0.919989
 20
0.234290
 30
0.165727
 11
0.926399
 21
0.251435
 31
0.085703
 12
1.054528
 22
0.191574
 32
0.085703
 13
1.050496
 23
0.172848
 33
0.165727
 62
0
  0
3DFACE
  8
NURBS
 10
1.050496
 20
0.172848
 30
0.165727
 11
1.054528
 21
0.191574
 31
0.085703
 12
1.190921
 22
0.155049
 32
0.085703
 13
1.189398
 23
0.135312
 33
0.165727
 62
0
  0
3DFACE
  8
NURBS
 10
1.189398
 20
0.135312
 30
0.165727
 11
1.190921
 21
0.155049
 31
0.085703
 12
1.331432
 22
0.142969
 32
0.085703
 13
1.332474
 23
0.122821
 33
0.165728
 62
0
  0
3DFACE
  8
NURBS
 10
1.332474
 20
0.122821
 30
0.165728
 11
1.331432
 21
0.142969
 31
0.085703
 12
1.471793
 22
0.155702
 32
0.085703
 13
1.475376
 23
0.135755
 33
0.165728
 62
0
  0
3DFACE
  8
NURBS
 10
1.475376
 20
0.135755
 30
0.165728
 11
1.471793
 21
0.155702
 31
0.085703
 12
1.607739
 22
0.192859
 32
0.085704
 13
1.613764
 23
0.173722
 33
0.165728
 62
0
  0
3DFACE
  8
NURBS
 10
1.613764
 20
0.173722
 30
0.165728
 11
1.607739
 21
0.192859
 31
0.085704
 12
1.735139
 22
0.253313
 32
0.085704
 13
1.743431
 23
0.235568
 33
0.165729
 62
0
  0
3DFACE
  8
NURBS
 10
1.743431
 20
0.235568
 30
0.165729
 11
1.735139
 21
0.253313
 31
0.085704
 12
1.850122
 22
0.335226
 32
0.085704
 13
1.860438
 23
0.319413
 33
0.165729
 62
0
  0
3DFACE
  8
NURBS
 10
1.860438
 20
0.319413
 30
0.165729
 11
1.850122
 21
0.335226
 31
0.085704
 12
1.949195
 22
0.436110
 32
0.085705
 13
1.961231
 23
0.422711
 33
0.165729
 62
0
  0
3DFACE
  8
NURBS
 10
1.961231
 20
0.422711
 30
0.165729
 11
1.949195
 21
0.436110
 31
0.085705
 12
2.029347
 22
0.552899
 32
0.085705
 13
2.042745
 23
0.542322
 33
0.165730
 62
0
  0
3DFACE
  8
NURBS
 10
2.042745
 20
0.542322
 30
0.165730
 11
2.029347
 21
0.552899
 31
0.085705
 12
2.088143
 22
0.682045
 32
0.085705
 13
2.102505
 23
0.674612
 33
0.165730
 62
0
  0
3DFACE
  8
NURBS
 10
2.102505
 20
0.674612
 30
0.165730
 11
2.088143
 21
0.682045
 31
0.085705
 12
2.123796
 22
0.819623
 32
0.085706
 13
2.138695
 23
0.815561
 33
0.165730
 62
0
  0
3DFACE
  8
NURBS
 10
2.138695
 20
0.815561
 30
0.165730
 11
2.123796
 21
0.819623
 31
0.085706
 12
2.135223
 22
0.961453
 32
0.085706
 13
2.150216
 23
0.960888
 33
0.165731
 62
0
  0
3DFACE
  8
NURBS
 10
2.150216
 20
0.960888
 30
0.165731
 11
2.135223
 21
0.961453
 31
0.085706
 12
2.122077
 22
1.103227
 32
0.085706
 13
2.136716
 23
1.106175
 33
0.165731
 62
0
  0
3DFACE
  8
NURBS
 10
2.136716
 20
1.106175
 30
0.165731
 11
2.122077
 21
1.103227
 31
0.085706
 12
2.084758
 22
1.240636
 32
0.085706
 13
2.098606
 23
1.247009
 33
0.165731
 62
0
  0
3DFACE
  8
NURBS
 10
2.098606
 20
1.247009
 30
0.165731
 11
2.084758
 21
1.240636
 31
0.085706
 12
2.024398
 22
1.369504
 32
0.085706
 13
2.037045
 23
1.379111
 33
0.165731
 62
0
  0
3DFACE
  8
NURBS
 10
2.024398
 20
1.369504
 30
0.085706
 11
2.084758
 21
1.240636
 31
0.085706
 12
2.069229
 22
1.234243
 32
0.067999
 13
2.010348
 23
1.359488
 33
0.068024
 62
0
  0
3DFACE
  8
NURBS
 10
1.942833
 20
1.485918
 30
0.085706
 11
2.024398
 21
1.369504
 31
0.085706
 12
2.010348
 22
1.359488
 32
0.068024
 13
1.930677
 23
1.472583
 33
0.068044
 62
0
  0
3DFACE
  8
NURBS
 10
1.842540
 20
1.586338
 30
0.085706
 11
1.942833
 21
1.485918
 31
0.085706
 12
1.930677
 22
1.472583
 32
0.068044
 13
1.832640
 23
1.570091
 33
0.068056
 62
0
  0
3DFACE
  8
NURBS
 10
1.726567
 20
1.667714
 30
0.085706
 11
1.842540
 21
1.586338
 31
0.085706
 12
1.832640
 22
1.570091
 32
0.068056
 13
1.719216
 23
1.649045
 33
0.068063
 62
0
  0
3DFACE
  8
NURBS
 10
1.598438
 20
1.727575
 30
0.085706
 11
1.726567
 21
1.667714
 31
0.085706
 12
1.719216
 22
1.649045
 32
0.068063
 13
1.593848
 23
1.707047
 33
0.068061
 62
0
  0
3DFACE
  8
NURBS
 10
1.462045
 20
1.764100
 30
0.085706
 11
1.598438
 21
1.727575
 31
0.085706
 12
1.593848
 22
1.707047
 32
0.068061
 13
1.460347
 23
1.742338
 33
0.068053
 62
0
  0
3DFACE
  8
NURBS
 10
1.321534
 20
1.776180
 30
0.085706
 11
1.462045
 21
1.764100
 31
0.085706
 12
1.460347
 22
1.742338
 32
0.068053
 13
1.322770
 23
1.753841
 33
0.068039
 62
0
  0
3DFACE
  8
NURBS
 10
1.181173
 20
1.763447
 30
0.085705
 11
1.321534
 21
1.776180
 31
0.085706
 12
1.322770
 22
1.753841
 32
0.068039
 13
1.185296
 23
1.741212
 33
0.068017
 62
0
  0
3DFACE
  8
NURBS
 10
1.045227
 20
1.726290
 30
0.085705
 11
1.181173
 21
1.763447
 31
0.085705
 12
1.185296
 22
1.741212
 32
0.068017
 13
1.052103
 23
1.704831
 33
0.067991
 62
0
  0
3DFACE
  8
NURBS
 10
0.917827
 20
1.665836
 30
0.085705
 11
1.045227
 21
1.726290
 31
0.085705
 12
1.052103
 22
1.704831
 32
0.067991
 13
0.927238
 23
1.645803
 33
0.067959
 62
0
  0
3DFACE
  8
NURBS
 10
0.802844
 20
1.583923
 30
0.085704
 11
0.917827
 21
1.665836
 31
0.085705
 12
0.927238
 22
1.645803
 32
0.067959
 13
0.814495
 23
1.565925
 33
0.067923
 62
0
  0
3DFACE
  8
NURBS
 10
0.703771
 20
1.483039
 30
0.085704
 11
0.802844
 21
1.583923
 31
0.085704
 12
0.814495
 22
1.565925
 32
0.067923
 13
0.717298
 23
1.467620
 33
0.067885
 62
0
  0
3DFACE
  8
NURBS
 10
0.623619
 20
1.366251
 30
0.085704
 11
0.703771
 21
1.483039
 31
0.085704
 12
0.717298
 22
1.467620
 32
0.067885
 13
0.638601
 23
1.353875
 33
0.067845
 62
0
  0
3DFACE
  8
NURBS
 10
0.564824
 20
1.237105
 30
0.085703
 11
0.623619
 21
1.366251
 31
0.085704
 12
0.638601
 22
1.353875
 32
0.067845
 13
0.580797
 23
1.228150
 33
0.067805
 62
0
  0
3DFACE
  8
NURBS
 10
0.529170
 20
1.099527
 30
0.085703
 11
0.564824
 21
1.237105
 31
0.085703
 12
0.580797
 22
1.228150
 32
0.067805
 13
0.545640
 23
1.094265
 33
0.067765
 62
0
  0
3DFACE
  8
NURBS
 10
0.517743
 20
0.957696
 30
0.085703
 11
0.529170
 21
1.099527
 31
0.085703
 12
0.545640
 22
1.094265
 32
0.067765
 13
0.534201
 23
0.956285
 33
0.067727
 62
0
  0
3DFACE
  8
NURBS
 10
0.530889
 20
0.815923
 30
0.085703
 11
0.517743
 21
0.957696
 31
0.085703
 12
0.534201
 22
0.956285
 32
0.067727
 13
0.546825
 23
0.818403
 33
0.067693
 62
0
  0
3DFACE
  8
NURBS
 10
0.568209
 20
0.678514
 30
0.085702
 11
0.530889
 21
0.815923
 31
0.085703
 12
0.546825
 22
0.818403
 32
0.067693
 13
0.583129
 23
0.684810
 33
0.067663
 62
0
  0
3DFACE
  8
NURBS
 10
0.628568
 20
0.549645
 30
0.085702
 11
0.568209
 21
0.678514
 31
0.085702
 12
0.583129
 22
0.684810
 32
0.067663
 13
0.642011
 23
0.559562
 33
0.067637
 62
0
  0
3DFACE
  8
NURBS
 10
0.710133
 20
0.433232
 30
0.085702
 11
0.628568
 21
0.549645
 31
0.085702
 12
0.642011
 22
0.559562
 32
0.067637
 13
0.721682
 23
0.446469
 33
0.067618
 62
0
  0
3DFACE
  8
NURBS
 10
0.810426
 20
0.332811
 30
0.085702
 11
0.710133
 21
0.433232
 31
0.085702
 12
0.721682
 22
0.446469
 32
0.067618
 13
0.819717
 23
0.348967
 33
0.067605
 62
0
  0
3DFACE
  8
NURBS
 10
0.926399
 20
0.251435
 30
0.085703
 11
0.810426
 21
0.332811
 31
0.085702
 12
0.819717
 22
0.348967
 32
0.067605
 13
0.933144
 23
0.270014
 33
0.067599
 62
0
  0
3DFACE
  8
NURBS
 10
1.054528
 20
0.191574
 30
0.085703
 11
0.926399
 21
0.251435
 31
0.085703
 12
0.933144
 22
0.270014
 32
0.067599
 13
1.058512
 23
0.212010
 33
0.067600
 62
0
  0
3DFACE
  8
NURBS
 10
1.190921
 20
0.155049
 30
0.085703
 11
1.054528
 21
0.191574
 31
0.085703
 12
1.058512
 22
0.212010
 32
0.067600
 13
1.192013
 23
0.176722
 33
0.067608
 62
0
  0
3DFACE
  8
NURBS
 10
1.331432
 20
0.142969
 30
0.085703
 11
1.190921
 21
0.155049
 31
0.085703
 12
1.192013
 22
0.176722
 32
0.067608
 13
1.329590
 23
0.165216
 33
0.067623
 62
0
  0
3DFACE
  8
NURBS
 10
1.471793
 20
0.155702
 30
0.085703
 11
1.331432
 21
0.142969
 31
0.085703
 12
1.329590
 22
0.165216
 32
0.067623
 13
1.467064
 23
0.177846
 33
0.067644
 62
0
  0
3DFACE
  8
NURBS
 10
1.607739
 20
0.192859
 30
0.085704
 11
1.471793
 21
0.155702
 31
0.085703
 12
1.467064
 22
0.177846
 32
0.067644
 13
1.600257
 23
0.214229
 33
0.067671
 62
0
  0
3DFACE
  8
NURBS
 10
1.735139
 20
0.253313
 30
0.085704
 11
1.607739
 21
0.192859
 31
0.085704
 12
1.600257
 22
0.214229
 32
0.067671
 13
1.725122
 23
0.273254
 33
0.067703
 62
0
  0
3DFACE
  8
NURBS
 10
1.850122
 20
0.335226
 30
0.085704
 11
1.735139
 21
0.253313
 31
0.085704
 12
1.725122
 22
0.273254
 32
0.067703
 13
1.837866
 23
0.353134
 33
0.067738
 62
0
  0
3DFACE
  8
NURBS
 10
1.949195
 20
0.436110
 30
0.085705
 11
1.850122
 21
0.335226
 31
0.085704
 12
1.837866
 22
0.353134
 32
0.067738
 13
1.935061
 23
0.451437
 33
0.067777
 62
0
  0
3DFACE
  8
NURBS
 10
2.029347
 20
0.552899
 30
0.085705
 11
1.949195
 21
0.436110
 31
0.085705
 12
1.935061
 22
0.451437
 32
0.067777
 13
2.013757
 23
0.565176
 33
0.067817
 62
0
  0
3DFACE
  8
NURBS
 10
2.088143
 20
0.682045
 30
0.085705
 11
2.029347
 21
0.552899
 31
0.085705
 12
2.013757
 22
0.565176
 32
0.067817
 13
2.071562
 23
0.690900
 33
0.067857
 62
0
  0
3DFACE
  8
NURBS
 10
2.123796
 20
0.819623
 30
0.085706
 11
2.088143
 21
0.682045
 31
0.085705
 12
2.071562
 22
0.690900
 32
0.067857
 13
2.106718
 23
0.824787
 33
0.067897
 62
0
  0
3DFACE
  8
NURBS
 10
2.135223
 20
0.961453
 30
0.085706
 11
2.123796
 21
0.819623
 31
0.085706
 12
2.106718
 22
0.824787
 32
0.067897
 13
2.118157
 23
0.962767
 33
0.067934
 62
0
  0
3DFACE
  8
NURBS
 10
2.122077
 20
1.103227
 30
0.085706
 11
2.135223
 21
0.961453
 31
0.085706
 12
2.118157
 22
0.962767
 32
0.067934
 13
2.105533
 23
1.100649
 33
0.067969
 62
0
  0
3DFACE
  8
NURBS
 10
2.084758
 20
1.240636
 30
0.085706
 11
2.122077
 21
1.103227
 31
0.085706
 12
2.105533
 22
1.100649
 32
0.067969
 13
2.069229
 23
1.234243
 33
0.067999
 62
0
  0
3DFACE
  8
NURBS
 10
2.010348
 20
1.359488
 30
0.068024
 11
2.069229
 21
1.234243
 31
0.067999
 12
2.046220
 22
1.225731
 32
0.056686
 13
1.989163
 23
1.347098
 33
0.056710
 62
0
  0
3DFACE
  8
NURBS
 10
1.930677
 20
1.472583
 30
0.068044
 11
2.010348
 21
1.359488
 31
0.068024
 12
1.989163
 22
1.347098
 32
0.056710
 13
1.911959
 23
1.456691
 33
0.056729
 62
0
  0
3DFACE
  8
NURBS
 10
1.832640
 20
1.570091
 30
0.068056
 11
1.930677
 21
1.472583
 31
0.068044
 12
1.911959
 22
1.456691
 32
0.056729
 13
1.816958
 23
1.551179
 33
0.056742
 62
0
  0
3DFACE
  8
NURBS
 10
1.719216
 20
1.649045
 30
0.068063
 11
1.832640
 21
1.570091
 31
0.068056
 12
1.816958
 22
1.551179
 32
0.056742
 13
1.707046
 23
1.627689
 33
0.056747
 62
0
  0
3DFACE
  8
NURBS
 10
1.593848
 20
1.707047
 30
0.068061
 11
1.719216
 21
1.649045
 31
0.068063
 12
1.707046
 22
1.627689
 32
0.056747
 13
1.585560
 23
1.683894
 33
0.056746
 62
0
  0
3DFACE
  8
NURBS
 10
1.460347
 20
1.742338
 30
0.068053
 11
1.593848
 21
1.707047
 31
0.068061
 12
1.585560
 22
1.683894
 32
0.056746
 13
1.456192
 23
1.718092
 33
0.056739
 62
0
  0
3DFACE
  8
NURBS
 10
1.322770
 20
1.753841
 30
0.068039
 11
1.460347
 21
1.742338
 31
0.068053
 12
1.456192
 22
1.718092
 32
0.056739
 13
1.322875
 23
1.729238
 33
0.056724
 62
0
  0
3DFACE
  8
NURBS
 10
1.185296
 20
1.741212
 30
0.068017
 11
1.322770
 21
1.753841
 31
0.068039
 12
1.322875
 22
1.729238
 32
0.056724
 13
1.189657
 23
1.716999
 33
0.056704
 62
0
  0
3DFACE
  8
NURBS
 10
1.052103
 20
1.704831
 30
0.067991
 11
1.185296
 21
1.741212
 31
0.068017
 12
1.189657
 22
1.716999
 32
0.056704
 13
1.060587
 23
1.681744
 33
0.056677
 62
0
  0
3DFACE
  8
NURBS
 10
0.927238
 20
1.645803
 30
0.067959
 11
1.052103
 21
1.704831
 31
0.067991
 12
1.060587
 22
1.681744
 32
0.056677
 13
0.939588
 23
1.624543
 33
0.056647
 62
0
  0
3DFACE
  8
NURBS
 10
0.814495
 20
1.565925
 30
0.067923
 11
0.927238
 21
1.645803
 31
0.067959
 12
0.939588
 22
1.624543
 32
0.056647
 13
0.830334
 23
1.547137
 33
0.056612
 62
0
  0
3DFACE
  8
NURBS
 10
0.717298
 20
1.467620
 30
0.067885
 11
0.814495
 21
1.565925
 31
0.067923
 12
0.830334
 22
1.547137
 32
0.056612
 13
0.736146
 23
1.451875
 33
0.056574
 62
0
  0
3DFACE
  8
NURBS
 10
0.638601
 20
1.353875
 30
0.067845
 11
0.717298
 21
1.467620
 31
0.067885
 12
0.736146
 22
1.451875
 32
0.056574
 13
0.659885
 23
1.341651
 33
0.056535
 62
0
  0
3DFACE
  8
NURBS
 10
0.580797
 20
1.228150
 30
0.067805
 11
0.638601
 21
1.353875
 31
0.067845
 12
0.659885
 22
1.341651
 32
0.056535
 13
0.603870
 23
1.219818
 33
0.056496
 62
0
  0
3DFACE
  8
NURBS
 10
0.545640
 20
1.094265
 30
0.067765
 11
0.580797
 21
1.228150
 31
0.067805
 12
0.603870
 22
1.219818
 32
0.056496
 13
0.569801
 23
1.090078
 33
0.056457
 62
0
  0
3DFACE
  8
NURBS
 10
0.534201
 20
0.956285
 30
0.067727
 11
0.545640
 21
1.094265
 31
0.067765
 12
0.569801
 22
1.090078
 32
0.056457
 13
0.558715
 23
0.956369
 33
0.056421
 62
0
  0
3DFACE
  8
NURBS
 10
0.546825
 20
0.818403
 30
0.067693
 11
0.534201
 21
0.956285
 31
0.067727
 12
0.558715
 22
0.956369
 32
0.056421
 13
0.570947
 23
0.822756
 33
0.056387
 62
0
  0
3DFACE
  8
NURBS
 10
0.583129
 20
0.684810
 30
0.067663
 11
0.546825
 21
0.818403
 31
0.067693
 12
0.570947
 22
0.822756
 32
0.056387
 13
0.606127
 23
0.693299
 33
0.056358
 62
0
  0
3DFACE
  8
NURBS
 10
0.642011
 20
0.559562
 30
0.067637
 11
0.583129
 21
0.684810
 31
0.067663
 12
0.606127
 22
0.693299
 32
0.056358
 13
0.663184
 23
0.571929
 33
0.056333
 62
0
  0
3DFACE
  8
NURBS
 10
0.721682
 20
0.446469
 30
0.067618
 11
0.642011
 21
0.559562
 31
0.067637
 12
0.663184
 22
0.571929
 32
0.056333
 13
0.740388
 23
0.462338
 33
0.056314
 62
0
  0
3DFACE
  8
NURBS
 10
0.819717
 20
0.348967
 30
0.067605
 11
0.721682
 21
0.446469
 31
0.067618
 12
0.740388
 22
0.462338
 32
0.056314
 13
0.835387
 23
0.367855
 33
0.056302
 62
0
  0
3DFACE
  8
NURBS
 10
0.933144
 20
0.270014
 30
0.067599
 11
0.819717
 21
0.348967
 31
0.067605
 12
0.835387
 22
0.367855
 32
0.056302
 13
0.945303
 23
0.291347
 33
0.056296
 62
0
  0
3DFACE
  8
NURBS
 10
1.058512
 20
0.212010
 30
0.067600
 11
0.933144
 21
0.270014
 31
0.067599
 12
0.945303
 22
0.291347
 32
0.056296
 13
1.066789
 23
0.235140
 33
0.056297
 62
0
  0
3DFACE
  8
NURBS
 10
1.192013
 20
0.176722
 30
0.067608
 11
1.058512
 21
0.212010
 31
0.067600
 12
1.066789
 22
0.235140
 32
0.056297
 13
1.196157
 23
0.200944
 33
0.056305
 62
0
  0
3DFACE
  8
NURBS
 10
1.329590
 20
0.165216
 30
0.067623
 11
1.192013
 21
0.176722
 31
0.067608
 12
1.196157
 22
0.200944
 32
0.056305
 13
1.329474
 23
0.189796
 33
0.056319
 62
0
  0
3DFACE
  8
NURBS
 10
1.467064
 20
0.177846
 30
0.067644
 11
1.329590
 21
0.165216
 31
0.067623
 12
1.329474
 22
0.189796
 32
0.056319
 13
1.462692
 23
0.202036
 33
0.056340
 62
0
  0
3DFACE
  8
NURBS
 10
1.600257
 20
0.214229
 30
0.067671
 11
1.467064
 21
0.177846
 31
0.067644
 12
1.462692
 22
0.202036
 32
0.056340
 13
1.591762
 23
0.237292
 33
0.056366
 62
0
  0
3DFACE
  8
NURBS
 10
1.725122
 20
0.273254
 30
0.067703
 11
1.600257
 21
0.214229
 31
0.067671
 12
1.591762
 22
0.237292
 32
0.056366
 13
1.712761
 23
0.294492
 33
0.056397
 62
0
  0
3DFACE
  8
NURBS
 10
1.837866
 20
0.353134
 30
0.067738
 11
1.725122
 21
0.273254
 31
0.067703
 12
1.712761
 22
0.294492
 32
0.056397
 13
1.822015
 23
0.371899
 33
0.056431
 62
0
  0
3DFACE
  8
NURBS
 10
1.935061
 20
0.451437
 30
0.067777
 11
1.837866
 21
0.353134
 31
0.067738
 12
1.822015
 22
0.371899
 32
0.056431
 13
1.916201
 23
0.467159
 33
0.056469
 62
0
  0
3DFACE
  8
NURBS
 10
2.013757
 20
0.565176
 30
0.067817
 11
1.935061
 21
0.451437
 31
0.067777
 12
1.916201
 22
0.467159
 32
0.056469
 13
1.992462
 23
0.577377
 33
0.056508
 62
0
  0
3DFACE
  8
NURBS
 10
2.071562
 20
0.690900
 30
0.067857
 11
2.013757
 21
0.565176
 31
0.067817
 12
1.992462
 22
0.577377
 32
0.056508
 13
2.048477
 23
0.699210
 33
0.056547
 62
0
  0
3DFACE
  8
NURBS
 10
2.106718
 20
0.824787
 30
0.067897
 11
2.071562
 21
0.690900
 31
0.067857
 12
2.048477
 22
0.699210
 32
0.056547
 13
2.082546
 23
0.828951
 33
0.056586
 62
0
  0
3DFACE
  8
NURBS
 10
2.118157
 20
0.962767
 30
0.067934
 11
2.106718
 21
0.824787
 31
0.067897
 12
2.082546
 22
0.828951
 32
0.056586
 13
2.093632
 23
0.962660
 33
0.056622
 62
0
  0
3DFACE
  8
NURBS
 10
2.105533
 20
1.100649
 30
0.067969
 11
2.118157
 21
0.962767
 31
0.067934
 12
2.093632
 22
0.962660
 32
0.056622
 13
2.081400
 23
1.096273
 33
0.056656
 62
0
  0
3DFACE
  8
NURBS
 10
2.069229
 20
1.234243
 30
0.067999
 11
2.105533
 21
1.100649
 31
0.067969
 12
2.081400
 22
1.096273
 32
0.056656
 13
2.046220
 23
1.225731
 33
0.056686
 62
0
  0
3DFACE
  8
NURBS
 10
1.854316
 20
1.595166
 30
0.021934
 11
1.895046
 21
1.644935
 31
0.085467
 12
1.767917
 22
1.733796
 32
0.085467
 13
1.736373
 23
1.677540
 33
0.021935
 62
0
  0
3DFACE
  8
NURBS
 10
1.956295
 20
1.493489
 30
0.021933
 11
2.004973
 21
1.535259
 31
0.085467
 12
1.895046
 22
1.644935
 32
0.085467
 13
1.854316
 23
1.595166
 33
0.021934
 62
0
  0
3DFACE
  8
NURBS
 10
2.039209
 20
1.375598
 30
0.021931
 11
2.094357
 21
1.408100
 31
0.085466
 12
2.004973
 22
1.535259
 32
0.085467
 13
1.956295
 23
1.493489
 33
0.021933
 62
0
  0
3DFACE
  8
NURBS
 10
2.100541
 20
1.245074
 30
0.021929
 11
2.160481
 21
1.267321
 31
0.085466
 12
2.094357
 22
1.408100
 32
0.085466
 13
2.039209
 23
1.375598
 33
0.021931
 62
0
  0
3DFACE
  8
NURBS
 10
2.138426
 20
1.105884
 30
0.021926
 11
2.201337
 21
1.117199
 31
0.085466
 12
2.160481
 22
1.267321
 32
0.085466
 13
2.100541
 23
1.245074
 33
0.021929
 62
0
  0
3DFACE
  8
NURBS
 10
2.151714
 20
0.962257
 30
0.021922
 11
2.215684
 21
0.962297
 31
0.085466
 12
2.201337
 22
1.117199
 32
0.085466
 13
2.138426
 23
1.105884
 33
0.021926
 62
0
  0
3DFACE
  8
NURBS
 10
2.139999
 20
0.818558
 30
0.021919
 11
2.203085
 21
0.807321
 31
0.085466
 12
2.215684
 22
0.962297
 32
0.085466
 13
2.151714
 23
0.962257
 33
0.021922
 62
0
  0
3DFACE
  8
NURBS
 10
2.103640
 20
0.679152
 30
0.021915
 11
2.163923
 21
0.656980
 31
0.085466
 12
2.203085
 22
0.807321
 32
0.085466
 13
2.139999
 23
0.818558
 33
0.021919
 62
0
  0
3DFACE
  8
NURBS
 10
2.043739
 20
0.548274
 30
0.021911
 11
2.099389
 21
0.515841
 31
0.085465
 12
2.163923
 22
0.656980
 32
0.085466
 13
2.103640
 23
0.679152
 33
0.021915
 62
0
  0
3DFACE
  8
NURBS
 10
1.962119
 20
0.429903
 30
0.021907
 11
2.011443
 21
0.388194
 31
0.085465
 12
2.099389
 22
0.515841
 32
0.085465
 13
2.043739
 23
0.548274
 33
0.021911
 62
0
  0
3DFACE
  8
NURBS
 10
1.861257
 20
0.327634
 30
0.021904
 11
1.902757
 21
0.277917
 31
0.085465
 12
2.011443
 22
0.388194
 32
0.085465
 13
1.962119
 23
0.429903
 33
0.021907
 62
0
  0
3DFACE
  8
NURBS
 10
1.744219
 20
0.244576
 30
0.021900
 11
1.776634
 21
0.188359
 31
0.085465
 12
1.902757
 22
0.277917
 32
0.085465
 13
1.861257
 23
0.327634
 33
0.021904
 62
0
  0
3DFACE
  8
NURBS
 10
1.614562
 20
0.183250
 30
0.021897
 11
1.636906
 21
0.122244
 31
0.085465
 12
1.776634
 22
0.188359
 32
0.085465
 13
1.744219
 23
0.244576
 33
0.021900
 62
0
  0
3DFACE
  8
NURBS
 10
1.476224
 20
0.145521
 30
0.021895
 11
1.487818
 21
0.081579
 31
0.085465
 12
1.636906
 22
0.122244
 32
0.085465
 13
1.614562
 23
0.183250
 33
0.021897
 62
0
  0
3DFACE
  8
NURBS
 10
1.333409
 20
0.132536
 30
0.021893
 11
1.333900
 21
0.067601
 31
0.085464
 12
1.487818
 22
0.081579
 32
0.085465
 13
1.476224
 23
0.145521
 33
0.021895
 62
0
  0
3DFACE
  8
NURBS
 10
1.190456
 20
0.144688
 30
0.021891
 11
1.179829
 21
0.080733
 31
0.085464
 12
1.333900
 22
0.067601
 32
0.085464
 13
1.333409
 23
0.132536
 33
0.021893
 62
0
  0
3DFACE
  8
NURBS
 10
1.051709
 20
0.181609
 30
0.021890
 11
1.030287
 21
0.120576
 31
0.085464
 12
1.179829
 22
0.080733
 32
0.085464
 13
1.190456
 23
0.144688
 33
0.021891
 62
0
  0
3DFACE
  8
NURBS
 10
0.921384
 20
0.242177
 30
0.021890
 11
0.889818
 21
0.185921
 31
0.085464
 12
1.030287
 22
0.120576
 32
0.085464
 13
1.051709
 23
0.181609
 33
0.021890
 62
0
  0
3DFACE
  8
NURBS
 10
0.803441
 20
0.324551
 30
0.021891
 11
0.762688
 21
0.274782
 31
0.085464
 12
0.889818
 22
0.185921
 32
0.085464
 13
0.921384
 23
0.242177
 33
0.021890
 62
0
  0
3DFACE
  8
NURBS
 10
0.701462
 20
0.426229
 30
0.021892
 11
0.652762
 21
0.384459
 31
0.085465
 12
0.762688
 22
0.274782
 32
0.085464
 13
0.803441
 23
0.324551
 33
0.021891
 62
0
  0
3DFACE
  8
NURBS
 10
0.618548
 20
0.544120
 30
0.021894
 11
0.563378
 21
0.511618
 31
0.085465
 12
0.652762
 22
0.384459
 32
0.085465
 13
0.701462
 23
0.426229
 33
0.021892
 62
0
  0
3DFACE
  8
NURBS
 10
0.557217
 20
0.674644
 30
0.021896
 11
0.497254
 21
0.652397
 31
0.085465
 12
0.563378
 22
0.511618
 32
0.085465
 13
0.618548
 23
0.544120
 33
0.021894
 62
0
  0
3DFACE
  8
NURBS
 10
0.519332
 20
0.813833
 30
0.021899
 11
0.456398
 21
0.802518
 31
0.085465
 12
0.497254
 22
0.652397
 32
0.085465
 13
0.557217
 23
0.674644
 33
0.021896
 62
0
  0
3DFACE
  8
NURBS
 10
0.506044
 20
0.957460
 30
0.021903
 11
0.442051
 21
0.957420
 31
0.085465
 12
0.456398
 22
0.802518
 32
0.085465
 13
0.519332
 23
0.813833
 33
0.021899
 62
0
  0
3DFACE
  8
NURBS
 10
0.517759
 20
1.101160
 30
0.021906
 11
0.454650
 21
1.112396
 31
0.085465
 12
0.442051
 22
0.957420
 32
0.085465
 13
0.506044
 23
0.957460
 33
0.021903
 62
0
  0
3DFACE
  8
NURBS
 10
0.554118
 20
1.240565
 30
0.021910
 11
0.493812
 21
1.262738
 31
0.085466
 12
0.454650
 22
1.112396
 32
0.085465
 13
0.517759
 23
1.101160
 33
0.021906
 62
0
  0
3DFACE
  8
NURBS
 10
0.614018
 20
1.371443
 30
0.021914
 11
0.558346
 21
1.403876
 31
0.085466
 12
0.493812
 22
1.262738
 32
0.085466
 13
0.554118
 23
1.240565
 33
0.021910
 62
0
  0
3DFACE
  8
NURBS
 10
0.695639
 20
1.489814
 30
0.021918
 11
0.646292
 21
1.531523
 31
0.085466
 12
0.558346
 22
1.403876
 32
0.085466
 13
0.614018
 23
1.371443
 33
0.021914
 62
0
  0
3DFACE
  8
NURBS
 10
0.796501
 20
1.592082
 30
0.021921
 11
0.754978
 21
1.641801
 31
0.085466
 12
0.646292
 22
1.531523
 32
0.085466
 13
0.695639
 23
1.489814
 33
0.021918
 62
0
  0
3DFACE
  8
NURBS
 10
0.913538
 20
1.675141
 30
0.021925
 11
0.881101
 21
1.731358
 31
0.085466
 12
0.754978
 22
1.641801
 32
0.085466
 13
0.796501
 23
1.592082
 33
0.021921
 62
0
  0
3DFACE
  8
NURBS
 10
1.043196
 20
1.736467
 30
0.021928
 11
1.020829
 21
1.797473
 31
0.085467
 12
0.881101
 22
1.731358
 32
0.085466
 13
0.913538
 23
1.675141
 33
0.021925
 62
0
  0
3DFACE
  8
NURBS
 10
1.181534
 20
1.774195
 30
0.021930
 11
1.169917
 21
1.838138
 31
0.085467
 12
1.020829
 22
1.797473
 32
0.085467
 13
1.043196
 23
1.736467
 33
0.021928
 62
0
  0
3DFACE
  8
NURBS
 10
1.324349
 20
1.787181
 30
0.021932
 11
1.323835
 21
1.852117
 31
0.085467
 12
1.169917
 22
1.838138
 32
0.085467
 13
1.181534
 23
1.774195
 33
0.021930
 62
0
  0
3DFACE
  8
NURBS
 10
1.467301
 20
1.775028
 30
0.021934
 11
1.477905
 21
1.838984
 31
0.085467
 12
1.323835
 22
1.852117
 32
0.085467
 13
1.324349
 23
1.787181
 33
0.021932
 62
0
  0
3DFACE
  8
NURBS
 10
1.606048
 20
1.738108
 30
0.021935
 11
1.627447
 21
1.799141
 31
0.085467
 12
1.477905
 22
1.838984
 32
0.085467
 13
1.467301
 23
1.775028
 33
0.021934
 62
0
  0
3DFACE
  8
NURBS
 10
1.736373
 20
1.677540
 30
0.021935
 11
1.767917
 21
1.733796
 31
0.085467
 12
1.627447
 22
1.799141
 32
0.085467
 13
1.606048
 23
1.738108
 33
0.021935
 62
0
  0
3DFACE
  8
NURBS
 10
1.828504
 20
1.564526
 30
0.010379
 11
1.854316
 21
1.595166
 31
0.021934
 12
1.736373
 22
1.677540
 32
0.021935
 13
1.716285
 23
1.642901
 33
0.010379
 62
0
  0
3DFACE
  8
NURBS
 10
1.925532
 20
1.467785
 30
0.010378
 11
1.956295
 21
1.493489
 31
0.021933
 12
1.854316
 22
1.595166
 32
0.021934
 13
1.828504
 23
1.564526
 33
0.010379
 62
0
  0
3DFACE
  8
NURBS
 10
2.004421
 20
1.355615
 30
0.010376
 11
2.039209
 21
1.375598
 31
0.021931
 12
1.956295
 22
1.493489
 32
0.021933
 13
1.925532
 23
1.467785
 33
0.010378
 62
0
  0
3DFACE
  8
NURBS
 10
2.062774
 20
1.231426
 30
0.010374
 11
2.100541
 21
1.245074
 31
0.021929
 12
2.039209
 22
1.375598
 32
0.021931
 13
2.004421
 23
1.355615
 33
0.010376
 62
0
  0
3DFACE
  8
NURBS
 10
2.098819
 20
1.098991
 30
0.010371
 11
2.138426
 21
1.105884
 31
0.021926
 12
2.100541
 22
1.245074
 32
0.021929
 13
2.062774
 23
1.231426
 33
0.010374
 62
0
  0
3DFACE
  8
NURBS
 10
2.111461
 20
0.962335
 30
0.010368
 11
2.151714
 21
0.962257
 31
0.021922
 12
2.138426
 22
1.105884
 32
0.021926
 13
2.098819
 23
1.098991
 33
0.010371
 62
0
  0
3DFACE
  8
NURBS
 10
2.100313
 20
0.825608
 30
0.010365
 11
2.139999
 21
0.818558
 31
0.021919
 12
2.151714
 22
0.962257
 32
0.021922
 13
2.111461
 23
0.962335
 33
0.010368
 62
0
  0
3DFACE
  8
NURBS
 10
2.065717
 20
0.692967
 30
0.010362
 11
2.103640
 21
0.679152
 31
0.021915
 12
2.139999
 22
0.818558
 32
0.021919
 13
2.100313
 23
0.825608
 33
0.010365
 62
0
  0
3DFACE
  8
NURBS
 10
2.008722
 20
0.568440
 30
0.010358
 11
2.043739
 21
0.548274
 31
0.021911
 12
2.103640
 22
0.679152
 32
0.021915
 13
2.065717
 23
0.692967
 33
0.010362
 62
0
  0
3DFACE
  8
NURBS
 10
1.931061
 20
0.455812
 30
0.010355
 11
1.962119
 21
0.429903
 31
0.021907
 12
2.043739
 22
0.548274
 32
0.021911
 13
2.008722
 23
0.568440
 33
0.010358
 62
0
  0
3DFACE
  8
NURBS
 10
1.835093
 20
0.358505
 30
0.010352
 11
1.861257
 21
0.327634
 31
0.021904
 12
1.962119
 22
0.429903
 32
0.021907
 13
1.931061
 23
0.455812
 33
0.010355
 62
0
  0
3DFACE
  8
NURBS
 10
1.723735
 20
0.279476
 30
0.010349
 11
1.744219
 21
0.244576
 31
0.021900
 12
1.861257
 22
0.327634
 32
0.021904
 13
1.835093
 23
0.358505
 33
0.010352
 62
0
  0
3DFACE
  8
NURBS
 10
1.600369
 20
0.221124
 30
0.010346
 11
1.614562
 21
0.183250
 31
0.021897
 12
1.744219
 22
0.244576
 32
0.021900
 13
1.723735
 23
0.279476
 33
0.010349
 62
0
  0
3DFACE
  8
NURBS
 10
1.468745
 20
0.185225
 30
0.010344
 11
1.476224
 21
0.145521
 31
0.021895
 12
1.614562
 22
0.183250
 32
0.021897
 13
1.600369
 23
0.221124
 33
0.010346
 62
0
  0
3DFACE
  8
NURBS
 10
1.332861
 20
0.172869
 30
0.010342
 11
1.333409
 21
0.132536
 31
0.021893
 12
1.476224
 22
0.145521
 32
0.021895
 13
1.468745
 23
0.185225
 33
0.010344
 62
0
  0
3DFACE
  8
NURBS
 10
1.196846
 20
0.184430
 30
0.010340
 11
1.190456
 21
0.144688
 31
0.021891
 12
1.333409
 22
0.132536
 32
0.021893
 13
1.332861
 23
0.172869
 33
0.010342
 62
0
  0
3DFACE
  8
NURBS
 10
1.064834
 20
0.219557
 30
0.010340
 11
1.051709
 21
0.181609
 31
0.021890
 12
1.190456
 22
0.144688
 32
0.021891
 13
1.196846
 23
0.184430
 33
0.010340
 62
0
  0
3DFACE
  8
NURBS
 10
0.940834
 20
0.277184
 30
0.010340
 11
0.921384
 21
0.242177
 31
0.021890
 12
1.051709
 22
0.181609
 32
0.021890
 13
1.064834
 23
0.219557
 33
0.010340
 62
0
  0
3DFACE
  8
NURBS
 10
0.828615
 20
0.355560
 30
0.010340
 11
0.803441
 21
0.324551
 31
0.021891
 12
0.921384
 22
0.242177
 32
0.021890
 13
0.940834
 23
0.277184
 33
0.010340
 62
0
  0
3DFACE
  8
NURBS
 10
0.731587
 20
0.452302
 30
0.010341
 11
0.701462
 21
0.426229
 31
0.021892
 12
0.803441
 22
0.324551
 32
0.021891
 13
0.828615
 23
0.355560
 33
0.010340
 62
0
  0
3DFACE
  8
NURBS
 10
0.652699
 20
0.564472
 30
0.010343
 11
0.618548
 21
0.544120
 31
0.021894
 12
0.701462
 22
0.426229
 32
0.021892
 13
0.731587
 23
0.452302
 33
0.010341
 62
0
  0
3DFACE
  8
NURBS
 10
0.594345
 20
0.688661
 30
0.010345
 11
0.557217
 21
0.674644
 31
0.021896
 12
0.618548
 22
0.544120
 32
0.021894
 13
0.652699
 23
0.564472
 33
0.010343
 62
0
  0
3DFACE
  8
NURBS
 10
0.558300
 20
0.821095
 30
0.010347
 11
0.519332
 21
0.813833
 31
0.021899
 12
0.557217
 22
0.674644
 32
0.021896
 13
0.594345
 23
0.688661
 33
0.010345
 62
0
  0
3DFACE
  8
NURBS
 10
0.545659
 20
0.957752
 30
0.010350
 11
0.506044
 21
0.957460
 31
0.021903
 12
0.519332
 22
0.813833
 32
0.021899
 13
0.558300
 23
0.821095
 33
0.010347
 62
0
  0
3DFACE
  8
NURBS
 10
0.556807
 20
1.094478
 30
0.010353
 11
0.517759
 21
1.101160
 31
0.021906
 12
0.506044
 22
0.957460
 32
0.021903
 13
0.545659
 23
0.957752
 33
0.010350
 62
0
  0
3DFACE
  8
NURBS
 10
0.591403
 20
1.227120
 30
0.010357
 11
0.554118
 21
1.240565
 31
0.021910
 12
0.517759
 22
1.101160
 32
0.021906
 13
0.556807
 23
1.094478
 33
0.010353
 62
0
  0
3DFACE
  8
NURBS
 10
0.648398
 20
1.351646
 30
0.010360
 11
0.614018
 21
1.371443
 31
0.021914
 12
0.554118
 22
1.240565
 32
0.021910
 13
0.591403
 23
1.227120
 33
0.010357
 62
0
  0
3DFACE
  8
NURBS
 10
0.726058
 20
1.464274
 30
0.010364
 11
0.695639
 21
1.489814
 31
0.021918
 12
0.614018
 22
1.371443
 32
0.021914
 13
0.648398
 23
1.351646
 33
0.010360
 62
0
  0
3DFACE
  8
NURBS
 10
0.822027
 20
1.561581
 30
0.010367
 11
0.796501
 21
1.592082
 31
0.021921
 12
0.695639
 22
1.489814
 32
0.021918
 13
0.726058
 23
1.464274
 33
0.010364
 62
0
  0
3DFACE
  8
NURBS
 10
0.933385
 20
1.640610
 30
0.010370
 11
0.913538
 21
1.675141
 31
0.021925
 12
0.796501
 22
1.592082
 32
0.021921
 13
0.822027
 23
1.561581
 33
0.010367
 62
0
  0
3DFACE
  8
NURBS
 10
1.056751
 20
1.698961
 30
0.010373
 11
1.043196
 21
1.736467
 31
0.021928
 12
0.913538
 22
1.675141
 32
0.021925
 13
0.933385
 23
1.640610
 33
0.010370
 62
0
  0
3DFACE
  8
NURBS
 10
1.188375
 20
1.734861
 30
0.010375
 11
1.181534
 21
1.774195
 31
0.021930
 12
1.043196
 22
1.736467
 32
0.021928
 13
1.056751
 23
1.698961
 33
0.010373
 62
0
  0
3DFACE
  8
NURBS
 10
1.324259
 20
1.747217
 30
0.010377
 11
1.324349
 21
1.787181
 31
0.021932
 12
1.181534
 22
1.774195
 32
0.021930
 13
1.188375
 23
1.734861
 33
0.010375
 62
0
  0
3DFACE
  8
NURBS
 10
1.460273
 20
1.735656
 30
0.010378
 11
1.467301
 21
1.775028
 31
0.021934
 12
1.324349
 22
1.787181
 32
0.021932
 13
1.324259
 23
1.747217
 33
0.010377
 62
0
  0
3DFACE
  8
NURBS
 10
1.592286
 20
1.700529
 30
0.010379
 11
1.606048
 21
1.738108
 31
0.021935
 12
1.467301
 22
1.775028
 32
0.021934
 13
1.460273
 23
1.735656
 33
0.010378
 62
0
  0
3DFACE
  8
NURBS
 10
1.716285
 20
1.642901
 30
0.010379
 11
1.736373
 21
1.677540
 31
0.021935
 12
1.606048
 22
1.738108
 32
0.021935
 13
1.592286
 23
1.700529
 33
0.010379
 62
0
 0
ENDSEC
 0
EOF
