  0
SECTION
  2
HEADER
  0
ENDSEC
  0
SECTION
  2
TABLES
  0
TABLE
  2
LAYER
  70
    153
  0
LAYER
  2
Sphere3
 70
0
 62
15
  6
CONTINUOUS
  0
ENDTAB
  0
ENDSEC
  0
SECTION
  2
ENTITIES
  0
3DFACE
  8
Sphere3
 10
-0.016816
 20
-0.306602
 30
0.079726
 11
-0.017930
 21
-0.306602
 31
0.079726
 12
-0.017373
 22
-0.306549
 32
0.079726
 13
-0.017373
 23
-0.306549
 33
0.079726
 62
0
  0
3DFACE
  8
Sphere3
 10
-0.018466
 20
-0.306759
 30
0.079726
 11
-0.017930
 21
-0.306602
 31
0.079726
 12
-0.016816
 22
-0.306602
 32
0.079726
 13
-0.016816
 23
-0.306602
 33
0.079726
 62
0
  0
3DFACE
  8
Sphere3
 10
-0.016280
 20
-0.306759
 30
0.079726
 11
-0.018466
 21
-0.306759
 31
0.079726
 12
-0.016816
 22
-0.306602
 32
0.079726
 13
-0.016816
 23
-0.306602
 33
0.079726
 62
0
  0
3DFACE
  8
Sphere3
 10
-0.018959
 20
-0.307013
 30
0.079726
 11
-0.018466
 21
-0.306759
 31
0.079726
 12
-0.016280
 22
-0.306759
 32
0.079726
 13
-0.016280
 23
-0.306759
 33
0.079726
 62
0
  0
3DFACE
  8
Sphere3
 10
-0.015787
 20
-0.307013
 30
0.079726
 11
-0.018959
 21
-0.307013
 31
0.079726
 12
-0.016280
 22
-0.306759
 32
0.079726
 13
-0.016280
 23
-0.306759
 33
0.079726
 62
0
  0
3DFACE
  8
Sphere3
 10
-0.019392
 20
-0.307355
 30
0.079726
 11
-0.018959
 21
-0.307013
 31
0.079726
 12
-0.015787
 22
-0.307013
 32
0.079726
 13
-0.015787
 23
-0.307013
 33
0.079726
 62
0
  0
3DFACE
  8
Sphere3
 10
-0.015354
 20
-0.307355
 30
0.079726
 11
-0.019392
 21
-0.307355
 31
0.079726
 12
-0.015787
 22
-0.307013
 32
0.079726
 13
-0.015787
 23
-0.307013
 33
0.079726
 62
0
  0
3DFACE
  8
Sphere3
 10
-0.019747
 20
-0.307771
 30
0.079726
 11
-0.019392
 21
-0.307355
 31
0.079726
 12
-0.015354
 22
-0.307355
 32
0.079726
 13
-0.015354
 23
-0.307355
 33
0.079726
 62
0
  0
3DFACE
  8
Sphere3
 10
-0.014999
 20
-0.307771
 30
0.079726
 11
-0.019747
 21
-0.307771
 31
0.079726
 12
-0.015354
 22
-0.307355
 32
0.079726
 13
-0.015354
 23
-0.307355
 33
0.079726
 62
0
  0
3DFACE
  8
Sphere3
 10
-0.020011
 20
-0.308247
 30
0.079726
 11
-0.019747
 21
-0.307771
 31
0.079726
 12
-0.014999
 22
-0.307771
 32
0.079726
 13
-0.014999
 23
-0.307771
 33
0.079726
 62
0
  0
3DFACE
  8
Sphere3
 10
-0.014735
 20
-0.308247
 30
0.079726
 11
-0.020011
 21
-0.308247
 31
0.079726
 12
-0.014999
 22
-0.307771
 32
0.079726
 13
-0.014999
 23
-0.307771
 33
0.079726
 62
0
  0
3DFACE
  8
Sphere3
 10
-0.020173
 20
-0.308763
 30
0.079726
 11
-0.020011
 21
-0.308247
 31
0.079726
 12
-0.014735
 22
-0.308247
 32
0.079726
 13
-0.014735
 23
-0.308247
 33
0.079726
 62
0
  0
3DFACE
  8
Sphere3
 10
-0.014572
 20
-0.308763
 30
0.079726
 11
-0.020173
 21
-0.308763
 31
0.079726
 12
-0.014735
 22
-0.308247
 32
0.079726
 13
-0.014735
 23
-0.308247
 33
0.079726
 62
0
  0
3DFACE
  8
Sphere3
 10
-0.020228
 20
-0.309299
 30
0.079726
 11
-0.020173
 21
-0.308763
 31
0.079726
 12
-0.014572
 22
-0.308763
 32
0.079726
 13
-0.014572
 23
-0.308763
 33
0.079726
 62
0
  0
3DFACE
  8
Sphere3
 10
-0.014518
 20
-0.309299
 30
0.079726
 11
-0.020228
 21
-0.309299
 31
0.079726
 12
-0.014572
 22
-0.308763
 32
0.079726
 13
-0.014572
 23
-0.308763
 33
0.079726
 62
0
  0
3DFACE
  8
Sphere3
 10
-0.020173
 20
-0.309836
 30
0.079726
 11
-0.020228
 21
-0.309299
 31
0.079726
 12
-0.014518
 22
-0.309299
 32
0.079726
 13
-0.014518
 23
-0.309299
 33
0.079726
 62
0
  0
3DFACE
  8
Sphere3
 10
-0.014572
 20
-0.309836
 30
0.079726
 11
-0.020173
 21
-0.309836
 31
0.079726
 12
-0.014518
 22
-0.309299
 32
0.079726
 13
-0.014518
 23
-0.309299
 33
0.079726
 62
0
  0
3DFACE
  8
Sphere3
 10
-0.020011
 20
-0.310351
 30
0.079726
 11
-0.020173
 21
-0.309836
 31
0.079726
 12
-0.014572
 22
-0.309836
 32
0.079726
 13
-0.014572
 23
-0.309836
 33
0.079726
 62
0
  0
3DFACE
  8
Sphere3
 10
-0.014735
 20
-0.310351
 30
0.079726
 11
-0.020011
 21
-0.310351
 31
0.079726
 12
-0.014572
 22
-0.309836
 32
0.079726
 13
-0.014572
 23
-0.309836
 33
0.079726
 62
0
  0
3DFACE
  8
Sphere3
 10
-0.019747
 20
-0.310827
 30
0.079726
 11
-0.020011
 21
-0.310351
 31
0.079726
 12
-0.014735
 22
-0.310351
 32
0.079726
 13
-0.014735
 23
-0.310351
 33
0.079726
 62
0
  0
3DFACE
  8
Sphere3
 10
-0.014999
 20
-0.310827
 30
0.079726
 11
-0.019747
 21
-0.310827
 31
0.079726
 12
-0.014735
 22
-0.310351
 32
0.079726
 13
-0.014735
 23
-0.310351
 33
0.079726
 62
0
  0
3DFACE
  8
Sphere3
 10
-0.019392
 20
-0.311244
 30
0.079726
 11
-0.019747
 21
-0.310827
 31
0.079726
 12
-0.014999
 22
-0.310827
 32
0.079726
 13
-0.014999
 23
-0.310827
 33
0.079726
 62
0
  0
3DFACE
  8
Sphere3
 10
-0.015354
 20
-0.311244
 30
0.079726
 11
-0.019392
 21
-0.311244
 31
0.079726
 12
-0.014999
 22
-0.310827
 32
0.079726
 13
-0.014999
 23
-0.310827
 33
0.079726
 62
0
  0
3DFACE
  8
Sphere3
 10
-0.018959
 20
-0.311586
 30
0.079726
 11
-0.019392
 21
-0.311244
 31
0.079726
 12
-0.015354
 22
-0.311244
 32
0.079726
 13
-0.015354
 23
-0.311244
 33
0.079726
 62
0
  0
3DFACE
  8
Sphere3
 10
-0.015787
 20
-0.311586
 30
0.079726
 11
-0.018959
 21
-0.311586
 31
0.079726
 12
-0.015354
 22
-0.311244
 32
0.079726
 13
-0.015354
 23
-0.311244
 33
0.079726
 62
0
  0
3DFACE
  8
Sphere3
 10
-0.018466
 20
-0.311840
 30
0.079726
 11
-0.018959
 21
-0.311586
 31
0.079726
 12
-0.015787
 22
-0.311586
 32
0.079726
 13
-0.015787
 23
-0.311586
 33
0.079726
 62
0
  0
3DFACE
  8
Sphere3
 10
-0.016280
 20
-0.311840
 30
0.079726
 11
-0.018466
 21
-0.311840
 31
0.079726
 12
-0.015787
 22
-0.311586
 32
0.079726
 13
-0.015787
 23
-0.311586
 33
0.079726
 62
0
  0
3DFACE
  8
Sphere3
 10
-0.017930
 20
-0.311996
 30
0.079726
 11
-0.018466
 21
-0.311840
 31
0.079726
 12
-0.016280
 22
-0.311840
 32
0.079726
 13
-0.016280
 23
-0.311840
 33
0.079726
 62
0
  0
3DFACE
  8
Sphere3
 10
-0.016816
 20
-0.311996
 30
0.079726
 11
-0.017930
 21
-0.311996
 31
0.079726
 12
-0.016280
 22
-0.311840
 32
0.079726
 13
-0.016280
 23
-0.311840
 33
0.079726
 62
0
  0
3DFACE
  8
Sphere3
 10
-0.017373
 20
-0.312049
 30
0.079726
 11
-0.017930
 21
-0.311996
 31
0.079726
 12
-0.016816
 22
-0.311996
 32
0.079726
 13
-0.016816
 23
-0.311996
 33
0.079726
 62
0
  0
3DFACE
  8
Sphere3
 10
0.088169
 20
-0.286870
 30
0.149092
 11
0.090229
 21
-0.307810
 31
0.149092
 12
0.096833
 22
-0.307810
 32
0.170886
 13
0.094646
 23
-0.285581
 33
0.170886
 62
0
  0
3DFACE
  8
Sphere3
 10
0.082068
 20
-0.266736
 30
0.149092
 11
0.088169
 21
-0.286870
 31
0.149092
 12
0.094646
 22
-0.285581
 32
0.170886
 13
0.088169
 23
-0.264206
 33
0.170886
 62
0
  0
3DFACE
  8
Sphere3
 10
0.072161
 20
-0.248180
 30
0.149092
 11
0.082068
 21
-0.266736
 31
0.149092
 12
0.088169
 22
-0.264206
 32
0.170886
 13
0.077652
 23
-0.244507
 33
0.170886
 62
0
  0
3DFACE
  8
Sphere3
 10
0.058828
 20
-0.231915
 30
0.149092
 11
0.072161
 21
-0.248180
 31
0.149092
 12
0.077652
 22
-0.244507
 32
0.170886
 13
0.063497
 23
-0.227240
 33
0.170886
 62
0
  0
3DFACE
  8
Sphere3
 10
0.042582
 20
-0.218567
 30
0.149092
 11
0.058828
 21
-0.231915
 31
0.149092
 12
0.063497
 22
-0.227240
 32
0.170886
 13
0.046251
 23
-0.213070
 33
0.170886
 62
0
  0
3DFACE
  8
Sphere3
 10
0.024047
 20
-0.208648
 30
0.149092
 11
0.042582
 21
-0.218567
 31
0.149092
 12
0.046251
 22
-0.213070
 32
0.170886
 13
0.026574
 23
-0.202541
 33
0.170885
 62
0
  0
3DFACE
  8
Sphere3
 10
0.003935
 20
-0.202541
 30
0.149092
 11
0.024047
 21
-0.208648
 31
0.149092
 12
0.026574
 22
-0.202541
 32
0.170885
 13
0.005223
 23
-0.196057
 33
0.170885
 62
0
  0
3DFACE
  8
Sphere3
 10
-0.016981
 20
-0.200478
 30
0.149092
 11
0.003935
 21
-0.202541
 31
0.149092
 12
0.005223
 22
-0.196057
 32
0.170885
 13
-0.016981
 23
-0.193867
 33
0.170885
 62
0
  0
3DFACE
  8
Sphere3
 10
-0.037896
 20
-0.202541
 30
0.149092
 11
-0.016981
 21
-0.200478
 31
0.149092
 12
-0.016981
 22
-0.193867
 32
0.170885
 13
-0.039185
 23
-0.196057
 33
0.170885
 62
0
  0
3DFACE
  8
Sphere3
 10
-0.058008
 20
-0.208648
 30
0.149092
 11
-0.037896
 21
-0.202541
 31
0.149092
 12
-0.039185
 22
-0.196057
 32
0.170885
 13
-0.060535
 23
-0.202541
 33
0.170885
 62
0
  0
3DFACE
  8
Sphere3
 10
-0.076543
 20
-0.218567
 30
0.149092
 11
-0.058008
 21
-0.208648
 31
0.149092
 12
-0.060535
 22
-0.202541
 32
0.170885
 13
-0.080212
 23
-0.213070
 33
0.170885
 62
0
  0
3DFACE
  8
Sphere3
 10
-0.092790
 20
-0.231915
 30
0.149092
 11
-0.076543
 21
-0.218567
 31
0.149092
 12
-0.080212
 22
-0.213070
 32
0.170885
 13
-0.097459
 23
-0.227240
 33
0.170885
 62
0
  0
3DFACE
  8
Sphere3
 10
-0.106123
 20
-0.248180
 30
0.149092
 11
-0.092790
 21
-0.231915
 31
0.149092
 12
-0.097459
 22
-0.227240
 32
0.170885
 13
-0.111613
 23
-0.244507
 33
0.170885
 62
0
  0
3DFACE
  8
Sphere3
 10
-0.116030
 20
-0.266736
 30
0.149092
 11
-0.106123
 21
-0.248180
 31
0.149092
 12
-0.111613
 22
-0.244507
 32
0.170885
 13
-0.122131
 23
-0.264206
 33
0.170885
 62
0
  0
3DFACE
  8
Sphere3
 10
-0.122131
 20
-0.286870
 30
0.149092
 11
-0.116030
 21
-0.266736
 31
0.149092
 12
-0.122131
 22
-0.264206
 32
0.170885
 13
-0.128607
 23
-0.285581
 33
0.170885
 62
0
  0
3DFACE
  8
Sphere3
 10
-0.124191
 20
-0.307810
 30
0.149092
 11
-0.122131
 21
-0.286870
 31
0.149092
 12
-0.128607
 22
-0.285581
 32
0.170885
 13
-0.130794
 23
-0.307810
 33
0.170885
 62
0
  0
3DFACE
  8
Sphere3
 10
-0.122131
 20
-0.328749
 30
0.149092
 11
-0.124191
 21
-0.307810
 31
0.149092
 12
-0.130794
 22
-0.307810
 32
0.170885
 13
-0.128607
 23
-0.330039
 33
0.170885
 62
0
  0
3DFACE
  8
Sphere3
 10
-0.116030
 20
-0.348884
 30
0.149092
 11
-0.122131
 21
-0.328749
 31
0.149092
 12
-0.128607
 22
-0.330039
 32
0.170885
 13
-0.122131
 23
-0.351414
 33
0.170885
 62
0
  0
3DFACE
  8
Sphere3
 10
-0.106123
 20
-0.367440
 30
0.149092
 11
-0.116030
 21
-0.348884
 31
0.149092
 12
-0.122131
 22
-0.351414
 32
0.170885
 13
-0.111613
 23
-0.371113
 33
0.170885
 62
0
  0
3DFACE
  8
Sphere3
 10
-0.092790
 20
-0.383705
 30
0.149092
 11
-0.106123
 21
-0.367440
 31
0.149092
 12
-0.111613
 22
-0.371113
 32
0.170885
 13
-0.097459
 23
-0.388379
 33
0.170886
 62
0
  0
3DFACE
  8
Sphere3
 10
-0.076543
 20
-0.397053
 30
0.149092
 11
-0.092790
 21
-0.383705
 31
0.149092
 12
-0.097459
 22
-0.388379
 32
0.170886
 13
-0.080212
 23
-0.402550
 33
0.170886
 62
0
  0
3DFACE
  8
Sphere3
 10
-0.058008
 20
-0.406971
 30
0.149092
 11
-0.076543
 21
-0.397053
 31
0.149092
 12
-0.080212
 22
-0.402550
 32
0.170886
 13
-0.060535
 23
-0.413079
 33
0.170886
 62
0
  0
3DFACE
  8
Sphere3
 10
-0.037896
 20
-0.413079
 30
0.149092
 11
-0.058008
 21
-0.406971
 31
0.149092
 12
-0.060535
 22
-0.413079
 32
0.170886
 13
-0.039185
 23
-0.419563
 33
0.170886
 62
0
  0
3DFACE
  8
Sphere3
 10
-0.016981
 20
-0.415141
 30
0.149092
 11
-0.037896
 21
-0.413079
 31
0.149092
 12
-0.039185
 22
-0.419563
 32
0.170886
 13
-0.016981
 23
-0.421752
 33
0.170886
 62
0
  0
3DFACE
  8
Sphere3
 10
0.003935
 20
-0.413079
 30
0.149092
 11
-0.016981
 21
-0.415141
 31
0.149092
 12
-0.016981
 22
-0.421752
 32
0.170886
 13
0.005223
 23
-0.419563
 33
0.170886
 62
0
  0
3DFACE
  8
Sphere3
 10
0.024047
 20
-0.406971
 30
0.149092
 11
0.003935
 21
-0.413079
 31
0.149092
 12
0.005223
 22
-0.419563
 32
0.170886
 13
0.026574
 23
-0.413079
 33
0.170886
 62
0
  0
3DFACE
  8
Sphere3
 10
0.042582
 20
-0.397053
 30
0.149092
 11
0.024047
 21
-0.406971
 31
0.149092
 12
0.026574
 22
-0.413079
 32
0.170886
 13
0.046251
 23
-0.402550
 33
0.170886
 62
0
  0
3DFACE
  8
Sphere3
 10
0.058828
 20
-0.383705
 30
0.149092
 11
0.042582
 21
-0.397053
 31
0.149092
 12
0.046251
 22
-0.402550
 32
0.170886
 13
0.063497
 23
-0.388379
 33
0.170886
 62
0
  0
3DFACE
  8
Sphere3
 10
0.072161
 20
-0.367440
 30
0.149092
 11
0.058828
 21
-0.383705
 31
0.149092
 12
0.063497
 22
-0.388379
 32
0.170886
 13
0.077652
 23
-0.371113
 33
0.170886
 62
0
  0
3DFACE
  8
Sphere3
 10
0.082068
 20
-0.348884
 30
0.149092
 11
0.072161
 21
-0.367440
 31
0.149092
 12
0.077652
 22
-0.371113
 32
0.170886
 13
0.088169
 23
-0.351414
 33
0.170886
 62
0
  0
3DFACE
  8
Sphere3
 10
0.088169
 20
-0.328749
 30
0.149092
 11
0.082068
 21
-0.348884
 31
0.149092
 12
0.088169
 22
-0.351414
 32
0.170886
 13
0.094646
 23
-0.330039
 33
0.170886
 62
0
  0
3DFACE
  8
Sphere3
 10
0.090229
 20
-0.307810
 30
0.149092
 11
0.088169
 21
-0.328749
 31
0.149092
 12
0.094646
 22
-0.330039
 32
0.170886
 13
0.096833
 23
-0.307810
 33
0.170886
 62
0
  0
3DFACE
  8
Sphere3
 10
0.077652
 20
-0.288965
 30
0.129006
 11
0.079506
 21
-0.307810
 31
0.129006
 12
0.090229
 22
-0.307810
 32
0.149092
 13
0.088169
 23
-0.286870
 33
0.149092
 62
0
  0
3DFACE
  8
Sphere3
 10
0.072161
 20
-0.270844
 30
0.129006
 11
0.077652
 21
-0.288965
 31
0.129006
 12
0.088169
 22
-0.286870
 32
0.149092
 13
0.082068
 23
-0.266736
 33
0.149092
 62
0
  0
3DFACE
  8
Sphere3
 10
0.063245
 20
-0.254144
 30
0.129006
 11
0.072161
 21
-0.270844
 31
0.129006
 12
0.082068
 22
-0.266736
 32
0.149092
 13
0.072161
 23
-0.248180
 33
0.149092
 62
0
  0
3DFACE
  8
Sphere3
 10
0.051245
 20
-0.239506
 30
0.129006
 11
0.063245
 21
-0.254144
 31
0.129006
 12
0.072161
 22
-0.248180
 32
0.149092
 13
0.058828
 23
-0.231915
 33
0.149092
 62
0
  0
3DFACE
  8
Sphere3
 10
0.036624
 20
-0.227493
 30
0.129006
 11
0.051245
 21
-0.239506
 31
0.129006
 12
0.058828
 22
-0.231915
 32
0.149092
 13
0.042582
 23
-0.218567
 33
0.149092
 62
0
  0
3DFACE
  8
Sphere3
 10
0.019943
 20
-0.218567
 30
0.129006
 11
0.036624
 21
-0.227493
 31
0.129006
 12
0.042582
 22
-0.218567
 32
0.149092
 13
0.024047
 23
-0.208648
 33
0.149092
 62
0
  0
3DFACE
  8
Sphere3
 10
0.001843
 20
-0.213070
 30
0.129006
 11
0.019943
 21
-0.218567
 31
0.129006
 12
0.024047
 22
-0.208648
 32
0.149092
 13
0.003935
 23
-0.202541
 33
0.149092
 62
0
  0
3DFACE
  8
Sphere3
 10
-0.016981
 20
-0.211214
 30
0.129006
 11
0.001843
 21
-0.213070
 31
0.129006
 12
0.003935
 22
-0.202541
 32
0.149092
 13
-0.016981
 23
-0.200478
 33
0.149092
 62
0
  0
3DFACE
  8
Sphere3
 10
-0.035804
 20
-0.213070
 30
0.129006
 11
-0.016981
 21
-0.211214
 31
0.129006
 12
-0.016981
 22
-0.200478
 32
0.149092
 13
-0.037896
 23
-0.202541
 33
0.149092
 62
0
  0
3DFACE
  8
Sphere3
 10
-0.053905
 20
-0.218567
 30
0.129006
 11
-0.035804
 21
-0.213070
 31
0.129006
 12
-0.037896
 22
-0.202541
 32
0.149092
 13
-0.058008
 23
-0.208648
 33
0.149092
 62
0
  0
3DFACE
  8
Sphere3
 10
-0.070586
 20
-0.227493
 30
0.129006
 11
-0.053905
 21
-0.218567
 31
0.129006
 12
-0.058008
 22
-0.208648
 32
0.149092
 13
-0.076543
 23
-0.218567
 33
0.149092
 62
0
  0
3DFACE
  8
Sphere3
 10
-0.085207
 20
-0.239506
 30
0.129006
 11
-0.070586
 21
-0.227493
 31
0.129006
 12
-0.076543
 22
-0.218567
 32
0.149092
 13
-0.092790
 23
-0.231915
 33
0.149092
 62
0
  0
3DFACE
  8
Sphere3
 10
-0.097206
 20
-0.254144
 30
0.129006
 11
-0.085207
 21
-0.239506
 31
0.129006
 12
-0.092790
 22
-0.231915
 32
0.149092
 13
-0.106123
 23
-0.248180
 33
0.149092
 62
0
  0
3DFACE
  8
Sphere3
 10
-0.106123
 20
-0.270844
 30
0.129006
 11
-0.097206
 21
-0.254144
 31
0.129006
 12
-0.106123
 22
-0.248180
 32
0.149092
 13
-0.116030
 23
-0.266736
 33
0.149092
 62
0
  0
3DFACE
  8
Sphere3
 10
-0.111613
 20
-0.288965
 30
0.129006
 11
-0.106123
 21
-0.270844
 31
0.129006
 12
-0.116030
 22
-0.266736
 32
0.149092
 13
-0.122131
 23
-0.286870
 33
0.149092
 62
0
  0
3DFACE
  8
Sphere3
 10
-0.113467
 20
-0.307810
 30
0.129006
 11
-0.111613
 21
-0.288965
 31
0.129006
 12
-0.122131
 22
-0.286870
 32
0.149092
 13
-0.124191
 23
-0.307810
 33
0.149092
 62
0
  0
3DFACE
  8
Sphere3
 10
-0.111613
 20
-0.326655
 30
0.129006
 11
-0.113467
 21
-0.307810
 31
0.129006
 12
-0.124191
 22
-0.307810
 32
0.149092
 13
-0.122131
 23
-0.328749
 33
0.149092
 62
0
  0
3DFACE
  8
Sphere3
 10
-0.106123
 20
-0.344775
 30
0.129006
 11
-0.111613
 21
-0.326655
 31
0.129006
 12
-0.122131
 22
-0.328749
 32
0.149092
 13
-0.116030
 23
-0.348884
 33
0.149092
 62
0
  0
3DFACE
  8
Sphere3
 10
-0.097206
 20
-0.361476
 30
0.129006
 11
-0.106123
 21
-0.344775
 31
0.129006
 12
-0.116030
 22
-0.348884
 32
0.149092
 13
-0.106123
 23
-0.367440
 33
0.149092
 62
0
  0
3DFACE
  8
Sphere3
 10
-0.085207
 20
-0.376113
 30
0.129006
 11
-0.097206
 21
-0.361476
 31
0.129006
 12
-0.106123
 22
-0.367440
 32
0.149092
 13
-0.092790
 23
-0.383705
 33
0.149092
 62
0
  0
3DFACE
  8
Sphere3
 10
-0.070586
 20
-0.388126
 30
0.129006
 11
-0.085207
 21
-0.376113
 31
0.129006
 12
-0.092790
 22
-0.383705
 32
0.149092
 13
-0.076543
 23
-0.397053
 33
0.149092
 62
0
  0
3DFACE
  8
Sphere3
 10
-0.053905
 20
-0.397053
 30
0.129006
 11
-0.070586
 21
-0.388126
 31
0.129006
 12
-0.076543
 22
-0.397053
 32
0.149092
 13
-0.058008
 23
-0.406971
 33
0.149092
 62
0
  0
3DFACE
  8
Sphere3
 10
-0.035804
 20
-0.402550
 30
0.129006
 11
-0.053905
 21
-0.397053
 31
0.129006
 12
-0.058008
 22
-0.406971
 32
0.149092
 13
-0.037896
 23
-0.413079
 33
0.149092
 62
0
  0
3DFACE
  8
Sphere3
 10
-0.016981
 20
-0.404406
 30
0.129006
 11
-0.035804
 21
-0.402550
 31
0.129006
 12
-0.037896
 22
-0.413079
 32
0.149092
 13
-0.016981
 23
-0.415141
 33
0.149092
 62
0
  0
3DFACE
  8
Sphere3
 10
0.001843
 20
-0.402550
 30
0.129006
 11
-0.016981
 21
-0.404406
 31
0.129006
 12
-0.016981
 22
-0.415141
 32
0.149092
 13
0.003935
 23
-0.413079
 33
0.149092
 62
0
  0
3DFACE
  8
Sphere3
 10
0.019943
 20
-0.397053
 30
0.129006
 11
0.001843
 21
-0.402550
 31
0.129006
 12
0.003935
 22
-0.413079
 32
0.149092
 13
0.024047
 23
-0.406971
 33
0.149092
 62
0
  0
3DFACE
  8
Sphere3
 10
0.036624
 20
-0.388126
 30
0.129006
 11
0.019943
 21
-0.397053
 31
0.129006
 12
0.024047
 22
-0.406971
 32
0.149092
 13
0.042582
 23
-0.397053
 33
0.149092
 62
0
  0
3DFACE
  8
Sphere3
 10
0.051245
 20
-0.376113
 30
0.129006
 11
0.036624
 21
-0.388126
 31
0.129006
 12
0.042582
 22
-0.397053
 32
0.149092
 13
0.058828
 23
-0.383705
 33
0.149092
 62
0
  0
3DFACE
  8
Sphere3
 10
0.063245
 20
-0.361476
 30
0.129006
 11
0.051245
 21
-0.376113
 31
0.129006
 12
0.058828
 22
-0.383705
 32
0.149092
 13
0.072161
 23
-0.367440
 33
0.149092
 62
0
  0
3DFACE
  8
Sphere3
 10
0.072161
 20
-0.344775
 30
0.129006
 11
0.063245
 21
-0.361476
 31
0.129006
 12
0.072161
 22
-0.367440
 32
0.149092
 13
0.082068
 23
-0.348884
 33
0.149092
 62
0
  0
3DFACE
  8
Sphere3
 10
0.077652
 20
-0.326655
 30
0.129006
 11
0.072161
 21
-0.344775
 31
0.129006
 12
0.082068
 22
-0.348884
 32
0.149092
 13
0.088169
 23
-0.328749
 33
0.149092
 62
0
  0
3DFACE
  8
Sphere3
 10
0.079506
 20
-0.307810
 30
0.129006
 11
0.077652
 21
-0.326655
 31
0.129006
 12
0.088169
 22
-0.328749
 32
0.149092
 13
0.090229
 23
-0.307810
 33
0.149092
 62
0
  0
3DFACE
  8
Sphere3
 10
0.063497
 20
-0.291784
 30
0.111401
 11
0.065074
 21
-0.307810
 31
0.111401
 12
0.079506
 22
-0.307810
 32
0.129006
 13
0.077652
 23
-0.288965
 33
0.129006
 62
0
  0
3DFACE
  8
Sphere3
 10
0.058828
 20
-0.276373
 30
0.111401
 11
0.063497
 21
-0.291784
 31
0.111401
 12
0.077652
 22
-0.288965
 32
0.129006
 13
0.072161
 23
-0.270844
 33
0.129006
 62
0
  0
3DFACE
  8
Sphere3
 10
0.051245
 20
-0.262171
 30
0.111401
 11
0.058828
 21
-0.276373
 31
0.111401
 12
0.072161
 22
-0.270844
 32
0.129006
 13
0.063245
 23
-0.254144
 33
0.129006
 62
0
  0
3DFACE
  8
Sphere3
 10
0.041041
 20
-0.249722
 30
0.111401
 11
0.051245
 21
-0.262171
 31
0.111401
 12
0.063245
 22
-0.254144
 32
0.129006
 13
0.051245
 23
-0.239506
 33
0.129006
 62
0
  0
3DFACE
  8
Sphere3
 10
0.028606
 20
-0.239506
 30
0.111401
 11
0.041041
 21
-0.249722
 31
0.111401
 12
0.051245
 22
-0.239506
 32
0.129006
 13
0.036624
 23
-0.227493
 33
0.129006
 62
0
  0
3DFACE
  8
Sphere3
 10
0.014420
 20
-0.231915
 30
0.111401
 11
0.028606
 21
-0.239506
 31
0.111401
 12
0.036624
 22
-0.227493
 32
0.129006
 13
0.019943
 23
-0.218567
 33
0.129006
 62
0
  0
3DFACE
  8
Sphere3
 10
-0.000973
 20
-0.227240
 30
0.111401
 11
0.014420
 21
-0.231915
 31
0.111401
 12
0.019943
 22
-0.218567
 32
0.129006
 13
0.001843
 23
-0.213070
 33
0.129006
 62
0
  0
3DFACE
  8
Sphere3
 10
-0.016981
 20
-0.225662
 30
0.111401
 11
-0.000973
 21
-0.227240
 31
0.111401
 12
0.001843
 22
-0.213070
 32
0.129006
 13
-0.016981
 23
-0.211214
 33
0.129006
 62
0
  0
3DFACE
  8
Sphere3
 10
-0.032989
 20
-0.227240
 30
0.111401
 11
-0.016981
 21
-0.225662
 31
0.111401
 12
-0.016981
 22
-0.211214
 32
0.129006
 13
-0.035804
 23
-0.213070
 33
0.129006
 62
0
  0
3DFACE
  8
Sphere3
 10
-0.048382
 20
-0.231915
 30
0.111401
 11
-0.032989
 21
-0.227240
 31
0.111401
 12
-0.035804
 22
-0.213070
 32
0.129006
 13
-0.053905
 23
-0.218567
 33
0.129006
 62
0
  0
3DFACE
  8
Sphere3
 10
-0.062568
 20
-0.239506
 30
0.111401
 11
-0.048382
 21
-0.231915
 31
0.111401
 12
-0.053905
 22
-0.218567
 32
0.129006
 13
-0.070586
 23
-0.227493
 33
0.129006
 62
0
  0
3DFACE
  8
Sphere3
 10
-0.075002
 20
-0.249722
 30
0.111401
 11
-0.062568
 21
-0.239506
 31
0.111401
 12
-0.070586
 22
-0.227493
 32
0.129006
 13
-0.085207
 23
-0.239506
 33
0.129006
 62
0
  0
3DFACE
  8
Sphere3
 10
-0.085207
 20
-0.262171
 30
0.111401
 11
-0.075002
 21
-0.249722
 31
0.111401
 12
-0.085207
 22
-0.239506
 32
0.129006
 13
-0.097206
 23
-0.254144
 33
0.129006
 62
0
  0
3DFACE
  8
Sphere3
 10
-0.092790
 20
-0.276373
 30
0.111401
 11
-0.085207
 21
-0.262171
 31
0.111401
 12
-0.097206
 22
-0.254144
 32
0.129006
 13
-0.106123
 23
-0.270844
 33
0.129006
 62
0
  0
3DFACE
  8
Sphere3
 10
-0.097459
 20
-0.291784
 30
0.111401
 11
-0.092790
 21
-0.276373
 31
0.111401
 12
-0.106123
 22
-0.270844
 32
0.129006
 13
-0.111613
 23
-0.288965
 33
0.129006
 62
0
  0
3DFACE
  8
Sphere3
 10
-0.099036
 20
-0.307810
 30
0.111401
 11
-0.097459
 21
-0.291784
 31
0.111401
 12
-0.111613
 22
-0.288965
 32
0.129006
 13
-0.113467
 23
-0.307810
 33
0.129006
 62
0
  0
3DFACE
  8
Sphere3
 10
-0.097459
 20
-0.323836
 30
0.111401
 11
-0.099036
 21
-0.307810
 31
0.111401
 12
-0.113467
 22
-0.307810
 32
0.129006
 13
-0.111613
 23
-0.326655
 33
0.129006
 62
0
  0
3DFACE
  8
Sphere3
 10
-0.092790
 20
-0.339246
 30
0.111401
 11
-0.097459
 21
-0.323836
 31
0.111401
 12
-0.111613
 22
-0.326655
 32
0.129006
 13
-0.106123
 23
-0.344775
 33
0.129006
 62
0
  0
3DFACE
  8
Sphere3
 10
-0.085207
 20
-0.353449
 30
0.111401
 11
-0.092790
 21
-0.339246
 31
0.111401
 12
-0.106123
 22
-0.344775
 32
0.129006
 13
-0.097206
 23
-0.361476
 33
0.129006
 62
0
  0
3DFACE
  8
Sphere3
 10
-0.075002
 20
-0.365897
 30
0.111401
 11
-0.085207
 21
-0.353449
 31
0.111401
 12
-0.097206
 22
-0.361476
 32
0.129006
 13
-0.085207
 23
-0.376113
 33
0.129006
 62
0
  0
3DFACE
  8
Sphere3
 10
-0.062568
 20
-0.376113
 30
0.111401
 11
-0.075002
 21
-0.365897
 31
0.111401
 12
-0.085207
 22
-0.376113
 32
0.129006
 13
-0.070586
 23
-0.388126
 33
0.129006
 62
0
  0
3DFACE
  8
Sphere3
 10
-0.048382
 20
-0.383705
 30
0.111401
 11
-0.062568
 21
-0.376113
 31
0.111401
 12
-0.070586
 22
-0.388126
 32
0.129006
 13
-0.053905
 23
-0.397053
 33
0.129006
 62
0
  0
3DFACE
  8
Sphere3
 10
-0.032989
 20
-0.388379
 30
0.111401
 11
-0.048382
 21
-0.383705
 31
0.111401
 12
-0.053905
 22
-0.397053
 32
0.129006
 13
-0.035804
 23
-0.402550
 33
0.129006
 62
0
  0
3DFACE
  8
Sphere3
 10
-0.016981
 20
-0.389958
 30
0.111401
 11
-0.032989
 21
-0.388379
 31
0.111401
 12
-0.035804
 22
-0.402550
 32
0.129006
 13
-0.016981
 23
-0.404406
 33
0.129006
 62
0
  0
3DFACE
  8
Sphere3
 10
-0.000973
 20
-0.388379
 30
0.111401
 11
-0.016981
 21
-0.389958
 31
0.111401
 12
-0.016981
 22
-0.404406
 32
0.129006
 13
0.001843
 23
-0.402550
 33
0.129006
 62
0
  0
3DFACE
  8
Sphere3
 10
0.014420
 20
-0.383705
 30
0.111401
 11
-0.000973
 21
-0.388379
 31
0.111401
 12
0.001843
 22
-0.402550
 32
0.129006
 13
0.019943
 23
-0.397053
 33
0.129006
 62
0
  0
3DFACE
  8
Sphere3
 10
0.028606
 20
-0.376113
 30
0.111401
 11
0.014420
 21
-0.383705
 31
0.111401
 12
0.019943
 22
-0.397053
 32
0.129006
 13
0.036624
 23
-0.388126
 33
0.129006
 62
0
  0
3DFACE
  8
Sphere3
 10
0.041041
 20
-0.365897
 30
0.111401
 11
0.028606
 21
-0.376113
 31
0.111401
 12
0.036624
 22
-0.388126
 32
0.129006
 13
0.051245
 23
-0.376113
 33
0.129006
 62
0
  0
3DFACE
  8
Sphere3
 10
0.051245
 20
-0.353449
 30
0.111401
 11
0.041041
 21
-0.365897
 31
0.111401
 12
0.051245
 22
-0.376113
 32
0.129006
 13
0.063245
 23
-0.361476
 33
0.129006
 62
0
  0
3DFACE
  8
Sphere3
 10
0.058828
 20
-0.339246
 30
0.111401
 11
0.051245
 21
-0.353449
 31
0.111401
 12
0.063245
 22
-0.361476
 32
0.129006
 13
0.072161
 23
-0.344775
 33
0.129006
 62
0
  0
3DFACE
  8
Sphere3
 10
0.063497
 20
-0.323836
 30
0.111401
 11
0.058828
 21
-0.339246
 31
0.111401
 12
0.072161
 22
-0.344775
 32
0.129006
 13
0.077652
 23
-0.326655
 33
0.129006
 62
0
  0
3DFACE
  8
Sphere3
 10
0.065074
 20
-0.307810
 30
0.111401
 11
0.063497
 21
-0.323836
 31
0.111401
 12
0.077652
 22
-0.326655
 32
0.129006
 13
0.079506
 23
-0.307810
 33
0.129006
 62
0
  0
3DFACE
  8
Sphere3
 10
0.046251
 20
-0.295218
 30
0.096953
 11
0.047489
 21
-0.307810
 31
0.096953
 12
0.065074
 22
-0.307810
 32
0.111401
 13
0.063497
 23
-0.291784
 33
0.111401
 62
0
  0
3DFACE
  8
Sphere3
 10
0.042582
 20
-0.283110
 30
0.096953
 11
0.046251
 21
-0.295218
 31
0.096953
 12
0.063497
 22
-0.291784
 32
0.111401
 13
0.058828
 23
-0.276373
 33
0.111401
 62
0
  0
3DFACE
  8
Sphere3
 10
0.036624
 20
-0.271951
 30
0.096953
 11
0.042582
 21
-0.283110
 31
0.096953
 12
0.058828
 22
-0.276373
 32
0.111401
 13
0.051245
 23
-0.262171
 33
0.111401
 62
0
  0
3DFACE
  8
Sphere3
 10
0.028606
 20
-0.262171
 30
0.096953
 11
0.036624
 21
-0.271951
 31
0.096953
 12
0.051245
 22
-0.262171
 32
0.111401
 13
0.041041
 23
-0.249722
 33
0.111401
 62
0
  0
3DFACE
  8
Sphere3
 10
0.018837
 20
-0.254144
 30
0.096953
 11
0.028606
 21
-0.262171
 31
0.096953
 12
0.041041
 22
-0.249722
 32
0.111401
 13
0.028606
 23
-0.239506
 33
0.111401
 62
0
  0
3DFACE
  8
Sphere3
 10
0.007691
 20
-0.248180
 30
0.096953
 11
0.018837
 21
-0.254144
 31
0.096953
 12
0.028606
 22
-0.239506
 32
0.111401
 13
0.014420
 23
-0.231915
 33
0.111401
 62
0
  0
3DFACE
  8
Sphere3
 10
-0.004403
 20
-0.244507
 30
0.096953
 11
0.007691
 21
-0.248180
 31
0.096953
 12
0.014420
 22
-0.231915
 32
0.111401
 13
-0.000973
 23
-0.227240
 33
0.111401
 62
0
  0
3DFACE
  8
Sphere3
 10
-0.016981
 20
-0.243267
 30
0.096953
 11
-0.004403
 21
-0.244507
 31
0.096953
 12
-0.000973
 22
-0.227240
 32
0.111401
 13
-0.016981
 23
-0.225662
 33
0.111401
 62
0
  0
3DFACE
  8
Sphere3
 10
-0.029558
 20
-0.244507
 30
0.096953
 11
-0.016981
 21
-0.243267
 31
0.096953
 12
-0.016981
 22
-0.225662
 32
0.111401
 13
-0.032989
 23
-0.227240
 33
0.111401
 62
0
  0
3DFACE
  8
Sphere3
 10
-0.041652
 20
-0.248180
 30
0.096953
 11
-0.029558
 21
-0.244507
 31
0.096953
 12
-0.032989
 22
-0.227240
 32
0.111401
 13
-0.048382
 23
-0.231915
 33
0.111401
 62
0
  0
3DFACE
  8
Sphere3
 10
-0.052798
 20
-0.254144
 30
0.096953
 11
-0.041652
 21
-0.248180
 31
0.096953
 12
-0.048382
 22
-0.231915
 32
0.111401
 13
-0.062568
 23
-0.239506
 33
0.111401
 62
0
  0
3DFACE
  8
Sphere3
 10
-0.062568
 20
-0.262171
 30
0.096953
 11
-0.052798
 21
-0.254144
 31
0.096953
 12
-0.062568
 22
-0.239506
 32
0.111401
 13
-0.075002
 23
-0.249722
 33
0.111401
 62
0
  0
3DFACE
  8
Sphere3
 10
-0.070586
 20
-0.271951
 30
0.096953
 11
-0.062568
 21
-0.262171
 31
0.096953
 12
-0.075002
 22
-0.249722
 32
0.111401
 13
-0.085207
 23
-0.262171
 33
0.111401
 62
0
  0
3DFACE
  8
Sphere3
 10
-0.076543
 20
-0.283110
 30
0.096953
 11
-0.070586
 21
-0.271951
 31
0.096953
 12
-0.085207
 22
-0.262171
 32
0.111401
 13
-0.092790
 23
-0.276373
 33
0.111401
 62
0
  0
3DFACE
  8
Sphere3
 10
-0.080212
 20
-0.295218
 30
0.096953
 11
-0.076543
 21
-0.283110
 31
0.096953
 12
-0.092790
 22
-0.276373
 32
0.111401
 13
-0.097459
 23
-0.291784
 33
0.111401
 62
0
  0
3DFACE
  8
Sphere3
 10
-0.081451
 20
-0.307810
 30
0.096953
 11
-0.080212
 21
-0.295218
 31
0.096953
 12
-0.097459
 22
-0.291784
 32
0.111401
 13
-0.099036
 23
-0.307810
 33
0.111401
 62
0
  0
3DFACE
  8
Sphere3
 10
-0.080212
 20
-0.320402
 30
0.096953
 11
-0.081451
 21
-0.307810
 31
0.096953
 12
-0.099036
 22
-0.307810
 32
0.111401
 13
-0.097459
 23
-0.323836
 33
0.111401
 62
0
  0
3DFACE
  8
Sphere3
 10
-0.076543
 20
-0.332509
 30
0.096953
 11
-0.080212
 21
-0.320402
 31
0.096953
 12
-0.097459
 22
-0.323836
 32
0.111401
 13
-0.092790
 23
-0.339246
 33
0.111401
 62
0
  0
3DFACE
  8
Sphere3
 10
-0.070586
 20
-0.343668
 30
0.096953
 11
-0.076543
 21
-0.332509
 31
0.096953
 12
-0.092790
 22
-0.339246
 32
0.111401
 13
-0.085207
 23
-0.353449
 33
0.111401
 62
0
  0
3DFACE
  8
Sphere3
 10
-0.062568
 20
-0.353449
 30
0.096953
 11
-0.070586
 21
-0.343668
 31
0.096953
 12
-0.085207
 22
-0.353449
 32
0.111401
 13
-0.075002
 23
-0.365897
 33
0.111401
 62
0
  0
3DFACE
  8
Sphere3
 10
-0.052798
 20
-0.361476
 30
0.096953
 11
-0.062568
 21
-0.353449
 31
0.096953
 12
-0.075002
 22
-0.365897
 32
0.111401
 13
-0.062568
 23
-0.376113
 33
0.111401
 62
0
  0
3DFACE
  8
Sphere3
 10
-0.041652
 20
-0.367440
 30
0.096953
 11
-0.052798
 21
-0.361476
 31
0.096953
 12
-0.062568
 22
-0.376113
 32
0.111401
 13
-0.048382
 23
-0.383705
 33
0.111401
 62
0
  0
3DFACE
  8
Sphere3
 10
-0.029558
 20
-0.371113
 30
0.096953
 11
-0.041652
 21
-0.367440
 31
0.096953
 12
-0.048382
 22
-0.383705
 32
0.111401
 13
-0.032989
 23
-0.388379
 33
0.111401
 62
0
  0
3DFACE
  8
Sphere3
 10
-0.016981
 20
-0.372353
 30
0.096953
 11
-0.029558
 21
-0.371113
 31
0.096953
 12
-0.032989
 22
-0.388379
 32
0.111401
 13
-0.016981
 23
-0.389958
 33
0.111401
 62
0
  0
3DFACE
  8
Sphere3
 10
-0.004403
 20
-0.371113
 30
0.096953
 11
-0.016981
 21
-0.372353
 31
0.096953
 12
-0.016981
 22
-0.389958
 32
0.111401
 13
-0.000973
 23
-0.388379
 33
0.111401
 62
0
  0
3DFACE
  8
Sphere3
 10
0.007691
 20
-0.367440
 30
0.096953
 11
-0.004403
 21
-0.371113
 31
0.096953
 12
-0.000973
 22
-0.388379
 32
0.111401
 13
0.014420
 23
-0.383705
 33
0.111401
 62
0
  0
3DFACE
  8
Sphere3
 10
0.018837
 20
-0.361476
 30
0.096953
 11
0.007691
 21
-0.367440
 31
0.096953
 12
0.014420
 22
-0.383705
 32
0.111401
 13
0.028606
 23
-0.376113
 33
0.111401
 62
0
  0
3DFACE
  8
Sphere3
 10
0.028606
 20
-0.353449
 30
0.096953
 11
0.018837
 21
-0.361476
 31
0.096953
 12
0.028606
 22
-0.376113
 32
0.111401
 13
0.041041
 23
-0.365897
 33
0.111401
 62
0
  0
3DFACE
  8
Sphere3
 10
0.036624
 20
-0.343668
 30
0.096953
 11
0.028606
 21
-0.353449
 31
0.096953
 12
0.041041
 22
-0.365897
 32
0.111401
 13
0.051245
 23
-0.353449
 33
0.111401
 62
0
  0
3DFACE
  8
Sphere3
 10
0.042582
 20
-0.332509
 30
0.096953
 11
0.036624
 21
-0.343668
 31
0.096953
 12
0.051245
 22
-0.353449
 32
0.111401
 13
0.058828
 23
-0.339246
 33
0.111401
 62
0
  0
3DFACE
  8
Sphere3
 10
0.046251
 20
-0.320402
 30
0.096953
 11
0.042582
 21
-0.332509
 31
0.096953
 12
0.058828
 22
-0.339246
 32
0.111401
 13
0.063497
 23
-0.323836
 33
0.111401
 62
0
  0
3DFACE
  8
Sphere3
 10
0.047489
 20
-0.307810
 30
0.096953
 11
0.046251
 21
-0.320402
 31
0.096953
 12
0.063497
 22
-0.323836
 32
0.111401
 13
0.065074
 23
-0.307810
 33
0.111401
 62
0
  0
3DFACE
  8
Sphere3
 10
0.026574
 20
-0.299136
 30
0.086218
 11
0.027427
 21
-0.307810
 31
0.086218
 12
0.047489
 22
-0.307810
 32
0.096953
 13
0.046251
 23
-0.295218
 33
0.096953
 62
0
  0
3DFACE
  8
Sphere3
 10
0.024047
 20
-0.290796
 30
0.086218
 11
0.026574
 21
-0.299136
 31
0.086218
 12
0.046251
 22
-0.295218
 32
0.096953
 13
0.042582
 23
-0.283110
 33
0.096953
 62
0
  0
3DFACE
  8
Sphere3
 10
0.019943
 20
-0.283110
 30
0.086218
 11
0.024047
 21
-0.290796
 31
0.086218
 12
0.042582
 22
-0.283110
 32
0.096953
 13
0.036624
 23
-0.271951
 33
0.096953
 62
0
  0
3DFACE
  8
Sphere3
 10
0.014420
 20
-0.276373
 30
0.086218
 11
0.019943
 21
-0.283110
 31
0.086218
 12
0.036624
 22
-0.271951
 32
0.096953
 13
0.028606
 23
-0.262171
 33
0.096953
 62
0
  0
3DFACE
  8
Sphere3
 10
0.007691
 20
-0.270844
 30
0.086218
 11
0.014420
 21
-0.276373
 31
0.086218
 12
0.028606
 22
-0.262171
 32
0.096953
 13
0.018837
 23
-0.254144
 33
0.096953
 62
0
  0
3DFACE
  8
Sphere3
 10
0.000013
 20
-0.266736
 30
0.086218
 11
0.007691
 21
-0.270844
 31
0.086218
 12
0.018837
 22
-0.254144
 32
0.096953
 13
0.007691
 23
-0.248180
 33
0.096953
 62
0
  0
3DFACE
  8
Sphere3
 10
-0.008317
 20
-0.264206
 30
0.086218
 11
0.000013
 21
-0.266736
 31
0.086218
 12
0.007691
 22
-0.248180
 32
0.096953
 13
-0.004403
 23
-0.244507
 33
0.096953
 62
0
  0
3DFACE
  8
Sphere3
 10
-0.016981
 20
-0.263352
 30
0.086217
 11
-0.008317
 21
-0.264206
 31
0.086218
 12
-0.004403
 22
-0.244507
 32
0.096953
 13
-0.016981
 23
-0.243267
 33
0.096953
 62
0
  0
3DFACE
  8
Sphere3
 10
-0.025644
 20
-0.264206
 30
0.086217
 11
-0.016981
 21
-0.263352
 31
0.086217
 12
-0.016981
 22
-0.243267
 32
0.096953
 13
-0.029558
 23
-0.244507
 33
0.096953
 62
0
  0
3DFACE
  8
Sphere3
 10
-0.033975
 20
-0.266736
 30
0.086217
 11
-0.025644
 21
-0.264206
 31
0.086217
 12
-0.029558
 22
-0.244507
 32
0.096953
 13
-0.041652
 23
-0.248180
 33
0.096953
 62
0
  0
3DFACE
  8
Sphere3
 10
-0.041652
 20
-0.270844
 30
0.086217
 11
-0.033975
 21
-0.266736
 31
0.086217
 12
-0.041652
 22
-0.248180
 32
0.096953
 13
-0.052798
 23
-0.254144
 33
0.096953
 62
0
  0
3DFACE
  8
Sphere3
 10
-0.048382
 20
-0.276373
 30
0.086217
 11
-0.041652
 21
-0.270844
 31
0.086217
 12
-0.052798
 22
-0.254144
 32
0.096953
 13
-0.062568
 23
-0.262171
 33
0.096953
 62
0
  0
3DFACE
  8
Sphere3
 10
-0.053905
 20
-0.283110
 30
0.086217
 11
-0.048382
 21
-0.276373
 31
0.086217
 12
-0.062568
 22
-0.262171
 32
0.096953
 13
-0.070586
 23
-0.271951
 33
0.096953
 62
0
  0
3DFACE
  8
Sphere3
 10
-0.058008
 20
-0.290796
 30
0.086217
 11
-0.053905
 21
-0.283110
 31
0.086217
 12
-0.070586
 22
-0.271951
 32
0.096953
 13
-0.076543
 23
-0.283110
 33
0.096953
 62
0
  0
3DFACE
  8
Sphere3
 10
-0.060535
 20
-0.299136
 30
0.086217
 11
-0.058008
 21
-0.290796
 31
0.086217
 12
-0.076543
 22
-0.283110
 32
0.096953
 13
-0.080212
 23
-0.295218
 33
0.096953
 62
0
  0
3DFACE
  8
Sphere3
 10
-0.061389
 20
-0.307810
 30
0.086217
 11
-0.060535
 21
-0.299136
 31
0.086217
 12
-0.080212
 22
-0.295218
 32
0.096953
 13
-0.081451
 23
-0.307810
 33
0.096953
 62
0
  0
3DFACE
  8
Sphere3
 10
-0.060535
 20
-0.316483
 30
0.086217
 11
-0.061389
 21
-0.307810
 31
0.086217
 12
-0.081451
 22
-0.307810
 32
0.096953
 13
-0.080212
 23
-0.320402
 33
0.096953
 62
0
  0
3DFACE
  8
Sphere3
 10
-0.058008
 20
-0.324823
 30
0.086218
 11
-0.060535
 21
-0.316483
 31
0.086217
 12
-0.080212
 22
-0.320402
 32
0.096953
 13
-0.076543
 23
-0.332509
 33
0.096953
 62
0
  0
3DFACE
  8
Sphere3
 10
-0.053905
 20
-0.332509
 30
0.086218
 11
-0.058008
 21
-0.324823
 31
0.086218
 12
-0.076543
 22
-0.332509
 32
0.096953
 13
-0.070586
 23
-0.343668
 33
0.096953
 62
0
  0
3DFACE
  8
Sphere3
 10
-0.048382
 20
-0.339246
 30
0.086218
 11
-0.053905
 21
-0.332509
 31
0.086218
 12
-0.070586
 22
-0.343668
 32
0.096953
 13
-0.062568
 23
-0.353449
 33
0.096953
 62
0
  0
3DFACE
  8
Sphere3
 10
-0.041652
 20
-0.344775
 30
0.086218
 11
-0.048382
 21
-0.339246
 31
0.086218
 12
-0.062568
 22
-0.353449
 32
0.096953
 13
-0.052798
 23
-0.361476
 33
0.096953
 62
0
  0
3DFACE
  8
Sphere3
 10
-0.033975
 20
-0.348884
 30
0.086218
 11
-0.041652
 21
-0.344775
 31
0.086218
 12
-0.052798
 22
-0.361476
 32
0.096953
 13
-0.041652
 23
-0.367440
 33
0.096953
 62
0
  0
3DFACE
  8
Sphere3
 10
-0.025644
 20
-0.351414
 30
0.086218
 11
-0.033975
 21
-0.348884
 31
0.086218
 12
-0.041652
 22
-0.367440
 32
0.096953
 13
-0.029558
 23
-0.371113
 33
0.096953
 62
0
  0
3DFACE
  8
Sphere3
 10
-0.016981
 20
-0.352268
 30
0.086218
 11
-0.025644
 21
-0.351414
 31
0.086218
 12
-0.029558
 22
-0.371113
 32
0.096953
 13
-0.016981
 23
-0.372353
 33
0.096953
 62
0
  0
3DFACE
  8
Sphere3
 10
-0.008317
 20
-0.351414
 30
0.086218
 11
-0.016981
 21
-0.352268
 31
0.086218
 12
-0.016981
 22
-0.372353
 32
0.096953
 13
-0.004403
 23
-0.371113
 33
0.096953
 62
0
  0
3DFACE
  8
Sphere3
 10
0.000013
 20
-0.348884
 30
0.086218
 11
-0.008317
 21
-0.351414
 31
0.086218
 12
-0.004403
 22
-0.371113
 32
0.096953
 13
0.007691
 23
-0.367440
 33
0.096953
 62
0
  0
3DFACE
  8
Sphere3
 10
0.007691
 20
-0.344775
 30
0.086218
 11
0.000013
 21
-0.348884
 31
0.086218
 12
0.007691
 22
-0.367440
 32
0.096953
 13
0.018837
 23
-0.361476
 33
0.096953
 62
0
  0
3DFACE
  8
Sphere3
 10
0.014420
 20
-0.339246
 30
0.086218
 11
0.007691
 21
-0.344775
 31
0.086218
 12
0.018837
 22
-0.361476
 32
0.096953
 13
0.028606
 23
-0.353449
 33
0.096953
 62
0
  0
3DFACE
  8
Sphere3
 10
0.019943
 20
-0.332509
 30
0.086218
 11
0.014420
 21
-0.339246
 31
0.086218
 12
0.028606
 22
-0.353449
 32
0.096953
 13
0.036624
 23
-0.343668
 33
0.096953
 62
0
  0
3DFACE
  8
Sphere3
 10
0.024047
 20
-0.324823
 30
0.086218
 11
0.019943
 21
-0.332509
 31
0.086218
 12
0.036624
 22
-0.343668
 32
0.096953
 13
0.042582
 23
-0.332509
 33
0.096953
 62
0
  0
3DFACE
  8
Sphere3
 10
0.026574
 20
-0.316483
 30
0.086218
 11
0.024047
 21
-0.324823
 31
0.086218
 12
0.042582
 22
-0.332509
 32
0.096953
 13
0.046251
 23
-0.320402
 33
0.096953
 62
0
  0
3DFACE
  8
Sphere3
 10
0.027427
 20
-0.307810
 30
0.086218
 11
0.026574
 21
-0.316483
 31
0.086218
 12
0.046251
 22
-0.320402
 32
0.096953
 13
0.047489
 23
-0.307810
 33
0.096953
 62
0
  0
3DFACE
  8
Sphere3
 10
0.005223
 20
-0.303388
 30
0.079606
 11
0.005658
 21
-0.307810
 31
0.079606
 12
0.027427
 22
-0.307810
 32
0.086218
 13
0.026574
 23
-0.299136
 33
0.086218
 62
0
  0
3DFACE
  8
Sphere3
 10
0.003935
 20
-0.299136
 30
0.079606
 11
0.005223
 21
-0.303388
 31
0.079606
 12
0.026574
 22
-0.299136
 32
0.086218
 13
0.024047
 23
-0.290796
 33
0.086218
 62
0
  0
3DFACE
  8
Sphere3
 10
0.001843
 20
-0.295218
 30
0.079606
 11
0.003935
 21
-0.299136
 31
0.079606
 12
0.024047
 22
-0.290796
 32
0.086218
 13
0.019943
 23
-0.283110
 33
0.086218
 62
0
  0
3DFACE
  8
Sphere3
 10
-0.000973
 20
-0.291784
 30
0.079606
 11
0.001843
 21
-0.295218
 31
0.079606
 12
0.019943
 22
-0.283110
 32
0.086218
 13
0.014420
 23
-0.276373
 33
0.086218
 62
0
  0
3DFACE
  8
Sphere3
 10
-0.004403
 20
-0.288965
 30
0.079606
 11
-0.000973
 21
-0.291784
 31
0.079606
 12
0.014420
 22
-0.276373
 32
0.086218
 13
0.007691
 23
-0.270844
 33
0.086218
 62
0
  0
3DFACE
  8
Sphere3
 10
-0.008317
 20
-0.286870
 30
0.079606
 11
-0.004403
 21
-0.288965
 31
0.079606
 12
0.007691
 22
-0.270844
 32
0.086218
 13
0.000013
 23
-0.266736
 33
0.086218
 62
0
  0
3DFACE
  8
Sphere3
 10
-0.012564
 20
-0.285581
 30
0.079606
 11
-0.008317
 21
-0.286870
 31
0.079606
 12
0.000013
 22
-0.266736
 32
0.086218
 13
-0.008317
 23
-0.264206
 33
0.086218
 62
0
  0
3DFACE
  8
Sphere3
 10
-0.016981
 20
-0.285145
 30
0.079606
 11
-0.012564
 21
-0.285581
 31
0.079606
 12
-0.008317
 22
-0.264206
 32
0.086218
 13
-0.016981
 23
-0.263352
 33
0.086217
 62
0
  0
3DFACE
  8
Sphere3
 10
-0.021397
 20
-0.285581
 30
0.079606
 11
-0.016981
 21
-0.285145
 31
0.079606
 12
-0.016981
 22
-0.263352
 32
0.086217
 13
-0.025644
 23
-0.264206
 33
0.086217
 62
0
  0
3DFACE
  8
Sphere3
 10
-0.025644
 20
-0.286870
 30
0.079606
 11
-0.021397
 21
-0.285581
 31
0.079606
 12
-0.025644
 22
-0.264206
 32
0.086217
 13
-0.033975
 23
-0.266736
 33
0.086217
 62
0
  0
3DFACE
  8
Sphere3
 10
-0.029558
 20
-0.288965
 30
0.079606
 11
-0.025644
 21
-0.286870
 31
0.079606
 12
-0.033975
 22
-0.266736
 32
0.086217
 13
-0.041652
 23
-0.270844
 33
0.086217
 62
0
  0
3DFACE
  8
Sphere3
 10
-0.032989
 20
-0.291784
 30
0.079606
 11
-0.029558
 21
-0.288965
 31
0.079606
 12
-0.041652
 22
-0.270844
 32
0.086217
 13
-0.048382
 23
-0.276373
 33
0.086217
 62
0
  0
3DFACE
  8
Sphere3
 10
-0.035804
 20
-0.295218
 30
0.079606
 11
-0.032989
 21
-0.291784
 31
0.079606
 12
-0.048382
 22
-0.276373
 32
0.086217
 13
-0.053905
 23
-0.283110
 33
0.086217
 62
0
  0
3DFACE
  8
Sphere3
 10
-0.037896
 20
-0.299136
 30
0.079606
 11
-0.035804
 21
-0.295218
 31
0.079606
 12
-0.053905
 22
-0.283110
 32
0.086217
 13
-0.058008
 23
-0.290796
 33
0.086217
 62
0
  0
3DFACE
  8
Sphere3
 10
-0.039185
 20
-0.303388
 30
0.079606
 11
-0.037896
 21
-0.299136
 31
0.079606
 12
-0.058008
 22
-0.290796
 32
0.086217
 13
-0.060535
 23
-0.299136
 33
0.086217
 62
0
  0
3DFACE
  8
Sphere3
 10
-0.039620
 20
-0.307810
 30
0.079606
 11
-0.039185
 21
-0.303388
 31
0.079606
 12
-0.060535
 22
-0.299136
 32
0.086217
 13
-0.061389
 23
-0.307810
 33
0.086217
 62
0
  0
3DFACE
  8
Sphere3
 10
-0.039185
 20
-0.312231
 30
0.079606
 11
-0.039620
 21
-0.307810
 31
0.079606
 12
-0.061389
 22
-0.307810
 32
0.086217
 13
-0.060535
 23
-0.316483
 33
0.086217
 62
0
  0
3DFACE
  8
Sphere3
 10
-0.037896
 20
-0.316483
 30
0.079606
 11
-0.039185
 21
-0.312231
 31
0.079606
 12
-0.060535
 22
-0.316483
 32
0.086217
 13
-0.058008
 23
-0.324823
 33
0.086218
 62
0
  0
3DFACE
  8
Sphere3
 10
-0.035804
 20
-0.320402
 30
0.079606
 11
-0.037896
 21
-0.316483
 31
0.079606
 12
-0.058008
 22
-0.324823
 32
0.086218
 13
-0.053905
 23
-0.332509
 33
0.086218
 62
0
  0
3DFACE
  8
Sphere3
 10
-0.032989
 20
-0.323836
 30
0.079606
 11
-0.035804
 21
-0.320402
 31
0.079606
 12
-0.053905
 22
-0.332509
 32
0.086218
 13
-0.048382
 23
-0.339246
 33
0.086218
 62
0
  0
3DFACE
  8
Sphere3
 10
-0.029558
 20
-0.326655
 30
0.079606
 11
-0.032989
 21
-0.323836
 31
0.079606
 12
-0.048382
 22
-0.339246
 32
0.086218
 13
-0.041652
 23
-0.344775
 33
0.086218
 62
0
  0
3DFACE
  8
Sphere3
 10
-0.025644
 20
-0.328749
 30
0.079606
 11
-0.029558
 21
-0.326655
 31
0.079606
 12
-0.041652
 22
-0.344775
 32
0.086218
 13
-0.033975
 23
-0.348884
 33
0.086218
 62
0
  0
3DFACE
  8
Sphere3
 10
-0.021397
 20
-0.330039
 30
0.079606
 11
-0.025644
 21
-0.328749
 31
0.079606
 12
-0.033975
 22
-0.348884
 32
0.086218
 13
-0.025644
 23
-0.351414
 33
0.086218
 62
0
  0
3DFACE
  8
Sphere3
 10
-0.016981
 20
-0.330474
 30
0.079606
 11
-0.021397
 21
-0.330039
 31
0.079606
 12
-0.025644
 22
-0.351414
 32
0.086218
 13
-0.016981
 23
-0.352268
 33
0.086218
 62
0
  0
3DFACE
  8
Sphere3
 10
-0.012564
 20
-0.330039
 30
0.079606
 11
-0.016981
 21
-0.330474
 31
0.079606
 12
-0.016981
 22
-0.352268
 32
0.086218
 13
-0.008317
 23
-0.351414
 33
0.086218
 62
0
  0
3DFACE
  8
Sphere3
 10
-0.008317
 20
-0.328749
 30
0.079606
 11
-0.012564
 21
-0.330039
 31
0.079606
 12
-0.008317
 22
-0.351414
 32
0.086218
 13
0.000013
 23
-0.348884
 33
0.086218
 62
0
  0
3DFACE
  8
Sphere3
 10
-0.004403
 20
-0.326655
 30
0.079606
 11
-0.008317
 21
-0.328749
 31
0.079606
 12
0.000013
 22
-0.348884
 32
0.086218
 13
0.007691
 23
-0.344775
 33
0.086218
 62
0
  0
3DFACE
  8
Sphere3
 10
-0.000973
 20
-0.323836
 30
0.079606
 11
-0.004403
 21
-0.326655
 31
0.079606
 12
0.007691
 22
-0.344775
 32
0.086218
 13
0.014420
 23
-0.339246
 33
0.086218
 62
0
  0
3DFACE
  8
Sphere3
 10
0.001843
 20
-0.320402
 30
0.079606
 11
-0.000973
 21
-0.323836
 31
0.079606
 12
0.014420
 22
-0.339246
 32
0.086218
 13
0.019943
 23
-0.332509
 33
0.086218
 62
0
  0
3DFACE
  8
Sphere3
 10
0.003935
 20
-0.316483
 30
0.079606
 11
0.001843
 21
-0.320402
 31
0.079606
 12
0.019943
 22
-0.332509
 32
0.086218
 13
0.024047
 23
-0.324823
 33
0.086218
 62
0
  0
3DFACE
  8
Sphere3
 10
0.005223
 20
-0.312231
 30
0.079606
 11
0.003935
 21
-0.316483
 31
0.079606
 12
0.024047
 22
-0.324823
 32
0.086218
 13
0.026574
 23
-0.316483
 33
0.086218
 62
0
  0
3DFACE
  8
Sphere3
 10
0.005658
 20
-0.307810
 30
0.079606
 11
0.005223
 21
-0.312231
 31
0.079606
 12
0.026574
 22
-0.316483
 32
0.086218
 13
0.027427
 23
-0.307810
 33
0.086218
 62
0
  0
3DFACE
  8
Sphere3
 10
-0.016981
 20
-0.307810
 30
0.077374
 11
0.005658
 21
-0.307810
 31
0.079606
 12
0.005223
 22
-0.303388
 32
0.079606
 13
0.005223
 23
-0.303388
 33
0.079606
 62
0
  0
3DFACE
  8
Sphere3
 10
-0.016981
 20
-0.307810
 30
0.077374
 11
0.005223
 21
-0.303388
 31
0.079606
 12
0.003935
 22
-0.299136
 32
0.079606
 13
0.003935
 23
-0.299136
 33
0.079606
 62
0
  0
3DFACE
  8
Sphere3
 10
-0.016981
 20
-0.307810
 30
0.077374
 11
0.003935
 21
-0.299136
 31
0.079606
 12
0.001843
 22
-0.295218
 32
0.079606
 13
0.001843
 23
-0.295218
 33
0.079606
 62
0
  0
3DFACE
  8
Sphere3
 10
-0.016981
 20
-0.307810
 30
0.077374
 11
0.001843
 21
-0.295218
 31
0.079606
 12
-0.000973
 22
-0.291784
 32
0.079606
 13
-0.000973
 23
-0.291784
 33
0.079606
 62
0
  0
3DFACE
  8
Sphere3
 10
-0.016981
 20
-0.307810
 30
0.077374
 11
-0.000973
 21
-0.291784
 31
0.079606
 12
-0.004403
 22
-0.288965
 32
0.079606
 13
-0.004403
 23
-0.288965
 33
0.079606
 62
0
  0
3DFACE
  8
Sphere3
 10
-0.016981
 20
-0.307810
 30
0.077374
 11
-0.004403
 21
-0.288965
 31
0.079606
 12
-0.008317
 22
-0.286870
 32
0.079606
 13
-0.008317
 23
-0.286870
 33
0.079606
 62
0
  0
3DFACE
  8
Sphere3
 10
-0.016981
 20
-0.307810
 30
0.077374
 11
-0.008317
 21
-0.286870
 31
0.079606
 12
-0.012564
 22
-0.285581
 32
0.079606
 13
-0.012564
 23
-0.285581
 33
0.079606
 62
0
  0
3DFACE
  8
Sphere3
 10
-0.016981
 20
-0.307810
 30
0.077374
 11
-0.012564
 21
-0.285581
 31
0.079606
 12
-0.016981
 22
-0.285145
 32
0.079606
 13
-0.016981
 23
-0.285145
 33
0.079606
 62
0
  0
3DFACE
  8
Sphere3
 10
-0.016981
 20
-0.307810
 30
0.077374
 11
-0.016981
 21
-0.285145
 31
0.079606
 12
-0.021397
 22
-0.285581
 32
0.079606
 13
-0.021397
 23
-0.285581
 33
0.079606
 62
0
  0
3DFACE
  8
Sphere3
 10
-0.016981
 20
-0.307810
 30
0.077374
 11
-0.021397
 21
-0.285581
 31
0.079606
 12
-0.025644
 22
-0.286870
 32
0.079606
 13
-0.025644
 23
-0.286870
 33
0.079606
 62
0
  0
3DFACE
  8
Sphere3
 10
-0.016981
 20
-0.307810
 30
0.077374
 11
-0.025644
 21
-0.286870
 31
0.079606
 12
-0.029558
 22
-0.288965
 32
0.079606
 13
-0.029558
 23
-0.288965
 33
0.079606
 62
0
  0
3DFACE
  8
Sphere3
 10
-0.016981
 20
-0.307810
 30
0.077374
 11
-0.029558
 21
-0.288965
 31
0.079606
 12
-0.032989
 22
-0.291784
 32
0.079606
 13
-0.032989
 23
-0.291784
 33
0.079606
 62
0
  0
3DFACE
  8
Sphere3
 10
-0.016981
 20
-0.307810
 30
0.077374
 11
-0.032989
 21
-0.291784
 31
0.079606
 12
-0.035804
 22
-0.295218
 32
0.079606
 13
-0.035804
 23
-0.295218
 33
0.079606
 62
0
  0
3DFACE
  8
Sphere3
 10
-0.016981
 20
-0.307810
 30
0.077374
 11
-0.035804
 21
-0.295218
 31
0.079606
 12
-0.037896
 22
-0.299136
 32
0.079606
 13
-0.037896
 23
-0.299136
 33
0.079606
 62
0
  0
3DFACE
  8
Sphere3
 10
-0.016981
 20
-0.307810
 30
0.077374
 11
-0.037896
 21
-0.299136
 31
0.079606
 12
-0.039185
 22
-0.303388
 32
0.079606
 13
-0.039185
 23
-0.303388
 33
0.079606
 62
0
  0
3DFACE
  8
Sphere3
 10
-0.016981
 20
-0.307810
 30
0.077374
 11
-0.039185
 21
-0.303388
 31
0.079606
 12
-0.039620
 22
-0.307810
 32
0.079606
 13
-0.039620
 23
-0.307810
 33
0.079606
 62
0
  0
3DFACE
  8
Sphere3
 10
-0.016981
 20
-0.307810
 30
0.077374
 11
-0.039620
 21
-0.307810
 31
0.079606
 12
-0.039185
 22
-0.312231
 32
0.079606
 13
-0.039185
 23
-0.312231
 33
0.079606
 62
0
  0
3DFACE
  8
Sphere3
 10
-0.016981
 20
-0.307810
 30
0.077374
 11
-0.039185
 21
-0.312231
 31
0.079606
 12
-0.037896
 22
-0.316483
 32
0.079606
 13
-0.037896
 23
-0.316483
 33
0.079606
 62
0
  0
3DFACE
  8
Sphere3
 10
-0.016981
 20
-0.307810
 30
0.077374
 11
-0.037896
 21
-0.316483
 31
0.079606
 12
-0.035804
 22
-0.320402
 32
0.079606
 13
-0.035804
 23
-0.320402
 33
0.079606
 62
0
  0
3DFACE
  8
Sphere3
 10
-0.016981
 20
-0.307810
 30
0.077374
 11
-0.035804
 21
-0.320402
 31
0.079606
 12
-0.032989
 22
-0.323836
 32
0.079606
 13
-0.032989
 23
-0.323836
 33
0.079606
 62
0
  0
3DFACE
  8
Sphere3
 10
-0.016981
 20
-0.307810
 30
0.077374
 11
-0.032989
 21
-0.323836
 31
0.079606
 12
-0.029558
 22
-0.326655
 32
0.079606
 13
-0.029558
 23
-0.326655
 33
0.079606
 62
0
  0
3DFACE
  8
Sphere3
 10
-0.016981
 20
-0.307810
 30
0.077374
 11
-0.029558
 21
-0.326655
 31
0.079606
 12
-0.025644
 22
-0.328749
 32
0.079606
 13
-0.025644
 23
-0.328749
 33
0.079606
 62
0
  0
3DFACE
  8
Sphere3
 10
-0.016981
 20
-0.307810
 30
0.077374
 11
-0.025644
 21
-0.328749
 31
0.079606
 12
-0.021397
 22
-0.330039
 32
0.079606
 13
-0.021397
 23
-0.330039
 33
0.079606
 62
0
  0
3DFACE
  8
Sphere3
 10
-0.016981
 20
-0.307810
 30
0.077374
 11
-0.021397
 21
-0.330039
 31
0.079606
 12
-0.016981
 22
-0.330474
 32
0.079606
 13
-0.016981
 23
-0.330474
 33
0.079606
 62
0
  0
3DFACE
  8
Sphere3
 10
-0.016981
 20
-0.307810
 30
0.077374
 11
-0.016981
 21
-0.330474
 31
0.079606
 12
-0.012564
 22
-0.330039
 32
0.079606
 13
-0.012564
 23
-0.330039
 33
0.079606
 62
0
  0
3DFACE
  8
Sphere3
 10
-0.016981
 20
-0.307810
 30
0.077374
 11
-0.012564
 21
-0.330039
 31
0.079606
 12
-0.008317
 22
-0.328749
 32
0.079606
 13
-0.008317
 23
-0.328749
 33
0.079606
 62
0
  0
3DFACE
  8
Sphere3
 10
-0.016981
 20
-0.307810
 30
0.077374
 11
-0.008317
 21
-0.328749
 31
0.079606
 12
-0.004403
 22
-0.326655
 32
0.079606
 13
-0.004403
 23
-0.326655
 33
0.079606
 62
0
  0
3DFACE
  8
Sphere3
 10
-0.016981
 20
-0.307810
 30
0.077374
 11
-0.004403
 21
-0.326655
 31
0.079606
 12
-0.000973
 22
-0.323836
 32
0.079606
 13
-0.000973
 23
-0.323836
 33
0.079606
 62
0
  0
3DFACE
  8
Sphere3
 10
-0.016981
 20
-0.307810
 30
0.077374
 11
-0.000973
 21
-0.323836
 31
0.079606
 12
0.001843
 22
-0.320402
 32
0.079606
 13
0.001843
 23
-0.320402
 33
0.079606
 62
0
  0
3DFACE
  8
Sphere3
 10
-0.016981
 20
-0.307810
 30
0.077374
 11
0.001843
 21
-0.320402
 31
0.079606
 12
0.003935
 22
-0.316483
 32
0.079606
 13
0.003935
 23
-0.316483
 33
0.079606
 62
0
  0
3DFACE
  8
Sphere3
 10
-0.016981
 20
-0.307810
 30
0.077374
 11
0.003935
 21
-0.316483
 31
0.079606
 12
0.005223
 22
-0.312231
 32
0.079606
 13
0.005223
 23
-0.312231
 33
0.079606
 62
0
  0
3DFACE
  8
Sphere3
 10
-0.016981
 20
-0.307810
 30
0.077374
 11
0.005223
 21
-0.312231
 31
0.079606
 12
0.005658
 22
-0.307810
 32
0.079606
 13
0.005658
 23
-0.307810
 33
0.079606
 62
0
  0
3DFACE
  8
Sphere3
 10
0.003394
 20
-0.304155
 30
0.081000
 11
-0.014572
 21
-0.308763
 31
0.079726
 12
-0.014735
 22
-0.308247
 32
0.079726
 13
0.002190
 23
-0.300240
 33
0.081000
 62
0
  0
3DFACE
  8
Sphere3
 10
0.002190
 20
-0.300240
 30
0.081000
 11
-0.014735
 21
-0.308247
 31
0.079726
 12
-0.014999
 22
-0.307771
 32
0.079726
 13
0.000236
 23
-0.296633
 33
0.081000
 62
0
  0
3DFACE
  8
Sphere3
 10
0.000236
 20
-0.296633
 30
0.081000
 11
-0.014999
 21
-0.307771
 31
0.079726
 12
-0.015354
 22
-0.307355
 32
0.079726
 13
-0.002394
 23
-0.293471
 33
0.081000
 62
0
  0
3DFACE
  8
Sphere3
 10
-0.002394
 20
-0.293471
 30
0.081000
 11
-0.015354
 21
-0.307355
 31
0.079726
 12
-0.015787
 22
-0.307013
 32
0.079726
 13
-0.005599
 23
-0.290876
 33
0.081000
 62
0
  0
3DFACE
  8
Sphere3
 10
-0.005599
 20
-0.290876
 30
0.081000
 11
-0.015787
 21
-0.307013
 31
0.079726
 12
-0.016280
 22
-0.306759
 32
0.079726
 13
-0.009255
 23
-0.288948
 33
0.081000
 62
0
  0
3DFACE
  8
Sphere3
 10
-0.009255
 20
-0.288948
 30
0.081000
 11
-0.016280
 21
-0.306759
 31
0.079726
 12
-0.016816
 22
-0.306602
 32
0.079726
 13
-0.013223
 23
-0.287761
 33
0.081000
 62
0
  0
3DFACE
  8
Sphere3
 10
-0.013223
 20
-0.287761
 30
0.081000
 11
-0.016816
 21
-0.306602
 31
0.079726
 12
-0.017373
 22
-0.306549
 32
0.079726
 13
-0.017348
 23
-0.287360
 33
0.081000
 62
0
  0
3DFACE
  8
Sphere3
 10
-0.017348
 20
-0.287360
 30
0.081000
 11
-0.017373
 21
-0.306549
 31
0.079726
 12
-0.017930
 22
-0.306602
 32
0.079726
 13
-0.021474
 23
-0.287761
 33
0.081000
 62
0
  0
3DFACE
  8
Sphere3
 10
-0.021474
 20
-0.287761
 30
0.081000
 11
-0.017930
 21
-0.306602
 31
0.079726
 12
-0.018466
 22
-0.306759
 32
0.079726
 13
-0.025442
 23
-0.288948
 33
0.081000
 62
0
  0
3DFACE
  8
Sphere3
 10
-0.025442
 20
-0.288948
 30
0.081000
 11
-0.018466
 21
-0.306759
 31
0.079726
 12
-0.018959
 22
-0.307013
 32
0.079726
 13
-0.029098
 23
-0.290876
 33
0.081000
 62
0
  0
3DFACE
  8
Sphere3
 10
-0.029098
 20
-0.290876
 30
0.081000
 11
-0.018959
 21
-0.307013
 31
0.079726
 12
-0.019392
 22
-0.307355
 32
0.079726
 13
-0.032303
 23
-0.293471
 33
0.081000
 62
0
  0
3DFACE
  8
Sphere3
 10
-0.032303
 20
-0.293471
 30
0.081000
 11
-0.019392
 21
-0.307355
 31
0.079726
 12
-0.019747
 22
-0.307771
 32
0.079726
 13
-0.034933
 23
-0.296633
 33
0.081000
 62
0
  0
3DFACE
  8
Sphere3
 10
-0.034933
 20
-0.296633
 30
0.081000
 11
-0.019747
 21
-0.307771
 31
0.079726
 12
-0.020011
 22
-0.308247
 32
0.079726
 13
-0.036887
 23
-0.300240
 33
0.081000
 62
0
  0
3DFACE
  8
Sphere3
 10
-0.036887
 20
-0.300240
 30
0.081000
 11
-0.020011
 21
-0.308247
 31
0.079726
 12
-0.020173
 22
-0.308763
 32
0.079726
 13
-0.038091
 23
-0.304155
 33
0.081000
 62
0
  0
3DFACE
  8
Sphere3
 10
-0.038091
 20
-0.304155
 30
0.081000
 11
-0.020173
 21
-0.308763
 31
0.079726
 12
-0.020228
 22
-0.309299
 32
0.079726
 13
-0.038497
 23
-0.308225
 33
0.081000
 62
0
  0
3DFACE
  8
Sphere3
 10
-0.038497
 20
-0.308225
 30
0.081000
 11
-0.020228
 21
-0.309299
 31
0.079726
 12
-0.020173
 22
-0.309836
 32
0.079726
 13
-0.038091
 23
-0.312296
 33
0.081000
 62
0
  0
3DFACE
  8
Sphere3
 10
-0.038091
 20
-0.312296
 30
0.081000
 11
-0.020173
 21
-0.309836
 31
0.079726
 12
-0.020011
 22
-0.310351
 32
0.079726
 13
-0.036887
 23
-0.316210
 33
0.081000
 62
0
  0
3DFACE
  8
Sphere3
 10
-0.036887
 20
-0.316210
 30
0.081000
 11
-0.020011
 21
-0.310351
 31
0.079726
 12
-0.019747
 22
-0.310827
 32
0.079726
 13
-0.034933
 23
-0.319818
 33
0.081000
 62
0
  0
3DFACE
  8
Sphere3
 10
-0.034933
 20
-0.319818
 30
0.081000
 11
-0.019747
 21
-0.310827
 31
0.079726
 12
-0.019392
 22
-0.311244
 32
0.079726
 13
-0.032303
 23
-0.322980
 33
0.081000
 62
0
  0
3DFACE
  8
Sphere3
 10
-0.032303
 20
-0.322980
 30
0.081000
 11
-0.019392
 21
-0.311244
 31
0.079726
 12
-0.018959
 22
-0.311586
 32
0.079726
 13
-0.029098
 23
-0.325575
 33
0.081000
 62
0
  0
3DFACE
  8
Sphere3
 10
-0.029098
 20
-0.325575
 30
0.081000
 11
-0.018959
 21
-0.311586
 31
0.079726
 12
-0.018466
 22
-0.311840
 32
0.079726
 13
-0.025442
 23
-0.327503
 33
0.081000
 62
0
  0
3DFACE
  8
Sphere3
 10
-0.025442
 20
-0.327503
 30
0.081000
 11
-0.018466
 21
-0.311840
 31
0.079726
 12
-0.017930
 22
-0.311996
 32
0.079726
 13
-0.021474
 23
-0.328690
 33
0.081000
 62
0
  0
3DFACE
  8
Sphere3
 10
-0.021474
 20
-0.328690
 30
0.081000
 11
-0.017930
 21
-0.311996
 31
0.079726
 12
-0.017373
 22
-0.312049
 32
0.079726
 13
-0.017348
 23
-0.329091
 33
0.081000
 62
0
  0
3DFACE
  8
Sphere3
 10
-0.017348
 20
-0.329091
 30
0.081000
 11
-0.017373
 21
-0.312049
 31
0.079726
 12
-0.016816
 22
-0.311996
 32
0.079726
 13
-0.013223
 23
-0.328690
 33
0.081000
 62
0
  0
3DFACE
  8
Sphere3
 10
-0.013223
 20
-0.328690
 30
0.081000
 11
-0.016816
 21
-0.311996
 31
0.079726
 12
-0.016280
 22
-0.311840
 32
0.079726
 13
-0.009255
 23
-0.327503
 33
0.081000
 62
0
  0
3DFACE
  8
Sphere3
 10
-0.009255
 20
-0.327503
 30
0.081000
 11
-0.016280
 21
-0.311840
 31
0.079726
 12
-0.015787
 22
-0.311586
 32
0.079726
 13
-0.005599
 23
-0.325575
 33
0.081000
 62
0
  0
3DFACE
  8
Sphere3
 10
-0.005599
 20
-0.325575
 30
0.081000
 11
-0.015787
 21
-0.311586
 31
0.079726
 12
-0.015354
 22
-0.311244
 32
0.079726
 13
-0.002394
 23
-0.322980
 33
0.081000
 62
0
  0
3DFACE
  8
Sphere3
 10
-0.002394
 20
-0.322980
 30
0.081000
 11
-0.015354
 21
-0.311244
 31
0.079726
 12
-0.014999
 22
-0.310827
 32
0.079726
 13
0.000236
 23
-0.319818
 33
0.081000
 62
0
  0
3DFACE
  8
Sphere3
 10
0.000236
 20
-0.319818
 30
0.081000
 11
-0.014999
 21
-0.310827
 31
0.079726
 12
-0.014735
 22
-0.310351
 32
0.079726
 13
0.002190
 23
-0.316210
 33
0.081000
 62
0
  0
3DFACE
  8
Sphere3
 10
0.002190
 20
-0.316210
 30
0.081000
 11
-0.014735
 21
-0.310351
 31
0.079726
 12
-0.014572
 22
-0.309836
 32
0.079726
 13
0.003394
 23
-0.312296
 33
0.081000
 62
0
  0
3DFACE
  8
Sphere3
 10
0.003394
 20
-0.312296
 30
0.081000
 11
-0.014572
 21
-0.309836
 31
0.079726
 12
-0.014518
 22
-0.309299
 32
0.079726
 13
0.003800
 23
-0.308225
 33
0.081000
 62
0
  0
3DFACE
  8
Sphere3
 10
0.003800
 20
-0.308225
 30
0.081000
 11
-0.014518
 21
-0.309299
 31
0.079726
 12
-0.014572
 22
-0.308763
 32
0.079726
 13
0.003394
 23
-0.304155
 33
0.081000
 62
0
  0
3DFACE
  8
Sphere3
 10
0.099062
 20
-0.307810
 30
0.193550
 11
0.096833
 21
-0.307810
 31
0.170886
 12
0.094646
 22
-0.330039
 32
0.170886
 13
0.096833
 23
-0.330474
 33
0.193550
 62
0
  0
3DFACE
  8
Sphere3
 10
0.096833
 20
-0.285145
 30
0.193550
 11
0.094646
 21
-0.285581
 31
0.170886
 12
0.096833
 22
-0.307810
 32
0.170886
 13
0.099062
 23
-0.307810
 33
0.193550
 62
0
  0
3DFACE
  8
Sphere3
 10
0.090229
 20
-0.263352
 30
0.193550
 11
0.088169
 21
-0.264206
 31
0.170886
 12
0.094646
 22
-0.285581
 32
0.170886
 13
0.096833
 23
-0.285145
 33
0.193550
 62
0
  0
3DFACE
  8
Sphere3
 10
0.079506
 20
-0.243267
 30
0.193550
 11
0.077652
 21
-0.244507
 31
0.170886
 12
0.088169
 22
-0.264206
 32
0.170886
 13
0.090229
 23
-0.263352
 33
0.193550
 62
0
  0
3DFACE
  8
Sphere3
 10
0.065074
 20
-0.225662
 30
0.193550
 11
0.063497
 21
-0.227240
 31
0.170886
 12
0.077652
 22
-0.244507
 32
0.170886
 13
0.079506
 23
-0.243267
 33
0.193550
 62
0
  0
3DFACE
  8
Sphere3
 10
0.047489
 20
-0.211214
 30
0.193550
 11
0.046251
 21
-0.213070
 31
0.170886
 12
0.063497
 22
-0.227240
 32
0.170886
 13
0.065074
 23
-0.225662
 33
0.193550
 62
0
  0
3DFACE
  8
Sphere3
 10
0.027427
 20
-0.200478
 30
0.193550
 11
0.026574
 21
-0.202541
 31
0.170885
 12
0.046251
 22
-0.213070
 32
0.170886
 13
0.047489
 23
-0.211214
 33
0.193550
 62
0
  0
3DFACE
  8
Sphere3
 10
0.005658
 20
-0.193867
 30
0.193550
 11
0.005223
 21
-0.196057
 31
0.170885
 12
0.026574
 22
-0.202541
 32
0.170885
 13
0.027427
 23
-0.200478
 33
0.193550
 62
0
  0
3DFACE
  8
Sphere3
 10
-0.016981
 20
-0.191635
 30
0.193550
 11
-0.016981
 21
-0.193867
 31
0.170885
 12
0.005223
 22
-0.196057
 32
0.170885
 13
0.005658
 23
-0.193867
 33
0.193550
 62
0
  0
3DFACE
  8
Sphere3
 10
-0.039620
 20
-0.193867
 30
0.193550
 11
-0.039185
 21
-0.196057
 31
0.170885
 12
-0.016981
 22
-0.193867
 32
0.170885
 13
-0.016981
 23
-0.191635
 33
0.193550
 62
0
  0
3DFACE
  8
Sphere3
 10
-0.061389
 20
-0.200478
 30
0.193550
 11
-0.060535
 21
-0.202541
 31
0.170885
 12
-0.039185
 22
-0.196057
 32
0.170885
 13
-0.039620
 23
-0.193867
 33
0.193550
 62
0
  0
3DFACE
  8
Sphere3
 10
-0.081451
 20
-0.211214
 30
0.193550
 11
-0.080212
 21
-0.213070
 31
0.170885
 12
-0.060535
 22
-0.202541
 32
0.170885
 13
-0.061389
 23
-0.200478
 33
0.193550
 62
0
  0
3DFACE
  8
Sphere3
 10
-0.099036
 20
-0.225662
 30
0.193550
 11
-0.097459
 21
-0.227240
 31
0.170885
 12
-0.080212
 22
-0.213070
 32
0.170885
 13
-0.081451
 23
-0.211214
 33
0.193550
 62
0
  0
3DFACE
  8
Sphere3
 10
-0.113467
 20
-0.243267
 30
0.193550
 11
-0.111613
 21
-0.244507
 31
0.170885
 12
-0.097459
 22
-0.227240
 32
0.170885
 13
-0.099036
 23
-0.225662
 33
0.193550
 62
0
  0
3DFACE
  8
Sphere3
 10
-0.124191
 20
-0.263352
 30
0.193550
 11
-0.122131
 21
-0.264206
 31
0.170885
 12
-0.111613
 22
-0.244507
 32
0.170885
 13
-0.113467
 23
-0.243267
 33
0.193550
 62
0
  0
3DFACE
  8
Sphere3
 10
-0.130794
 20
-0.285145
 30
0.193550
 11
-0.128607
 21
-0.285581
 31
0.170885
 12
-0.122131
 22
-0.264206
 32
0.170885
 13
-0.124191
 23
-0.263352
 33
0.193550
 62
0
  0
3DFACE
  8
Sphere3
 10
-0.133024
 20
-0.307810
 30
0.193550
 11
-0.130794
 21
-0.307810
 31
0.170885
 12
-0.128607
 22
-0.285581
 32
0.170885
 13
-0.130794
 23
-0.285145
 33
0.193550
 62
0
  0
3DFACE
  8
Sphere3
 10
-0.130794
 20
-0.330474
 30
0.193550
 11
-0.128607
 21
-0.330039
 31
0.170885
 12
-0.130794
 22
-0.307810
 32
0.170885
 13
-0.133024
 23
-0.307810
 33
0.193550
 62
0
  0
3DFACE
  8
Sphere3
 10
-0.124191
 20
-0.352268
 30
0.193550
 11
-0.122131
 21
-0.351414
 31
0.170885
 12
-0.128607
 22
-0.330039
 32
0.170885
 13
-0.130794
 23
-0.330474
 33
0.193550
 62
0
  0
3DFACE
  8
Sphere3
 10
-0.113467
 20
-0.372353
 30
0.193550
 11
-0.111613
 21
-0.371113
 31
0.170885
 12
-0.122131
 22
-0.351414
 32
0.170885
 13
-0.124191
 23
-0.352268
 33
0.193550
 62
0
  0
3DFACE
  8
Sphere3
 10
-0.099036
 20
-0.389958
 30
0.193550
 11
-0.097459
 21
-0.388379
 31
0.170886
 12
-0.111613
 22
-0.371113
 32
0.170885
 13
-0.113467
 23
-0.372353
 33
0.193550
 62
0
  0
3DFACE
  8
Sphere3
 10
-0.081451
 20
-0.404406
 30
0.193550
 11
-0.080212
 21
-0.402550
 31
0.170886
 12
-0.097459
 22
-0.388379
 32
0.170886
 13
-0.099036
 23
-0.389958
 33
0.193550
 62
0
  0
3DFACE
  8
Sphere3
 10
-0.061389
 20
-0.415141
 30
0.193550
 11
-0.060535
 21
-0.413079
 31
0.170886
 12
-0.080212
 22
-0.402550
 32
0.170886
 13
-0.081451
 23
-0.404406
 33
0.193550
 62
0
  0
3DFACE
  8
Sphere3
 10
-0.039620
 20
-0.421752
 30
0.193550
 11
-0.039185
 21
-0.419563
 31
0.170886
 12
-0.060535
 22
-0.413079
 32
0.170886
 13
-0.061389
 23
-0.415141
 33
0.193550
 62
0
  0
3DFACE
  8
Sphere3
 10
-0.016981
 20
-0.423985
 30
0.193550
 11
-0.016981
 21
-0.421752
 31
0.170886
 12
-0.039185
 22
-0.419563
 32
0.170886
 13
-0.039620
 23
-0.421752
 33
0.193550
 62
0
  0
3DFACE
  8
Sphere3
 10
0.005658
 20
-0.421752
 30
0.193550
 11
0.005223
 21
-0.419563
 31
0.170886
 12
-0.016981
 22
-0.421752
 32
0.170886
 13
-0.016981
 23
-0.423985
 33
0.193550
 62
0
  0
3DFACE
  8
Sphere3
 10
0.027427
 20
-0.415141
 30
0.193550
 11
0.026574
 21
-0.413079
 31
0.170886
 12
0.005223
 22
-0.419563
 32
0.170886
 13
0.005658
 23
-0.421752
 33
0.193550
 62
0
  0
3DFACE
  8
Sphere3
 10
0.047489
 20
-0.404406
 30
0.193550
 11
0.046251
 21
-0.402550
 31
0.170886
 12
0.026574
 22
-0.413079
 32
0.170886
 13
0.027427
 23
-0.415141
 33
0.193550
 62
0
  0
3DFACE
  8
Sphere3
 10
0.065074
 20
-0.389958
 30
0.193550
 11
0.063497
 21
-0.388379
 31
0.170886
 12
0.046251
 22
-0.402550
 32
0.170886
 13
0.047489
 23
-0.404406
 33
0.193550
 62
0
  0
3DFACE
  8
Sphere3
 10
0.079506
 20
-0.372353
 30
0.193550
 11
0.077652
 21
-0.371113
 31
0.170886
 12
0.063497
 22
-0.388379
 32
0.170886
 13
0.065074
 23
-0.389958
 33
0.193550
 62
0
  0
3DFACE
  8
Sphere3
 10
0.090229
 20
-0.352268
 30
0.193550
 11
0.088169
 21
-0.351414
 31
0.170886
 12
0.077652
 22
-0.371113
 32
0.170886
 13
0.079506
 23
-0.372353
 33
0.193550
 62
0
  0
3DFACE
  8
Sphere3
 10
0.096833
 20
-0.330474
 30
0.193550
 11
0.094646
 21
-0.330039
 31
0.170886
 12
0.088169
 22
-0.351414
 32
0.170886
 13
0.090229
 23
-0.352268
 33
0.193550
 62
0
  0
3DFACE
  8
Sphere3
 10
0.099059
 20
-0.307810
 30
1.729585
 11
0.099062
 21
-0.307810
 31
0.193550
 12
0.096833
 22
-0.330474
 32
0.193550
 13
0.096829
 23
-0.330474
 33
1.729585
 62
0
  0
3DFACE
  8
Sphere3
 10
0.096829
 20
-0.285145
 30
1.729585
 11
0.096833
 21
-0.285145
 31
0.193550
 12
0.099062
 22
-0.307810
 32
0.193550
 13
0.099059
 23
-0.307810
 33
1.729585
 62
0
  0
3DFACE
  8
Sphere3
 10
0.090226
 20
-0.263352
 30
1.729585
 11
0.090229
 21
-0.263352
 31
0.193550
 12
0.096833
 22
-0.285145
 32
0.193550
 13
0.096829
 23
-0.285145
 33
1.729585
 62
0
  0
3DFACE
  8
Sphere3
 10
0.079502
 20
-0.243267
 30
1.729585
 11
0.079506
 21
-0.243267
 31
0.193550
 12
0.090229
 22
-0.263352
 32
0.193550
 13
0.090226
 23
-0.263352
 33
1.729585
 62
0
  0
3DFACE
  8
Sphere3
 10
0.065071
 20
-0.225662
 30
1.729585
 11
0.065074
 21
-0.225662
 31
0.193550
 12
0.079506
 22
-0.243267
 32
0.193550
 13
0.079502
 23
-0.243267
 33
1.729585
 62
0
  0
3DFACE
  8
Sphere3
 10
0.047486
 20
-0.211214
 30
1.729585
 11
0.047489
 21
-0.211214
 31
0.193550
 12
0.065074
 22
-0.225662
 32
0.193550
 13
0.065071
 23
-0.225662
 33
1.729585
 62
0
  0
3DFACE
  8
Sphere3
 10
0.027424
 20
-0.200478
 30
1.729585
 11
0.027427
 21
-0.200478
 31
0.193550
 12
0.047489
 22
-0.211214
 32
0.193550
 13
0.047486
 23
-0.211214
 33
1.729585
 62
0
  0
3DFACE
  8
Sphere3
 10
0.005655
 20
-0.193867
 30
1.729585
 11
0.005658
 21
-0.193867
 31
0.193550
 12
0.027427
 22
-0.200478
 32
0.193550
 13
0.027424
 23
-0.200478
 33
1.729585
 62
0
  0
3DFACE
  8
Sphere3
 10
-0.016984
 20
-0.191635
 30
1.729585
 11
-0.016981
 21
-0.191635
 31
0.193550
 12
0.005658
 22
-0.193867
 32
0.193550
 13
0.005655
 23
-0.193867
 33
1.729585
 62
0
  0
3DFACE
  8
Sphere3
 10
-0.039623
 20
-0.193867
 30
1.729585
 11
-0.039620
 21
-0.193867
 31
0.193550
 12
-0.016981
 22
-0.191635
 32
0.193550
 13
-0.016984
 23
-0.191635
 33
1.729585
 62
0
  0
3DFACE
  8
Sphere3
 10
-0.061392
 20
-0.200478
 30
1.729585
 11
-0.061389
 21
-0.200478
 31
0.193550
 12
-0.039620
 22
-0.193867
 32
0.193550
 13
-0.039623
 23
-0.193867
 33
1.729585
 62
0
  0
3DFACE
  8
Sphere3
 10
-0.081454
 20
-0.211214
 30
1.729585
 11
-0.081451
 21
-0.211214
 31
0.193550
 12
-0.061389
 22
-0.200478
 32
0.193550
 13
-0.061392
 23
-0.200478
 33
1.729585
 62
0
  0
3DFACE
  8
Sphere3
 10
-0.099039
 20
-0.225662
 30
1.729585
 11
-0.099036
 21
-0.225662
 31
0.193550
 12
-0.081451
 22
-0.211214
 32
0.193550
 13
-0.081454
 23
-0.211214
 33
1.729585
 62
0
  0
3DFACE
  8
Sphere3
 10
-0.113470
 20
-0.243267
 30
1.729585
 11
-0.113467
 21
-0.243267
 31
0.193550
 12
-0.099036
 22
-0.225662
 32
0.193550
 13
-0.099039
 23
-0.225662
 33
1.729585
 62
0
  0
3DFACE
  8
Sphere3
 10
-0.124194
 20
-0.263352
 30
1.729585
 11
-0.124191
 21
-0.263352
 31
0.193550
 12
-0.113467
 22
-0.243267
 32
0.193550
 13
-0.113470
 23
-0.243267
 33
1.729585
 62
0
  0
3DFACE
  8
Sphere3
 10
-0.130797
 20
-0.285145
 30
1.729585
 11
-0.130794
 21
-0.285145
 31
0.193550
 12
-0.124191
 22
-0.263352
 32
0.193550
 13
-0.124194
 23
-0.263352
 33
1.729585
 62
0
  0
3DFACE
  8
Sphere3
 10
-0.133027
 20
-0.307810
 30
1.729585
 11
-0.133024
 21
-0.307810
 31
0.193550
 12
-0.130794
 22
-0.285145
 32
0.193550
 13
-0.130797
 23
-0.285145
 33
1.729585
 62
0
  0
3DFACE
  8
Sphere3
 10
-0.130797
 20
-0.330474
 30
1.729585
 11
-0.130794
 21
-0.330474
 31
0.193550
 12
-0.133024
 22
-0.307810
 32
0.193550
 13
-0.133027
 23
-0.307810
 33
1.729585
 62
0
  0
3DFACE
  8
Sphere3
 10
-0.124194
 20
-0.352268
 30
1.729585
 11
-0.124191
 21
-0.352268
 31
0.193550
 12
-0.130794
 22
-0.330474
 32
0.193550
 13
-0.130797
 23
-0.330474
 33
1.729585
 62
0
  0
3DFACE
  8
Sphere3
 10
-0.113470
 20
-0.372353
 30
1.729585
 11
-0.113467
 21
-0.372353
 31
0.193550
 12
-0.124191
 22
-0.352268
 32
0.193550
 13
-0.124194
 23
-0.352268
 33
1.729585
 62
0
  0
3DFACE
  8
Sphere3
 10
-0.099039
 20
-0.389958
 30
1.729585
 11
-0.099036
 21
-0.389958
 31
0.193550
 12
-0.113467
 22
-0.372353
 32
0.193550
 13
-0.113470
 23
-0.372353
 33
1.729585
 62
0
  0
3DFACE
  8
Sphere3
 10
-0.081454
 20
-0.404406
 30
1.729585
 11
-0.081451
 21
-0.404406
 31
0.193550
 12
-0.099036
 22
-0.389958
 32
0.193550
 13
-0.099039
 23
-0.389958
 33
1.729585
 62
0
  0
3DFACE
  8
Sphere3
 10
-0.061392
 20
-0.415141
 30
1.729585
 11
-0.061389
 21
-0.415141
 31
0.193550
 12
-0.081451
 22
-0.404406
 32
0.193550
 13
-0.081454
 23
-0.404406
 33
1.729585
 62
0
  0
3DFACE
  8
Sphere3
 10
-0.039623
 20
-0.421752
 30
1.729585
 11
-0.039620
 21
-0.421752
 31
0.193550
 12
-0.061389
 22
-0.415141
 32
0.193550
 13
-0.061392
 23
-0.415141
 33
1.729585
 62
0
  0
3DFACE
  8
Sphere3
 10
-0.016984
 20
-0.423985
 30
1.729585
 11
-0.016981
 21
-0.423985
 31
0.193550
 12
-0.039620
 22
-0.421752
 32
0.193550
 13
-0.039623
 23
-0.421752
 33
1.729585
 62
0
  0
3DFACE
  8
Sphere3
 10
0.005655
 20
-0.421752
 30
1.729585
 11
0.005658
 21
-0.421752
 31
0.193550
 12
-0.016981
 22
-0.423985
 32
0.193550
 13
-0.016984
 23
-0.423985
 33
1.729585
 62
0
  0
3DFACE
  8
Sphere3
 10
0.027424
 20
-0.415141
 30
1.729585
 11
0.027427
 21
-0.415141
 31
0.193550
 12
0.005658
 22
-0.421752
 32
0.193550
 13
0.005655
 23
-0.421752
 33
1.729585
 62
0
  0
3DFACE
  8
Sphere3
 10
0.047486
 20
-0.404406
 30
1.729585
 11
0.047489
 21
-0.404406
 31
0.193550
 12
0.027427
 22
-0.415141
 32
0.193550
 13
0.027424
 23
-0.415141
 33
1.729585
 62
0
  0
3DFACE
  8
Sphere3
 10
0.065071
 20
-0.389958
 30
1.729585
 11
0.065074
 21
-0.389958
 31
0.193550
 12
0.047489
 22
-0.404406
 32
0.193550
 13
0.047486
 23
-0.404406
 33
1.729585
 62
0
  0
3DFACE
  8
Sphere3
 10
0.079502
 20
-0.372353
 30
1.729585
 11
0.079506
 21
-0.372353
 31
0.193550
 12
0.065074
 22
-0.389958
 32
0.193550
 13
0.065071
 23
-0.389958
 33
1.729585
 62
0
  0
3DFACE
  8
Sphere3
 10
0.090226
 20
-0.352268
 30
1.729585
 11
0.090229
 21
-0.352268
 31
0.193550
 12
0.079506
 22
-0.372353
 32
0.193550
 13
0.079502
 23
-0.372353
 33
1.729585
 62
0
  0
3DFACE
  8
Sphere3
 10
0.096829
 20
-0.330474
 30
1.729585
 11
0.096833
 21
-0.330474
 31
0.193550
 12
0.090229
 22
-0.352268
 32
0.193550
 13
0.090226
 23
-0.352268
 33
1.729585
 62
0
  0
3DFACE
  8
Sphere3
 10
0.103098
 20
-0.307810
 30
1.733114
 11
0.099059
 21
-0.307810
 31
1.729585
 12
0.096829
 22
-0.330474
 32
1.729585
 13
0.100791
 23
-0.331267
 33
1.733115
 62
0
  0
3DFACE
  8
Sphere3
 10
0.100791
 20
-0.284352
 30
1.733114
 11
0.096829
 21
-0.285145
 31
1.729585
 12
0.099059
 22
-0.307810
 32
1.729585
 13
0.103098
 23
-0.307810
 33
1.733114
 62
0
  0
3DFACE
  8
Sphere3
 10
0.093956
 20
-0.261796
 30
1.733114
 11
0.090226
 21
-0.263352
 31
1.729585
 12
0.096829
 22
-0.285145
 32
1.729585
 13
0.100791
 23
-0.284352
 33
1.733114
 62
0
  0
3DFACE
  8
Sphere3
 10
0.082858
 20
-0.241009
 30
1.733114
 11
0.079502
 21
-0.243267
 31
1.729585
 12
0.090226
 22
-0.263352
 32
1.729585
 13
0.093956
 23
-0.261796
 33
1.733114
 62
0
  0
3DFACE
  8
Sphere3
 10
0.067921
 20
-0.222788
 30
1.733114
 11
0.065071
 21
-0.225662
 31
1.729585
 12
0.079502
 22
-0.243267
 32
1.729585
 13
0.082858
 23
-0.241009
 33
1.733114
 62
0
  0
3DFACE
  8
Sphere3
 10
0.049721
 20
-0.207835
 30
1.733114
 11
0.047486
 21
-0.211214
 31
1.729585
 12
0.065071
 22
-0.225662
 32
1.729585
 13
0.067921
 23
-0.222788
 33
1.733114
 62
0
  0
3DFACE
  8
Sphere3
 10
0.028957
 20
-0.196724
 30
1.733114
 11
0.027424
 21
-0.200478
 31
1.729585
 12
0.047486
 22
-0.211214
 32
1.729585
 13
0.049721
 23
-0.207835
 33
1.733114
 62
0
  0
3DFACE
  8
Sphere3
 10
0.006427
 20
-0.189882
 30
1.733114
 11
0.005655
 21
-0.193867
 31
1.729585
 12
0.027424
 22
-0.200478
 32
1.729585
 13
0.028957
 23
-0.196724
 33
1.733114
 62
0
  0
3DFACE
  8
Sphere3
 10
-0.017004
 20
-0.187571
 30
1.733114
 11
-0.016984
 21
-0.191635
 31
1.729585
 12
0.005655
 22
-0.193867
 32
1.729585
 13
0.006427
 23
-0.189882
 33
1.733114
 62
0
  0
3DFACE
  8
Sphere3
 10
-0.040435
 20
-0.189882
 30
1.733114
 11
-0.039623
 21
-0.193867
 31
1.729585
 12
-0.016984
 22
-0.191635
 32
1.729585
 13
-0.017004
 23
-0.187571
 33
1.733114
 62
0
  0
3DFACE
  8
Sphere3
 10
-0.062965
 20
-0.196724
 30
1.733114
 11
-0.061392
 21
-0.200478
 31
1.729585
 12
-0.039623
 22
-0.193867
 32
1.729585
 13
-0.040435
 23
-0.189882
 33
1.733114
 62
0
  0
3DFACE
  8
Sphere3
 10
-0.083729
 20
-0.207835
 30
1.733114
 11
-0.081454
 21
-0.211214
 31
1.729585
 12
-0.061392
 22
-0.200478
 32
1.729585
 13
-0.062965
 23
-0.196724
 33
1.733114
 62
0
  0
3DFACE
  8
Sphere3
 10
-0.101929
 20
-0.222788
 30
1.733114
 11
-0.099039
 21
-0.225662
 31
1.729585
 12
-0.081454
 22
-0.211214
 32
1.729585
 13
-0.083729
 23
-0.207835
 33
1.733114
 62
0
  0
3DFACE
  8
Sphere3
 10
-0.116865
 20
-0.241009
 30
1.733114
 11
-0.113470
 21
-0.243267
 31
1.729585
 12
-0.099039
 22
-0.225662
 32
1.729585
 13
-0.101929
 23
-0.222788
 33
1.733114
 62
0
  0
3DFACE
  8
Sphere3
 10
-0.127964
 20
-0.261796
 30
1.733114
 11
-0.124194
 21
-0.263352
 31
1.729585
 12
-0.113470
 22
-0.243267
 32
1.729585
 13
-0.116865
 23
-0.241009
 33
1.733114
 62
0
  0
3DFACE
  8
Sphere3
 10
-0.134798
 20
-0.284352
 30
1.733114
 11
-0.130797
 21
-0.285145
 31
1.729585
 12
-0.124194
 22
-0.263352
 32
1.729585
 13
-0.127964
 23
-0.261796
 33
1.733114
 62
0
  0
3DFACE
  8
Sphere3
 10
-0.137106
 20
-0.307810
 30
1.733114
 11
-0.133027
 21
-0.307810
 31
1.729585
 12
-0.130797
 22
-0.285145
 32
1.729585
 13
-0.134798
 23
-0.284352
 33
1.733114
 62
0
  0
3DFACE
  8
Sphere3
 10
-0.134798
 20
-0.331267
 30
1.733114
 11
-0.130797
 21
-0.330474
 31
1.729585
 12
-0.133027
 22
-0.307810
 32
1.729585
 13
-0.137106
 23
-0.307810
 33
1.733114
 62
0
  0
3DFACE
  8
Sphere3
 10
-0.127964
 20
-0.353823
 30
1.733114
 11
-0.124194
 21
-0.352268
 31
1.729585
 12
-0.130797
 22
-0.330474
 32
1.729585
 13
-0.134798
 23
-0.331267
 33
1.733114
 62
0
  0
3DFACE
  8
Sphere3
 10
-0.116865
 20
-0.374611
 30
1.733114
 11
-0.113470
 21
-0.372353
 31
1.729585
 12
-0.124194
 22
-0.352268
 32
1.729585
 13
-0.127964
 23
-0.353823
 33
1.733114
 62
0
  0
3DFACE
  8
Sphere3
 10
-0.101929
 20
-0.392831
 30
1.733114
 11
-0.099039
 21
-0.389958
 31
1.729585
 12
-0.113470
 22
-0.372353
 32
1.729585
 13
-0.116865
 23
-0.374611
 33
1.733114
 62
0
  0
3DFACE
  8
Sphere3
 10
-0.083729
 20
-0.407784
 30
1.733114
 11
-0.081454
 21
-0.404406
 31
1.729585
 12
-0.099039
 22
-0.389958
 32
1.729585
 13
-0.101929
 23
-0.392831
 33
1.733114
 62
0
  0
3DFACE
  8
Sphere3
 10
-0.062965
 20
-0.418896
 30
1.733114
 11
-0.061392
 21
-0.415141
 31
1.729585
 12
-0.081454
 22
-0.404406
 32
1.729585
 13
-0.083729
 23
-0.407784
 33
1.733114
 62
0
  0
3DFACE
  8
Sphere3
 10
-0.040435
 20
-0.425738
 30
1.733114
 11
-0.039623
 21
-0.421752
 31
1.729585
 12
-0.061392
 22
-0.415141
 32
1.729585
 13
-0.062965
 23
-0.418896
 33
1.733114
 62
0
  0
3DFACE
  8
Sphere3
 10
-0.017004
 20
-0.428048
 30
1.733114
 11
-0.016984
 21
-0.423985
 31
1.729585
 12
-0.039623
 22
-0.421752
 32
1.729585
 13
-0.040435
 23
-0.425738
 33
1.733114
 62
0
  0
3DFACE
  8
Sphere3
 10
0.006427
 20
-0.425738
 30
1.733114
 11
0.005655
 21
-0.421752
 31
1.729585
 12
-0.016984
 22
-0.423985
 32
1.729585
 13
-0.017004
 23
-0.428048
 33
1.733114
 62
0
  0
3DFACE
  8
Sphere3
 10
0.028957
 20
-0.418896
 30
1.733115
 11
0.027424
 21
-0.415141
 31
1.729585
 12
0.005655
 22
-0.421752
 32
1.729585
 13
0.006427
 23
-0.425738
 33
1.733114
 62
0
  0
3DFACE
  8
Sphere3
 10
0.049721
 20
-0.407784
 30
1.733115
 11
0.047486
 21
-0.404406
 31
1.729585
 12
0.027424
 22
-0.415141
 32
1.729585
 13
0.028957
 23
-0.418896
 33
1.733115
 62
0
  0
3DFACE
  8
Sphere3
 10
0.067921
 20
-0.392831
 30
1.733115
 11
0.065071
 21
-0.389958
 31
1.729585
 12
0.047486
 22
-0.404406
 32
1.729585
 13
0.049721
 23
-0.407784
 33
1.733115
 62
0
  0
3DFACE
  8
Sphere3
 10
0.082858
 20
-0.374611
 30
1.733115
 11
0.079502
 21
-0.372353
 31
1.729585
 12
0.065071
 22
-0.389958
 32
1.729585
 13
0.067921
 23
-0.392831
 33
1.733115
 62
0
  0
3DFACE
  8
Sphere3
 10
0.093956
 20
-0.353823
 30
1.733115
 11
0.090226
 21
-0.352268
 31
1.729585
 12
0.079502
 22
-0.372353
 32
1.729585
 13
0.082858
 23
-0.374611
 33
1.733115
 62
0
  0
3DFACE
  8
Sphere3
 10
0.100791
 20
-0.331267
 30
1.733115
 11
0.096829
 21
-0.330474
 31
1.729585
 12
0.090226
 22
-0.352268
 32
1.729585
 13
0.093956
 23
-0.353823
 33
1.733115
 62
0
  0
3DFACE
  8
Sphere3
 10
0.104405
 20
-0.307810
 30
1.736645
 11
0.103098
 21
-0.307810
 31
1.733114
 12
0.100791
 22
-0.331267
 32
1.733115
 13
0.102072
 23
-0.331526
 33
1.736645
 62
0
  0
3DFACE
  8
Sphere3
 10
0.102072
 20
-0.284093
 30
1.736645
 11
0.100791
 21
-0.284352
 31
1.733114
 12
0.103098
 22
-0.307810
 32
1.733114
 13
0.104405
 23
-0.307810
 33
1.736645
 62
0
  0
3DFACE
  8
Sphere3
 10
0.095162
 20
-0.261288
 30
1.736645
 11
0.093956
 21
-0.261796
 31
1.733114
 12
0.100791
 22
-0.284352
 32
1.733114
 13
0.102072
 23
-0.284093
 33
1.736645
 62
0
  0
3DFACE
  8
Sphere3
 10
0.083940
 20
-0.240271
 30
1.736645
 11
0.082858
 21
-0.241009
 31
1.733114
 12
0.093956
 22
-0.261796
 32
1.733114
 13
0.095162
 23
-0.261288
 33
1.736645
 62
0
  0
3DFACE
  8
Sphere3
 10
0.068839
 20
-0.221849
 30
1.736645
 11
0.067921
 21
-0.222788
 31
1.733114
 12
0.082858
 22
-0.241009
 32
1.733114
 13
0.083940
 23
-0.240271
 33
1.736645
 62
0
  0
3DFACE
  8
Sphere3
 10
0.050438
 20
-0.206731
 30
1.736645
 11
0.049721
 21
-0.207835
 31
1.733114
 12
0.067921
 22
-0.222788
 32
1.733114
 13
0.068839
 23
-0.221849
 33
1.736645
 62
0
  0
3DFACE
  8
Sphere3
 10
0.029445
 20
-0.195497
 30
1.736645
 11
0.028957
 21
-0.196724
 31
1.733114
 12
0.049721
 22
-0.207835
 32
1.733114
 13
0.050438
 23
-0.206731
 33
1.736645
 62
0
  0
3DFACE
  8
Sphere3
 10
0.006666
 20
-0.188579
 30
1.736645
 11
0.006427
 21
-0.189882
 31
1.733114
 12
0.028957
 22
-0.196724
 32
1.733114
 13
0.029445
 23
-0.195497
 33
1.736645
 62
0
  0
3DFACE
  8
Sphere3
 10
-0.017024
 20
-0.186243
 30
1.736645
 11
-0.017004
 21
-0.187571
 31
1.733114
 12
0.006427
 22
-0.189882
 32
1.733114
 13
0.006666
 23
-0.188579
 33
1.736645
 62
0
  0
3DFACE
  8
Sphere3
 10
-0.040713
 20
-0.188579
 30
1.736645
 11
-0.040435
 21
-0.189882
 31
1.733114
 12
-0.017004
 22
-0.187571
 32
1.733114
 13
-0.017024
 23
-0.186243
 33
1.736645
 62
0
  0
3DFACE
  8
Sphere3
 10
-0.063492
 20
-0.195497
 30
1.736645
 11
-0.062965
 21
-0.196724
 31
1.733114
 12
-0.040435
 22
-0.189882
 32
1.733114
 13
-0.040713
 23
-0.188579
 33
1.736645
 62
0
  0
3DFACE
  8
Sphere3
 10
-0.084486
 20
-0.206731
 30
1.736645
 11
-0.083729
 21
-0.207835
 31
1.733114
 12
-0.062965
 22
-0.196724
 32
1.733114
 13
-0.063492
 23
-0.195497
 33
1.736645
 62
0
  0
3DFACE
  8
Sphere3
 10
-0.102887
 20
-0.221849
 30
1.736645
 11
-0.101929
 21
-0.222788
 31
1.733114
 12
-0.083729
 22
-0.207835
 32
1.733114
 13
-0.084486
 23
-0.206731
 33
1.736645
 62
0
  0
3DFACE
  8
Sphere3
 10
-0.117988
 20
-0.240271
 30
1.736645
 11
-0.116865
 21
-0.241009
 31
1.733114
 12
-0.101929
 22
-0.222788
 32
1.733114
 13
-0.102887
 23
-0.221849
 33
1.736645
 62
0
  0
3DFACE
  8
Sphere3
 10
-0.129209
 20
-0.261288
 30
1.736645
 11
-0.127964
 21
-0.261796
 31
1.733114
 12
-0.116865
 22
-0.241009
 32
1.733114
 13
-0.117988
 23
-0.240271
 33
1.736645
 62
0
  0
3DFACE
  8
Sphere3
 10
-0.136119
 20
-0.284093
 30
1.736645
 11
-0.134798
 21
-0.284352
 31
1.733114
 12
-0.127964
 22
-0.261796
 32
1.733114
 13
-0.129209
 23
-0.261288
 33
1.736645
 62
0
  0
3DFACE
  8
Sphere3
 10
-0.138452
 20
-0.307810
 30
1.736645
 11
-0.137106
 21
-0.307810
 31
1.733114
 12
-0.134798
 22
-0.284352
 32
1.733114
 13
-0.136119
 23
-0.284093
 33
1.736645
 62
0
  0
3DFACE
  8
Sphere3
 10
-0.136119
 20
-0.331526
 30
1.736645
 11
-0.134798
 21
-0.331267
 31
1.733114
 12
-0.137106
 22
-0.307810
 32
1.733114
 13
-0.138452
 23
-0.307810
 33
1.736645
 62
0
  0
3DFACE
  8
Sphere3
 10
-0.129209
 20
-0.354331
 30
1.736645
 11
-0.127964
 21
-0.353823
 31
1.733114
 12
-0.134798
 22
-0.331267
 32
1.733114
 13
-0.136119
 23
-0.331526
 33
1.736645
 62
0
  0
3DFACE
  8
Sphere3
 10
-0.117988
 20
-0.375348
 30
1.736645
 11
-0.116865
 21
-0.374611
 31
1.733114
 12
-0.127964
 22
-0.353823
 32
1.733114
 13
-0.129209
 23
-0.354331
 33
1.736645
 62
0
  0
3DFACE
  8
Sphere3
 10
-0.102887
 20
-0.393770
 30
1.736645
 11
-0.101929
 21
-0.392831
 31
1.733114
 12
-0.116865
 22
-0.374611
 32
1.733114
 13
-0.117988
 23
-0.375348
 33
1.736645
 62
0
  0
3DFACE
  8
Sphere3
 10
-0.084486
 20
-0.408889
 30
1.736645
 11
-0.083729
 21
-0.407784
 31
1.733114
 12
-0.101929
 22
-0.392831
 32
1.733114
 13
-0.102887
 23
-0.393770
 33
1.736645
 62
0
  0
3DFACE
  8
Sphere3
 10
-0.063492
 20
-0.420122
 30
1.736645
 11
-0.062965
 21
-0.418896
 31
1.733114
 12
-0.083729
 22
-0.407784
 32
1.733114
 13
-0.084486
 23
-0.408889
 33
1.736645
 62
0
  0
3DFACE
  8
Sphere3
 10
-0.040713
 20
-0.427040
 30
1.736645
 11
-0.040435
 21
-0.425738
 31
1.733114
 12
-0.062965
 22
-0.418896
 32
1.733114
 13
-0.063492
 23
-0.420122
 33
1.736645
 62
0
  0
3DFACE
  8
Sphere3
 10
-0.017024
 20
-0.429376
 30
1.736645
 11
-0.017004
 21
-0.428048
 31
1.733114
 12
-0.040435
 22
-0.425738
 32
1.733114
 13
-0.040713
 23
-0.427040
 33
1.736645
 62
0
  0
3DFACE
  8
Sphere3
 10
0.006666
 20
-0.427040
 30
1.736645
 11
0.006427
 21
-0.425738
 31
1.733114
 12
-0.017004
 22
-0.428048
 32
1.733114
 13
-0.017024
 23
-0.429376
 33
1.736645
 62
0
  0
3DFACE
  8
Sphere3
 10
0.029445
 20
-0.420122
 30
1.736645
 11
0.028957
 21
-0.418896
 31
1.733115
 12
0.006427
 22
-0.425738
 32
1.733114
 13
0.006666
 23
-0.427040
 33
1.736645
 62
0
  0
3DFACE
  8
Sphere3
 10
0.050438
 20
-0.408889
 30
1.736645
 11
0.049721
 21
-0.407784
 31
1.733115
 12
0.028957
 22
-0.418896
 32
1.733115
 13
0.029445
 23
-0.420122
 33
1.736645
 62
0
  0
3DFACE
  8
Sphere3
 10
0.068839
 20
-0.393770
 30
1.736645
 11
0.067921
 21
-0.392831
 31
1.733115
 12
0.049721
 22
-0.407784
 32
1.733115
 13
0.050438
 23
-0.408889
 33
1.736645
 62
0
  0
3DFACE
  8
Sphere3
 10
0.083940
 20
-0.375348
 30
1.736645
 11
0.082858
 21
-0.374611
 31
1.733115
 12
0.067921
 22
-0.392831
 32
1.733115
 13
0.068839
 23
-0.393770
 33
1.736645
 62
0
  0
3DFACE
  8
Sphere3
 10
0.095162
 20
-0.354331
 30
1.736645
 11
0.093956
 21
-0.353823
 31
1.733115
 12
0.082858
 22
-0.374611
 32
1.733115
 13
0.083940
 23
-0.375348
 33
1.736645
 62
0
  0
3DFACE
  8
Sphere3
 10
0.102072
 20
-0.331526
 30
1.736645
 11
0.100791
 21
-0.331267
 31
1.733115
 12
0.093956
 22
-0.353823
 32
1.733115
 13
0.095162
 23
-0.354331
 33
1.736645
 62
0
  0
3DFACE
  8
Sphere3
 10
0.104842
 20
-0.307810
 30
1.740174
 11
0.104405
 21
-0.307810
 31
1.736645
 12
0.102072
 22
-0.331526
 32
1.736645
 13
0.102499
 23
-0.331598
 33
1.740174
 62
0
  0
3DFACE
  8
Sphere3
 10
0.102499
 20
-0.284022
 30
1.740174
 11
0.102072
 21
-0.284093
 31
1.736645
 12
0.104405
 22
-0.307810
 32
1.736645
 13
0.104842
 23
-0.307810
 33
1.740174
 62
0
  0
3DFACE
  8
Sphere3
 10
0.095564
 20
-0.261148
 30
1.740174
 11
0.095162
 21
-0.261288
 31
1.736645
 12
0.102072
 22
-0.284093
 32
1.736645
 13
0.102499
 23
-0.284022
 33
1.740174
 62
0
  0
3DFACE
  8
Sphere3
 10
0.084300
 20
-0.240067
 30
1.740174
 11
0.083940
 21
-0.240271
 31
1.736645
 12
0.095162
 22
-0.261288
 32
1.736645
 13
0.095564
 23
-0.261148
 33
1.740174
 62
0
  0
3DFACE
  8
Sphere3
 10
0.069142
 20
-0.221589
 30
1.740174
 11
0.068839
 21
-0.221849
 31
1.736645
 12
0.083940
 22
-0.240271
 32
1.736645
 13
0.084300
 23
-0.240067
 33
1.740174
 62
0
  0
3DFACE
  8
Sphere3
 10
0.050672
 20
-0.206425
 30
1.740174
 11
0.050438
 21
-0.206731
 31
1.736645
 12
0.068839
 22
-0.221849
 32
1.736645
 13
0.069142
 23
-0.221589
 33
1.740174
 62
0
  0
3DFACE
  8
Sphere3
 10
0.029600
 20
-0.195157
 30
1.740174
 11
0.029445
 21
-0.195497
 31
1.736645
 12
0.050438
 22
-0.206731
 32
1.736645
 13
0.050672
 23
-0.206425
 33
1.740174
 62
0
  0
3DFACE
  8
Sphere3
 10
0.006735
 20
-0.188218
 30
1.740174
 11
0.006666
 21
-0.188579
 31
1.736645
 12
0.029445
 22
-0.195497
 32
1.736645
 13
0.029600
 23
-0.195157
 33
1.740174
 62
0
  0
3DFACE
  8
Sphere3
 10
-0.017044
 20
-0.185876
 30
1.740174
 11
-0.017024
 21
-0.186243
 31
1.736645
 12
0.006666
 22
-0.188579
 32
1.736645
 13
0.006735
 23
-0.188218
 33
1.740174
 62
0
  0
3DFACE
  8
Sphere3
 10
-0.040822
 20
-0.188218
 30
1.740174
 11
-0.040713
 21
-0.188579
 31
1.736645
 12
-0.017024
 22
-0.186243
 32
1.736645
 13
-0.017044
 23
-0.185876
 33
1.740174
 62
0
  0
3DFACE
  8
Sphere3
 10
-0.063687
 20
-0.195157
 30
1.740174
 11
-0.063492
 21
-0.195497
 31
1.736645
 12
-0.040713
 22
-0.188579
 32
1.736645
 13
-0.040822
 23
-0.188218
 33
1.740174
 62
0
  0
3DFACE
  8
Sphere3
 10
-0.084760
 20
-0.206425
 30
1.740174
 11
-0.084486
 21
-0.206731
 31
1.736645
 12
-0.063492
 22
-0.195497
 32
1.736645
 13
-0.063687
 23
-0.195157
 33
1.740174
 62
0
  0
3DFACE
  8
Sphere3
 10
-0.103230
 20
-0.221589
 30
1.740174
 11
-0.102887
 21
-0.221849
 31
1.736645
 12
-0.084486
 22
-0.206731
 32
1.736645
 13
-0.084760
 23
-0.206425
 33
1.740174
 62
0
  0
3DFACE
  8
Sphere3
 10
-0.118388
 20
-0.240067
 30
1.740174
 11
-0.117988
 21
-0.240271
 31
1.736645
 12
-0.102887
 22
-0.221849
 32
1.736645
 13
-0.103230
 23
-0.221589
 33
1.740174
 62
0
  0
3DFACE
  8
Sphere3
 10
-0.129651
 20
-0.261148
 30
1.740174
 11
-0.129209
 21
-0.261288
 31
1.736645
 12
-0.117988
 22
-0.240271
 32
1.736645
 13
-0.118388
 23
-0.240067
 33
1.740174
 62
0
  0
3DFACE
  8
Sphere3
 10
-0.136587
 20
-0.284022
 30
1.740174
 11
-0.136119
 21
-0.284093
 31
1.736645
 12
-0.129209
 22
-0.261288
 32
1.736645
 13
-0.129651
 23
-0.261148
 33
1.740174
 62
0
  0
3DFACE
  8
Sphere3
 10
-0.138929
 20
-0.307810
 30
1.740174
 11
-0.138452
 21
-0.307810
 31
1.736645
 12
-0.136119
 22
-0.284093
 32
1.736645
 13
-0.136587
 23
-0.284022
 33
1.740174
 62
0
  0
3DFACE
  8
Sphere3
 10
-0.136587
 20
-0.331598
 30
1.740174
 11
-0.136119
 21
-0.331526
 31
1.736645
 12
-0.138452
 22
-0.307810
 32
1.736645
 13
-0.138929
 23
-0.307810
 33
1.740174
 62
0
  0
3DFACE
  8
Sphere3
 10
-0.129651
 20
-0.354472
 30
1.740174
 11
-0.129209
 21
-0.354331
 31
1.736645
 12
-0.136119
 22
-0.331526
 32
1.736645
 13
-0.136587
 23
-0.331598
 33
1.740174
 62
0
  0
3DFACE
  8
Sphere3
 10
-0.118388
 20
-0.375553
 30
1.740174
 11
-0.117988
 21
-0.375348
 31
1.736645
 12
-0.129209
 22
-0.354331
 32
1.736645
 13
-0.129651
 23
-0.354472
 33
1.740174
 62
0
  0
3DFACE
  8
Sphere3
 10
-0.103230
 20
-0.394030
 30
1.740174
 11
-0.102887
 21
-0.393770
 31
1.736645
 12
-0.117988
 22
-0.375348
 32
1.736645
 13
-0.118388
 23
-0.375553
 33
1.740174
 62
0
  0
3DFACE
  8
Sphere3
 10
-0.084760
 20
-0.409194
 30
1.740174
 11
-0.084486
 21
-0.408889
 31
1.736645
 12
-0.102887
 22
-0.393770
 32
1.736645
 13
-0.103230
 23
-0.394030
 33
1.740174
 62
0
  0
3DFACE
  8
Sphere3
 10
-0.063687
 20
-0.420462
 30
1.740174
 11
-0.063492
 21
-0.420122
 31
1.736645
 12
-0.084486
 22
-0.408889
 32
1.736645
 13
-0.084760
 23
-0.409194
 33
1.740174
 62
0
  0
3DFACE
  8
Sphere3
 10
-0.040822
 20
-0.427401
 30
1.740174
 11
-0.040713
 21
-0.427040
 31
1.736645
 12
-0.063492
 22
-0.420122
 32
1.736645
 13
-0.063687
 23
-0.420462
 33
1.740174
 62
0
  0
3DFACE
  8
Sphere3
 10
-0.017044
 20
-0.429744
 30
1.740174
 11
-0.017024
 21
-0.429376
 31
1.736645
 12
-0.040713
 22
-0.427040
 32
1.736645
 13
-0.040822
 23
-0.427401
 33
1.740174
 62
0
  0
3DFACE
  8
Sphere3
 10
0.006735
 20
-0.427401
 30
1.740174
 11
0.006666
 21
-0.427040
 31
1.736645
 12
-0.017024
 22
-0.429376
 32
1.736645
 13
-0.017044
 23
-0.429744
 33
1.740174
 62
0
  0
3DFACE
  8
Sphere3
 10
0.029600
 20
-0.420462
 30
1.740174
 11
0.029445
 21
-0.420122
 31
1.736645
 12
0.006666
 22
-0.427040
 32
1.736645
 13
0.006735
 23
-0.427401
 33
1.740174
 62
0
  0
3DFACE
  8
Sphere3
 10
0.050672
 20
-0.409194
 30
1.740174
 11
0.050438
 21
-0.408889
 31
1.736645
 12
0.029445
 22
-0.420122
 32
1.736645
 13
0.029600
 23
-0.420462
 33
1.740174
 62
0
  0
3DFACE
  8
Sphere3
 10
0.069142
 20
-0.394030
 30
1.740174
 11
0.068839
 21
-0.393770
 31
1.736645
 12
0.050438
 22
-0.408889
 32
1.736645
 13
0.050672
 23
-0.409194
 33
1.740174
 62
0
  0
3DFACE
  8
Sphere3
 10
0.084300
 20
-0.375553
 30
1.740174
 11
0.083940
 21
-0.375348
 31
1.736645
 12
0.068839
 22
-0.393770
 32
1.736645
 13
0.069142
 23
-0.394030
 33
1.740174
 62
0
  0
3DFACE
  8
Sphere3
 10
0.095564
 20
-0.354472
 30
1.740174
 11
0.095162
 21
-0.354331
 31
1.736645
 12
0.083940
 22
-0.375348
 32
1.736645
 13
0.084300
 23
-0.375553
 33
1.740174
 62
0
  0
3DFACE
  8
Sphere3
 10
0.102499
 20
-0.331598
 30
1.740174
 11
0.102072
 21
-0.331526
 31
1.736645
 12
0.095162
 22
-0.354331
 32
1.736645
 13
0.095564
 23
-0.354472
 33
1.740174
 62
0
  0
3DFACE
  8
Sphere3
 10
0.104246
 20
-0.307810
 30
1.743703
 11
0.104842
 21
-0.307810
 31
1.740174
 12
0.102499
 22
-0.331598
 32
1.740174
 13
0.101915
 23
-0.331503
 33
1.743703
 62
0
  0
3DFACE
  8
Sphere3
 10
0.101915
 20
-0.284117
 30
1.743703
 11
0.102499
 21
-0.284022
 31
1.740174
 12
0.104842
 22
-0.307810
 32
1.740174
 13
0.104246
 23
-0.307810
 33
1.743703
 62
0
  0
3DFACE
  8
Sphere3
 10
0.095011
 20
-0.261334
 30
1.743703
 11
0.095564
 21
-0.261148
 31
1.740174
 12
0.102499
 22
-0.284022
 32
1.740174
 13
0.101915
 23
-0.284117
 33
1.743703
 62
0
  0
3DFACE
  8
Sphere3
 10
0.083801
 20
-0.240337
 30
1.743703
 11
0.084300
 21
-0.240067
 31
1.740174
 12
0.095564
 22
-0.261148
 32
1.740174
 13
0.095011
 23
-0.261334
 33
1.743703
 62
0
  0
3DFACE
  8
Sphere3
 10
0.068715
 20
-0.221934
 30
1.743703
 11
0.069142
 21
-0.221589
 31
1.740174
 12
0.084300
 22
-0.240067
 32
1.740174
 13
0.083801
 23
-0.240337
 33
1.743703
 62
0
  0
3DFACE
  8
Sphere3
 10
0.050332
 20
-0.206830
 30
1.743703
 11
0.050672
 21
-0.206425
 31
1.740174
 12
0.069142
 22
-0.221589
 32
1.740174
 13
0.068715
 23
-0.221934
 33
1.743703
 62
0
  0
3DFACE
  8
Sphere3
 10
0.029359
 20
-0.195607
 30
1.743703
 11
0.029600
 21
-0.195157
 31
1.740174
 12
0.050672
 22
-0.206425
 32
1.740174
 13
0.050332
 23
-0.206830
 33
1.743703
 62
0
  0
3DFACE
  8
Sphere3
 10
0.006602
 20
-0.188696
 30
1.743703
 11
0.006735
 21
-0.188218
 31
1.740174
 12
0.029600
 22
-0.195157
 32
1.740174
 13
0.029359
 23
-0.195607
 33
1.743703
 62
0
  0
3DFACE
  8
Sphere3
 10
-0.017064
 20
-0.186363
 30
1.743703
 11
-0.017044
 21
-0.185876
 31
1.740174
 12
0.006735
 22
-0.188218
 32
1.740174
 13
0.006602
 23
-0.188696
 33
1.743703
 62
0
  0
3DFACE
  8
Sphere3
 10
-0.040730
 20
-0.188696
 30
1.743703
 11
-0.040822
 21
-0.188218
 31
1.740174
 12
-0.017044
 22
-0.185876
 32
1.740174
 13
-0.017064
 23
-0.186363
 33
1.743703
 62
0
  0
3DFACE
  8
Sphere3
 10
-0.063487
 20
-0.195607
 30
1.743703
 11
-0.063687
 21
-0.195157
 31
1.740174
 12
-0.040822
 22
-0.188218
 32
1.740174
 13
-0.040730
 23
-0.188696
 33
1.743703
 62
0
  0
3DFACE
  8
Sphere3
 10
-0.084460
 20
-0.206830
 30
1.743703
 11
-0.084760
 21
-0.206425
 31
1.740174
 12
-0.063687
 22
-0.195157
 32
1.740174
 13
-0.063487
 23
-0.195607
 33
1.743703
 62
0
  0
3DFACE
  8
Sphere3
 10
-0.102842
 20
-0.221934
 30
1.743703
 11
-0.103230
 21
-0.221589
 31
1.740174
 12
-0.084760
 22
-0.206425
 32
1.740174
 13
-0.084460
 23
-0.206830
 33
1.743703
 62
0
  0
3DFACE
  8
Sphere3
 10
-0.117929
 20
-0.240337
 30
1.743703
 11
-0.118388
 21
-0.240067
 31
1.740174
 12
-0.103230
 22
-0.221589
 32
1.740174
 13
-0.102842
 23
-0.221934
 33
1.743703
 62
0
  0
3DFACE
  8
Sphere3
 10
-0.129139
 20
-0.261334
 30
1.743703
 11
-0.129651
 21
-0.261148
 31
1.740174
 12
-0.118388
 22
-0.240067
 32
1.740174
 13
-0.117929
 23
-0.240337
 33
1.743703
 62
0
  0
3DFACE
  8
Sphere3
 10
-0.136042
 20
-0.284117
 30
1.743703
 11
-0.136587
 21
-0.284022
 31
1.740174
 12
-0.129651
 22
-0.261148
 32
1.740174
 13
-0.129139
 23
-0.261334
 33
1.743703
 62
0
  0
3DFACE
  8
Sphere3
 10
-0.138373
 20
-0.307810
 30
1.743703
 11
-0.138929
 21
-0.307810
 31
1.740174
 12
-0.136587
 22
-0.284022
 32
1.740174
 13
-0.136042
 23
-0.284117
 33
1.743703
 62
0
  0
3DFACE
  8
Sphere3
 10
-0.136042
 20
-0.331503
 30
1.743703
 11
-0.136587
 21
-0.331598
 31
1.740174
 12
-0.138929
 22
-0.307810
 32
1.740174
 13
-0.138373
 23
-0.307810
 33
1.743703
 62
0
  0
3DFACE
  8
Sphere3
 10
-0.129139
 20
-0.354286
 30
1.743703
 11
-0.129651
 21
-0.354472
 31
1.740174
 12
-0.136587
 22
-0.331598
 32
1.740174
 13
-0.136042
 23
-0.331503
 33
1.743703
 62
0
  0
3DFACE
  8
Sphere3
 10
-0.117929
 20
-0.375282
 30
1.743703
 11
-0.118388
 21
-0.375553
 31
1.740174
 12
-0.129651
 22
-0.354472
 32
1.740174
 13
-0.129139
 23
-0.354286
 33
1.743703
 62
0
  0
3DFACE
  8
Sphere3
 10
-0.102842
 20
-0.393686
 30
1.743703
 11
-0.103230
 21
-0.394030
 31
1.740174
 12
-0.118388
 22
-0.375553
 32
1.740174
 13
-0.117929
 23
-0.375282
 33
1.743703
 62
0
  0
3DFACE
  8
Sphere3
 10
-0.084460
 20
-0.408789
 30
1.743703
 11
-0.084760
 21
-0.409194
 31
1.740174
 12
-0.103230
 22
-0.394030
 32
1.740174
 13
-0.102842
 23
-0.393686
 33
1.743703
 62
0
  0
3DFACE
  8
Sphere3
 10
-0.063487
 20
-0.420012
 30
1.743703
 11
-0.063687
 21
-0.420462
 31
1.740174
 12
-0.084760
 22
-0.409194
 32
1.740174
 13
-0.084460
 23
-0.408789
 33
1.743703
 62
0
  0
3DFACE
  8
Sphere3
 10
-0.040730
 20
-0.426923
 30
1.743703
 11
-0.040822
 21
-0.427401
 31
1.740174
 12
-0.063687
 22
-0.420462
 32
1.740174
 13
-0.063487
 23
-0.420012
 33
1.743703
 62
0
  0
3DFACE
  8
Sphere3
 10
-0.017064
 20
-0.429257
 30
1.743703
 11
-0.017044
 21
-0.429744
 31
1.740174
 12
-0.040822
 22
-0.427401
 32
1.740174
 13
-0.040730
 23
-0.426923
 33
1.743703
 62
0
  0
3DFACE
  8
Sphere3
 10
0.006602
 20
-0.426923
 30
1.743703
 11
0.006735
 21
-0.427401
 31
1.740174
 12
-0.017044
 22
-0.429744
 32
1.740174
 13
-0.017064
 23
-0.429257
 33
1.743703
 62
0
  0
3DFACE
  8
Sphere3
 10
0.029359
 20
-0.420012
 30
1.743703
 11
0.029600
 21
-0.420462
 31
1.740174
 12
0.006735
 22
-0.427401
 32
1.740174
 13
0.006602
 23
-0.426923
 33
1.743703
 62
0
  0
3DFACE
  8
Sphere3
 10
0.050332
 20
-0.408789
 30
1.743703
 11
0.050672
 21
-0.409194
 31
1.740174
 12
0.029600
 22
-0.420462
 32
1.740174
 13
0.029359
 23
-0.420012
 33
1.743703
 62
0
  0
3DFACE
  8
Sphere3
 10
0.068715
 20
-0.393686
 30
1.743703
 11
0.069142
 21
-0.394030
 31
1.740174
 12
0.050672
 22
-0.409194
 32
1.740174
 13
0.050332
 23
-0.408789
 33
1.743703
 62
0
  0
3DFACE
  8
Sphere3
 10
0.083801
 20
-0.375282
 30
1.743703
 11
0.084300
 21
-0.375553
 31
1.740174
 12
0.069142
 22
-0.394030
 32
1.740174
 13
0.068715
 23
-0.393686
 33
1.743703
 62
0
  0
3DFACE
  8
Sphere3
 10
0.095011
 20
-0.354286
 30
1.743703
 11
0.095564
 21
-0.354472
 31
1.740174
 12
0.084300
 22
-0.375553
 32
1.740174
 13
0.083801
 23
-0.375282
 33
1.743703
 62
0
  0
3DFACE
  8
Sphere3
 10
0.101915
 20
-0.331503
 30
1.743703
 11
0.102499
 21
-0.331598
 31
1.740174
 12
0.095564
 22
-0.354472
 32
1.740174
 13
0.095011
 23
-0.354286
 33
1.743703
 62
0
  0
3DFACE
  8
Sphere3
 10
0.101837
 20
-0.307810
 30
1.747233
 11
0.104246
 21
-0.307810
 31
1.743703
 12
0.101915
 22
-0.331503
 32
1.743703
 13
0.099552
 23
-0.331036
 33
1.747233
 62
0
  0
3DFACE
  8
Sphere3
 10
0.099552
 20
-0.284583
 30
1.747233
 11
0.101915
 21
-0.284117
 31
1.743703
 12
0.104246
 22
-0.307810
 32
1.743703
 13
0.101837
 23
-0.307810
 33
1.747233
 62
0
  0
3DFACE
  8
Sphere3
 10
0.092785
 20
-0.262249
 30
1.747233
 11
0.095011
 21
-0.261334
 31
1.743703
 12
0.101915
 22
-0.284117
 32
1.743703
 13
0.099552
 23
-0.284583
 33
1.747233
 62
0
  0
3DFACE
  8
Sphere3
 10
0.081795
 20
-0.241666
 30
1.747233
 11
0.083801
 21
-0.240337
 31
1.743703
 12
0.095011
 22
-0.261334
 32
1.743703
 13
0.092785
 23
-0.262249
 33
1.747233
 62
0
  0
3DFACE
  8
Sphere3
 10
0.067006
 20
-0.223625
 30
1.747233
 11
0.068715
 21
-0.221934
 31
1.743703
 12
0.083801
 22
-0.240337
 32
1.743703
 13
0.081795
 23
-0.241666
 33
1.747233
 62
0
  0
3DFACE
  8
Sphere3
 10
0.048985
 20
-0.208818
 30
1.747233
 11
0.050332
 21
-0.206830
 31
1.743703
 12
0.068715
 22
-0.221934
 32
1.743703
 13
0.067006
 23
-0.223625
 33
1.747233
 62
0
  0
3DFACE
  8
Sphere3
 10
0.028425
 20
-0.197816
 30
1.747233
 11
0.029359
 21
-0.195607
 31
1.743703
 12
0.050332
 22
-0.206830
 32
1.743703
 13
0.048985
 23
-0.208818
 33
1.747233
 62
0
  0
3DFACE
  8
Sphere3
 10
0.006116
 20
-0.191041
 30
1.747233
 11
0.006602
 21
-0.188696
 31
1.743703
 12
0.029359
 22
-0.195607
 32
1.743703
 13
0.028425
 23
-0.197816
 33
1.747233
 62
0
  0
3DFACE
  8
Sphere3
 10
-0.017084
 20
-0.188754
 30
1.747233
 11
-0.017064
 21
-0.186363
 31
1.743703
 12
0.006602
 22
-0.188696
 32
1.743703
 13
0.006116
 23
-0.191041
 33
1.747233
 62
0
  0
3DFACE
  8
Sphere3
 10
-0.040284
 20
-0.191041
 30
1.747233
 11
-0.040730
 21
-0.188696
 31
1.743703
 12
-0.017064
 22
-0.186363
 32
1.743703
 13
-0.017084
 23
-0.188754
 33
1.747233
 62
0
  0
3DFACE
  8
Sphere3
 10
-0.062593
 20
-0.197816
 30
1.747233
 11
-0.063487
 21
-0.195607
 31
1.743703
 12
-0.040730
 22
-0.188696
 32
1.743703
 13
-0.040284
 23
-0.191041
 33
1.747233
 62
0
  0
3DFACE
  8
Sphere3
 10
-0.083153
 20
-0.208818
 30
1.747233
 11
-0.084460
 21
-0.206830
 31
1.743703
 12
-0.063487
 22
-0.195607
 32
1.743703
 13
-0.062593
 23
-0.197816
 33
1.747233
 62
0
  0
3DFACE
  8
Sphere3
 10
-0.101174
 20
-0.223625
 30
1.747233
 11
-0.102842
 21
-0.221934
 31
1.743703
 12
-0.084460
 22
-0.206830
 32
1.743703
 13
-0.083153
 23
-0.208818
 33
1.747233
 62
0
  0
3DFACE
  8
Sphere3
 10
-0.115963
 20
-0.241666
 30
1.747233
 11
-0.117929
 21
-0.240337
 31
1.743703
 12
-0.102842
 22
-0.221934
 32
1.743703
 13
-0.101174
 23
-0.223625
 33
1.747233
 62
0
  0
3DFACE
  8
Sphere3
 10
-0.126953
 20
-0.262249
 30
1.747233
 11
-0.129139
 21
-0.261334
 31
1.743703
 12
-0.117929
 22
-0.240337
 32
1.743703
 13
-0.115963
 23
-0.241666
 33
1.747233
 62
0
  0
3DFACE
  8
Sphere3
 10
-0.133720
 20
-0.284583
 30
1.747233
 11
-0.136042
 21
-0.284117
 31
1.743703
 12
-0.129139
 22
-0.261334
 32
1.743703
 13
-0.126953
 23
-0.262249
 33
1.747233
 62
0
  0
3DFACE
  8
Sphere3
 10
-0.136005
 20
-0.307810
 30
1.747233
 11
-0.138373
 21
-0.307810
 31
1.743703
 12
-0.136042
 22
-0.284117
 32
1.743703
 13
-0.133720
 23
-0.284583
 33
1.747233
 62
0
  0
3DFACE
  8
Sphere3
 10
-0.133720
 20
-0.331036
 30
1.747233
 11
-0.136042
 21
-0.331503
 31
1.743703
 12
-0.138373
 22
-0.307810
 32
1.743703
 13
-0.136005
 23
-0.307810
 33
1.747233
 62
0
  0
3DFACE
  8
Sphere3
 10
-0.126953
 20
-0.353370
 30
1.747233
 11
-0.129139
 21
-0.354286
 31
1.743703
 12
-0.136042
 22
-0.331503
 32
1.743703
 13
-0.133720
 23
-0.331036
 33
1.747233
 62
0
  0
3DFACE
  8
Sphere3
 10
-0.115963
 20
-0.373954
 30
1.747233
 11
-0.117929
 21
-0.375282
 31
1.743703
 12
-0.129139
 22
-0.354286
 32
1.743703
 13
-0.126953
 23
-0.353370
 33
1.747233
 62
0
  0
3DFACE
  8
Sphere3
 10
-0.101174
 20
-0.391995
 30
1.747233
 11
-0.102842
 21
-0.393686
 31
1.743703
 12
-0.117929
 22
-0.375282
 32
1.743703
 13
-0.115963
 23
-0.373954
 33
1.747233
 62
0
  0
3DFACE
  8
Sphere3
 10
-0.083153
 20
-0.406801
 30
1.747233
 11
-0.084460
 21
-0.408789
 31
1.743703
 12
-0.102842
 22
-0.393686
 32
1.743703
 13
-0.101174
 23
-0.391995
 33
1.747233
 62
0
  0
3DFACE
  8
Sphere3
 10
-0.062593
 20
-0.417803
 30
1.747233
 11
-0.063487
 21
-0.420012
 31
1.743703
 12
-0.084460
 22
-0.408789
 32
1.743703
 13
-0.083153
 23
-0.406801
 33
1.747233
 62
0
  0
3DFACE
  8
Sphere3
 10
-0.040284
 20
-0.424578
 30
1.747233
 11
-0.040730
 21
-0.426923
 31
1.743703
 12
-0.063487
 22
-0.420012
 32
1.743703
 13
-0.062593
 23
-0.417803
 33
1.747233
 62
0
  0
3DFACE
  8
Sphere3
 10
-0.017084
 20
-0.426866
 30
1.747233
 11
-0.017064
 21
-0.429257
 31
1.743703
 12
-0.040730
 22
-0.426923
 32
1.743703
 13
-0.040284
 23
-0.424578
 33
1.747233
 62
0
  0
3DFACE
  8
Sphere3
 10
0.006116
 20
-0.424578
 30
1.747233
 11
0.006602
 21
-0.426923
 31
1.743703
 12
-0.017064
 22
-0.429257
 32
1.743703
 13
-0.017084
 23
-0.426866
 33
1.747233
 62
0
  0
3DFACE
  8
Sphere3
 10
0.028425
 20
-0.417803
 30
1.747233
 11
0.029359
 21
-0.420012
 31
1.743703
 12
0.006602
 22
-0.426923
 32
1.743703
 13
0.006116
 23
-0.424578
 33
1.747233
 62
0
  0
3DFACE
  8
Sphere3
 10
0.048985
 20
-0.406801
 30
1.747233
 11
0.050332
 21
-0.408789
 31
1.743703
 12
0.029359
 22
-0.420012
 32
1.743703
 13
0.028425
 23
-0.417803
 33
1.747233
 62
0
  0
3DFACE
  8
Sphere3
 10
0.067006
 20
-0.391995
 30
1.747233
 11
0.068715
 21
-0.393686
 31
1.743703
 12
0.050332
 22
-0.408789
 32
1.743703
 13
0.048985
 23
-0.406801
 33
1.747233
 62
0
  0
3DFACE
  8
Sphere3
 10
0.081795
 20
-0.373954
 30
1.747233
 11
0.083801
 21
-0.375282
 31
1.743703
 12
0.068715
 22
-0.393686
 32
1.743703
 13
0.067006
 23
-0.391995
 33
1.747233
 62
0
  0
3DFACE
  8
Sphere3
 10
0.092785
 20
-0.353370
 30
1.747233
 11
0.095011
 21
-0.354286
 31
1.743703
 12
0.083801
 22
-0.375282
 32
1.743703
 13
0.081795
 23
-0.373954
 33
1.747233
 62
0
  0
3DFACE
  8
Sphere3
 10
0.099552
 20
-0.331036
 30
1.747233
 11
0.101915
 21
-0.331503
 31
1.743703
 12
0.095011
 22
-0.354286
 32
1.743703
 13
0.092785
 23
-0.353370
 33
1.747233
 62
0
  0
3DFACE
  8
Sphere3
 10
0.098218
 20
-0.307810
 30
1.749446
 11
0.101837
 21
-0.307810
 31
1.747233
 12
0.099552
 22
-0.331036
 32
1.747233
 13
0.096002
 23
-0.330334
 33
1.749446
 62
0
  0
3DFACE
  8
Sphere3
 10
0.096002
 20
-0.285286
 30
1.749446
 11
0.099552
 21
-0.284583
 31
1.747233
 12
0.101837
 22
-0.307810
 32
1.747233
 13
0.098218
 23
-0.307810
 33
1.749446
 62
0
  0
3DFACE
  8
Sphere3
 10
0.089439
 20
-0.263628
 30
1.749446
 11
0.092785
 21
-0.262249
 31
1.747233
 12
0.099552
 22
-0.284583
 32
1.747233
 13
0.096002
 23
-0.285286
 33
1.749446
 62
0
  0
3DFACE
  8
Sphere3
 10
0.078782
 20
-0.243667
 30
1.749446
 11
0.081795
 21
-0.241666
 31
1.747233
 12
0.092785
 22
-0.262249
 32
1.747233
 13
0.089439
 23
-0.263628
 33
1.749446
 62
0
  0
3DFACE
  8
Sphere3
 10
0.064441
 20
-0.226172
 30
1.749446
 11
0.067006
 21
-0.223625
 31
1.747233
 12
0.081795
 22
-0.241666
 32
1.747233
 13
0.078782
 23
-0.243667
 33
1.749446
 62
0
  0
3DFACE
  8
Sphere3
 10
0.046965
 20
-0.211814
 30
1.749446
 11
0.048985
 21
-0.208818
 31
1.747233
 12
0.067006
 22
-0.223625
 32
1.747233
 13
0.064441
 23
-0.226172
 33
1.749446
 62
0
  0
3DFACE
  8
Sphere3
 10
0.027027
 20
-0.201145
 30
1.749446
 11
0.028425
 21
-0.197816
 31
1.747233
 12
0.048985
 22
-0.208818
 32
1.747233
 13
0.046965
 23
-0.211814
 33
1.749446
 62
0
  0
3DFACE
  8
Sphere3
 10
0.005394
 20
-0.194575
 30
1.749446
 11
0.006116
 21
-0.191041
 31
1.747233
 12
0.028425
 22
-0.197816
 32
1.747233
 13
0.027027
 23
-0.201145
 33
1.749446
 62
0
  0
3DFACE
  8
Sphere3
 10
-0.017105
 20
-0.192357
 30
1.749446
 11
-0.017084
 21
-0.188754
 31
1.747233
 12
0.006116
 22
-0.191041
 32
1.747233
 13
0.005394
 23
-0.194575
 33
1.749446
 62
0
  0
3DFACE
  8
Sphere3
 10
-0.039603
 20
-0.194575
 30
1.749446
 11
-0.040284
 21
-0.191041
 31
1.747233
 12
-0.017084
 22
-0.188754
 32
1.747233
 13
-0.017105
 23
-0.192357
 33
1.749446
 62
0
  0
3DFACE
  8
Sphere3
 10
-0.061237
 20
-0.201145
 30
1.749446
 11
-0.062593
 21
-0.197816
 31
1.747233
 12
-0.040284
 22
-0.191041
 32
1.747233
 13
-0.039603
 23
-0.194575
 33
1.749446
 62
0
  0
3DFACE
  8
Sphere3
 10
-0.081174
 20
-0.211814
 30
1.749446
 11
-0.083153
 21
-0.208818
 31
1.747233
 12
-0.062593
 22
-0.197816
 32
1.747233
 13
-0.061237
 23
-0.201145
 33
1.749446
 62
0
  0
3DFACE
  8
Sphere3
 10
-0.098650
 20
-0.226172
 30
1.749446
 11
-0.101174
 21
-0.223625
 31
1.747233
 12
-0.083153
 22
-0.208818
 32
1.747233
 13
-0.081174
 23
-0.211814
 33
1.749446
 62
0
  0
3DFACE
  8
Sphere3
 10
-0.112992
 20
-0.243667
 30
1.749446
 11
-0.115963
 21
-0.241666
 31
1.747233
 12
-0.101174
 22
-0.223625
 32
1.747233
 13
-0.098650
 23
-0.226172
 33
1.749446
 62
0
  0
3DFACE
  8
Sphere3
 10
-0.123649
 20
-0.263628
 30
1.749446
 11
-0.126953
 21
-0.262249
 31
1.747233
 12
-0.115963
 22
-0.241666
 32
1.747233
 13
-0.112992
 23
-0.243667
 33
1.749446
 62
0
  0
3DFACE
  8
Sphere3
 10
-0.130211
 20
-0.285286
 30
1.749446
 11
-0.133720
 21
-0.284583
 31
1.747233
 12
-0.126953
 22
-0.262249
 32
1.747233
 13
-0.123649
 23
-0.263628
 33
1.749446
 62
0
  0
3DFACE
  8
Sphere3
 10
-0.132427
 20
-0.307810
 30
1.749446
 11
-0.136005
 21
-0.307810
 31
1.747233
 12
-0.133720
 22
-0.284583
 32
1.747233
 13
-0.130211
 23
-0.285286
 33
1.749446
 62
0
  0
3DFACE
  8
Sphere3
 10
-0.130211
 20
-0.330334
 30
1.749446
 11
-0.133720
 21
-0.331036
 31
1.747233
 12
-0.136005
 22
-0.307810
 32
1.747233
 13
-0.132427
 23
-0.307810
 33
1.749446
 62
0
  0
3DFACE
  8
Sphere3
 10
-0.123649
 20
-0.351992
 30
1.749446
 11
-0.126953
 21
-0.353370
 31
1.747233
 12
-0.133720
 22
-0.331036
 32
1.747233
 13
-0.130211
 23
-0.330334
 33
1.749446
 62
0
  0
3DFACE
  8
Sphere3
 10
-0.112992
 20
-0.371952
 30
1.749446
 11
-0.115963
 21
-0.373954
 31
1.747233
 12
-0.126953
 22
-0.353370
 32
1.747233
 13
-0.123649
 23
-0.351992
 33
1.749446
 62
0
  0
3DFACE
  8
Sphere3
 10
-0.098650
 20
-0.389448
 30
1.749446
 11
-0.101174
 21
-0.391995
 31
1.747233
 12
-0.115963
 22
-0.373954
 32
1.747233
 13
-0.112992
 23
-0.371952
 33
1.749446
 62
0
  0
3DFACE
  8
Sphere3
 10
-0.081174
 20
-0.403806
 30
1.749446
 11
-0.083153
 21
-0.406801
 31
1.747233
 12
-0.101174
 22
-0.391995
 32
1.747233
 13
-0.098650
 23
-0.389448
 33
1.749446
 62
0
  0
3DFACE
  8
Sphere3
 10
-0.061237
 20
-0.414475
 30
1.749446
 11
-0.062593
 21
-0.417803
 31
1.747233
 12
-0.083153
 22
-0.406801
 32
1.747233
 13
-0.081174
 23
-0.403806
 33
1.749446
 62
0
  0
3DFACE
  8
Sphere3
 10
-0.039603
 20
-0.421045
 30
1.749446
 11
-0.040284
 21
-0.424578
 31
1.747233
 12
-0.062593
 22
-0.417803
 32
1.747233
 13
-0.061237
 23
-0.414475
 33
1.749446
 62
0
  0
3DFACE
  8
Sphere3
 10
-0.017105
 20
-0.423263
 30
1.749446
 11
-0.017084
 21
-0.426866
 31
1.747233
 12
-0.040284
 22
-0.424578
 32
1.747233
 13
-0.039603
 23
-0.421045
 33
1.749446
 62
0
  0
3DFACE
  8
Sphere3
 10
0.005394
 20
-0.421045
 30
1.749446
 11
0.006116
 21
-0.424578
 31
1.747233
 12
-0.017084
 22
-0.426866
 32
1.747233
 13
-0.017105
 23
-0.423263
 33
1.749446
 62
0
  0
3DFACE
  8
Sphere3
 10
0.027027
 20
-0.414475
 30
1.749446
 11
0.028425
 21
-0.417803
 31
1.747233
 12
0.006116
 22
-0.424578
 32
1.747233
 13
0.005394
 23
-0.421045
 33
1.749446
 62
0
  0
3DFACE
  8
Sphere3
 10
0.046965
 20
-0.403806
 30
1.749446
 11
0.048985
 21
-0.406801
 31
1.747233
 12
0.028425
 22
-0.417803
 32
1.747233
 13
0.027027
 23
-0.414475
 33
1.749446
 62
0
  0
3DFACE
  8
Sphere3
 10
0.064441
 20
-0.389448
 30
1.749446
 11
0.067006
 21
-0.391995
 31
1.747233
 12
0.048985
 22
-0.406801
 32
1.747233
 13
0.046965
 23
-0.403806
 33
1.749446
 62
0
  0
3DFACE
  8
Sphere3
 10
0.078782
 20
-0.371952
 30
1.749446
 11
0.081795
 21
-0.373954
 31
1.747233
 12
0.067006
 22
-0.391995
 32
1.747233
 13
0.064441
 23
-0.389448
 33
1.749446
 62
0
  0
3DFACE
  8
Sphere3
 10
0.089439
 20
-0.351992
 30
1.749446
 11
0.092785
 21
-0.353370
 31
1.747233
 12
0.081795
 22
-0.373954
 32
1.747233
 13
0.078782
 23
-0.371952
 33
1.749446
 62
0
  0
3DFACE
  8
Sphere3
 10
0.096002
 20
-0.330334
 30
1.749446
 11
0.099552
 21
-0.331036
 31
1.747233
 12
0.092785
 22
-0.353370
 32
1.747233
 13
0.089439
 23
-0.351992
 33
1.749446
 62
0
  0
3DFACE
  8
Sphere3
 10
0.092124
 20
-0.307481
 30
1.749190
 11
0.098218
 21
-0.307810
 31
1.749446
 12
0.096002
 22
-0.330334
 32
1.749446
 13
0.090025
 23
-0.328819
 33
1.749190
 62
0
  0
3DFACE
  8
Sphere3
 10
0.090025
 20
-0.286143
 30
1.749190
 11
0.096002
 21
-0.285286
 31
1.749446
 12
0.098218
 22
-0.307810
 32
1.749446
 13
0.092124
 23
-0.307481
 33
1.749190
 62
0
  0
3DFACE
  8
Sphere3
 10
0.083808
 20
-0.265625
 30
1.749190
 11
0.089439
 21
-0.263628
 31
1.749446
 12
0.096002
 22
-0.285286
 32
1.749446
 13
0.090025
 23
-0.286143
 33
1.749190
 62
0
  0
3DFACE
  8
Sphere3
 10
0.073712
 20
-0.246716
 30
1.749190
 11
0.078782
 21
-0.243667
 31
1.749446
 12
0.089439
 22
-0.263628
 32
1.749446
 13
0.083808
 23
-0.265625
 33
1.749190
 62
0
  0
3DFACE
  8
Sphere3
 10
0.060126
 20
-0.230142
 30
1.749190
 11
0.064441
 21
-0.226172
 31
1.749446
 12
0.078782
 22
-0.243667
 32
1.749446
 13
0.073712
 23
-0.246716
 33
1.749190
 62
0
  0
3DFACE
  8
Sphere3
 10
0.043570
 20
-0.216539
 30
1.749190
 11
0.046965
 21
-0.211814
 31
1.749446
 12
0.064441
 22
-0.226172
 32
1.749446
 13
0.060126
 23
-0.230142
 33
1.749190
 62
0
  0
3DFACE
  8
Sphere3
 10
0.024683
 20
-0.206432
 30
1.749190
 11
0.027027
 21
-0.201145
 31
1.749446
 12
0.046965
 22
-0.211814
 32
1.749446
 13
0.043570
 23
-0.216539
 33
1.749190
 62
0
  0
3DFACE
  8
Sphere3
 10
0.004188
 20
-0.200208
 30
1.749190
 11
0.005394
 21
-0.194575
 31
1.749446
 12
0.027027
 22
-0.201145
 32
1.749446
 13
0.024683
 23
-0.206432
 33
1.749190
 62
0
  0
3DFACE
  8
Sphere3
 10
-0.017126
 20
-0.198107
 30
1.749190
 11
-0.017105
 21
-0.192357
 31
1.749446
 12
0.005394
 22
-0.194575
 32
1.749446
 13
0.004188
 23
-0.200208
 33
1.749190
 62
0
  0
3DFACE
  8
Sphere3
 10
-0.038439
 20
-0.200208
 30
1.749190
 11
-0.039603
 21
-0.194575
 31
1.749446
 12
-0.017105
 22
-0.192357
 32
1.749446
 13
-0.017126
 23
-0.198107
 33
1.749190
 62
0
  0
3DFACE
  8
Sphere3
 10
-0.058934
 20
-0.206432
 30
1.749190
 11
-0.061237
 21
-0.201145
 31
1.749446
 12
-0.039603
 22
-0.194575
 32
1.749446
 13
-0.038439
 23
-0.200208
 33
1.749190
 62
0
  0
3DFACE
  8
Sphere3
 10
-0.077822
 20
-0.216539
 30
1.749190
 11
-0.081174
 21
-0.211814
 31
1.749446
 12
-0.061237
 22
-0.201145
 32
1.749446
 13
-0.058934
 23
-0.206432
 33
1.749190
 62
0
  0
3DFACE
  8
Sphere3
 10
-0.094377
 20
-0.230142
 30
1.749190
 11
-0.098650
 21
-0.226172
 31
1.749446
 12
-0.081174
 22
-0.211814
 32
1.749446
 13
-0.077822
 23
-0.216539
 33
1.749190
 62
0
  0
3DFACE
  8
Sphere3
 10
-0.107964
 20
-0.246716
 30
1.749190
 11
-0.112992
 21
-0.243667
 31
1.749446
 12
-0.098650
 22
-0.226172
 32
1.749446
 13
-0.094377
 23
-0.230142
 33
1.749190
 62
0
  0
3DFACE
  8
Sphere3
 10
-0.118060
 20
-0.265625
 30
1.749190
 11
-0.123649
 21
-0.263628
 31
1.749446
 12
-0.112992
 22
-0.243667
 32
1.749446
 13
-0.107964
 23
-0.246716
 33
1.749190
 62
0
  0
3DFACE
  8
Sphere3
 10
-0.124277
 20
-0.286143
 30
1.749190
 11
-0.130211
 21
-0.285286
 31
1.749446
 12
-0.123649
 22
-0.263628
 32
1.749446
 13
-0.118060
 23
-0.265625
 33
1.749190
 62
0
  0
3DFACE
  8
Sphere3
 10
-0.126376
 20
-0.307481
 30
1.749190
 11
-0.132427
 21
-0.307810
 31
1.749446
 12
-0.130211
 22
-0.285286
 32
1.749446
 13
-0.124277
 23
-0.286143
 33
1.749190
 62
0
  0
3DFACE
  8
Sphere3
 10
-0.124277
 20
-0.328819
 30
1.749190
 11
-0.130211
 21
-0.330334
 31
1.749446
 12
-0.132427
 22
-0.307810
 32
1.749446
 13
-0.126376
 23
-0.307481
 33
1.749190
 62
0
  0
3DFACE
  8
Sphere3
 10
-0.118060
 20
-0.349336
 30
1.749190
 11
-0.123649
 21
-0.351992
 31
1.749446
 12
-0.130211
 22
-0.330334
 32
1.749446
 13
-0.124277
 23
-0.328819
 33
1.749190
 62
0
  0
3DFACE
  8
Sphere3
 10
-0.107964
 20
-0.368246
 30
1.749190
 11
-0.112992
 21
-0.371952
 31
1.749446
 12
-0.123649
 22
-0.351992
 32
1.749446
 13
-0.118060
 23
-0.349336
 33
1.749190
 62
0
  0
3DFACE
  8
Sphere3
 10
-0.094377
 20
-0.384820
 30
1.749190
 11
-0.098650
 21
-0.389448
 31
1.749446
 12
-0.112992
 22
-0.371952
 32
1.749446
 13
-0.107964
 23
-0.368246
 33
1.749190
 62
0
  0
3DFACE
  8
Sphere3
 10
-0.077822
 20
-0.398422
 30
1.749190
 11
-0.081174
 21
-0.403806
 31
1.749446
 12
-0.098650
 22
-0.389448
 32
1.749446
 13
-0.094377
 23
-0.384820
 33
1.749190
 62
0
  0
3DFACE
  8
Sphere3
 10
-0.058934
 20
-0.408529
 30
1.749190
 11
-0.061237
 21
-0.414475
 31
1.749446
 12
-0.081174
 22
-0.403806
 32
1.749446
 13
-0.077822
 23
-0.398422
 33
1.749190
 62
0
  0
3DFACE
  8
Sphere3
 10
-0.038439
 20
-0.414753
 30
1.749190
 11
-0.039603
 21
-0.421045
 31
1.749446
 12
-0.061237
 22
-0.414475
 32
1.749446
 13
-0.058934
 23
-0.408529
 33
1.749190
 62
0
  0
3DFACE
  8
Sphere3
 10
-0.017126
 20
-0.416855
 30
1.749190
 11
-0.017105
 21
-0.423263
 31
1.749446
 12
-0.039603
 22
-0.421045
 32
1.749446
 13
-0.038439
 23
-0.414753
 33
1.749190
 62
0
  0
3DFACE
  8
Sphere3
 10
0.004188
 20
-0.414753
 30
1.749190
 11
0.005394
 21
-0.421045
 31
1.749446
 12
-0.017105
 22
-0.423263
 32
1.749446
 13
-0.017126
 23
-0.416855
 33
1.749190
 62
0
  0
3DFACE
  8
Sphere3
 10
0.024683
 20
-0.408529
 30
1.749190
 11
0.027027
 21
-0.414475
 31
1.749446
 12
0.005394
 22
-0.421045
 32
1.749446
 13
0.004188
 23
-0.414753
 33
1.749190
 62
0
  0
3DFACE
  8
Sphere3
 10
0.043570
 20
-0.398422
 30
1.749190
 11
0.046965
 21
-0.403806
 31
1.749446
 12
0.027027
 22
-0.414475
 32
1.749446
 13
0.024683
 23
-0.408529
 33
1.749190
 62
0
  0
3DFACE
  8
Sphere3
 10
0.060126
 20
-0.384820
 30
1.749190
 11
0.064441
 21
-0.389448
 31
1.749446
 12
0.046965
 22
-0.403806
 32
1.749446
 13
0.043570
 23
-0.398422
 33
1.749190
 62
0
  0
3DFACE
  8
Sphere3
 10
0.073712
 20
-0.368246
 30
1.749190
 11
0.078782
 21
-0.371952
 31
1.749446
 12
0.064441
 22
-0.389448
 32
1.749446
 13
0.060126
 23
-0.384820
 33
1.749190
 62
0
  0
3DFACE
  8
Sphere3
 10
0.083808
 20
-0.349336
 30
1.749190
 11
0.089439
 21
-0.351992
 31
1.749446
 12
0.078782
 22
-0.371952
 32
1.749446
 13
0.073712
 23
-0.368246
 33
1.749190
 62
0
  0
3DFACE
  8
Sphere3
 10
0.090025
 20
-0.328819
 30
1.749190
 11
0.096002
 21
-0.330334
 31
1.749446
 12
0.089439
 22
-0.351992
 32
1.749446
 13
0.083808
 23
-0.349336
 33
1.749190
 62
0
  0
3DFACE
  8
Sphere3
 10
0.092184
 20
-0.307152
 30
1.746302
 11
0.092124
 21
-0.307481
 31
1.749190
 12
0.090025
 22
-0.328819
 32
1.749190
 13
0.090083
 23
-0.328568
 33
1.746302
 62
0
  0
3DFACE
  8
Sphere3
 10
0.090083
 20
-0.285735
 30
1.746302
 11
0.090025
 21
-0.286143
 31
1.749190
 12
0.092124
 22
-0.307481
 32
1.749190
 13
0.092184
 23
-0.307152
 33
1.746302
 62
0
  0
3DFACE
  8
Sphere3
 10
0.083861
 20
-0.265142
 30
1.746302
 11
0.083808
 21
-0.265625
 31
1.749190
 12
0.090025
 22
-0.286143
 32
1.749190
 13
0.090083
 23
-0.285735
 33
1.746302
 62
0
  0
3DFACE
  8
Sphere3
 10
0.073758
 20
-0.246164
 30
1.746302
 11
0.073712
 21
-0.246716
 31
1.749190
 12
0.083808
 22
-0.265625
 32
1.749190
 13
0.083861
 23
-0.265142
 33
1.746302
 62
0
  0
3DFACE
  8
Sphere3
 10
0.060161
 20
-0.229529
 30
1.746302
 11
0.060126
 21
-0.230142
 31
1.749190
 12
0.073712
 22
-0.246716
 32
1.749190
 13
0.073758
 23
-0.246164
 33
1.746302
 62
0
  0
3DFACE
  8
Sphere3
 10
0.043594
 20
-0.215876
 30
1.746302
 11
0.043570
 21
-0.216539
 31
1.749190
 12
0.060126
 22
-0.230142
 32
1.749190
 13
0.060161
 23
-0.229529
 33
1.746302
 62
0
  0
3DFACE
  8
Sphere3
 10
0.024692
 20
-0.205732
 30
1.746302
 11
0.024683
 21
-0.206432
 31
1.749190
 12
0.043570
 22
-0.216539
 32
1.749190
 13
0.043594
 23
-0.215876
 33
1.746302
 62
0
  0
3DFACE
  8
Sphere3
 10
0.004182
 20
-0.199485
 30
1.746302
 11
0.004188
 21
-0.200208
 31
1.749190
 12
0.024683
 22
-0.206432
 32
1.749190
 13
0.024692
 23
-0.205732
 33
1.746302
 62
0
  0
3DFACE
  8
Sphere3
 10
-0.017147
 20
-0.197376
 30
1.746302
 11
-0.017126
 21
-0.198107
 31
1.749190
 12
0.004188
 22
-0.200208
 32
1.749190
 13
0.004182
 23
-0.199485
 33
1.746302
 62
0
  0
3DFACE
  8
Sphere3
 10
-0.038477
 20
-0.199485
 30
1.746302
 11
-0.038439
 21
-0.200208
 31
1.749190
 12
-0.017126
 22
-0.198107
 32
1.749190
 13
-0.017147
 23
-0.197376
 33
1.746302
 62
0
  0
3DFACE
  8
Sphere3
 10
-0.058987
 20
-0.205732
 30
1.746302
 11
-0.058934
 21
-0.206432
 31
1.749190
 12
-0.038439
 22
-0.200208
 32
1.749190
 13
-0.038477
 23
-0.199485
 33
1.746302
 62
0
  0
3DFACE
  8
Sphere3
 10
-0.077888
 20
-0.215876
 30
1.746302
 11
-0.077822
 21
-0.216539
 31
1.749190
 12
-0.058934
 22
-0.206432
 32
1.749190
 13
-0.058987
 23
-0.205732
 33
1.746302
 62
0
  0
3DFACE
  8
Sphere3
 10
-0.094456
 20
-0.229529
 30
1.746302
 11
-0.094377
 21
-0.230142
 31
1.749190
 12
-0.077822
 22
-0.216539
 32
1.749190
 13
-0.077888
 23
-0.215876
 33
1.746302
 62
0
  0
3DFACE
  8
Sphere3
 10
-0.108053
 20
-0.246164
 30
1.746302
 11
-0.107964
 21
-0.246716
 31
1.749190
 12
-0.094377
 22
-0.230142
 32
1.749190
 13
-0.094456
 23
-0.229529
 33
1.746302
 62
0
  0
3DFACE
  8
Sphere3
 10
-0.118156
 20
-0.265142
 30
1.746302
 11
-0.118060
 21
-0.265625
 31
1.749190
 12
-0.107964
 22
-0.246716
 32
1.749190
 13
-0.108053
 23
-0.246164
 33
1.746302
 62
0
  0
3DFACE
  8
Sphere3
 10
-0.124378
 20
-0.285735
 30
1.746302
 11
-0.124277
 21
-0.286143
 31
1.749190
 12
-0.118060
 22
-0.265625
 32
1.749190
 13
-0.118156
 23
-0.265142
 33
1.746302
 62
0
  0
3DFACE
  8
Sphere3
 10
-0.126478
 20
-0.307152
 30
1.746302
 11
-0.126376
 21
-0.307481
 31
1.749190
 12
-0.124277
 22
-0.286143
 32
1.749190
 13
-0.124378
 23
-0.285735
 33
1.746302
 62
0
  0
3DFACE
  8
Sphere3
 10
-0.124378
 20
-0.328568
 30
1.746302
 11
-0.124277
 21
-0.328819
 31
1.749190
 12
-0.126376
 22
-0.307481
 32
1.749190
 13
-0.126478
 23
-0.307152
 33
1.746302
 62
0
  0
3DFACE
  8
Sphere3
 10
-0.118156
 20
-0.349161
 30
1.746302
 11
-0.118060
 21
-0.349336
 31
1.749190
 12
-0.124277
 22
-0.328819
 32
1.749190
 13
-0.124378
 23
-0.328568
 33
1.746302
 62
0
  0
3DFACE
  8
Sphere3
 10
-0.108053
 20
-0.368140
 30
1.746302
 11
-0.107964
 21
-0.368246
 31
1.749190
 12
-0.118060
 22
-0.349336
 32
1.749190
 13
-0.118156
 23
-0.349161
 33
1.746302
 62
0
  0
3DFACE
  8
Sphere3
 10
-0.094456
 20
-0.384775
 30
1.746302
 11
-0.094377
 21
-0.384820
 31
1.749190
 12
-0.107964
 22
-0.368246
 32
1.749190
 13
-0.108053
 23
-0.368140
 33
1.746302
 62
0
  0
3DFACE
  8
Sphere3
 10
-0.077888
 20
-0.398427
 30
1.746302
 11
-0.077822
 21
-0.398422
 31
1.749190
 12
-0.094377
 22
-0.384820
 32
1.749190
 13
-0.094456
 23
-0.384775
 33
1.746302
 62
0
  0
3DFACE
  8
Sphere3
 10
-0.058987
 20
-0.408571
 30
1.746302
 11
-0.058934
 21
-0.408529
 31
1.749190
 12
-0.077822
 22
-0.398422
 32
1.749190
 13
-0.077888
 23
-0.398427
 33
1.746302
 62
0
  0
3DFACE
  8
Sphere3
 10
-0.038477
 20
-0.414818
 30
1.746302
 11
-0.038439
 21
-0.414753
 31
1.749190
 12
-0.058934
 22
-0.408529
 32
1.749190
 13
-0.058987
 23
-0.408571
 33
1.746302
 62
0
  0
3DFACE
  8
Sphere3
 10
-0.017147
 20
-0.416927
 30
1.746302
 11
-0.017126
 21
-0.416855
 31
1.749190
 12
-0.038439
 22
-0.414753
 32
1.749190
 13
-0.038477
 23
-0.414818
 33
1.746302
 62
0
  0
3DFACE
  8
Sphere3
 10
0.004182
 20
-0.414818
 30
1.746302
 11
0.004188
 21
-0.414753
 31
1.749190
 12
-0.017126
 22
-0.416855
 32
1.749190
 13
-0.017147
 23
-0.416927
 33
1.746302
 62
0
  0
3DFACE
  8
Sphere3
 10
0.024692
 20
-0.408571
 30
1.746302
 11
0.024683
 21
-0.408529
 31
1.749190
 12
0.004188
 22
-0.414753
 32
1.749190
 13
0.004182
 23
-0.414818
 33
1.746302
 62
0
  0
3DFACE
  8
Sphere3
 10
0.043594
 20
-0.398427
 30
1.746302
 11
0.043570
 21
-0.398422
 31
1.749190
 12
0.024683
 22
-0.408529
 32
1.749190
 13
0.024692
 23
-0.408571
 33
1.746302
 62
0
  0
3DFACE
  8
Sphere3
 10
0.060161
 20
-0.384775
 30
1.746302
 11
0.060126
 21
-0.384820
 31
1.749190
 12
0.043570
 22
-0.398422
 32
1.749190
 13
0.043594
 23
-0.398427
 33
1.746302
 62
0
  0
3DFACE
  8
Sphere3
 10
0.073758
 20
-0.368140
 30
1.746302
 11
0.073712
 21
-0.368246
 31
1.749190
 12
0.060126
 22
-0.384820
 32
1.749190
 13
0.060161
 23
-0.384775
 33
1.746302
 62
0
  0
3DFACE
  8
Sphere3
 10
0.083861
 20
-0.349161
 30
1.746302
 11
0.083808
 21
-0.349336
 31
1.749190
 12
0.073712
 22
-0.368246
 32
1.749190
 13
0.073758
 23
-0.368140
 33
1.746302
 62
0
  0
3DFACE
  8
Sphere3
 10
0.090083
 20
-0.328568
 30
1.746302
 11
0.090025
 21
-0.328819
 31
1.749190
 12
0.083808
 22
-0.349336
 32
1.749190
 13
0.083861
 23
-0.349161
 33
1.746302
 62
0
  0
3DFACE
  8
Sphere3
 10
0.091918
 20
-0.307152
 30
0.193527
 11
0.092184
 21
-0.307152
 31
1.746302
 12
0.090083
 22
-0.328568
 32
1.746302
 13
0.089822
 23
-0.328584
 33
0.193527
 62
0
  0
3DFACE
  8
Sphere3
 10
0.089822
 20
-0.285719
 30
0.193527
 11
0.090083
 21
-0.285735
 31
1.746302
 12
0.092184
 22
-0.307152
 32
1.746302
 13
0.091918
 23
-0.307152
 33
0.193527
 62
0
  0
3DFACE
  8
Sphere3
 10
0.083614
 20
-0.265110
 30
0.193527
 11
0.083861
 21
-0.265142
 31
1.746302
 12
0.090083
 22
-0.285735
 32
1.746302
 13
0.089822
 23
-0.285719
 33
0.193527
 62
0
  0
3DFACE
  8
Sphere3
 10
0.073532
 20
-0.246116
 30
0.193527
 11
0.073758
 21
-0.246164
 31
1.746302
 12
0.083861
 22
-0.265142
 32
1.746302
 13
0.083614
 23
-0.265110
 33
0.193527
 62
0
  0
3DFACE
  8
Sphere3
 10
0.059965
 20
-0.229468
 30
0.193527
 11
0.060161
 21
-0.229529
 31
1.746302
 12
0.073758
 22
-0.246164
 32
1.746302
 13
0.073532
 23
-0.246116
 33
0.193527
 62
0
  0
3DFACE
  8
Sphere3
 10
0.043433
 20
-0.215806
 30
0.193527
 11
0.043594
 21
-0.215876
 31
1.746302
 12
0.060161
 22
-0.229529
 32
1.746302
 13
0.059965
 23
-0.229468
 33
0.193527
 62
0
  0
3DFACE
  8
Sphere3
 10
0.024572
 20
-0.205654
 30
0.193527
 11
0.024692
 21
-0.205732
 31
1.746302
 12
0.043594
 22
-0.215876
 32
1.746302
 13
0.043433
 23
-0.215806
 33
0.193527
 62
0
  0
3DFACE
  8
Sphere3
 10
0.004106
 20
-0.199402
 30
0.193527
 11
0.004182
 21
-0.199485
 31
1.746302
 12
0.024692
 22
-0.205732
 32
1.746302
 13
0.024572
 23
-0.205654
 33
0.193527
 62
0
  0
3DFACE
  8
Sphere3
 10
-0.017178
 20
-0.197291
 30
0.193527
 11
-0.017147
 21
-0.197376
 31
1.746302
 12
0.004182
 22
-0.199485
 32
1.746302
 13
0.004106
 23
-0.199402
 33
0.193527
 62
0
  0
3DFACE
  8
Sphere3
 10
-0.038461
 20
-0.199402
 30
0.193527
 11
-0.038477
 21
-0.199485
 31
1.746302
 12
-0.017147
 22
-0.197376
 32
1.746302
 13
-0.017178
 23
-0.197291
 33
0.193527
 62
0
  0
3DFACE
  8
Sphere3
 10
-0.058927
 20
-0.205654
 30
0.193527
 11
-0.058987
 21
-0.205732
 31
1.746302
 12
-0.038477
 22
-0.199485
 32
1.746302
 13
-0.038461
 23
-0.199402
 33
0.193527
 62
0
  0
3DFACE
  8
Sphere3
 10
-0.077788
 20
-0.215806
 30
0.193527
 11
-0.077888
 21
-0.215876
 31
1.746302
 12
-0.058987
 22
-0.205732
 32
1.746302
 13
-0.058927
 23
-0.205654
 33
0.193527
 62
0
  0
3DFACE
  8
Sphere3
 10
-0.094320
 20
-0.229468
 30
0.193527
 11
-0.094456
 21
-0.229529
 31
1.746302
 12
-0.077888
 22
-0.215876
 32
1.746302
 13
-0.077788
 23
-0.215806
 33
0.193527
 62
0
  0
3DFACE
  8
Sphere3
 10
-0.107888
 20
-0.246116
 30
0.193527
 11
-0.108053
 21
-0.246164
 31
1.746302
 12
-0.094456
 22
-0.229529
 32
1.746302
 13
-0.094320
 23
-0.229468
 33
0.193527
 62
0
  0
3DFACE
  8
Sphere3
 10
-0.117969
 20
-0.265110
 30
0.193527
 11
-0.118156
 21
-0.265142
 31
1.746302
 12
-0.108053
 22
-0.246164
 32
1.746302
 13
-0.107888
 23
-0.246116
 33
0.193527
 62
0
  0
3DFACE
  8
Sphere3
 10
-0.124178
 20
-0.285719
 30
0.193527
 11
-0.124378
 21
-0.285735
 31
1.746302
 12
-0.118156
 22
-0.265142
 32
1.746302
 13
-0.117969
 23
-0.265110
 33
0.193527
 62
0
  0
3DFACE
  8
Sphere3
 10
-0.126274
 20
-0.307152
 30
0.193527
 11
-0.126478
 21
-0.307152
 31
1.746302
 12
-0.124378
 22
-0.285735
 32
1.746302
 13
-0.124178
 23
-0.285719
 33
0.193527
 62
0
  0
3DFACE
  8
Sphere3
 10
-0.124178
 20
-0.328584
 30
0.193527
 11
-0.124378
 21
-0.328568
 31
1.746302
 12
-0.126478
 22
-0.307152
 32
1.746302
 13
-0.126274
 23
-0.307152
 33
0.193527
 62
0
  0
3DFACE
  8
Sphere3
 10
-0.117969
 20
-0.349194
 30
0.193527
 11
-0.118156
 21
-0.349161
 31
1.746302
 12
-0.124378
 22
-0.328568
 32
1.746302
 13
-0.124178
 23
-0.328584
 33
0.193527
 62
0
  0
3DFACE
  8
Sphere3
 10
-0.107888
 20
-0.368187
 30
0.193527
 11
-0.108053
 21
-0.368140
 31
1.746302
 12
-0.118156
 22
-0.349161
 32
1.746302
 13
-0.117969
 23
-0.349194
 33
0.193527
 62
0
  0
3DFACE
  8
Sphere3
 10
-0.094320
 20
-0.384835
 30
0.193527
 11
-0.094456
 21
-0.384775
 31
1.746302
 12
-0.108053
 22
-0.368140
 32
1.746302
 13
-0.107888
 23
-0.368187
 33
0.193527
 62
0
  0
3DFACE
  8
Sphere3
 10
-0.077788
 20
-0.398498
 30
0.193527
 11
-0.077888
 21
-0.398427
 31
1.746302
 12
-0.094456
 22
-0.384775
 32
1.746302
 13
-0.094320
 23
-0.384835
 33
0.193527
 62
0
  0
3DFACE
  8
Sphere3
 10
-0.058927
 20
-0.408650
 30
0.193527
 11
-0.058987
 21
-0.408571
 31
1.746302
 12
-0.077888
 22
-0.398427
 32
1.746302
 13
-0.077788
 23
-0.398498
 33
0.193527
 62
0
  0
3DFACE
  8
Sphere3
 10
-0.038461
 20
-0.414901
 30
0.193527
 11
-0.038477
 21
-0.414818
 31
1.746302
 12
-0.058987
 22
-0.408571
 32
1.746302
 13
-0.058927
 23
-0.408650
 33
0.193527
 62
0
  0
3DFACE
  8
Sphere3
 10
-0.017178
 20
-0.417012
 30
0.193527
 11
-0.017147
 21
-0.416927
 31
1.746302
 12
-0.038477
 22
-0.414818
 32
1.746302
 13
-0.038461
 23
-0.414901
 33
0.193527
 62
0
  0
3DFACE
  8
Sphere3
 10
0.004106
 20
-0.414901
 30
0.193527
 11
0.004182
 21
-0.414818
 31
1.746302
 12
-0.017147
 22
-0.416927
 32
1.746302
 13
-0.017178
 23
-0.417012
 33
0.193527
 62
0
  0
3DFACE
  8
Sphere3
 10
0.024572
 20
-0.408650
 30
0.193527
 11
0.024692
 21
-0.408571
 31
1.746302
 12
0.004182
 22
-0.414818
 32
1.746302
 13
0.004106
 23
-0.414901
 33
0.193527
 62
0
  0
3DFACE
  8
Sphere3
 10
0.043433
 20
-0.398498
 30
0.193527
 11
0.043594
 21
-0.398427
 31
1.746302
 12
0.024692
 22
-0.408571
 32
1.746302
 13
0.024572
 23
-0.408650
 33
0.193527
 62
0
  0
3DFACE
  8
Sphere3
 10
0.059965
 20
-0.384835
 30
0.193527
 11
0.060161
 21
-0.384775
 31
1.746302
 12
0.043594
 22
-0.398427
 32
1.746302
 13
0.043433
 23
-0.398498
 33
0.193527
 62
0
  0
3DFACE
  8
Sphere3
 10
0.073532
 20
-0.368187
 30
0.193527
 11
0.073758
 21
-0.368140
 31
1.746302
 12
0.060161
 22
-0.384775
 32
1.746302
 13
0.059965
 23
-0.384835
 33
0.193527
 62
0
  0
3DFACE
  8
Sphere3
 10
0.083614
 20
-0.349194
 30
0.193527
 11
0.083861
 21
-0.349161
 31
1.746302
 12
0.073758
 22
-0.368140
 32
1.746302
 13
0.073532
 23
-0.368187
 33
0.193527
 62
0
  0
3DFACE
  8
Sphere3
 10
0.089822
 20
-0.328584
 30
0.193527
 11
0.090083
 21
-0.328568
 31
1.746302
 12
0.083861
 22
-0.349161
 32
1.746302
 13
0.083614
 23
-0.349194
 33
0.193527
 62
0
  0
3DFACE
  8
Sphere3
 10
0.087676
 20
-0.307152
 30
0.171046
 11
0.091918
 21
-0.307152
 31
0.193527
 12
0.089822
 22
-0.328584
 32
0.193527
 13
0.085660
 23
-0.327816
 33
0.171046
 62
0
  0
3DFACE
  8
Sphere3
 10
0.085660
 20
-0.286487
 30
0.171046
 11
0.089822
 21
-0.285719
 31
0.193527
 12
0.091918
 22
-0.307152
 32
0.193527
 13
0.087676
 23
-0.307152
 33
0.171046
 62
0
  0
3DFACE
  8
Sphere3
 10
0.079692
 20
-0.266617
 30
0.171046
 11
0.083614
 21
-0.265110
 31
0.193527
 12
0.089822
 22
-0.285719
 32
0.193527
 13
0.085660
 23
-0.286487
 33
0.171046
 62
0
  0
3DFACE
  8
Sphere3
 10
0.070000
 20
-0.248305
 30
0.171046
 11
0.073532
 21
-0.246116
 31
0.193527
 12
0.083614
 22
-0.265110
 32
0.193527
 13
0.079692
 23
-0.266617
 33
0.171046
 62
0
  0
3DFACE
  8
Sphere3
 10
0.056958
 20
-0.232253
 30
0.171046
 11
0.059965
 21
-0.229468
 31
0.193527
 12
0.073532
 22
-0.246116
 32
0.193527
 13
0.070000
 23
-0.248305
 33
0.171046
 62
0
  0
3DFACE
  8
Sphere3
 10
0.041065
 20
-0.219081
 30
0.171046
 11
0.043433
 21
-0.215806
 31
0.193527
 12
0.059965
 22
-0.229468
 32
0.193527
 13
0.056958
 23
-0.232253
 33
0.171046
 62
0
  0
3DFACE
  8
Sphere3
 10
0.022933
 20
-0.209292
 30
0.171046
 11
0.024572
 21
-0.205654
 31
0.193527
 12
0.043433
 22
-0.215806
 32
0.193527
 13
0.041065
 23
-0.219081
 33
0.171046
 62
0
  0
3DFACE
  8
Sphere3
 10
0.003258
 20
-0.203265
 30
0.171046
 11
0.004106
 21
-0.199402
 31
0.193527
 12
0.024572
 22
-0.205654
 32
0.193527
 13
0.022933
 23
-0.209292
 33
0.171046
 62
0
  0
3DFACE
  8
Sphere3
 10
-0.017202
 20
-0.201230
 30
0.171046
 11
-0.017178
 21
-0.197291
 31
0.193527
 12
0.004106
 22
-0.199402
 32
0.193527
 13
0.003258
 23
-0.203265
 33
0.171046
 62
0
  0
3DFACE
  8
Sphere3
 10
-0.037663
 20
-0.203265
 30
0.171046
 11
-0.038461
 21
-0.199402
 31
0.193527
 12
-0.017178
 22
-0.197291
 32
0.193527
 13
-0.017202
 23
-0.201230
 33
0.171046
 62
0
  0
3DFACE
  8
Sphere3
 10
-0.057337
 20
-0.209292
 30
0.171046
 11
-0.058927
 21
-0.205654
 31
0.193527
 12
-0.038461
 22
-0.199402
 32
0.193527
 13
-0.037663
 23
-0.203265
 33
0.171046
 62
0
  0
3DFACE
  8
Sphere3
 10
-0.075469
 20
-0.219081
 30
0.171046
 11
-0.077788
 21
-0.215806
 31
0.193527
 12
-0.058927
 22
-0.205654
 32
0.193527
 13
-0.057337
 23
-0.209292
 33
0.171046
 62
0
  0
3DFACE
  8
Sphere3
 10
-0.091362
 20
-0.232253
 30
0.171046
 11
-0.094320
 21
-0.229468
 31
0.193527
 12
-0.077788
 22
-0.215806
 32
0.193527
 13
-0.075469
 23
-0.219081
 33
0.171046
 62
0
  0
3DFACE
  8
Sphere3
 10
-0.104405
 20
-0.248305
 30
0.171046
 11
-0.107888
 21
-0.246116
 31
0.193527
 12
-0.094320
 22
-0.229468
 32
0.193527
 13
-0.091362
 23
-0.232253
 33
0.171046
 62
0
  0
3DFACE
  8
Sphere3
 10
-0.114096
 20
-0.266617
 30
0.171046
 11
-0.117969
 21
-0.265110
 31
0.193527
 12
-0.107888
 22
-0.246116
 32
0.193527
 13
-0.104405
 23
-0.248305
 33
0.171046
 62
0
  0
3DFACE
  8
Sphere3
 10
-0.120065
 20
-0.286487
 30
0.171046
 11
-0.124178
 21
-0.285719
 31
0.193527
 12
-0.117969
 22
-0.265110
 32
0.193527
 13
-0.114096
 23
-0.266617
 33
0.171046
 62
0
  0
3DFACE
  8
Sphere3
 10
-0.122080
 20
-0.307152
 30
0.171046
 11
-0.126274
 21
-0.307152
 31
0.193527
 12
-0.124178
 22
-0.285719
 32
0.193527
 13
-0.120065
 23
-0.286487
 33
0.171046
 62
0
  0
3DFACE
  8
Sphere3
 10
-0.120065
 20
-0.327816
 30
0.171046
 11
-0.124178
 21
-0.328584
 31
0.193527
 12
-0.126274
 22
-0.307152
 32
0.193527
 13
-0.122080
 23
-0.307152
 33
0.171046
 62
0
  0
3DFACE
  8
Sphere3
 10
-0.114096
 20
-0.347686
 30
0.171046
 11
-0.117969
 21
-0.349194
 31
0.193527
 12
-0.124178
 22
-0.328584
 32
0.193527
 13
-0.120065
 23
-0.327816
 33
0.171046
 62
0
  0
3DFACE
  8
Sphere3
 10
-0.104405
 20
-0.365999
 30
0.171046
 11
-0.107888
 21
-0.368187
 31
0.193527
 12
-0.117969
 22
-0.349194
 32
0.193527
 13
-0.114096
 23
-0.347686
 33
0.171046
 62
0
  0
3DFACE
  8
Sphere3
 10
-0.091362
 20
-0.382050
 30
0.171046
 11
-0.094320
 21
-0.384835
 31
0.193527
 12
-0.107888
 22
-0.368187
 32
0.193527
 13
-0.104405
 23
-0.365999
 33
0.171046
 62
0
  0
3DFACE
  8
Sphere3
 10
-0.075469
 20
-0.395223
 30
0.171046
 11
-0.077788
 21
-0.398498
 31
0.193527
 12
-0.094320
 22
-0.384835
 32
0.193527
 13
-0.091362
 23
-0.382050
 33
0.171046
 62
0
  0
3DFACE
  8
Sphere3
 10
-0.057337
 20
-0.405011
 30
0.171046
 11
-0.058927
 21
-0.408650
 31
0.193527
 12
-0.077788
 22
-0.398498
 32
0.193527
 13
-0.075469
 23
-0.395223
 33
0.171046
 62
0
  0
3DFACE
  8
Sphere3
 10
-0.037663
 20
-0.411038
 30
0.171046
 11
-0.038461
 21
-0.414901
 31
0.193527
 12
-0.058927
 22
-0.408650
 32
0.193527
 13
-0.057337
 23
-0.405011
 33
0.171046
 62
0
  0
3DFACE
  8
Sphere3
 10
-0.017202
 20
-0.413074
 30
0.171046
 11
-0.017178
 21
-0.417012
 31
0.193527
 12
-0.038461
 22
-0.414901
 32
0.193527
 13
-0.037663
 23
-0.411038
 33
0.171046
 62
0
  0
3DFACE
  8
Sphere3
 10
0.003258
 20
-0.411038
 30
0.171046
 11
0.004106
 21
-0.414901
 31
0.193527
 12
-0.017178
 22
-0.417012
 32
0.193527
 13
-0.017202
 23
-0.413074
 33
0.171046
 62
0
  0
3DFACE
  8
Sphere3
 10
0.022933
 20
-0.405011
 30
0.171046
 11
0.024572
 21
-0.408650
 31
0.193527
 12
0.004106
 22
-0.414901
 32
0.193527
 13
0.003258
 23
-0.411038
 33
0.171046
 62
0
  0
3DFACE
  8
Sphere3
 10
0.041065
 20
-0.395223
 30
0.171046
 11
0.043433
 21
-0.398498
 31
0.193527
 12
0.024572
 22
-0.408650
 32
0.193527
 13
0.022933
 23
-0.405011
 33
0.171046
 62
0
  0
3DFACE
  8
Sphere3
 10
0.056958
 20
-0.382050
 30
0.171046
 11
0.059965
 21
-0.384835
 31
0.193527
 12
0.043433
 22
-0.398498
 32
0.193527
 13
0.041065
 23
-0.395223
 33
0.171046
 62
0
  0
3DFACE
  8
Sphere3
 10
0.070000
 20
-0.365999
 30
0.171046
 11
0.073532
 21
-0.368187
 31
0.193527
 12
0.059965
 22
-0.384835
 32
0.193527
 13
0.056958
 23
-0.382050
 33
0.171046
 62
0
  0
3DFACE
  8
Sphere3
 10
0.079692
 20
-0.347686
 30
0.171046
 11
0.083614
 21
-0.349194
 31
0.193527
 12
0.073532
 22
-0.368187
 32
0.193527
 13
0.070000
 23
-0.365999
 33
0.171046
 62
0
  0
3DFACE
  8
Sphere3
 10
0.085660
 20
-0.327816
 30
0.171046
 11
0.089822
 21
-0.328584
 31
0.193527
 12
0.083614
 22
-0.349194
 32
0.193527
 13
0.079692
 23
-0.347686
 33
0.171046
 62
0
  0
3DFACE
  8
Sphere3
 10
0.080401
 20
-0.307152
 30
0.149058
 11
0.087676
 21
-0.307152
 31
0.171046
 12
0.085660
 22
-0.327816
 32
0.171046
 13
0.078526
 23
-0.326444
 33
0.149058
 62
0
  0
3DFACE
  8
Sphere3
 10
0.078526
 20
-0.287859
 30
0.149058
 11
0.085660
 21
-0.286487
 31
0.171046
 12
0.087676
 22
-0.307152
 32
0.171046
 13
0.080401
 23
-0.307152
 33
0.149058
 62
0
  0
3DFACE
  8
Sphere3
 10
0.072970
 20
-0.269309
 30
0.149058
 11
0.079692
 21
-0.266617
 31
0.171046
 12
0.085660
 22
-0.286487
 32
0.171046
 13
0.078526
 23
-0.287859
 33
0.149058
 62
0
  0
3DFACE
  8
Sphere3
 10
0.063948
 20
-0.252212
 30
0.149058
 11
0.070000
 21
-0.248305
 31
0.171046
 12
0.079692
 22
-0.266617
 32
0.171046
 13
0.072970
 23
-0.269309
 33
0.149058
 62
0
  0
3DFACE
  8
Sphere3
 10
0.051807
 20
-0.237227
 30
0.149058
 11
0.056958
 21
-0.232253
 31
0.171046
 12
0.070000
 22
-0.248305
 32
0.171046
 13
0.063948
 23
-0.252212
 33
0.149058
 62
0
  0
3DFACE
  8
Sphere3
 10
0.037013
 20
-0.224929
 30
0.149058
 11
0.041065
 21
-0.219081
 31
0.171046
 12
0.056958
 22
-0.232253
 32
0.171046
 13
0.051807
 23
-0.237227
 33
0.149058
 62
0
  0
3DFACE
  8
Sphere3
 10
0.020134
 20
-0.215790
 30
0.149058
 11
0.022933
 21
-0.209292
 31
0.171046
 12
0.041065
 22
-0.219081
 32
0.171046
 13
0.037013
 23
-0.224929
 33
0.149058
 62
0
  0
3DFACE
  8
Sphere3
 10
0.001820
 20
-0.210163
 30
0.149058
 11
0.003258
 21
-0.203265
 31
0.171046
 12
0.022933
 22
-0.209292
 32
0.171046
 13
0.020134
 23
-0.215790
 33
0.149058
 62
0
  0
3DFACE
  8
Sphere3
 10
-0.017226
 20
-0.208263
 30
0.149058
 11
-0.017202
 21
-0.201230
 31
0.171046
 12
0.003258
 22
-0.203265
 32
0.171046
 13
0.001820
 23
-0.210163
 33
0.149058
 62
0
  0
3DFACE
  8
Sphere3
 10
-0.036273
 20
-0.210163
 30
0.149058
 11
-0.037663
 21
-0.203265
 31
0.171046
 12
-0.017202
 22
-0.201230
 32
0.171046
 13
-0.017226
 23
-0.208263
 33
0.149058
 62
0
  0
3DFACE
  8
Sphere3
 10
-0.054587
 20
-0.215790
 30
0.149058
 11
-0.057337
 21
-0.209292
 31
0.171046
 12
-0.037663
 22
-0.203265
 32
0.171046
 13
-0.036273
 23
-0.210163
 33
0.149058
 62
0
  0
3DFACE
  8
Sphere3
 10
-0.071466
 20
-0.224929
 30
0.149058
 11
-0.075469
 21
-0.219081
 31
0.171046
 12
-0.057337
 22
-0.209292
 32
0.171046
 13
-0.054587
 23
-0.215790
 33
0.149058
 62
0
  0
3DFACE
  8
Sphere3
 10
-0.086260
 20
-0.237227
 30
0.149058
 11
-0.091362
 21
-0.232253
 31
0.171046
 12
-0.075469
 22
-0.219081
 32
0.171046
 13
-0.071466
 23
-0.224929
 33
0.149058
 62
0
  0
3DFACE
  8
Sphere3
 10
-0.098401
 20
-0.252212
 30
0.149058
 11
-0.104405
 21
-0.248305
 31
0.171046
 12
-0.091362
 22
-0.232253
 32
0.171046
 13
-0.086260
 23
-0.237227
 33
0.149058
 62
0
  0
3DFACE
  8
Sphere3
 10
-0.107423
 20
-0.269309
 30
0.149058
 11
-0.114096
 21
-0.266617
 31
0.171046
 12
-0.104405
 22
-0.248305
 32
0.171046
 13
-0.098401
 23
-0.252212
 33
0.149058
 62
0
  0
3DFACE
  8
Sphere3
 10
-0.112979
 20
-0.287859
 30
0.149058
 11
-0.120065
 21
-0.286487
 31
0.171046
 12
-0.114096
 22
-0.266617
 32
0.171046
 13
-0.107423
 23
-0.269309
 33
0.149058
 62
0
  0
3DFACE
  8
Sphere3
 10
-0.114854
 20
-0.307152
 30
0.149058
 11
-0.122080
 21
-0.307152
 31
0.171046
 12
-0.120065
 22
-0.286487
 32
0.171046
 13
-0.112979
 23
-0.287859
 33
0.149058
 62
0
  0
3DFACE
  8
Sphere3
 10
-0.112979
 20
-0.326444
 30
0.149058
 11
-0.120065
 21
-0.327816
 31
0.171046
 12
-0.122080
 22
-0.307152
 32
0.171046
 13
-0.114854
 23
-0.307152
 33
0.149058
 62
0
  0
3DFACE
  8
Sphere3
 10
-0.107423
 20
-0.344995
 30
0.149058
 11
-0.114096
 21
-0.347686
 31
0.171046
 12
-0.120065
 22
-0.327816
 32
0.171046
 13
-0.112979
 23
-0.326444
 33
0.149058
 62
0
  0
3DFACE
  8
Sphere3
 10
-0.098401
 20
-0.362091
 30
0.149058
 11
-0.104405
 21
-0.365999
 31
0.171046
 12
-0.114096
 22
-0.347686
 32
0.171046
 13
-0.107423
 23
-0.344995
 33
0.149058
 62
0
  0
3DFACE
  8
Sphere3
 10
-0.086260
 20
-0.377077
 30
0.149058
 11
-0.091362
 21
-0.382050
 31
0.171046
 12
-0.104405
 22
-0.365999
 32
0.171046
 13
-0.098401
 23
-0.362091
 33
0.149058
 62
0
  0
3DFACE
  8
Sphere3
 10
-0.071466
 20
-0.389375
 30
0.149058
 11
-0.075469
 21
-0.395223
 31
0.171046
 12
-0.091362
 22
-0.382050
 32
0.171046
 13
-0.086260
 23
-0.377077
 33
0.149058
 62
0
  0
3DFACE
  8
Sphere3
 10
-0.054587
 20
-0.398513
 30
0.149058
 11
-0.057337
 21
-0.405011
 31
0.171046
 12
-0.075469
 22
-0.395223
 32
0.171046
 13
-0.071466
 23
-0.389375
 33
0.149058
 62
0
  0
3DFACE
  8
Sphere3
 10
-0.036273
 20
-0.404141
 30
0.149058
 11
-0.037663
 21
-0.411038
 31
0.171046
 12
-0.057337
 22
-0.405011
 32
0.171046
 13
-0.054587
 23
-0.398513
 33
0.149058
 62
0
  0
3DFACE
  8
Sphere3
 10
-0.017226
 20
-0.406041
 30
0.149058
 11
-0.017202
 21
-0.413074
 31
0.171046
 12
-0.037663
 22
-0.411038
 32
0.171046
 13
-0.036273
 23
-0.404141
 33
0.149058
 62
0
  0
3DFACE
  8
Sphere3
 10
0.001820
 20
-0.404141
 30
0.149058
 11
0.003258
 21
-0.411038
 31
0.171046
 12
-0.017202
 22
-0.413074
 32
0.171046
 13
-0.017226
 23
-0.406041
 33
0.149058
 62
0
  0
3DFACE
  8
Sphere3
 10
0.020134
 20
-0.398513
 30
0.149058
 11
0.022933
 21
-0.405011
 31
0.171046
 12
0.003258
 22
-0.411038
 32
0.171046
 13
0.001820
 23
-0.404141
 33
0.149058
 62
0
  0
3DFACE
  8
Sphere3
 10
0.037013
 20
-0.389375
 30
0.149058
 11
0.041065
 21
-0.395223
 31
0.171046
 12
0.022933
 22
-0.405011
 32
0.171046
 13
0.020134
 23
-0.398513
 33
0.149058
 62
0
  0
3DFACE
  8
Sphere3
 10
0.051807
 20
-0.377077
 30
0.149058
 11
0.056958
 21
-0.382050
 31
0.171046
 12
0.041065
 22
-0.395223
 32
0.171046
 13
0.037013
 23
-0.389375
 33
0.149058
 62
0
  0
3DFACE
  8
Sphere3
 10
0.063948
 20
-0.362091
 30
0.149058
 11
0.070000
 21
-0.365999
 31
0.171046
 12
0.056958
 22
-0.382050
 32
0.171046
 13
0.051807
 23
-0.377077
 33
0.149058
 62
0
  0
3DFACE
  8
Sphere3
 10
0.072970
 20
-0.344995
 30
0.149058
 11
0.079692
 21
-0.347686
 31
0.171046
 12
0.070000
 22
-0.365999
 32
0.171046
 13
0.063948
 23
-0.362091
 33
0.149058
 62
0
  0
3DFACE
  8
Sphere3
 10
0.078526
 20
-0.326444
 30
0.149058
 11
0.085660
 21
-0.327816
 31
0.171046
 12
0.079692
 22
-0.347686
 32
0.171046
 13
0.072970
 23
-0.344995
 33
0.149058
 62
0
  0
3DFACE
  8
Sphere3
 10
0.071080
 20
-0.307152
 30
0.129209
 11
0.080401
 21
-0.307152
 31
0.149058
 12
0.078526
 22
-0.326444
 32
0.149058
 13
0.069382
 23
-0.324658
 33
0.129209
 62
0
  0
3DFACE
  8
Sphere3
 10
0.069382
 20
-0.289646
 30
0.129209
 11
0.078526
 21
-0.287859
 31
0.149058
 12
0.080401
 22
-0.307152
 32
0.149058
 13
0.071080
 23
-0.307152
 33
0.129209
 62
0
  0
3DFACE
  8
Sphere3
 10
0.064356
 20
-0.272812
 30
0.129209
 11
0.072970
 21
-0.269309
 31
0.149058
 12
0.078526
 22
-0.287859
 32
0.149058
 13
0.069382
 23
-0.289646
 33
0.129209
 62
0
  0
3DFACE
  8
Sphere3
 10
0.056193
 20
-0.257298
 30
0.129209
 11
0.063948
 21
-0.252212
 31
0.149058
 12
0.072970
 22
-0.269309
 32
0.149058
 13
0.064356
 23
-0.272812
 33
0.129209
 62
0
  0
3DFACE
  8
Sphere3
 10
0.045208
 20
-0.243701
 30
0.129209
 11
0.051807
 21
-0.237227
 31
0.149058
 12
0.063948
 22
-0.252212
 32
0.149058
 13
0.056193
 23
-0.257298
 33
0.129209
 62
0
  0
3DFACE
  8
Sphere3
 10
0.031823
 20
-0.232541
 30
0.129209
 11
0.037013
 21
-0.224929
 31
0.149058
 12
0.051807
 22
-0.237227
 32
0.149058
 13
0.045208
 23
-0.243701
 33
0.129209
 62
0
  0
3DFACE
  8
Sphere3
 10
0.016552
 20
-0.224249
 30
0.129209
 11
0.020134
 21
-0.215790
 31
0.149058
 12
0.037013
 22
-0.224929
 32
0.149058
 13
0.031823
 23
-0.232541
 33
0.129209
 62
0
  0
3DFACE
  8
Sphere3
 10
-0.000018
 20
-0.219142
 30
0.129209
 11
0.001820
 21
-0.210163
 31
0.149058
 12
0.020134
 22
-0.215790
 32
0.149058
 13
0.016552
 23
-0.224249
 33
0.129209
 62
0
  0
3DFACE
  8
Sphere3
 10
-0.017251
 20
-0.217418
 30
0.129209
 11
-0.017226
 21
-0.208263
 31
0.149058
 12
0.001820
 22
-0.210163
 32
0.149058
 13
-0.000018
 23
-0.219142
 33
0.129209
 62
0
  0
3DFACE
  8
Sphere3
 10
-0.034483
 20
-0.219142
 30
0.129209
 11
-0.036273
 21
-0.210163
 31
0.149058
 12
-0.017226
 22
-0.208263
 32
0.149058
 13
-0.017251
 23
-0.217418
 33
0.129209
 62
0
  0
3DFACE
  8
Sphere3
 10
-0.051053
 20
-0.224249
 30
0.129209
 11
-0.054587
 21
-0.215790
 31
0.149058
 12
-0.036273
 22
-0.210163
 32
0.149058
 13
-0.034483
 23
-0.219142
 33
0.129209
 62
0
  0
3DFACE
  8
Sphere3
 10
-0.066325
 20
-0.232541
 30
0.129209
 11
-0.071466
 21
-0.224929
 31
0.149058
 12
-0.054587
 22
-0.215790
 32
0.149058
 13
-0.051053
 23
-0.224249
 33
0.129209
 62
0
  0
3DFACE
  8
Sphere3
 10
-0.079710
 20
-0.243701
 30
0.129209
 11
-0.086260
 21
-0.237227
 31
0.149058
 12
-0.071466
 22
-0.224929
 32
0.149058
 13
-0.066325
 23
-0.232541
 33
0.129209
 62
0
  0
3DFACE
  8
Sphere3
 10
-0.090695
 20
-0.257298
 30
0.129209
 11
-0.098401
 21
-0.252212
 31
0.149058
 12
-0.086260
 22
-0.237227
 32
0.149058
 13
-0.079710
 23
-0.243701
 33
0.129209
 62
0
  0
3DFACE
  8
Sphere3
 10
-0.098858
 20
-0.272812
 30
0.129209
 11
-0.107423
 21
-0.269309
 31
0.149058
 12
-0.098401
 22
-0.252212
 32
0.149058
 13
-0.090695
 23
-0.257298
 33
0.129209
 62
0
  0
3DFACE
  8
Sphere3
 10
-0.103884
 20
-0.289646
 30
0.129209
 11
-0.112979
 21
-0.287859
 31
0.149058
 12
-0.107423
 22
-0.269309
 32
0.149058
 13
-0.098858
 23
-0.272812
 33
0.129209
 62
0
  0
3DFACE
  8
Sphere3
 10
-0.105581
 20
-0.307152
 30
0.129209
 11
-0.114854
 21
-0.307152
 31
0.149058
 12
-0.112979
 22
-0.287859
 32
0.149058
 13
-0.103884
 23
-0.289646
 33
0.129209
 62
0
  0
3DFACE
  8
Sphere3
 10
-0.103884
 20
-0.324658
 30
0.129209
 11
-0.112979
 21
-0.326444
 31
0.149058
 12
-0.114854
 22
-0.307152
 32
0.149058
 13
-0.105581
 23
-0.307152
 33
0.129209
 62
0
  0
3DFACE
  8
Sphere3
 10
-0.098858
 20
-0.341491
 30
0.129209
 11
-0.107423
 21
-0.344995
 31
0.149058
 12
-0.112979
 22
-0.326444
 32
0.149058
 13
-0.103884
 23
-0.324658
 33
0.129209
 62
0
  0
3DFACE
  8
Sphere3
 10
-0.090695
 20
-0.357005
 30
0.129209
 11
-0.098401
 21
-0.362091
 31
0.149058
 12
-0.107423
 22
-0.344995
 32
0.149058
 13
-0.098858
 23
-0.341491
 33
0.129209
 62
0
  0
3DFACE
  8
Sphere3
 10
-0.079710
 20
-0.370603
 30
0.129209
 11
-0.086260
 21
-0.377077
 31
0.149058
 12
-0.098401
 22
-0.362091
 32
0.149058
 13
-0.090695
 23
-0.357005
 33
0.129209
 62
0
  0
3DFACE
  8
Sphere3
 10
-0.066325
 20
-0.381762
 30
0.129209
 11
-0.071466
 21
-0.389375
 31
0.149058
 12
-0.086260
 22
-0.377077
 32
0.149058
 13
-0.079710
 23
-0.370603
 33
0.129209
 62
0
  0
3DFACE
  8
Sphere3
 10
-0.051053
 20
-0.390055
 30
0.129209
 11
-0.054587
 21
-0.398513
 31
0.149058
 12
-0.071466
 22
-0.389375
 32
0.149058
 13
-0.066325
 23
-0.381762
 33
0.129209
 62
0
  0
3DFACE
  8
Sphere3
 10
-0.034483
 20
-0.395161
 30
0.129209
 11
-0.036273
 21
-0.404141
 31
0.149058
 12
-0.054587
 22
-0.398513
 32
0.149058
 13
-0.051053
 23
-0.390055
 33
0.129209
 62
0
  0
3DFACE
  8
Sphere3
 10
-0.017251
 20
-0.396885
 30
0.129209
 11
-0.017226
 21
-0.406041
 31
0.149058
 12
-0.036273
 22
-0.404141
 32
0.149058
 13
-0.034483
 23
-0.395161
 33
0.129209
 62
0
  0
3DFACE
  8
Sphere3
 10
-0.000018
 20
-0.395161
 30
0.129209
 11
0.001820
 21
-0.404141
 31
0.149058
 12
-0.017226
 22
-0.406041
 32
0.149058
 13
-0.017251
 23
-0.396885
 33
0.129209
 62
0
  0
3DFACE
  8
Sphere3
 10
0.016552
 20
-0.390055
 30
0.129209
 11
0.020134
 21
-0.398513
 31
0.149058
 12
0.001820
 22
-0.404141
 32
0.149058
 13
-0.000018
 23
-0.395161
 33
0.129209
 62
0
  0
3DFACE
  8
Sphere3
 10
0.031823
 20
-0.381762
 30
0.129209
 11
0.037013
 21
-0.389375
 31
0.149058
 12
0.020134
 22
-0.398513
 32
0.149058
 13
0.016552
 23
-0.390055
 33
0.129209
 62
0
  0
3DFACE
  8
Sphere3
 10
0.045208
 20
-0.370603
 30
0.129209
 11
0.051807
 21
-0.377077
 31
0.149058
 12
0.037013
 22
-0.389375
 32
0.149058
 13
0.031823
 23
-0.381762
 33
0.129209
 62
0
  0
3DFACE
  8
Sphere3
 10
0.056193
 20
-0.357005
 30
0.129209
 11
0.063948
 21
-0.362091
 31
0.149058
 12
0.051807
 22
-0.377077
 32
0.149058
 13
0.045208
 23
-0.370603
 33
0.129209
 62
0
  0
3DFACE
  8
Sphere3
 10
0.064356
 20
-0.341491
 30
0.129209
 11
0.072970
 21
-0.344995
 31
0.149058
 12
0.063948
 22
-0.362091
 32
0.149058
 13
0.056193
 23
-0.357005
 33
0.129209
 62
0
  0
3DFACE
  8
Sphere3
 10
0.069382
 20
-0.324658
 30
0.129209
 11
0.078526
 21
-0.326444
 31
0.149058
 12
0.072970
 22
-0.344995
 32
0.149058
 13
0.064356
 23
-0.341491
 33
0.129209
 62
0
  0
3DFACE
  8
Sphere3
 10
0.057523
 20
-0.307152
 30
0.111334
 11
0.071080
 21
-0.307152
 31
0.129209
 12
0.069382
 22
-0.324658
 32
0.129209
 13
0.056086
 23
-0.321890
 33
0.111334
 62
0
  0
3DFACE
  8
Sphere3
 10
0.056086
 20
-0.292414
 30
0.111334
 11
0.069382
 21
-0.289646
 31
0.129209
 12
0.071080
 22
-0.307152
 32
0.129209
 13
0.057523
 23
-0.307152
 33
0.111334
 62
0
  0
3DFACE
  8
Sphere3
 10
0.051829
 20
-0.278242
 30
0.111334
 11
0.064356
 21
-0.272812
 31
0.129209
 12
0.069382
 22
-0.289646
 32
0.129209
 13
0.056086
 23
-0.292414
 33
0.111334
 62
0
  0
3DFACE
  8
Sphere3
 10
0.044917
 20
-0.265182
 30
0.111334
 11
0.056193
 21
-0.257298
 31
0.129209
 12
0.064356
 22
-0.272812
 32
0.129209
 13
0.051829
 23
-0.278242
 33
0.111334
 62
0
  0
3DFACE
  8
Sphere3
 10
0.035615
 20
-0.253734
 30
0.111334
 11
0.045208
 21
-0.243701
 31
0.129209
 12
0.056193
 22
-0.257298
 32
0.129209
 13
0.044917
 23
-0.265182
 33
0.111334
 62
0
  0
3DFACE
  8
Sphere3
 10
0.024280
 20
-0.244339
 30
0.111334
 11
0.031823
 21
-0.232541
 31
0.129209
 12
0.045208
 22
-0.243701
 32
0.129209
 13
0.035615
 23
-0.253734
 33
0.111334
 62
0
  0
3DFACE
  8
Sphere3
 10
0.011349
 20
-0.237358
 30
0.111334
 11
0.016552
 21
-0.224249
 31
0.129209
 12
0.031823
 22
-0.232541
 32
0.129209
 13
0.024280
 23
-0.244339
 33
0.111334
 62
0
  0
3DFACE
  8
Sphere3
 10
-0.002683
 20
-0.233059
 30
0.111334
 11
-0.000018
 21
-0.219142
 31
0.129209
 12
0.016552
 22
-0.224249
 32
0.129209
 13
0.011349
 23
-0.237358
 33
0.111334
 62
0
  0
3DFACE
  8
Sphere3
 10
-0.017275
 20
-0.231608
 30
0.111334
 11
-0.017251
 21
-0.217418
 31
0.129209
 12
-0.000018
 22
-0.219142
 32
0.129209
 13
-0.002683
 23
-0.233059
 33
0.111334
 62
0
  0
3DFACE
  8
Sphere3
 10
-0.031868
 20
-0.233059
 30
0.111334
 11
-0.034483
 21
-0.219142
 31
0.129209
 12
-0.017251
 22
-0.217418
 32
0.129209
 13
-0.017275
 23
-0.231608
 33
0.111334
 62
0
  0
3DFACE
  8
Sphere3
 10
-0.045899
 20
-0.237358
 30
0.111334
 11
-0.051053
 21
-0.224249
 31
0.129209
 12
-0.034483
 22
-0.219142
 32
0.129209
 13
-0.031868
 23
-0.233059
 33
0.111334
 62
0
  0
3DFACE
  8
Sphere3
 10
-0.058831
 20
-0.244339
 30
0.111334
 11
-0.066325
 21
-0.232541
 31
0.129209
 12
-0.051053
 22
-0.224249
 32
0.129209
 13
-0.045899
 23
-0.237358
 33
0.111334
 62
0
  0
3DFACE
  8
Sphere3
 10
-0.070166
 20
-0.253734
 30
0.111334
 11
-0.079710
 21
-0.243701
 31
0.129209
 12
-0.066325
 22
-0.232541
 32
0.129209
 13
-0.058831
 23
-0.244339
 33
0.111334
 62
0
  0
3DFACE
  8
Sphere3
 10
-0.079468
 20
-0.265182
 30
0.111334
 11
-0.090695
 21
-0.257298
 31
0.129209
 12
-0.079710
 22
-0.243701
 32
0.129209
 13
-0.070166
 23
-0.253734
 33
0.111334
 62
0
  0
3DFACE
  8
Sphere3
 10
-0.086380
 20
-0.278242
 30
0.111334
 11
-0.098858
 21
-0.272812
 31
0.129209
 12
-0.090695
 22
-0.257298
 32
0.129209
 13
-0.079468
 23
-0.265182
 33
0.111334
 62
0
  0
3DFACE
  8
Sphere3
 10
-0.090636
 20
-0.292414
 30
0.111334
 11
-0.103884
 21
-0.289646
 31
0.129209
 12
-0.098858
 22
-0.272812
 32
0.129209
 13
-0.086380
 23
-0.278242
 33
0.111334
 62
0
  0
3DFACE
  8
Sphere3
 10
-0.092074
 20
-0.307152
 30
0.111334
 11
-0.105581
 21
-0.307152
 31
0.129209
 12
-0.103884
 22
-0.289646
 32
0.129209
 13
-0.090636
 23
-0.292414
 33
0.111334
 62
0
  0
3DFACE
  8
Sphere3
 10
-0.090636
 20
-0.321890
 30
0.111334
 11
-0.103884
 21
-0.324658
 31
0.129209
 12
-0.105581
 22
-0.307152
 32
0.129209
 13
-0.092074
 23
-0.307152
 33
0.111334
 62
0
  0
3DFACE
  8
Sphere3
 10
-0.086380
 20
-0.336061
 30
0.111334
 11
-0.098858
 21
-0.341491
 31
0.129209
 12
-0.103884
 22
-0.324658
 32
0.129209
 13
-0.090636
 23
-0.321890
 33
0.111334
 62
0
  0
3DFACE
  8
Sphere3
 10
-0.079468
 20
-0.349122
 30
0.111334
 11
-0.090695
 21
-0.357005
 31
0.129209
 12
-0.098858
 22
-0.341491
 32
0.129209
 13
-0.086380
 23
-0.336061
 33
0.111334
 62
0
  0
3DFACE
  8
Sphere3
 10
-0.070166
 20
-0.360569
 30
0.111334
 11
-0.079710
 21
-0.370603
 31
0.129209
 12
-0.090695
 22
-0.357005
 32
0.129209
 13
-0.079468
 23
-0.349122
 33
0.111334
 62
0
  0
3DFACE
  8
Sphere3
 10
-0.058831
 20
-0.369964
 30
0.111334
 11
-0.066325
 21
-0.381762
 31
0.129209
 12
-0.079710
 22
-0.370603
 32
0.129209
 13
-0.070166
 23
-0.360569
 33
0.111334
 62
0
  0
3DFACE
  8
Sphere3
 10
-0.045899
 20
-0.376945
 30
0.111334
 11
-0.051053
 21
-0.390055
 31
0.129209
 12
-0.066325
 22
-0.381762
 32
0.129209
 13
-0.058831
 23
-0.369964
 33
0.111334
 62
0
  0
3DFACE
  8
Sphere3
 10
-0.031868
 20
-0.381244
 30
0.111334
 11
-0.034483
 21
-0.395161
 31
0.129209
 12
-0.051053
 22
-0.390055
 32
0.129209
 13
-0.045899
 23
-0.376945
 33
0.111334
 62
0
  0
3DFACE
  8
Sphere3
 10
-0.017275
 20
-0.382695
 30
0.111334
 11
-0.017251
 21
-0.396885
 31
0.129209
 12
-0.034483
 22
-0.395161
 32
0.129209
 13
-0.031868
 23
-0.381244
 33
0.111334
 62
0
  0
3DFACE
  8
Sphere3
 10
-0.002683
 20
-0.381244
 30
0.111334
 11
-0.000018
 21
-0.395161
 31
0.129209
 12
-0.017251
 22
-0.396885
 32
0.129209
 13
-0.017275
 23
-0.382695
 33
0.111334
 62
0
  0
3DFACE
  8
Sphere3
 10
0.011349
 20
-0.376945
 30
0.111334
 11
0.016552
 21
-0.390055
 31
0.129209
 12
-0.000018
 22
-0.395161
 32
0.129209
 13
-0.002683
 23
-0.381244
 33
0.111334
 62
0
  0
3DFACE
  8
Sphere3
 10
0.024280
 20
-0.369964
 30
0.111334
 11
0.031823
 21
-0.381762
 31
0.129209
 12
0.016552
 22
-0.390055
 32
0.129209
 13
0.011349
 23
-0.376945
 33
0.111334
 62
0
  0
3DFACE
  8
Sphere3
 10
0.035615
 20
-0.360569
 30
0.111334
 11
0.045208
 21
-0.370603
 31
0.129209
 12
0.031823
 22
-0.381762
 32
0.129209
 13
0.024280
 23
-0.369964
 33
0.111334
 62
0
  0
3DFACE
  8
Sphere3
 10
0.044917
 20
-0.349122
 30
0.111334
 11
0.056193
 21
-0.357005
 31
0.129209
 12
0.045208
 22
-0.370603
 32
0.129209
 13
0.035615
 23
-0.360569
 33
0.111334
 62
0
  0
3DFACE
  8
Sphere3
 10
0.051829
 20
-0.336061
 30
0.111334
 11
0.064356
 21
-0.341491
 31
0.129209
 12
0.056193
 22
-0.357005
 32
0.129209
 13
0.044917
 23
-0.349122
 33
0.111334
 62
0
  0
3DFACE
  8
Sphere3
 10
0.056086
 20
-0.321890
 30
0.111334
 11
0.069382
 21
-0.324658
 31
0.129209
 12
0.064356
 22
-0.341491
 32
0.129209
 13
0.051829
 23
-0.336061
 33
0.111334
 62
0
  0
3DFACE
  8
Sphere3
 10
0.042541
 20
-0.307152
 30
0.096928
 11
0.057523
 21
-0.307152
 31
0.111334
 12
0.056086
 22
-0.321890
 32
0.111334
 13
0.041392
 23
-0.318874
 33
0.096928
 62
0
  0
3DFACE
  8
Sphere3
 10
0.041392
 20
-0.295430
 30
0.096928
 11
0.056086
 21
-0.292414
 31
0.111334
 12
0.057523
 22
-0.307152
 32
0.111334
 13
0.042541
 23
-0.307152
 33
0.096928
 62
0
  0
3DFACE
  8
Sphere3
 10
0.037986
 20
-0.284158
 30
0.096928
 11
0.051829
 21
-0.278242
 31
0.111334
 12
0.056086
 22
-0.292414
 32
0.111334
 13
0.041392
 23
-0.295430
 33
0.096928
 62
0
  0
3DFACE
  8
Sphere3
 10
0.032456
 20
-0.273770
 30
0.096928
 11
0.044917
 21
-0.265182
 31
0.111334
 12
0.051829
 22
-0.278242
 32
0.111334
 13
0.037986
 23
-0.284158
 33
0.096928
 62
0
  0
3DFACE
  8
Sphere3
 10
0.025014
 20
-0.264665
 30
0.096928
 11
0.035615
 21
-0.253734
 31
0.111334
 12
0.044917
 22
-0.265182
 32
0.111334
 13
0.032456
 23
-0.273770
 33
0.096928
 62
0
  0
3DFACE
  8
Sphere3
 10
0.015946
 20
-0.257193
 30
0.096928
 11
0.024280
 21
-0.244339
 31
0.111334
 12
0.035615
 22
-0.253734
 32
0.111334
 13
0.025014
 23
-0.264665
 33
0.096928
 62
0
  0
3DFACE
  8
Sphere3
 10
0.005601
 20
-0.251640
 30
0.096928
 11
0.011349
 21
-0.237358
 31
0.111334
 12
0.024280
 22
-0.244339
 32
0.111334
 13
0.015946
 23
-0.257193
 33
0.096928
 62
0
  0
3DFACE
  8
Sphere3
 10
-0.005625
 20
-0.248221
 30
0.096928
 11
-0.002683
 21
-0.233059
 31
0.111334
 12
0.011349
 22
-0.237358
 32
0.111334
 13
0.005601
 23
-0.251640
 33
0.096928
 62
0
  0
3DFACE
  8
Sphere3
 10
-0.017300
 20
-0.247066
 30
0.096928
 11
-0.017275
 21
-0.231608
 31
0.111334
 12
-0.002683
 22
-0.233059
 32
0.111334
 13
-0.005625
 23
-0.248221
 33
0.096928
 62
0
  0
3DFACE
  8
Sphere3
 10
-0.028974
 20
-0.248221
 30
0.096928
 11
-0.031868
 21
-0.233059
 31
0.111334
 12
-0.017275
 22
-0.231608
 32
0.111334
 13
-0.017300
 23
-0.247066
 33
0.096928
 62
0
  0
3DFACE
  8
Sphere3
 10
-0.040200
 20
-0.251640
 30
0.096928
 11
-0.045899
 21
-0.237358
 31
0.111334
 12
-0.031868
 22
-0.233059
 32
0.111334
 13
-0.028974
 23
-0.248221
 33
0.096928
 62
0
  0
3DFACE
  8
Sphere3
 10
-0.050546
 20
-0.257193
 30
0.096928
 11
-0.058831
 21
-0.244339
 31
0.111334
 12
-0.045899
 22
-0.237358
 32
0.111334
 13
-0.040200
 23
-0.251640
 33
0.096928
 62
0
  0
3DFACE
  8
Sphere3
 10
-0.059614
 20
-0.264665
 30
0.096928
 11
-0.070166
 21
-0.253734
 31
0.111334
 12
-0.058831
 22
-0.244339
 32
0.111334
 13
-0.050546
 23
-0.257193
 33
0.096928
 62
0
  0
3DFACE
  8
Sphere3
 10
-0.067056
 20
-0.273770
 30
0.096928
 11
-0.079468
 21
-0.265182
 31
0.111334
 12
-0.070166
 22
-0.253734
 32
0.111334
 13
-0.059614
 23
-0.264665
 33
0.096928
 62
0
  0
3DFACE
  8
Sphere3
 10
-0.072586
 20
-0.284158
 30
0.096928
 11
-0.086380
 21
-0.278242
 31
0.111334
 12
-0.079468
 22
-0.265182
 32
0.111334
 13
-0.067056
 23
-0.273770
 33
0.096928
 62
0
  0
3DFACE
  8
Sphere3
 10
-0.075991
 20
-0.295430
 30
0.096928
 11
-0.090636
 21
-0.292414
 31
0.111334
 12
-0.086380
 22
-0.278242
 32
0.111334
 13
-0.072586
 23
-0.284158
 33
0.096928
 62
0
  0
3DFACE
  8
Sphere3
 10
-0.077141
 20
-0.307152
 30
0.096928
 11
-0.092074
 21
-0.307152
 31
0.111334
 12
-0.090636
 22
-0.292414
 32
0.111334
 13
-0.075991
 23
-0.295430
 33
0.096928
 62
0
  0
3DFACE
  8
Sphere3
 10
-0.075991
 20
-0.318874
 30
0.096928
 11
-0.090636
 21
-0.321890
 31
0.111334
 12
-0.092074
 22
-0.307152
 32
0.111334
 13
-0.077141
 23
-0.307152
 33
0.096928
 62
0
  0
3DFACE
  8
Sphere3
 10
-0.072586
 20
-0.330145
 30
0.096928
 11
-0.086380
 21
-0.336061
 31
0.111334
 12
-0.090636
 22
-0.321890
 32
0.111334
 13
-0.075991
 23
-0.318874
 33
0.096928
 62
0
  0
3DFACE
  8
Sphere3
 10
-0.067056
 20
-0.340533
 30
0.096928
 11
-0.079468
 21
-0.349122
 31
0.111334
 12
-0.086380
 22
-0.336061
 32
0.111334
 13
-0.072586
 23
-0.330145
 33
0.096928
 62
0
  0
3DFACE
  8
Sphere3
 10
-0.059614
 20
-0.349638
 30
0.096928
 11
-0.070166
 21
-0.360569
 31
0.111334
 12
-0.079468
 22
-0.349122
 32
0.111334
 13
-0.067056
 23
-0.340533
 33
0.096928
 62
0
  0
3DFACE
  8
Sphere3
 10
-0.050546
 20
-0.357111
 30
0.096928
 11
-0.058831
 21
-0.369964
 31
0.111334
 12
-0.070166
 22
-0.360569
 32
0.111334
 13
-0.059614
 23
-0.349638
 33
0.096928
 62
0
  0
3DFACE
  8
Sphere3
 10
-0.040200
 20
-0.362663
 30
0.096928
 11
-0.045899
 21
-0.376945
 31
0.111334
 12
-0.058831
 22
-0.369964
 32
0.111334
 13
-0.050546
 23
-0.357111
 33
0.096928
 62
0
  0
3DFACE
  8
Sphere3
 10
-0.028974
 20
-0.366082
 30
0.096928
 11
-0.031868
 21
-0.381244
 31
0.111334
 12
-0.045899
 22
-0.376945
 32
0.111334
 13
-0.040200
 23
-0.362663
 33
0.096928
 62
0
  0
3DFACE
  8
Sphere3
 10
-0.017300
 20
-0.367237
 30
0.096928
 11
-0.017275
 21
-0.382695
 31
0.111334
 12
-0.031868
 22
-0.381244
 32
0.111334
 13
-0.028974
 23
-0.366082
 33
0.096928
 62
0
  0
3DFACE
  8
Sphere3
 10
-0.005625
 20
-0.366082
 30
0.096928
 11
-0.002683
 21
-0.381244
 31
0.111334
 12
-0.017275
 22
-0.382695
 32
0.111334
 13
-0.017300
 23
-0.367237
 33
0.096928
 62
0
  0
3DFACE
  8
Sphere3
 10
0.005601
 20
-0.362663
 30
0.096928
 11
0.011349
 21
-0.376945
 31
0.111334
 12
-0.002683
 22
-0.381244
 32
0.111334
 13
-0.005625
 23
-0.366082
 33
0.096928
 62
0
  0
3DFACE
  8
Sphere3
 10
0.015946
 20
-0.357111
 30
0.096928
 11
0.024280
 21
-0.369964
 31
0.111334
 12
0.011349
 22
-0.376945
 32
0.111334
 13
0.005601
 23
-0.362663
 33
0.096928
 62
0
  0
3DFACE
  8
Sphere3
 10
0.025014
 20
-0.349638
 30
0.096928
 11
0.035615
 21
-0.360569
 31
0.111334
 12
0.024280
 22
-0.369964
 32
0.111334
 13
0.015946
 23
-0.357111
 33
0.096928
 62
0
  0
3DFACE
  8
Sphere3
 10
0.032456
 20
-0.340533
 30
0.096928
 11
0.044917
 21
-0.349122
 31
0.111334
 12
0.035615
 22
-0.360569
 32
0.111334
 13
0.025014
 23
-0.349638
 33
0.096928
 62
0
  0
3DFACE
  8
Sphere3
 10
0.037986
 20
-0.330145
 30
0.096928
 11
0.051829
 21
-0.336061
 31
0.111334
 12
0.044917
 22
-0.349122
 32
0.111334
 13
0.032456
 23
-0.340533
 33
0.096928
 62
0
  0
3DFACE
  8
Sphere3
 10
0.041392
 20
-0.318874
 30
0.096928
 11
0.056086
 21
-0.321890
 31
0.111334
 12
0.051829
 22
-0.336061
 32
0.111334
 13
0.037986
 23
-0.330145
 33
0.096928
 62
0
  0
3DFACE
  8
Sphere3
 10
0.022301
 20
-0.307152
 30
0.086321
 11
0.042541
 21
-0.307152
 31
0.096928
 12
0.041392
 22
-0.318874
 32
0.096928
 13
0.021539
 23
-0.314868
 33
0.086321
 62
0
  0
3DFACE
  8
Sphere3
 10
0.021539
 20
-0.299435
 30
0.086321
 11
0.041392
 21
-0.295430
 31
0.096928
 12
0.042541
 22
-0.307152
 32
0.096928
 13
0.022301
 23
-0.307152
 33
0.086321
 62
0
  0
3DFACE
  8
Sphere3
 10
0.019285
 20
-0.292015
 30
0.086321
 11
0.037986
 21
-0.284158
 31
0.096928
 12
0.041392
 22
-0.295430
 32
0.096928
 13
0.021539
 23
-0.299435
 33
0.086321
 62
0
  0
3DFACE
  8
Sphere3
 10
0.015623
 20
-0.285176
 30
0.086321
 11
0.032456
 21
-0.273770
 31
0.096928
 12
0.037986
 22
-0.284158
 32
0.096928
 13
0.019285
 23
-0.292015
 33
0.086321
 62
0
  0
3DFACE
  8
Sphere3
 10
0.010695
 20
-0.279182
 30
0.086321
 11
0.025014
 21
-0.264665
 31
0.096928
 12
0.032456
 22
-0.273770
 32
0.096928
 13
0.015623
 23
-0.285176
 33
0.086321
 62
0
  0
3DFACE
  8
Sphere3
 10
0.004690
 20
-0.274263
 30
0.086321
 11
0.015946
 21
-0.257193
 31
0.096928
 12
0.025014
 22
-0.264665
 32
0.096928
 13
0.010695
 23
-0.279182
 33
0.086321
 62
0
  0
3DFACE
  8
Sphere3
 10
-0.002160
 20
-0.270608
 30
0.086321
 11
0.005601
 21
-0.251640
 31
0.096928
 12
0.015946
 22
-0.257193
 32
0.096928
 13
0.004690
 23
-0.274263
 33
0.086321
 62
0
  0
3DFACE
  8
Sphere3
 10
-0.009594
 20
-0.268357
 30
0.086321
 11
-0.005625
 21
-0.248221
 31
0.096928
 12
0.005601
 22
-0.251640
 32
0.096928
 13
-0.002160
 23
-0.270608
 33
0.086321
 62
0
  0
3DFACE
  8
Sphere3
 10
-0.017324
 20
-0.267597
 30
0.086321
 11
-0.017300
 21
-0.247066
 31
0.096928
 12
-0.005625
 22
-0.248221
 32
0.096928
 13
-0.009594
 23
-0.268357
 33
0.086321
 62
0
  0
3DFACE
  8
Sphere3
 10
-0.025055
 20
-0.268357
 30
0.086321
 11
-0.028974
 21
-0.248221
 31
0.096928
 12
-0.017300
 22
-0.247066
 32
0.096928
 13
-0.017324
 23
-0.267597
 33
0.086321
 62
0
  0
3DFACE
  8
Sphere3
 10
-0.032488
 20
-0.270608
 30
0.086321
 11
-0.040200
 21
-0.251640
 31
0.096928
 12
-0.028974
 22
-0.248221
 32
0.096928
 13
-0.025055
 23
-0.268357
 33
0.086321
 62
0
  0
3DFACE
  8
Sphere3
 10
-0.039338
 20
-0.274263
 30
0.086321
 11
-0.050546
 21
-0.257193
 31
0.096928
 12
-0.040200
 22
-0.251640
 32
0.096928
 13
-0.032488
 23
-0.270608
 33
0.086321
 62
0
  0
3DFACE
  8
Sphere3
 10
-0.045343
 20
-0.279182
 30
0.086321
 11
-0.059614
 21
-0.264665
 31
0.096928
 12
-0.050546
 22
-0.257193
 32
0.096928
 13
-0.039338
 23
-0.274263
 33
0.086321
 62
0
  0
3DFACE
  8
Sphere3
 10
-0.050271
 20
-0.285176
 30
0.086321
 11
-0.067056
 21
-0.273770
 31
0.096928
 12
-0.059614
 22
-0.264665
 32
0.096928
 13
-0.045343
 23
-0.279182
 33
0.086321
 62
0
  0
3DFACE
  8
Sphere3
 10
-0.053933
 20
-0.292015
 30
0.086321
 11
-0.072586
 21
-0.284158
 31
0.096928
 12
-0.067056
 22
-0.273770
 32
0.096928
 13
-0.050271
 23
-0.285176
 33
0.086321
 62
0
  0
3DFACE
  8
Sphere3
 10
-0.056188
 20
-0.299435
 30
0.086321
 11
-0.075991
 21
-0.295430
 31
0.096928
 12
-0.072586
 22
-0.284158
 32
0.096928
 13
-0.053933
 23
-0.292015
 33
0.086321
 62
0
  0
3DFACE
  8
Sphere3
 10
-0.056949
 20
-0.307152
 30
0.086321
 11
-0.077141
 21
-0.307152
 31
0.096928
 12
-0.075991
 22
-0.295430
 32
0.096928
 13
-0.056188
 23
-0.299435
 33
0.086321
 62
0
  0
3DFACE
  8
Sphere3
 10
-0.056188
 20
-0.314868
 30
0.086321
 11
-0.075991
 21
-0.318874
 31
0.096928
 12
-0.077141
 22
-0.307152
 32
0.096928
 13
-0.056949
 23
-0.307152
 33
0.086321
 62
0
  0
3DFACE
  8
Sphere3
 10
-0.053933
 20
-0.322289
 30
0.086321
 11
-0.072586
 21
-0.330145
 31
0.096928
 12
-0.075991
 22
-0.318874
 32
0.096928
 13
-0.056188
 23
-0.314868
 33
0.086321
 62
0
  0
3DFACE
  8
Sphere3
 10
-0.050271
 20
-0.329127
 30
0.086321
 11
-0.067056
 21
-0.340533
 31
0.096928
 12
-0.072586
 22
-0.330145
 32
0.096928
 13
-0.053933
 23
-0.322289
 33
0.086321
 62
0
  0
3DFACE
  8
Sphere3
 10
-0.045343
 20
-0.335121
 30
0.086321
 11
-0.059614
 21
-0.349638
 31
0.096928
 12
-0.067056
 22
-0.340533
 32
0.096928
 13
-0.050271
 23
-0.329127
 33
0.086321
 62
0
  0
3DFACE
  8
Sphere3
 10
-0.039338
 20
-0.340040
 30
0.086321
 11
-0.050546
 21
-0.357111
 31
0.096928
 12
-0.059614
 22
-0.349638
 32
0.096928
 13
-0.045343
 23
-0.335121
 33
0.086321
 62
0
  0
3DFACE
  8
Sphere3
 10
-0.032488
 20
-0.343695
 30
0.086321
 11
-0.040200
 21
-0.362663
 31
0.096928
 12
-0.050546
 22
-0.357111
 32
0.096928
 13
-0.039338
 23
-0.340040
 33
0.086321
 62
0
  0
3DFACE
  8
Sphere3
 10
-0.025055
 20
-0.345946
 30
0.086321
 11
-0.028974
 21
-0.366082
 31
0.096928
 12
-0.040200
 22
-0.362663
 32
0.096928
 13
-0.032488
 23
-0.343695
 33
0.086321
 62
0
  0
3DFACE
  8
Sphere3
 10
-0.017324
 20
-0.346706
 30
0.086321
 11
-0.017300
 21
-0.367237
 31
0.096928
 12
-0.028974
 22
-0.366082
 32
0.096928
 13
-0.025055
 23
-0.345946
 33
0.086321
 62
0
  0
3DFACE
  8
Sphere3
 10
-0.009594
 20
-0.345946
 30
0.086321
 11
-0.005625
 21
-0.366082
 31
0.096928
 12
-0.017300
 22
-0.367237
 32
0.096928
 13
-0.017324
 23
-0.346706
 33
0.086321
 62
0
  0
3DFACE
  8
Sphere3
 10
-0.002160
 20
-0.343695
 30
0.086321
 11
0.005601
 21
-0.362663
 31
0.096928
 12
-0.005625
 22
-0.366082
 32
0.096928
 13
-0.009594
 23
-0.345946
 33
0.086321
 62
0
  0
3DFACE
  8
Sphere3
 10
0.004690
 20
-0.340040
 30
0.086321
 11
0.015946
 21
-0.357111
 31
0.096928
 12
0.005601
 22
-0.362663
 32
0.096928
 13
-0.002160
 23
-0.343695
 33
0.086321
 62
0
  0
3DFACE
  8
Sphere3
 10
0.010695
 20
-0.335121
 30
0.086321
 11
0.025014
 21
-0.349638
 31
0.096928
 12
0.015946
 22
-0.357111
 32
0.096928
 13
0.004690
 23
-0.340040
 33
0.086321
 62
0
  0
3DFACE
  8
Sphere3
 10
0.015623
 20
-0.329127
 30
0.086321
 11
0.032456
 21
-0.340533
 31
0.096928
 12
0.025014
 22
-0.349638
 32
0.096928
 13
0.010695
 23
-0.335121
 33
0.086321
 62
0
  0
3DFACE
  8
Sphere3
 10
0.019285
 20
-0.322289
 30
0.086321
 11
0.037986
 21
-0.330145
 31
0.096928
 12
0.032456
 22
-0.340533
 32
0.096928
 13
0.015623
 23
-0.329127
 33
0.086321
 62
0
  0
3DFACE
  8
Sphere3
 10
0.021539
 20
-0.314868
 30
0.086321
 11
0.041392
 21
-0.318874
 31
0.096928
 12
0.037986
 22
-0.330145
 32
0.096928
 13
0.019285
 23
-0.322289
 33
0.086321
 62
0
  0
3DFACE
  8
Sphere3
 10
0.003800
 20
-0.308225
 30
0.081000
 11
0.022301
 21
-0.307152
 31
0.086321
 12
0.021539
 22
-0.314868
 32
0.086321
 13
0.003394
 23
-0.312296
 33
0.081000
 62
0
  0
3DFACE
  8
Sphere3
 10
0.003394
 20
-0.304155
 30
0.081000
 11
0.021539
 21
-0.299435
 31
0.086321
 12
0.022301
 22
-0.307152
 32
0.086321
 13
0.003800
 23
-0.308225
 33
0.081000
 62
0
  0
3DFACE
  8
Sphere3
 10
0.002190
 20
-0.300240
 30
0.081000
 11
0.019285
 21
-0.292015
 31
0.086321
 12
0.021539
 22
-0.299435
 32
0.086321
 13
0.003394
 23
-0.304155
 33
0.081000
 62
0
  0
3DFACE
  8
Sphere3
 10
0.000236
 20
-0.296633
 30
0.081000
 11
0.015623
 21
-0.285176
 31
0.086321
 12
0.019285
 22
-0.292015
 32
0.086321
 13
0.002190
 23
-0.300240
 33
0.081000
 62
0
  0
3DFACE
  8
Sphere3
 10
-0.002394
 20
-0.293471
 30
0.081000
 11
0.010695
 21
-0.279182
 31
0.086321
 12
0.015623
 22
-0.285176
 32
0.086321
 13
0.000236
 23
-0.296633
 33
0.081000
 62
0
  0
3DFACE
  8
Sphere3
 10
-0.005599
 20
-0.290876
 30
0.081000
 11
0.004690
 21
-0.274263
 31
0.086321
 12
0.010695
 22
-0.279182
 32
0.086321
 13
-0.002394
 23
-0.293471
 33
0.081000
 62
0
  0
3DFACE
  8
Sphere3
 10
-0.009255
 20
-0.288948
 30
0.081000
 11
-0.002160
 21
-0.270608
 31
0.086321
 12
0.004690
 22
-0.274263
 32
0.086321
 13
-0.005599
 23
-0.290876
 33
0.081000
 62
0
  0
3DFACE
  8
Sphere3
 10
-0.013223
 20
-0.287761
 30
0.081000
 11
-0.009594
 21
-0.268357
 31
0.086321
 12
-0.002160
 22
-0.270608
 32
0.086321
 13
-0.009255
 23
-0.288948
 33
0.081000
 62
0
  0
3DFACE
  8
Sphere3
 10
-0.017348
 20
-0.287360
 30
0.081000
 11
-0.017324
 21
-0.267597
 31
0.086321
 12
-0.009594
 22
-0.268357
 32
0.086321
 13
-0.013223
 23
-0.287761
 33
0.081000
 62
0
  0
3DFACE
  8
Sphere3
 10
-0.021474
 20
-0.287761
 30
0.081000
 11
-0.025055
 21
-0.268357
 31
0.086321
 12
-0.017324
 22
-0.267597
 32
0.086321
 13
-0.017348
 23
-0.287360
 33
0.081000
 62
0
  0
3DFACE
  8
Sphere3
 10
-0.025442
 20
-0.288948
 30
0.081000
 11
-0.032488
 21
-0.270608
 31
0.086321
 12
-0.025055
 22
-0.268357
 32
0.086321
 13
-0.021474
 23
-0.287761
 33
0.081000
 62
0
  0
3DFACE
  8
Sphere3
 10
-0.029098
 20
-0.290876
 30
0.081000
 11
-0.039338
 21
-0.274263
 31
0.086321
 12
-0.032488
 22
-0.270608
 32
0.086321
 13
-0.025442
 23
-0.288948
 33
0.081000
 62
0
  0
3DFACE
  8
Sphere3
 10
-0.032303
 20
-0.293471
 30
0.081000
 11
-0.045343
 21
-0.279182
 31
0.086321
 12
-0.039338
 22
-0.274263
 32
0.086321
 13
-0.029098
 23
-0.290876
 33
0.081000
 62
0
  0
3DFACE
  8
Sphere3
 10
-0.034933
 20
-0.296633
 30
0.081000
 11
-0.050271
 21
-0.285176
 31
0.086321
 12
-0.045343
 22
-0.279182
 32
0.086321
 13
-0.032303
 23
-0.293471
 33
0.081000
 62
0
  0
3DFACE
  8
Sphere3
 10
-0.036887
 20
-0.300240
 30
0.081000
 11
-0.053933
 21
-0.292015
 31
0.086321
 12
-0.050271
 22
-0.285176
 32
0.086321
 13
-0.034933
 23
-0.296633
 33
0.081000
 62
0
  0
3DFACE
  8
Sphere3
 10
-0.038091
 20
-0.304155
 30
0.081000
 11
-0.056188
 21
-0.299435
 31
0.086321
 12
-0.053933
 22
-0.292015
 32
0.086321
 13
-0.036887
 23
-0.300240
 33
0.081000
 62
0
  0
3DFACE
  8
Sphere3
 10
-0.038497
 20
-0.308225
 30
0.081000
 11
-0.056949
 21
-0.307152
 31
0.086321
 12
-0.056188
 22
-0.299435
 32
0.086321
 13
-0.038091
 23
-0.304155
 33
0.081000
 62
0
  0
3DFACE
  8
Sphere3
 10
-0.038091
 20
-0.312296
 30
0.081000
 11
-0.056188
 21
-0.314868
 31
0.086321
 12
-0.056949
 22
-0.307152
 32
0.086321
 13
-0.038497
 23
-0.308225
 33
0.081000
 62
0
  0
3DFACE
  8
Sphere3
 10
-0.036887
 20
-0.316210
 30
0.081000
 11
-0.053933
 21
-0.322289
 31
0.086321
 12
-0.056188
 22
-0.314868
 32
0.086321
 13
-0.038091
 23
-0.312296
 33
0.081000
 62
0
  0
3DFACE
  8
Sphere3
 10
-0.034933
 20
-0.319818
 30
0.081000
 11
-0.050271
 21
-0.329127
 31
0.086321
 12
-0.053933
 22
-0.322289
 32
0.086321
 13
-0.036887
 23
-0.316210
 33
0.081000
 62
0
  0
3DFACE
  8
Sphere3
 10
-0.032303
 20
-0.322980
 30
0.081000
 11
-0.045343
 21
-0.335121
 31
0.086321
 12
-0.050271
 22
-0.329127
 32
0.086321
 13
-0.034933
 23
-0.319818
 33
0.081000
 62
0
  0
3DFACE
  8
Sphere3
 10
-0.029098
 20
-0.325575
 30
0.081000
 11
-0.039338
 21
-0.340040
 31
0.086321
 12
-0.045343
 22
-0.335121
 32
0.086321
 13
-0.032303
 23
-0.322980
 33
0.081000
 62
0
  0
3DFACE
  8
Sphere3
 10
-0.025442
 20
-0.327503
 30
0.081000
 11
-0.032488
 21
-0.343695
 31
0.086321
 12
-0.039338
 22
-0.340040
 32
0.086321
 13
-0.029098
 23
-0.325575
 33
0.081000
 62
0
  0
3DFACE
  8
Sphere3
 10
-0.021474
 20
-0.328690
 30
0.081000
 11
-0.025055
 21
-0.345946
 31
0.086321
 12
-0.032488
 22
-0.343695
 32
0.086321
 13
-0.025442
 23
-0.327503
 33
0.081000
 62
0
  0
3DFACE
  8
Sphere3
 10
-0.017348
 20
-0.329091
 30
0.081000
 11
-0.017324
 21
-0.346706
 31
0.086321
 12
-0.025055
 22
-0.345946
 32
0.086321
 13
-0.021474
 23
-0.328690
 33
0.081000
 62
0
  0
3DFACE
  8
Sphere3
 10
-0.013223
 20
-0.328690
 30
0.081000
 11
-0.009594
 21
-0.345946
 31
0.086321
 12
-0.017324
 22
-0.346706
 32
0.086321
 13
-0.017348
 23
-0.329091
 33
0.081000
 62
0
  0
3DFACE
  8
Sphere3
 10
-0.009255
 20
-0.327503
 30
0.081000
 11
-0.002160
 21
-0.343695
 31
0.086321
 12
-0.009594
 22
-0.345946
 32
0.086321
 13
-0.013223
 23
-0.328690
 33
0.081000
 62
0
  0
3DFACE
  8
Sphere3
 10
-0.005599
 20
-0.325575
 30
0.081000
 11
0.004690
 21
-0.340040
 31
0.086321
 12
-0.002160
 22
-0.343695
 32
0.086321
 13
-0.009255
 23
-0.327503
 33
0.081000
 62
0
  0
3DFACE
  8
Sphere3
 10
-0.002394
 20
-0.322980
 30
0.081000
 11
0.010695
 21
-0.335121
 31
0.086321
 12
0.004690
 22
-0.340040
 32
0.086321
 13
-0.005599
 23
-0.325575
 33
0.081000
 62
0
  0
3DFACE
  8
Sphere3
 10
0.000236
 20
-0.319818
 30
0.081000
 11
0.015623
 21
-0.329127
 31
0.086321
 12
0.010695
 22
-0.335121
 32
0.086321
 13
-0.002394
 23
-0.322980
 33
0.081000
 62
0
  0
3DFACE
  8
Sphere3
 10
0.002190
 20
-0.316210
 30
0.081000
 11
0.019285
 21
-0.322289
 31
0.086321
 12
0.015623
 22
-0.329127
 32
0.086321
 13
0.000236
 23
-0.319818
 33
0.081000
 62
0
  0
3DFACE
  8
Sphere3
 10
0.003394
 20
-0.312296
 30
0.081000
 11
0.021539
 21
-0.314868
 31
0.086321
 12
0.019285
 22
-0.322289
 32
0.086321
 13
0.002190
 23
-0.316210
 33
0.081000
 62
0
 0
ENDSEC
 0
EOF
